<?xml version="1.0" encoding="UTF-8" standalone="no"?>
<!DOCTYPE svg PUBLIC "-//W3C//DTD SVG 1.1//EN"
 "http://www.w3.org/Graphics/SVG/1.1/DTD/svg11.dtd">
<!-- Generated by graphviz version 2.36.0 (20140111.2315)
 -->
<!-- Title: scg::CameraController Pages: 1 -->
<svg width="444pt" height="356pt"
 viewBox="0.00 0.00 444.00 356.00" xmlns="http://www.w3.org/2000/svg" xmlns:xlink="http://www.w3.org/1999/xlink">
<g id="graph0" class="graph" transform="scale(1 1) rotate(0) translate(4 352)">
<title>scg::CameraController</title>
<polygon fill="white" stroke="none" points="-4,4 -4,-352 440,-352 440,4 -4,4"/>
<!-- Node1 -->
<g id="node1" class="node"><title>Node1</title>
<polygon fill="#bfbfbf" stroke="black" points="12.9863,-1 12.9863,-17 109.014,-17 109.014,-1 12.9863,-1"/>
<text text-anchor="middle" x="61" y="-6.6" font-family="Helvetica,sans-Serif" font-size="8.00">scg::CameraController</text>
</g>
<!-- Node2 -->
<g id="node2" class="node"><title>Node2</title>
<g id="a_node2"><a xlink:href="../../de/de4/classscg_1_1_controller.html" target="_top" xlink:title="Base class for all controllers (abstract). ">
<polygon fill="white" stroke="black" points="-0.787109,-63 -0.787109,-79 66.7871,-79 66.7871,-63 -0.787109,-63"/>
<text text-anchor="middle" x="33" y="-68.6" font-family="Helvetica,sans-Serif" font-size="8.00">scg::Controller</text>
</a>
</g>
</g>
<!-- Node2&#45;&gt;Node1 -->
<g id="edge1" class="edge"><title>Node2&#45;&gt;Node1</title>
<path fill="none" stroke="midnightblue" d="M40.788,-53.3114C46.3615,-41.3683 53.5826,-25.8945 57.7126,-17.0444"/>
<polygon fill="midnightblue" stroke="midnightblue" points="37.4906,-52.1009 36.4333,-62.6428 43.8339,-55.0611 37.4906,-52.1009"/>
</g>
<!-- Node3 -->
<g id="node3" class="node"><title>Node3</title>
<g id="a_node3"><a xlink:href="../../d4/dc9/classscg_1_1_camera.html" target="_top" xlink:title="Base class for all cameras (composite node, abstract). ">
<polygon fill="white" stroke="black" points="84.3262,-63 84.3262,-79 145.674,-79 145.674,-63 84.3262,-63"/>
<text text-anchor="middle" x="115" y="-68.6" font-family="Helvetica,sans-Serif" font-size="8.00">scg::Camera</text>
</a>
</g>
</g>
<!-- Node3&#45;&gt;Node1 -->
<g id="edge2" class="edge"><title>Node3&#45;&gt;Node1</title>
<path fill="none" stroke="#9a32cd" stroke-dasharray="5,2" d="M101.583,-55.0927C90.6533,-42.9482 75.7074,-26.3415 67.34,-17.0444"/>
<polygon fill="#9a32cd" stroke="#9a32cd" points="99.0873,-57.5512 108.379,-62.6428 104.29,-52.8685 99.0873,-57.5512"/>
<text text-anchor="middle" x="108.674" y="-37.6" font-family="Helvetica,sans-Serif" font-size="8.00"> camera_</text>
</g>
<!-- Node4 -->
<g id="node4" class="node"><title>Node4</title>
<g id="a_node4"><a xlink:href="../../d0/d99/classscg_1_1_transformation.html" target="_top" xlink:title="A transformation node to be used to appy a transformation to the sub&#45;tree (composite node)...">
<polygon fill="white" stroke="black" points="71.8008,-119 71.8008,-135 158.199,-135 158.199,-119 71.8008,-119"/>
<text text-anchor="middle" x="115" y="-124.6" font-family="Helvetica,sans-Serif" font-size="8.00">scg::Transformation</text>
</a>
</g>
</g>
<!-- Node4&#45;&gt;Node3 -->
<g id="edge3" class="edge"><title>Node4&#45;&gt;Node3</title>
<path fill="none" stroke="midnightblue" d="M115,-108.894C115,-98.8897 115,-86.7822 115,-79.2336"/>
<polygon fill="midnightblue" stroke="midnightblue" points="111.5,-108.94 115,-118.94 118.5,-108.94 111.5,-108.94"/>
</g>
<!-- Node5 -->
<g id="node5" class="node"><title>Node5</title>
<g id="a_node5"><a xlink:href="../../da/d38/classscg_1_1_composite.html" target="_top" xlink:title="Base class for all composite nodes, i.e., nodes with children (composite pattern, abstract)...">
<polygon fill="white" stroke="black" points="122.434,-189 122.434,-205 193.566,-205 193.566,-189 122.434,-189"/>
<text text-anchor="middle" x="158" y="-194.6" font-family="Helvetica,sans-Serif" font-size="8.00">scg::Composite</text>
</a>
</g>
</g>
<!-- Node5&#45;&gt;Node4 -->
<g id="edge4" class="edge"><title>Node5&#45;&gt;Node4</title>
<path fill="none" stroke="midnightblue" d="M143.84,-181.468C138.724,-175.717 133.185,-168.85 129,-162 123.675,-153.284 119.538,-142.182 117.183,-135.081"/>
<polygon fill="midnightblue" stroke="midnightblue" points="141.446,-184.034 150.824,-188.964 146.568,-179.262 141.446,-184.034"/>
</g>
<!-- Node6 -->
<g id="node6" class="node"><title>Node6</title>
<g id="a_node6"><a xlink:href="../../d4/dc7/classscg_1_1_node.html" target="_top" xlink:title="Base class for all nodes (composite pattern, abstract). ">
<polygon fill="white" stroke="black" points="198.99,-119 198.99,-135 251.01,-135 251.01,-119 198.99,-119"/>
<text text-anchor="middle" x="225" y="-124.6" font-family="Helvetica,sans-Serif" font-size="8.00">scg::Node</text>
</a>
</g>
</g>
<!-- Node5&#45;&gt;Node6 -->
<g id="edge12" class="edge"><title>Node5&#45;&gt;Node6</title>
<path fill="none" stroke="#9a32cd" stroke-dasharray="5,2" d="M153.566,-178.782C152.472,-170.614 152.767,-161.111 157.645,-154 166.862,-140.562 184.087,-134.067 198.81,-130.929"/>
<polygon fill="#9a32cd" stroke="#9a32cd" points="150.172,-179.655 155.619,-188.742 157.028,-178.242 150.172,-179.655"/>
<text text-anchor="middle" x="172.678" y="-155.6" font-family="Helvetica,sans-Serif" font-size="8.00"> parent_</text>
</g>
<!-- Node6&#45;&gt;Node5 -->
<g id="edge5" class="edge"><title>Node6&#45;&gt;Node5</title>
<path fill="none" stroke="midnightblue" d="M210.635,-142.579C196.542,-156.883 175.65,-178.086 164.918,-188.979"/>
<polygon fill="midnightblue" stroke="midnightblue" points="213.494,-144.665 218.019,-135.085 208.508,-139.752 213.494,-144.665"/>
</g>
<!-- Node6&#45;&gt;Node5 -->
<g id="edge13" class="edge"><title>Node6&#45;&gt;Node5</title>
<path fill="none" stroke="#9a32cd" stroke-dasharray="5,2" d="M216.185,-144.099C212.524,-150.058 207.968,-156.656 203,-162 192.999,-172.756 179.268,-182.581 169.612,-188.872"/>
<polygon fill="#9a32cd" stroke="#9a32cd" points="219.461,-145.425 221.417,-135.012 213.394,-141.932 219.461,-145.425"/>
<text text-anchor="middle" x="226.787" y="-155.6" font-family="Helvetica,sans-Serif" font-size="8.00"> leftChild_</text>
</g>
<!-- Node6&#45;&gt;Node6 -->
<g id="edge6" class="edge"><title>Node6&#45;&gt;Node6</title>
<path fill="none" stroke="#9a32cd" stroke-dasharray="5,2" d="M261.475,-131.562C266.016,-130.753 269,-129.233 269,-127 269,-123.336 260.963,-121.59 251.199,-121.762"/>
<polygon fill="#9a32cd" stroke="#9a32cd" points="260.948,-128.089 251.199,-132.238 261.408,-135.074 260.948,-128.089"/>
<text text-anchor="middle" x="292.125" y="-124.6" font-family="Helvetica,sans-Serif" font-size="8.00"> rightSibling_</text>
</g>
<!-- Node7 -->
<g id="node7" class="node"><title>Node7</title>
<polygon fill="white" stroke="#bfbfbf" points="230.199,-181 230.199,-213 317.801,-213 317.801,-181 230.199,-181"/>
<text text-anchor="start" x="238.199" y="-202.6" font-family="Helvetica,sans-Serif" font-size="8.00">std::unordered_map</text>
<text text-anchor="start" x="238.199" y="-194.6" font-family="Helvetica,sans-Serif" font-size="8.00">&lt; std::string, std::</text>
<text text-anchor="middle" x="274" y="-186.6" font-family="Helvetica,sans-Serif" font-size="8.00">string &gt;</text>
</g>
<!-- Node7&#45;&gt;Node6 -->
<g id="edge7" class="edge"><title>Node7&#45;&gt;Node6</title>
<path fill="none" stroke="#9a32cd" stroke-dasharray="5,2" d="M269.9,-171.19C268.131,-165.198 265.604,-159.067 262,-154 256.266,-145.939 247.213,-139.515 239.498,-135.069"/>
<polygon fill="#9a32cd" stroke="#9a32cd" points="266.499,-172.015 272.22,-180.932 273.309,-170.394 266.499,-172.015"/>
<text text-anchor="middle" x="284.9" y="-155.6" font-family="Helvetica,sans-Serif" font-size="8.00"> metaInfo_</text>
</g>
<!-- Node8 -->
<g id="node8" class="node"><title>Node8</title>
<g id="a_node8"><a xlink:title="STL class. ">
<polygon fill="white" stroke="#bfbfbf" points="248.66,-267 248.66,-283 299.34,-283 299.34,-267 248.66,-267"/>
<text text-anchor="middle" x="274" y="-272.6" font-family="Helvetica,sans-Serif" font-size="8.00">std::string</text>
</a>
</g>
</g>
<!-- Node8&#45;&gt;Node7 -->
<g id="edge8" class="edge"><title>Node8&#45;&gt;Node7</title>
<path fill="none" stroke="#9a32cd" stroke-dasharray="5,2" d="M274,-256.922C274,-243.748 274,-225.699 274,-213.061"/>
<polygon fill="#9a32cd" stroke="#9a32cd" points="270.5,-256.986 274,-266.986 277.5,-256.986 270.5,-256.986"/>
<text text-anchor="middle" x="290.23" y="-241.6" font-family="Helvetica,sans-Serif" font-size="8.00"> keys</text>
<text text-anchor="middle" x="290.23" y="-233.6" font-family="Helvetica,sans-Serif" font-size="8.00">elements</text>
</g>
<!-- Node9 -->
<g id="node9" class="node"><title>Node9</title>
<g id="a_node9"><a xlink:title="STL class. ">
<polygon fill="white" stroke="#bfbfbf" points="234.762,-323 234.762,-347 313.238,-347 313.238,-323 234.762,-323"/>
<text text-anchor="start" x="242.762" y="-336.6" font-family="Helvetica,sans-Serif" font-size="8.00">std::basic_string&lt;</text>
<text text-anchor="middle" x="274" y="-328.6" font-family="Helvetica,sans-Serif" font-size="8.00"> char &gt;</text>
</a>
</g>
</g>
<!-- Node9&#45;&gt;Node8 -->
<g id="edge9" class="edge"><title>Node9&#45;&gt;Node8</title>
<path fill="none" stroke="midnightblue" d="M274,-312.738C274,-302.329 274,-290.485 274,-283.126"/>
<polygon fill="midnightblue" stroke="midnightblue" points="270.5,-312.817 274,-322.817 277.5,-312.817 270.5,-312.817"/>
</g>
<!-- Node10 -->
<g id="node10" class="node"><title>Node10</title>
<polygon fill="white" stroke="#bfbfbf" points="335.537,-189 335.537,-205 436.463,-205 436.463,-189 335.537,-189"/>
<text text-anchor="middle" x="386" y="-194.6" font-family="Helvetica,sans-Serif" font-size="8.00">std::vector&lt; scg::Core &gt;</text>
</g>
<!-- Node10&#45;&gt;Node6 -->
<g id="edge10" class="edge"><title>Node10&#45;&gt;Node6</title>
<path fill="none" stroke="#9a32cd" stroke-dasharray="5,2" d="M365.468,-183.755C349.811,-174.747 327.516,-162.622 307,-154 288.826,-146.362 267.593,-139.688 251.287,-135.015"/>
<polygon fill="#9a32cd" stroke="#9a32cd" points="363.884,-186.882 374.284,-188.901 367.413,-180.837 363.884,-186.882"/>
<text text-anchor="middle" x="335.117" y="-155.6" font-family="Helvetica,sans-Serif" font-size="8.00"> cores_</text>
</g>
<!-- Node11 -->
<g id="node11" class="node"><title>Node11</title>
<g id="a_node11"><a xlink:href="../../d0/d79/classscg_1_1_core.html" target="_top" xlink:title="Base class for all cores (abstract). ">
<polygon fill="white" stroke="black" points="360.883,-267 360.883,-283 411.117,-283 411.117,-267 360.883,-267"/>
<text text-anchor="middle" x="386" y="-272.6" font-family="Helvetica,sans-Serif" font-size="8.00">scg::Core</text>
</a>
</g>
</g>
<!-- Node11&#45;&gt;Node10 -->
<g id="edge11" class="edge"><title>Node11&#45;&gt;Node10</title>
<path fill="none" stroke="#9a32cd" stroke-dasharray="5,2" d="M386,-256.715C386,-240.469 386,-216.948 386,-205.218"/>
<polygon fill="#9a32cd" stroke="#9a32cd" points="382.5,-256.986 386,-266.986 389.5,-256.986 382.5,-256.986"/>
<text text-anchor="middle" x="403.342" y="-237.6" font-family="Helvetica,sans-Serif" font-size="8.00"> elements</text>
</g>
</g>
</svg>
