<?xml version="1.0" encoding="UTF-8" standalone="no"?>
<!DOCTYPE svg PUBLIC "-//W3C//DTD SVG 1.1//EN"
 "http://www.w3.org/Graphics/SVG/1.1/DTD/svg11.dtd">
<!-- Generated by graphviz version 2.36.0 (20140111.2315)
 -->
<!-- Title: scg::Viewer Pages: 1 -->
<svg width="1292pt" height="348pt"
 viewBox="0.00 0.00 1292.00 348.00" xmlns="http://www.w3.org/2000/svg" xmlns:xlink="http://www.w3.org/1999/xlink">
<g id="graph0" class="graph" transform="scale(1 1) rotate(0) translate(4 344)">
<title>scg::Viewer</title>
<polygon fill="white" stroke="none" points="-4,4 -4,-344 1288,-344 1288,4 -4,4"/>
<!-- Node1 -->
<g id="node1" class="node"><title>Node1</title>
<g id="a_node1"><a xlink:title="Central viewer managing window, controllers, animations, and main loop.">
<polygon fill="#bfbfbf" stroke="black" points="1084.4,-219 1084.4,-235 1141.6,-235 1141.6,-219 1084.4,-219"/>
<text text-anchor="middle" x="1113" y="-224.6" font-family="Helvetica,sans-Serif" font-size="8.00">scg::Viewer</text>
</a>
</g>
</g>
<!-- Node7 -->
<g id="node7" class="node"><title>Node7</title>
<g id="a_node7"><a xlink:href="../../d8/dcf/classscg_1_1_renderer.html" target="_top" xlink:title="Base class for all renderers (abstract).">
<polygon fill="white" stroke="black" points="1217.88,-149 1217.88,-165 1284.12,-165 1284.12,-149 1217.88,-149"/>
<text text-anchor="middle" x="1251" y="-154.6" font-family="Helvetica,sans-Serif" font-size="8.00">scg::Renderer</text>
</a>
</g>
</g>
<!-- Node1&#45;&gt;Node7 -->
<g id="edge34" class="edge"><title>Node1&#45;&gt;Node7</title>
<path fill="none" stroke="#9a32cd" stroke-dasharray="5,2" d="M1133.28,-212.993C1141.85,-207.069 1152.2,-200.324 1162,-195 1183.93,-183.08 1210.38,-172.083 1228.51,-165.019"/>
<polygon fill="#9a32cd" stroke="#9a32cd" points="1131.24,-210.149 1125.08,-218.774 1135.27,-215.868 1131.24,-210.149"/>
<text text-anchor="middle" x="1181" y="-196.6" font-family="Helvetica,sans-Serif" font-size="8.00"> viewer_</text>
</g>
<!-- Node2 -->
<g id="node2" class="node"><title>Node2</title>
<g id="a_node2"><a xlink:title=" ">
<polygon fill="white" stroke="#bfbfbf" points="862.42,-184 862.42,-200 981.58,-200 981.58,-184 862.42,-184"/>
<text text-anchor="middle" x="922" y="-189.6" font-family="Helvetica,sans-Serif" font-size="8.00">std::vector&lt; scg::Animation &gt;</text>
</a>
</g>
</g>
<!-- Node2&#45;&gt;Node1 -->
<g id="edge1" class="edge"><title>Node2&#45;&gt;Node1</title>
<path fill="none" stroke="#9a32cd" stroke-dasharray="5,2" d="M988.759,-201.563C1012.54,-205.329 1039.56,-209.96 1064,-215 1070.56,-216.353 1077.58,-217.996 1084.17,-219.626"/>
<polygon fill="#9a32cd" stroke="#9a32cd" points="989.2,-198.09 978.78,-200.004 988.12,-205.006 989.2,-198.09"/>
<text text-anchor="middle" x="1032" y="-216.6" font-family="Helvetica,sans-Serif" font-size="8.00"> animations_</text>
</g>
<!-- Node3 -->
<g id="node3" class="node"><title>Node3</title>
<g id="a_node3"><a xlink:href="../../d2/df5/classscg_1_1_animation.html" target="_top" xlink:title="Base class for all animations (abstract), providing general functionality.">
<polygon fill="white" stroke="black" points="693.766,-267 693.766,-283 762.234,-283 762.234,-267 693.766,-267"/>
<text text-anchor="middle" x="728" y="-272.6" font-family="Helvetica,sans-Serif" font-size="8.00">scg::Animation</text>
</a>
</g>
</g>
<!-- Node3&#45;&gt;Node2 -->
<g id="edge2" class="edge"><title>Node3&#45;&gt;Node2</title>
<path fill="none" stroke="#9a32cd" stroke-dasharray="5,2" d="M772.34,-276.301C795.871,-274.829 824.129,-269.259 844,-253 860.352,-239.62 846.277,-223.114 862,-209 866.125,-205.297 871.009,-202.397 876.172,-200.127"/>
<polygon fill="#9a32cd" stroke="#9a32cd" points="772.098,-272.807 762.246,-276.706 772.379,-279.802 772.098,-272.807"/>
<text text-anchor="middle" x="814" y="-276.6" font-family="Helvetica,sans-Serif" font-size="8.00"> elements</text>
</g>
<!-- Node4 -->
<g id="node4" class="node"><title>Node4</title>
<g id="a_node4"><a xlink:title=" ">
<polygon fill="white" stroke="#bfbfbf" points="862.867,-324 862.867,-340 981.133,-340 981.133,-324 862.867,-324"/>
<text text-anchor="middle" x="922" y="-329.6" font-family="Helvetica,sans-Serif" font-size="8.00">std::vector&lt; scg::Controller &gt;</text>
</a>
</g>
</g>
<!-- Node4&#45;&gt;Node1 -->
<g id="edge3" class="edge"><title>Node4&#45;&gt;Node1</title>
<path fill="none" stroke="#9a32cd" stroke-dasharray="5,2" d="M991.455,-325.218C1015.98,-320.265 1042.78,-311.721 1064,-297 1087,-281.041 1102.3,-250.212 1108.66,-235.377"/>
<polygon fill="#9a32cd" stroke="#9a32cd" points="990.664,-321.805 981.469,-327.068 991.939,-328.688 990.664,-321.805"/>
<text text-anchor="middle" x="1032" y="-324.6" font-family="Helvetica,sans-Serif" font-size="8.00"> controllers_</text>
</g>
<!-- Node5 -->
<g id="node5" class="node"><title>Node5</title>
<g id="a_node5"><a xlink:href="../../de/de4/classscg_1_1_controller.html" target="_top" xlink:title="Base class for all controllers (abstract).">
<polygon fill="white" stroke="black" points="694.213,-324 694.213,-340 761.787,-340 761.787,-324 694.213,-324"/>
<text text-anchor="middle" x="728" y="-329.6" font-family="Helvetica,sans-Serif" font-size="8.00">scg::Controller</text>
</a>
</g>
</g>
<!-- Node5&#45;&gt;Node4 -->
<g id="edge4" class="edge"><title>Node5&#45;&gt;Node4</title>
<path fill="none" stroke="#9a32cd" stroke-dasharray="5,2" d="M772.214,-332C798.982,-332 833.695,-332 862.858,-332"/>
<polygon fill="#9a32cd" stroke="#9a32cd" points="772.006,-328.5 762.006,-332 772.006,-335.5 772.006,-328.5"/>
<text text-anchor="middle" x="814" y="-333.6" font-family="Helvetica,sans-Serif" font-size="8.00"> elements</text>
</g>
<!-- Node6 -->
<g id="node6" class="node"><title>Node6</title>
<g id="a_node6"><a xlink:href="../../d7/d72/structscg_1_1_o_g_l_config.html" target="_top" xlink:title="OpenGL configuration, may be set by user before calling Viewer::init().">
<polygon fill="white" stroke="black" points="885.543,-289 885.543,-305 958.457,-305 958.457,-289 885.543,-289"/>
<text text-anchor="middle" x="922" y="-294.6" font-family="Helvetica,sans-Serif" font-size="8.00">scg::OGLConfig</text>
</a>
</g>
</g>
<!-- Node6&#45;&gt;Node1 -->
<g id="edge5" class="edge"><title>Node6&#45;&gt;Node1</title>
<path fill="none" stroke="#9a32cd" stroke-dasharray="5,2" d="M968.578,-290.843C996.991,-285.848 1033.77,-277.235 1064,-263 1079.27,-255.811 1094.43,-243.305 1103.51,-235.089"/>
<polygon fill="#9a32cd" stroke="#9a32cd" points="967.803,-287.423 958.516,-292.523 968.956,-294.328 967.803,-287.423"/>
<text text-anchor="middle" x="1032" y="-286.6" font-family="Helvetica,sans-Serif" font-size="8.00"> oglConfig_</text>
</g>
<!-- Node7&#45;&gt;Node1 -->
<g id="edge6" class="edge"><title>Node7&#45;&gt;Node1</title>
<path fill="none" stroke="#9a32cd" stroke-dasharray="5,2" d="M1236.57,-172.717C1227.24,-182.714 1214.01,-195.201 1200,-203 1181.85,-213.103 1159.14,-219.205 1141.61,-222.727"/>
<polygon fill="#9a32cd" stroke="#9a32cd" points="1239.36,-174.849 1243.42,-165.063 1234.14,-170.181 1239.36,-174.849"/>
<text text-anchor="middle" x="1181" y="-219.6" font-family="Helvetica,sans-Serif" font-size="8.00"> renderer_</text>
</g>
<!-- Node8 -->
<g id="node8" class="node"><title>Node8</title>
<g id="a_node8"><a xlink:href="../../d4/dc7/classscg_1_1_node.html" target="_top" xlink:title="Base class for all nodes (composite pattern, abstract).">
<polygon fill="white" stroke="black" points="498.99,-15 498.99,-31 551.01,-31 551.01,-15 498.99,-15"/>
<text text-anchor="middle" x="525" y="-20.6" font-family="Helvetica,sans-Serif" font-size="8.00">scg::Node</text>
</a>
</g>
</g>
<!-- Node8&#45;&gt;Node7 -->
<g id="edge7" class="edge"><title>Node8&#45;&gt;Node7</title>
<path fill="none" stroke="#9a32cd" stroke-dasharray="5,2" d="M552.618,-35.1828C590.513,-51.384 662.571,-78 727,-78 727,-78 727,-78 1114,-78 1169.98,-78 1223.51,-128.659 1242.62,-148.843"/>
<polygon fill="#9a32cd" stroke="#9a32cd" points="553.873,-31.9114 543.308,-31.1154 551.07,-38.326 553.873,-31.9114"/>
<text text-anchor="middle" x="922" y="-79.6" font-family="Helvetica,sans-Serif" font-size="8.00"> scene_</text>
</g>
<!-- Node8&#45;&gt;Node8 -->
<g id="edge8" class="edge"><title>Node8&#45;&gt;Node8</title>
<path fill="none" stroke="#9a32cd" stroke-dasharray="5,2" d="M504.073,-40.1981C504.852,-45.1636 511.827,-49 525,-49 545.562,-49 551.024,-39.652 541.386,-31.2534"/>
<polygon fill="#9a32cd" stroke="#9a32cd" points="507.208,-41.7546 508.614,-31.2534 500.967,-38.5858 507.208,-41.7546"/>
<text text-anchor="middle" x="525" y="-50.6" font-family="Helvetica,sans-Serif" font-size="8.00"> rightSibling_</text>
</g>
<!-- Node14 -->
<g id="node14" class="node"><title>Node14</title>
<g id="a_node14"><a xlink:href="../../da/d38/classscg_1_1_composite.html" target="_top" xlink:title="Base class for all composite nodes, i.e., nodes with children (composite pattern, abstract).">
<polygon fill="white" stroke="black" points="692.434,-15 692.434,-31 763.566,-31 763.566,-15 692.434,-15"/>
<text text-anchor="middle" x="728" y="-20.6" font-family="Helvetica,sans-Serif" font-size="8.00">scg::Composite</text>
</a>
</g>
</g>
<!-- Node8&#45;&gt;Node14 -->
<g id="edge15" class="edge"><title>Node8&#45;&gt;Node14</title>
<path fill="none" stroke="midnightblue" d="M561.318,-23C598.15,-23 655.525,-23 692.173,-23"/>
<polygon fill="midnightblue" stroke="midnightblue" points="561.05,-19.5001 551.05,-23 561.05,-26.5001 561.05,-19.5001"/>
</g>
<!-- Node8&#45;&gt;Node14 -->
<g id="edge16" class="edge"><title>Node8&#45;&gt;Node14</title>
<path fill="none" stroke="#9a32cd" stroke-dasharray="5,2" d="M561.435,-16.2266C574.173,-14.1045 588.683,-12.0449 602,-11 633.016,-8.56646 641.068,-7.66485 672,-11 679.774,-11.8382 688.06,-13.3243 695.779,-14.9717"/>
<polygon fill="#9a32cd" stroke="#9a32cd" points="560.468,-12.842 551.216,-18.0031 561.667,-19.7386 560.468,-12.842"/>
<text text-anchor="middle" x="637" y="-12.6" font-family="Helvetica,sans-Serif" font-size="8.00"> leftChild_</text>
</g>
<!-- Node9 -->
<g id="node9" class="node"><title>Node9</title>
<g id="a_node9"><a xlink:title=" ">
<polygon fill="white" stroke="#bfbfbf" points="247.199,-0 247.199,-32 334.801,-32 334.801,-0 247.199,-0"/>
<text text-anchor="start" x="255.199" y="-21.6" font-family="Helvetica,sans-Serif" font-size="8.00">std::unordered_map</text>
<text text-anchor="start" x="255.199" y="-13.6" font-family="Helvetica,sans-Serif" font-size="8.00">&lt; std::string, std::</text>
<text text-anchor="middle" x="291" y="-5.6" font-family="Helvetica,sans-Serif" font-size="8.00">string &gt;</text>
</a>
</g>
</g>
<!-- Node9&#45;&gt;Node8 -->
<g id="edge9" class="edge"><title>Node9&#45;&gt;Node8</title>
<path fill="none" stroke="#9a32cd" stroke-dasharray="5,2" d="M345.082,-17.6016C393.309,-19.0567 462.341,-21.1396 498.958,-22.2444"/>
<polygon fill="#9a32cd" stroke="#9a32cd" points="344.924,-14.0953 334.823,-17.2921 344.713,-21.0922 344.924,-14.0953"/>
<text text-anchor="middle" x="404" y="-22.6" font-family="Helvetica,sans-Serif" font-size="8.00"> metaInfo_</text>
</g>
<!-- Node10 -->
<g id="node10" class="node"><title>Node10</title>
<g id="a_node10"><a xlink:title="STL class.">
<polygon fill="white" stroke="#bfbfbf" points="116.66,-51 116.66,-67 167.34,-67 167.34,-51 116.66,-51"/>
<text text-anchor="middle" x="142" y="-56.6" font-family="Helvetica,sans-Serif" font-size="8.00">std::string</text>
</a>
</g>
</g>
<!-- Node10&#45;&gt;Node9 -->
<g id="edge10" class="edge"><title>Node10&#45;&gt;Node9</title>
<path fill="none" stroke="#9a32cd" stroke-dasharray="5,2" d="M167.599,-46.4423C173.524,-43.7317 179.905,-41.0638 186,-39 205.704,-32.3277 228.175,-27.078 247.175,-23.2891"/>
<polygon fill="#9a32cd" stroke="#9a32cd" points="165.7,-43.4712 158.191,-50.9454 168.722,-49.7852 165.7,-43.4712"/>
<text text-anchor="middle" x="204" y="-48.6" font-family="Helvetica,sans-Serif" font-size="8.00"> keys</text>
<text text-anchor="middle" x="204" y="-40.6" font-family="Helvetica,sans-Serif" font-size="8.00">elements</text>
</g>
<!-- Node17 -->
<g id="node17" class="node"><title>Node17</title>
<g id="a_node17"><a xlink:title=" ">
<polygon fill="white" stroke="#bfbfbf" points="359.982,-84 359.982,-108 448.018,-108 448.018,-84 359.982,-84"/>
<text text-anchor="start" x="367.982" y="-97.6" font-family="Helvetica,sans-Serif" font-size="8.00">std::unordered_map</text>
<text text-anchor="middle" x="404" y="-89.6" font-family="Helvetica,sans-Serif" font-size="8.00">&lt; std::string, GLint &gt;</text>
</a>
</g>
</g>
<!-- Node10&#45;&gt;Node17 -->
<g id="edge22" class="edge"><title>Node10&#45;&gt;Node17</title>
<path fill="none" stroke="#9a32cd" stroke-dasharray="5,2" d="M177.269,-69.082C180.208,-69.7888 183.148,-70.4413 186,-71 245.731,-82.6997 315.861,-89.5558 359.872,-93.043"/>
<polygon fill="#9a32cd" stroke="#9a32cd" points="177.957,-65.6448 167.399,-66.5268 176.202,-72.4214 177.957,-65.6448"/>
<text text-anchor="middle" x="204" y="-78.6" font-family="Helvetica,sans-Serif" font-size="8.00"> keys</text>
</g>
<!-- Node19 -->
<g id="node19" class="node"><title>Node19</title>
<g id="a_node19"><a xlink:href="../../d1/dad/structscg_1_1_shader_i_d.html" target="_top" xlink:title="A shader ID to identify shaders in error messages. An arbitrary name can be added to the OpnGL shader...">
<polygon fill="white" stroke="black" points="257.654,-51 257.654,-67 324.346,-67 324.346,-51 257.654,-51"/>
<text text-anchor="middle" x="291" y="-56.6" font-family="Helvetica,sans-Serif" font-size="8.00">scg::ShaderID</text>
</a>
</g>
</g>
<!-- Node10&#45;&gt;Node19 -->
<g id="edge25" class="edge"><title>Node10&#45;&gt;Node19</title>
<path fill="none" stroke="#9a32cd" stroke-dasharray="5,2" d="M177.769,-59C201.94,-59 233.935,-59 257.577,-59"/>
<polygon fill="#9a32cd" stroke="#9a32cd" points="177.605,-55.5001 167.604,-59 177.604,-62.5001 177.605,-55.5001"/>
<text text-anchor="middle" x="204" y="-60.6" font-family="Helvetica,sans-Serif" font-size="8.00"> name</text>
</g>
<!-- Node11 -->
<g id="node11" class="node"><title>Node11</title>
<g id="a_node11"><a xlink:title="STL class.">
<polygon fill="white" stroke="#bfbfbf" points="-0.238281,-47 -0.238281,-71 78.2383,-71 78.2383,-47 -0.238281,-47"/>
<text text-anchor="start" x="7.76172" y="-60.6" font-family="Helvetica,sans-Serif" font-size="8.00">std::basic_string&lt;</text>
<text text-anchor="middle" x="39" y="-52.6" font-family="Helvetica,sans-Serif" font-size="8.00"> char &gt;</text>
</a>
</g>
</g>
<!-- Node11&#45;&gt;Node10 -->
<g id="edge11" class="edge"><title>Node11&#45;&gt;Node10</title>
<path fill="none" stroke="midnightblue" d="M88.5466,-59C98.3068,-59 108.164,-59 116.658,-59"/>
<polygon fill="midnightblue" stroke="midnightblue" points="88.4719,-55.5001 78.4719,-59 88.4719,-62.5001 88.4719,-55.5001"/>
</g>
<!-- Node12 -->
<g id="node12" class="node"><title>Node12</title>
<g id="a_node12"><a xlink:title=" ">
<polygon fill="white" stroke="#bfbfbf" points="240.537,-125 240.537,-141 341.463,-141 341.463,-125 240.537,-125"/>
<text text-anchor="middle" x="291" y="-130.6" font-family="Helvetica,sans-Serif" font-size="8.00">std::vector&lt; scg::Core &gt;</text>
</a>
</g>
</g>
<!-- Node12&#45;&gt;Node8 -->
<g id="edge12" class="edge"><title>Node12&#45;&gt;Node8</title>
<path fill="none" stroke="#9a32cd" stroke-dasharray="5,2" d="M351.498,-138.021C383.121,-137.619 420.938,-131.883 448,-111 464.402,-98.3429 453.401,-84.4468 466,-68 478.091,-52.217 496.983,-38.9593 509.898,-31.01"/>
<polygon fill="#9a32cd" stroke="#9a32cd" points="351.485,-134.521 341.47,-137.977 351.454,-141.521 351.485,-134.521"/>
<text text-anchor="middle" x="404" y="-139.6" font-family="Helvetica,sans-Serif" font-size="8.00"> cores_</text>
</g>
<!-- Node13 -->
<g id="node13" class="node"><title>Node13</title>
<g id="a_node13"><a xlink:href="../../d0/d79/classscg_1_1_core.html" target="_top" xlink:title="Base class for all cores (abstract).">
<polygon fill="white" stroke="black" points="116.883,-162 116.883,-178 167.117,-178 167.117,-162 116.883,-162"/>
<text text-anchor="middle" x="142" y="-167.6" font-family="Helvetica,sans-Serif" font-size="8.00">scg::Core</text>
</a>
</g>
</g>
<!-- Node13&#45;&gt;Node12 -->
<g id="edge13" class="edge"><title>Node13&#45;&gt;Node12</title>
<path fill="none" stroke="#9a32cd" stroke-dasharray="5,2" d="M165.012,-156.981C171.576,-153.588 178.913,-150.255 186,-148 203.297,-142.496 222.859,-139.005 240.312,-136.793"/>
<polygon fill="#9a32cd" stroke="#9a32cd" points="163.159,-154.006 156.068,-161.878 166.521,-160.146 163.159,-154.006"/>
<text text-anchor="middle" x="204" y="-149.6" font-family="Helvetica,sans-Serif" font-size="8.00"> elements</text>
</g>
<!-- Node16 -->
<g id="node16" class="node"><title>Node16</title>
<g id="a_node16"><a xlink:href="../../df/de9/classscg_1_1_shader_core.html" target="_top" xlink:title="A core to set a shader program to be applied to subsequent nodes.">
<polygon fill="white" stroke="black" points="689.984,-126 689.984,-142 766.016,-142 766.016,-126 689.984,-126"/>
<text text-anchor="middle" x="728" y="-131.6" font-family="Helvetica,sans-Serif" font-size="8.00">scg::ShaderCore</text>
</a>
</g>
</g>
<!-- Node13&#45;&gt;Node16 -->
<g id="edge19" class="edge"><title>Node13&#45;&gt;Node16</title>
<path fill="none" stroke="midnightblue" d="M177.29,-168.071C261.528,-163.3 485.357,-150.432 672,-138 677.732,-137.618 683.798,-137.196 689.727,-136.772"/>
<polygon fill="midnightblue" stroke="midnightblue" points="177.048,-164.579 167.261,-168.638 177.443,-171.568 177.048,-164.579"/>
</g>
<!-- Node22 -->
<g id="node22" class="node"><title>Node22</title>
<g id="a_node22"><a xlink:href="../../d9/dc2/classscg_1_1_color_core.html" target="_top" xlink:title="A core to set a vertex color or a color transformation to be applied to subsequent geometry.">
<polygon fill="white" stroke="black" points="602.324,-234 602.324,-250 671.676,-250 671.676,-234 602.324,-234"/>
<text text-anchor="middle" x="637" y="-239.6" font-family="Helvetica,sans-Serif" font-size="8.00">scg::ColorCore</text>
</a>
</g>
</g>
<!-- Node13&#45;&gt;Node22 -->
<g id="edge29" class="edge"><title>Node13&#45;&gt;Node22</title>
<path fill="none" stroke="midnightblue" d="M174.806,-181.032C178.553,-182.13 182.344,-183.15 186,-184 308.445,-212.454 341.253,-208.49 466,-224 513.123,-229.859 567.749,-235.425 602.091,-238.776"/>
<polygon fill="midnightblue" stroke="midnightblue" points="175.7,-177.644 165.111,-178.008 173.616,-184.327 175.7,-177.644"/>
</g>
<!-- Node14&#45;&gt;Node8 -->
<g id="edge14" class="edge"><title>Node14&#45;&gt;Node8</title>
<path fill="none" stroke="#9a32cd" stroke-dasharray="5,2" d="M682.067,-31.8491C678.67,-32.3097 675.286,-32.7037 672,-33 641.015,-35.794 633.045,-35.0336 602,-33 585.002,-31.8865 566.002,-29.3865 551.251,-27.1649"/>
<polygon fill="#9a32cd" stroke="#9a32cd" points="682.858,-35.269 692.215,-30.2992 681.801,-28.3493 682.858,-35.269"/>
<text text-anchor="middle" x="637" y="-36.6" font-family="Helvetica,sans-Serif" font-size="8.00"> parent_</text>
</g>
<!-- Node24 -->
<g id="node24" class="node"><title>Node24</title>
<g id="a_node24"><a xlink:href="../../d0/d99/classscg_1_1_transformation.html" target="_top" xlink:title="A transformation node to be used to appy a transformation to the sub&#45;tree (composite node).">
<polygon fill="white" stroke="black" points="878.801,-20 878.801,-36 965.199,-36 965.199,-20 878.801,-20"/>
<text text-anchor="middle" x="922" y="-25.6" font-family="Helvetica,sans-Serif" font-size="8.00">scg::Transformation</text>
</a>
</g>
</g>
<!-- Node14&#45;&gt;Node24 -->
<g id="edge33" class="edge"><title>Node14&#45;&gt;Node24</title>
<path fill="none" stroke="midnightblue" d="M774.075,-24.1738C805.729,-24.9982 847.78,-26.0932 878.782,-26.9006"/>
<polygon fill="midnightblue" stroke="midnightblue" points="773.858,-20.6671 763.77,-23.9055 773.675,-27.6647 773.858,-20.6671"/>
</g>
<!-- Node15 -->
<g id="node15" class="node"><title>Node15</title>
<g id="a_node15"><a xlink:href="../../db/dfa/classscg_1_1_render_state.html" target="_top" xlink:title="The central render state that collects information about the current shader, transformations,...">
<polygon fill="white" stroke="black" points="883.094,-149 883.094,-165 960.906,-165 960.906,-149 883.094,-149"/>
<text text-anchor="middle" x="922" y="-154.6" font-family="Helvetica,sans-Serif" font-size="8.00">scg::RenderState</text>
</a>
</g>
</g>
<!-- Node15&#45;&gt;Node7 -->
<g id="edge17" class="edge"><title>Node15&#45;&gt;Node7</title>
<path fill="none" stroke="#9a32cd" stroke-dasharray="5,2" d="M971.524,-157C1039.1,-157 1159.74,-157 1217.47,-157"/>
<polygon fill="#9a32cd" stroke="#9a32cd" points="971.151,-153.5 961.151,-157 971.151,-160.5 971.151,-153.5"/>
<text text-anchor="middle" x="1113" y="-158.6" font-family="Helvetica,sans-Serif" font-size="8.00"> renderState_</text>
</g>
<!-- Node16&#45;&gt;Node15 -->
<g id="edge18" class="edge"><title>Node16&#45;&gt;Node15</title>
<path fill="none" stroke="#9a32cd" stroke-dasharray="5,2" d="M776.273,-139.663C809.059,-143.59 852.163,-148.754 882.78,-152.422"/>
<polygon fill="#9a32cd" stroke="#9a32cd" points="776.365,-136.149 766.02,-138.435 775.532,-143.099 776.365,-136.149"/>
<text text-anchor="middle" x="814" y="-149.6" font-family="Helvetica,sans-Serif" font-size="8.00"> shaderCore_</text>
</g>
<!-- Node16&#45;&gt;Node16 -->
<g id="edge20" class="edge"><title>Node16&#45;&gt;Node16</title>
<path fill="none" stroke="#9a32cd" stroke-dasharray="5,2" d="M712.053,-151.916C713.063,-156.529 718.379,-160 728,-160 743.789,-160 747.983,-150.652 740.582,-142.253"/>
<polygon fill="#9a32cd" stroke="#9a32cd" points="715.434,-152.848 715.418,-142.253 708.824,-150.546 715.434,-152.848"/>
<text text-anchor="middle" x="728" y="-161.6" font-family="Helvetica,sans-Serif" font-size="8.00"> shaderCoreOld_</text>
</g>
<!-- Node17&#45;&gt;Node16 -->
<g id="edge21" class="edge"><title>Node17&#45;&gt;Node16</title>
<path fill="none" stroke="#9a32cd" stroke-dasharray="5,2" d="M458.004,-102.599C497.65,-107.5 553.205,-114.295 602,-120 631.498,-123.449 664.932,-127.184 689.796,-129.929"/>
<polygon fill="#9a32cd" stroke="#9a32cd" points="458.381,-99.1187 448.027,-101.364 457.521,-106.066 458.381,-99.1187"/>
<text text-anchor="middle" x="525" y="-119.6" font-family="Helvetica,sans-Serif" font-size="8.00"> uniformLocMap_</text>
</g>
<!-- Node18 -->
<g id="node18" class="node"><title>Node18</title>
<g id="a_node18"><a xlink:title=" ">
<polygon fill="white" stroke="#bfbfbf" points="466.309,-78 466.309,-94 583.691,-94 583.691,-78 466.309,-78"/>
<text text-anchor="middle" x="525" y="-83.6" font-family="Helvetica,sans-Serif" font-size="8.00">std::vector&lt; scg::ShaderID &gt;</text>
</a>
</g>
</g>
<!-- Node18&#45;&gt;Node16 -->
<g id="edge23" class="edge"><title>Node18&#45;&gt;Node16</title>
<path fill="none" stroke="#9a32cd" stroke-dasharray="5,2" d="M592.847,-95.7332C617.905,-100.067 646.48,-105.833 672,-113 684.399,-116.482 697.916,-121.624 708.447,-125.948"/>
<polygon fill="#9a32cd" stroke="#9a32cd" points="593.149,-92.2349 582.707,-94.0235 591.985,-99.1374 593.149,-92.2349"/>
<text text-anchor="middle" x="637" y="-114.6" font-family="Helvetica,sans-Serif" font-size="8.00"> shaderIDs_</text>
</g>
<!-- Node19&#45;&gt;Node18 -->
<g id="edge24" class="edge"><title>Node19&#45;&gt;Node18</title>
<path fill="none" stroke="#9a32cd" stroke-dasharray="5,2" d="M334.644,-58.4813C366.135,-58.6869 409.954,-60.2078 448,-66 465.265,-68.6285 484.265,-73.6285 498.949,-77.9713"/>
<polygon fill="#9a32cd" stroke="#9a32cd" points="334.471,-54.981 324.463,-58.4577 334.455,-61.981 334.471,-54.981"/>
<text text-anchor="middle" x="404" y="-67.6" font-family="Helvetica,sans-Serif" font-size="8.00"> elements</text>
</g>
<!-- Node20 -->
<g id="node20" class="node"><title>Node20</title>
<g id="a_node20"><a xlink:href="../../d4/dab/classscg_1_1_matrix_stack.html" target="_top" xlink:title="Matrix stack to store model&#45;view, projection, texture, and color matrices, used by RenderState.">
<polygon fill="white" stroke="black" points="690.66,-187 690.66,-203 765.34,-203 765.34,-187 690.66,-187"/>
<text text-anchor="middle" x="728" y="-192.6" font-family="Helvetica,sans-Serif" font-size="8.00">scg::MatrixStack</text>
</a>
</g>
</g>
<!-- Node20&#45;&gt;Node15 -->
<g id="edge26" class="edge"><title>Node20&#45;&gt;Node15</title>
<path fill="none" stroke="#9a32cd" stroke-dasharray="5,2" d="M775.418,-185.813C808.359,-179.294 852.035,-170.649 882.928,-164.535"/>
<polygon fill="#9a32cd" stroke="#9a32cd" points="774.696,-182.388 765.566,-187.763 776.055,-189.255 774.696,-182.388"/>
<text text-anchor="middle" x="814" y="-209.6" font-family="Helvetica,sans-Serif" font-size="8.00"> textureStack</text>
<text text-anchor="middle" x="814" y="-201.6" font-family="Helvetica,sans-Serif" font-size="8.00">projectionStack</text>
<text text-anchor="middle" x="814" y="-193.6" font-family="Helvetica,sans-Serif" font-size="8.00">modelViewStack</text>
<text text-anchor="middle" x="814" y="-185.6" font-family="Helvetica,sans-Serif" font-size="8.00">colorStack</text>
</g>
<!-- Node21 -->
<g id="node21" class="node"><title>Node21</title>
<g id="a_node21"><a xlink:title=" ">
<polygon fill="white" stroke="#bfbfbf" points="475.65,-199 475.65,-215 574.35,-215 574.35,-199 475.65,-199"/>
<text text-anchor="middle" x="525" y="-204.6" font-family="Helvetica,sans-Serif" font-size="8.00">std::stack&lt; glm::mat4 &gt;</text>
</a>
</g>
</g>
<!-- Node21&#45;&gt;Node20 -->
<g id="edge27" class="edge"><title>Node21&#45;&gt;Node20</title>
<path fill="none" stroke="#9a32cd" stroke-dasharray="5,2" d="M584.727,-203.494C618.884,-201.455 660.872,-198.948 690.35,-197.188"/>
<polygon fill="#9a32cd" stroke="#9a32cd" points="584.174,-200.021 574.4,-204.11 584.591,-207.008 584.174,-200.021"/>
<text text-anchor="middle" x="637" y="-204.6" font-family="Helvetica,sans-Serif" font-size="8.00"> stack_</text>
</g>
<!-- Node22&#45;&gt;Node15 -->
<g id="edge28" class="edge"><title>Node22&#45;&gt;Node15</title>
<path fill="none" stroke="#9a32cd" stroke-dasharray="5,2" d="M682.013,-242.512C734.844,-242.251 819.411,-238.775 844,-220 861.449,-206.677 845.775,-188.79 862,-174 867.908,-168.614 875.419,-164.925 883.086,-162.4"/>
<polygon fill="#9a32cd" stroke="#9a32cd" points="681.892,-239.012 671.897,-242.525 681.901,-246.012 681.892,-239.012"/>
<text text-anchor="middle" x="728" y="-244.6" font-family="Helvetica,sans-Serif" font-size="8.00"> colorCore_</text>
</g>
<!-- Node22&#45;&gt;Node22 -->
<g id="edge30" class="edge"><title>Node22&#45;&gt;Node22</title>
<path fill="none" stroke="#9a32cd" stroke-dasharray="5,2" d="M620.311,-259.916C621.368,-264.529 626.931,-268 637,-268 653.523,-268 657.912,-258.652 650.167,-250.253"/>
<polygon fill="#9a32cd" stroke="#9a32cd" points="623.697,-260.847 623.833,-250.253 617.12,-258.45 623.697,-260.847"/>
<text text-anchor="middle" x="637" y="-269.6" font-family="Helvetica,sans-Serif" font-size="8.00"> colorCoreOld_</text>
</g>
<!-- Node23 -->
<g id="node23" class="node"><title>Node23</title>
<g id="a_node23"><a xlink:href="../../d4/dc9/classscg_1_1_camera.html" target="_top" xlink:title="Base class for all cameras (composite node, abstract).">
<polygon fill="white" stroke="black" points="1082.33,-30 1082.33,-46 1143.67,-46 1143.67,-30 1082.33,-30"/>
<text text-anchor="middle" x="1113" y="-35.6" font-family="Helvetica,sans-Serif" font-size="8.00">scg::Camera</text>
</a>
</g>
</g>
<!-- Node23&#45;&gt;Node7 -->
<g id="edge31" class="edge"><title>Node23&#45;&gt;Node7</title>
<path fill="none" stroke="#9a32cd" stroke-dasharray="5,2" d="M1153.81,-38.9643C1169.54,-41.1118 1186.94,-45.8897 1200,-56 1231.41,-80.3119 1244.45,-129.575 1248.5,-148.931"/>
<polygon fill="#9a32cd" stroke="#9a32cd" points="1154.09,-35.4744 1143.78,-37.9032 1153.35,-42.4356 1154.09,-35.4744"/>
<text text-anchor="middle" x="1181" y="-57.6" font-family="Helvetica,sans-Serif" font-size="8.00"> camera_</text>
</g>
<!-- Node24&#45;&gt;Node23 -->
<g id="edge32" class="edge"><title>Node24&#45;&gt;Node23</title>
<path fill="none" stroke="midnightblue" d="M975.743,-30.7906C1010.06,-32.6063 1053.57,-34.9084 1082.07,-36.4162"/>
<polygon fill="midnightblue" stroke="midnightblue" points="975.586,-27.2775 965.415,-30.2442 975.216,-34.2678 975.586,-27.2775"/>
</g>
<!-- Node25 -->
<g id="node25" class="node"><title>Node25</title>
<g id="a_node25"><a xlink:href="../../db/d02/structscg_1_1_frame_buffer_size.html" target="_top" xlink:title="Frame buffer size, to be set by renderer in Renderer::initViewer(), called by Viewer::init().">
<polygon fill="white" stroke="black" points="875.613,-254 875.613,-270 968.387,-270 968.387,-254 875.613,-254"/>
<text text-anchor="middle" x="922" y="-259.6" font-family="Helvetica,sans-Serif" font-size="8.00">scg::FrameBufferSize</text>
</a>
</g>
</g>
<!-- Node25&#45;&gt;Node1 -->
<g id="edge35" class="edge"><title>Node25&#45;&gt;Node1</title>
<path fill="none" stroke="#9a32cd" stroke-dasharray="5,2" d="M978.639,-254.018C1004.66,-250.005 1036.01,-244.77 1064,-239 1070.56,-237.647 1077.58,-236.004 1084.17,-234.374"/>
<polygon fill="#9a32cd" stroke="#9a32cd" points="977.938,-250.584 968.579,-255.549 978.992,-257.504 977.938,-250.584"/>
<text text-anchor="middle" x="1032" y="-252.6" font-family="Helvetica,sans-Serif" font-size="8.00"> frameBufferSize_</text>
</g>
<!-- Node26 -->
<g id="node26" class="node"><title>Node26</title>
<g id="a_node26"><a xlink:href="../../d3/dde/classscg_1_1_view_state.html" target="_top" xlink:title="The view state of the application, managed by Viewer and accessible by Controller::checkInput() (or d...">
<polygon fill="white" stroke="black" points="887.613,-219 887.613,-235 956.387,-235 956.387,-219 887.613,-219"/>
<text text-anchor="middle" x="922" y="-224.6" font-family="Helvetica,sans-Serif" font-size="8.00">scg::ViewState</text>
</a>
</g>
</g>
<!-- Node26&#45;&gt;Node1 -->
<g id="edge36" class="edge"><title>Node26&#45;&gt;Node1</title>
<path fill="none" stroke="#9a32cd" stroke-dasharray="5,2" d="M967.079,-227C1003.31,-227 1053.53,-227 1084.34,-227"/>
<polygon fill="#9a32cd" stroke="#9a32cd" points="966.789,-223.5 956.789,-227 966.789,-230.5 966.789,-223.5"/>
<text text-anchor="middle" x="1032" y="-228.6" font-family="Helvetica,sans-Serif" font-size="8.00"> viewState_</text>
</g>
</g>
</svg>
