<?xml version="1.0" encoding="UTF-8" standalone="no"?>
<!DOCTYPE svg PUBLIC "-//W3C//DTD SVG 1.1//EN"
 "http://www.w3.org/Graphics/SVG/1.1/DTD/svg11.dtd">
<!-- Generated by graphviz version 2.36.0 (20140111.2315)
 -->
<!-- Title: scg::CubeMapCore Pages: 1 -->
<svg width="92pt" height="134pt"
 viewBox="0.00 0.00 92.00 134.00" xmlns="http://www.w3.org/2000/svg" xmlns:xlink="http://www.w3.org/1999/xlink">
<g id="graph0" class="graph" transform="scale(1 1) rotate(0) translate(4 130)">
<title>scg::CubeMapCore</title>
<polygon fill="white" stroke="none" points="-4,4 -4,-130 88,-130 88,4 -4,4"/>
<!-- Node0 -->
<g id="node1" class="node"><title>Node0</title>
<g id="a_node1"><a xlink:title="Cube map textue core.">
<polygon fill="#bfbfbf" stroke="black" points="-0.460938,-1 -0.460938,-17 84.4609,-17 84.4609,-1 -0.460938,-1"/>
<text text-anchor="middle" x="42" y="-6.6" font-family="Helvetica,sans-Serif" font-size="8.00">scg::CubeMapCore</text>
</a>
</g>
</g>
<!-- Node1 -->
<g id="node2" class="node"><title>Node1</title>
<g id="a_node2"><a xlink:href="../../d1/d4f/classscg_1_1_texture_core.html" target="_top" xlink:title="Base class for all texture cores (abstract).">
<polygon fill="white" stroke="black" points="3.76562,-55 3.76562,-71 80.2344,-71 80.2344,-55 3.76562,-55"/>
<text text-anchor="middle" x="42" y="-60.6" font-family="Helvetica,sans-Serif" font-size="8.00">scg::TextureCore</text>
</a>
</g>
</g>
<!-- Node1&#45;&gt;Node0 -->
<g id="edge1" class="edge"><title>Node1&#45;&gt;Node0</title>
<path fill="none" stroke="midnightblue" d="M42,-44.5708C42,-35.2222 42,-24.2089 42,-17.169"/>
<polygon fill="midnightblue" stroke="midnightblue" points="38.5001,-44.7696 42,-54.7696 45.5001,-44.7697 38.5001,-44.7696"/>
</g>
<!-- Node2 -->
<g id="node3" class="node"><title>Node2</title>
<g id="a_node3"><a xlink:href="../../d0/d79/classscg_1_1_core.html" target="_top" xlink:title="Base class for all cores (abstract).">
<polygon fill="white" stroke="black" points="16.8828,-109 16.8828,-125 67.1172,-125 67.1172,-109 16.8828,-109"/>
<text text-anchor="middle" x="42" y="-114.6" font-family="Helvetica,sans-Serif" font-size="8.00">scg::Core</text>
</a>
</g>
</g>
<!-- Node2&#45;&gt;Node1 -->
<g id="edge2" class="edge"><title>Node2&#45;&gt;Node1</title>
<path fill="none" stroke="midnightblue" d="M42,-98.5708C42,-89.2222 42,-78.2089 42,-71.169"/>
<polygon fill="midnightblue" stroke="midnightblue" points="38.5001,-98.7696 42,-108.77 45.5001,-98.7697 38.5001,-98.7696"/>
</g>
</g>
</svg>
