<?xml version="1.0" encoding="UTF-8" standalone="no"?>
<!DOCTYPE svg PUBLIC "-//W3C//DTD SVG 1.1//EN"
 "http://www.w3.org/Graphics/SVG/1.1/DTD/svg11.dtd">
<!-- Generated by graphviz version 2.36.0 (20140111.2315)
 -->
<!-- Title: scg::Renderer Pages: 1 -->
<svg width="1412pt" height="300pt"
 viewBox="0.00 0.00 1412.00 300.00" xmlns="http://www.w3.org/2000/svg" xmlns:xlink="http://www.w3.org/1999/xlink">
<g id="graph0" class="graph" transform="scale(1 1) rotate(0) translate(4 296)">
<title>scg::Renderer</title>
<polygon fill="white" stroke="none" points="-4,4 -4,-296 1408,-296 1408,4 -4,4"/>
<!-- Node6 -->
<g id="node1" class="node"><title>Node6</title>
<g id="a_node1"><a xlink:title="Base class for all renderers (abstract).">
<polygon fill="#bfbfbf" stroke="black" points="1152.88,-196 1152.88,-212 1219.12,-212 1219.12,-196 1152.88,-196"/>
<text text-anchor="middle" x="1186" y="-201.6" font-family="Helvetica,sans-Serif" font-size="8.00">scg::Renderer</text>
</a>
</g>
</g>
<!-- Node24 -->
<g id="node19" class="node"><title>Node24</title>
<g id="a_node19"><a xlink:href="../../d1/db0/classscg_1_1_viewer.html" target="_top" xlink:title="Central viewer managing window, controllers, animations, and main loop.">
<polygon fill="white" stroke="black" points="1346.4,-103 1346.4,-119 1403.6,-119 1403.6,-103 1346.4,-103"/>
<text text-anchor="middle" x="1375" y="-108.6" font-family="Helvetica,sans-Serif" font-size="8.00">scg::Viewer</text>
</a>
</g>
</g>
<!-- Node6&#45;&gt;Node24 -->
<g id="edge34" class="edge"><title>Node6&#45;&gt;Node24</title>
<path fill="none" stroke="#9a32cd" stroke-dasharray="5,2" d="M1219.9,-192.36C1249.11,-181.479 1292.53,-163.948 1328,-144 1341.19,-136.58 1355.16,-126.146 1364.19,-119.008"/>
<polygon fill="#9a32cd" stroke="#9a32cd" points="1218.38,-189.19 1210.2,-195.924 1220.79,-195.761 1218.38,-189.19"/>
<text text-anchor="middle" x="1296" y="-175.6" font-family="Helvetica,sans-Serif" font-size="8.00"> renderer_</text>
</g>
<!-- Node7 -->
<g id="node2" class="node"><title>Node7</title>
<g id="a_node2"><a xlink:href="../../d4/dc7/classscg_1_1_node.html" target="_top" xlink:title="Base class for all nodes (composite pattern, abstract).">
<polygon fill="white" stroke="black" points="498.99,-222 498.99,-238 551.01,-238 551.01,-222 498.99,-222"/>
<text text-anchor="middle" x="525" y="-227.6" font-family="Helvetica,sans-Serif" font-size="8.00">scg::Node</text>
</a>
</g>
</g>
<!-- Node7&#45;&gt;Node6 -->
<g id="edge1" class="edge"><title>Node7&#45;&gt;Node6</title>
<path fill="none" stroke="#9a32cd" stroke-dasharray="5,2" d="M552.935,-242.085C590.933,-258.003 662.818,-284 727,-284 727,-284 727,-284 1021,-284 1085.94,-284 1152.04,-232.7 1175.8,-212.26"/>
<polygon fill="#9a32cd" stroke="#9a32cd" points="554.16,-238.802 543.589,-238.084 551.405,-245.237 554.16,-238.802"/>
<text text-anchor="middle" x="905" y="-285.6" font-family="Helvetica,sans-Serif" font-size="8.00"> scene_</text>
</g>
<!-- Node7&#45;&gt;Node7 -->
<g id="edge2" class="edge"><title>Node7&#45;&gt;Node7</title>
<path fill="none" stroke="#9a32cd" stroke-dasharray="5,2" d="M504.073,-247.198C504.852,-252.164 511.827,-256 525,-256 545.562,-256 551.024,-246.652 541.386,-238.253"/>
<polygon fill="#9a32cd" stroke="#9a32cd" points="507.208,-248.755 508.614,-238.253 500.967,-245.586 507.208,-248.755"/>
<text text-anchor="middle" x="525" y="-257.6" font-family="Helvetica,sans-Serif" font-size="8.00"> rightSibling_</text>
</g>
<!-- Node13 -->
<g id="node8" class="node"><title>Node13</title>
<g id="a_node8"><a xlink:href="../../da/d38/classscg_1_1_composite.html" target="_top" xlink:title="Base class for all composite nodes, i.e., nodes with children (composite pattern, abstract).">
<polygon fill="white" stroke="black" points="692.434,-220 692.434,-236 763.566,-236 763.566,-220 692.434,-220"/>
<text text-anchor="middle" x="728" y="-225.6" font-family="Helvetica,sans-Serif" font-size="8.00">scg::Composite</text>
</a>
</g>
</g>
<!-- Node7&#45;&gt;Node13 -->
<g id="edge9" class="edge"><title>Node7&#45;&gt;Node13</title>
<path fill="none" stroke="midnightblue" d="M561.318,-229.649C598.15,-229.282 655.525,-228.711 692.173,-228.347"/>
<polygon fill="midnightblue" stroke="midnightblue" points="561.015,-226.151 551.05,-229.751 561.085,-233.151 561.015,-226.151"/>
</g>
<!-- Node7&#45;&gt;Node13 -->
<g id="edge10" class="edge"><title>Node7&#45;&gt;Node13</title>
<path fill="none" stroke="#9a32cd" stroke-dasharray="5,2" d="M561.004,-222.174C573.829,-219.672 588.506,-217.233 602,-216 632.982,-213.17 641.068,-212.665 672,-216 679.774,-216.838 688.06,-218.324 695.779,-219.972"/>
<polygon fill="#9a32cd" stroke="#9a32cd" points="560.276,-218.75 551.174,-224.172 561.67,-225.61 560.276,-218.75"/>
<text text-anchor="middle" x="637" y="-217.6" font-family="Helvetica,sans-Serif" font-size="8.00"> leftChild_</text>
</g>
<!-- Node8 -->
<g id="node3" class="node"><title>Node8</title>
<g id="a_node3"><a xlink:title=" ">
<polygon fill="white" stroke="#bfbfbf" points="247.199,-228 247.199,-260 334.801,-260 334.801,-228 247.199,-228"/>
<text text-anchor="start" x="255.199" y="-249.6" font-family="Helvetica,sans-Serif" font-size="8.00">std::unordered_map</text>
<text text-anchor="start" x="255.199" y="-241.6" font-family="Helvetica,sans-Serif" font-size="8.00">&lt; std::string, std::</text>
<text text-anchor="middle" x="291" y="-233.6" font-family="Helvetica,sans-Serif" font-size="8.00">string &gt;</text>
</a>
</g>
</g>
<!-- Node8&#45;&gt;Node7 -->
<g id="edge3" class="edge"><title>Node8&#45;&gt;Node7</title>
<path fill="none" stroke="#9a32cd" stroke-dasharray="5,2" d="M345.082,-240.797C393.309,-237.887 462.341,-233.721 498.958,-231.511"/>
<polygon fill="#9a32cd" stroke="#9a32cd" points="344.594,-237.32 334.823,-241.416 345.015,-244.307 344.594,-237.32"/>
<text text-anchor="middle" x="404" y="-240.6" font-family="Helvetica,sans-Serif" font-size="8.00"> metaInfo_</text>
</g>
<!-- Node9 -->
<g id="node4" class="node"><title>Node9</title>
<g id="a_node4"><a xlink:title="STL class.">
<polygon fill="white" stroke="#bfbfbf" points="116.66,-191 116.66,-207 167.34,-207 167.34,-191 116.66,-191"/>
<text text-anchor="middle" x="142" y="-196.6" font-family="Helvetica,sans-Serif" font-size="8.00">std::string</text>
</a>
</g>
</g>
<!-- Node9&#45;&gt;Node8 -->
<g id="edge4" class="edge"><title>Node9&#45;&gt;Node8</title>
<path fill="none" stroke="#9a32cd" stroke-dasharray="5,2" d="M177.311,-209.503C198.149,-215.882 224.927,-224.08 247.15,-230.883"/>
<polygon fill="#9a32cd" stroke="#9a32cd" points="178.191,-206.112 167.604,-206.532 176.142,-212.806 178.191,-206.112"/>
<text text-anchor="middle" x="204" y="-231.6" font-family="Helvetica,sans-Serif" font-size="8.00"> keys</text>
<text text-anchor="middle" x="204" y="-223.6" font-family="Helvetica,sans-Serif" font-size="8.00">elements</text>
</g>
<!-- Node16 -->
<g id="node11" class="node"><title>Node16</title>
<g id="a_node11"><a xlink:title=" ">
<polygon fill="white" stroke="#bfbfbf" points="359.982,-184 359.982,-208 448.018,-208 448.018,-184 359.982,-184"/>
<text text-anchor="start" x="367.982" y="-197.6" font-family="Helvetica,sans-Serif" font-size="8.00">std::unordered_map</text>
<text text-anchor="middle" x="404" y="-189.6" font-family="Helvetica,sans-Serif" font-size="8.00">&lt; std::string, GLint &gt;</text>
</a>
</g>
</g>
<!-- Node9&#45;&gt;Node16 -->
<g id="edge16" class="edge"><title>Node9&#45;&gt;Node16</title>
<path fill="none" stroke="#9a32cd" stroke-dasharray="5,2" d="M177.732,-198.599C224.696,-198.057 308.435,-197.091 359.523,-196.502"/>
<polygon fill="#9a32cd" stroke="#9a32cd" points="177.419,-195.103 167.46,-198.718 177.5,-202.102 177.419,-195.103"/>
<text text-anchor="middle" x="204" y="-199.6" font-family="Helvetica,sans-Serif" font-size="8.00"> keys</text>
</g>
<!-- Node18 -->
<g id="node13" class="node"><title>Node18</title>
<g id="a_node13"><a xlink:href="../../d1/dad/structscg_1_1_shader_i_d.html" target="_top" xlink:title="A shader ID to identify shaders in error messages. An arbitrary name can be added to the OpnGL shader...">
<polygon fill="white" stroke="black" points="257.654,-119 257.654,-135 324.346,-135 324.346,-119 257.654,-119"/>
<text text-anchor="middle" x="291" y="-124.6" font-family="Helvetica,sans-Serif" font-size="8.00">scg::ShaderID</text>
</a>
</g>
</g>
<!-- Node9&#45;&gt;Node18 -->
<g id="edge19" class="edge"><title>Node9&#45;&gt;Node18</title>
<path fill="none" stroke="#9a32cd" stroke-dasharray="5,2" d="M148.636,-181.132C154.888,-164.635 166.72,-141.069 186,-130 207.461,-117.679 235.737,-117.686 257.387,-120.355"/>
<polygon fill="#9a32cd" stroke="#9a32cd" points="145.271,-180.154 145.312,-190.749 151.887,-182.441 145.271,-180.154"/>
<text text-anchor="middle" x="204" y="-131.6" font-family="Helvetica,sans-Serif" font-size="8.00"> name</text>
</g>
<!-- Node10 -->
<g id="node5" class="node"><title>Node10</title>
<g id="a_node5"><a xlink:title="STL class.">
<polygon fill="white" stroke="#bfbfbf" points="-0.238281,-187 -0.238281,-211 78.2383,-211 78.2383,-187 -0.238281,-187"/>
<text text-anchor="start" x="7.76172" y="-200.6" font-family="Helvetica,sans-Serif" font-size="8.00">std::basic_string&lt;</text>
<text text-anchor="middle" x="39" y="-192.6" font-family="Helvetica,sans-Serif" font-size="8.00"> char &gt;</text>
</a>
</g>
</g>
<!-- Node10&#45;&gt;Node9 -->
<g id="edge5" class="edge"><title>Node10&#45;&gt;Node9</title>
<path fill="none" stroke="midnightblue" d="M88.5466,-199C98.3068,-199 108.164,-199 116.658,-199"/>
<polygon fill="midnightblue" stroke="midnightblue" points="88.4719,-195.5 78.4719,-199 88.4719,-202.5 88.4719,-195.5"/>
</g>
<!-- Node11 -->
<g id="node6" class="node"><title>Node11</title>
<g id="a_node6"><a xlink:title=" ">
<polygon fill="white" stroke="#bfbfbf" points="240.537,-154 240.537,-170 341.463,-170 341.463,-154 240.537,-154"/>
<text text-anchor="middle" x="291" y="-159.6" font-family="Helvetica,sans-Serif" font-size="8.00">std::vector&lt; scg::Core &gt;</text>
</a>
</g>
</g>
<!-- Node11&#45;&gt;Node7 -->
<g id="edge6" class="edge"><title>Node11&#45;&gt;Node7</title>
<path fill="none" stroke="#9a32cd" stroke-dasharray="5,2" d="M351.985,-154.149C381.907,-152.629 418.013,-154.518 448,-167 458.159,-171.229 457.681,-176.797 466,-184 481.933,-197.797 501.255,-212.795 513.085,-221.793"/>
<polygon fill="#9a32cd" stroke="#9a32cd" points="351.432,-150.677 341.68,-154.817 351.885,-157.663 351.432,-150.677"/>
<text text-anchor="middle" x="404" y="-168.6" font-family="Helvetica,sans-Serif" font-size="8.00"> cores_</text>
</g>
<!-- Node12 -->
<g id="node7" class="node"><title>Node12</title>
<g id="a_node7"><a xlink:href="../../d0/d79/classscg_1_1_core.html" target="_top" xlink:title="Base class for all cores (abstract).">
<polygon fill="white" stroke="black" points="116.883,-82 116.883,-98 167.117,-98 167.117,-82 116.883,-82"/>
<text text-anchor="middle" x="142" y="-87.6" font-family="Helvetica,sans-Serif" font-size="8.00">scg::Core</text>
</a>
</g>
</g>
<!-- Node12&#45;&gt;Node11 -->
<g id="edge7" class="edge"><title>Node12&#45;&gt;Node11</title>
<path fill="none" stroke="#9a32cd" stroke-dasharray="5,2" d="M153.472,-106.644C161.166,-117.496 172.588,-131.068 186,-139 202.394,-148.696 222.432,-154.313 240.527,-157.563"/>
<polygon fill="#9a32cd" stroke="#9a32cd" points="156.177,-104.393 147.714,-98.0185 150.355,-108.279 156.177,-104.393"/>
<text text-anchor="middle" x="204" y="-155.6" font-family="Helvetica,sans-Serif" font-size="8.00"> elements</text>
</g>
<!-- Node15 -->
<g id="node10" class="node"><title>Node15</title>
<g id="a_node10"><a xlink:href="../../df/de9/classscg_1_1_shader_core.html" target="_top" xlink:title="A core to set a shader program to be applied to subsequent nodes.">
<polygon fill="white" stroke="black" points="689.984,-116 689.984,-132 766.016,-132 766.016,-116 689.984,-116"/>
<text text-anchor="middle" x="728" y="-121.6" font-family="Helvetica,sans-Serif" font-size="8.00">scg::ShaderCore</text>
</a>
</g>
</g>
<!-- Node12&#45;&gt;Node15 -->
<g id="edge13" class="edge"><title>Node12&#45;&gt;Node15</title>
<path fill="none" stroke="midnightblue" d="M177.606,-90.7676C252.038,-92.5776 432.852,-97.8272 584,-109 619.973,-111.659 660.897,-116.095 689.721,-119.455"/>
<polygon fill="midnightblue" stroke="midnightblue" points="177.493,-87.2641 167.413,-90.5253 177.326,-94.2621 177.493,-87.2641"/>
</g>
<!-- Node21 -->
<g id="node16" class="node"><title>Node21</title>
<g id="a_node16"><a xlink:href="../../d9/dc2/classscg_1_1_color_core.html" target="_top" xlink:title="A core to set a vertex color or a color transformation to be applied to subsequent geometry.">
<polygon fill="white" stroke="black" points="602.324,-1 602.324,-17 671.676,-17 671.676,-1 602.324,-1"/>
<text text-anchor="middle" x="637" y="-6.6" font-family="Helvetica,sans-Serif" font-size="8.00">scg::ColorCore</text>
</a>
</g>
</g>
<!-- Node12&#45;&gt;Node21 -->
<g id="edge23" class="edge"><title>Node12&#45;&gt;Node21</title>
<path fill="none" stroke="midnightblue" d="M175.384,-78.8219C178.943,-77.7835 182.532,-76.8166 186,-76 339.19,-39.9247 526.52,-19.4183 602.047,-12.0993"/>
<polygon fill="midnightblue" stroke="midnightblue" points="174.074,-75.5638 165.562,-81.8717 176.15,-82.249 174.074,-75.5638"/>
</g>
<!-- Node13&#45;&gt;Node7 -->
<g id="edge8" class="edge"><title>Node13&#45;&gt;Node7</title>
<path fill="none" stroke="#9a32cd" stroke-dasharray="5,2" d="M682.086,-237.733C678.684,-238.24 675.295,-238.674 672,-239 629.67,-243.192 580.229,-238.045 551.105,-233.986"/>
<polygon fill="#9a32cd" stroke="#9a32cd" points="682.959,-241.136 692.241,-236.028 681.8,-234.233 682.959,-241.136"/>
<text text-anchor="middle" x="637" y="-241.6" font-family="Helvetica,sans-Serif" font-size="8.00"> parent_</text>
</g>
<!-- Node23 -->
<g id="node18" class="node"><title>Node23</title>
<g id="a_node18"><a xlink:href="../../d0/d99/classscg_1_1_transformation.html" target="_top" xlink:title="A transformation node to be used to appy a transformation to the sub&#45;tree (composite node).">
<polygon fill="white" stroke="black" points="861.801,-220 861.801,-236 948.199,-236 948.199,-220 861.801,-220"/>
<text text-anchor="middle" x="905" y="-225.6" font-family="Helvetica,sans-Serif" font-size="8.00">scg::Transformation</text>
</a>
</g>
</g>
<!-- Node13&#45;&gt;Node23 -->
<g id="edge27" class="edge"><title>Node13&#45;&gt;Node23</title>
<path fill="none" stroke="midnightblue" d="M773.575,-228C800.684,-228 835.1,-228 861.772,-228"/>
<polygon fill="midnightblue" stroke="midnightblue" points="773.574,-224.5 763.574,-228 773.574,-231.5 773.574,-224.5"/>
</g>
<!-- Node14 -->
<g id="node9" class="node"><title>Node14</title>
<g id="a_node9"><a xlink:href="../../db/dfa/classscg_1_1_render_state.html" target="_top" xlink:title="The central render state that collects information about the current shader, transformations,...">
<polygon fill="white" stroke="black" points="866.094,-87 866.094,-103 943.906,-103 943.906,-87 866.094,-87"/>
<text text-anchor="middle" x="905" y="-92.6" font-family="Helvetica,sans-Serif" font-size="8.00">scg::RenderState</text>
</a>
</g>
</g>
<!-- Node14&#45;&gt;Node6 -->
<g id="edge11" class="edge"><title>Node14&#45;&gt;Node6</title>
<path fill="none" stroke="#9a32cd" stroke-dasharray="5,2" d="M919.176,-110.607C933.792,-126.841 958.911,-151.708 986,-165 1040.52,-191.753 1111.92,-200.16 1152.7,-202.798"/>
<polygon fill="#9a32cd" stroke="#9a32cd" points="921.752,-108.236 912.536,-103.011 916.482,-112.843 921.752,-108.236"/>
<text text-anchor="middle" x="1020" y="-190.6" font-family="Helvetica,sans-Serif" font-size="8.00"> renderState_</text>
</g>
<!-- Node15&#45;&gt;Node14 -->
<g id="edge12" class="edge"><title>Node15&#45;&gt;Node14</title>
<path fill="none" stroke="#9a32cd" stroke-dasharray="5,2" d="M776.142,-116.188C804.324,-111.518 839.657,-105.663 866.034,-101.291"/>
<polygon fill="#9a32cd" stroke="#9a32cd" points="775.406,-112.762 766.113,-117.85 776.551,-119.668 775.406,-112.762"/>
<text text-anchor="middle" x="814" y="-116.6" font-family="Helvetica,sans-Serif" font-size="8.00"> shaderCore_</text>
</g>
<!-- Node15&#45;&gt;Node15 -->
<g id="edge14" class="edge"><title>Node15&#45;&gt;Node15</title>
<path fill="none" stroke="#9a32cd" stroke-dasharray="5,2" d="M712.053,-141.916C713.063,-146.529 718.379,-150 728,-150 743.789,-150 747.983,-140.652 740.582,-132.253"/>
<polygon fill="#9a32cd" stroke="#9a32cd" points="715.434,-142.848 715.418,-132.253 708.824,-140.546 715.434,-142.848"/>
<text text-anchor="middle" x="728" y="-151.6" font-family="Helvetica,sans-Serif" font-size="8.00"> shaderCoreOld_</text>
</g>
<!-- Node16&#45;&gt;Node15 -->
<g id="edge15" class="edge"><title>Node16&#45;&gt;Node15</title>
<path fill="none" stroke="#9a32cd" stroke-dasharray="5,2" d="M458.138,-185.035C512.111,-173.761 598.048,-155.439 672,-138 679.864,-136.146 688.333,-134.043 696.213,-132.041"/>
<polygon fill="#9a32cd" stroke="#9a32cd" points="457.188,-181.657 448.112,-187.124 458.616,-188.51 457.188,-181.657"/>
<text text-anchor="middle" x="525" y="-184.6" font-family="Helvetica,sans-Serif" font-size="8.00"> uniformLocMap_</text>
</g>
<!-- Node17 -->
<g id="node12" class="node"><title>Node17</title>
<g id="a_node12"><a xlink:title=" ">
<polygon fill="white" stroke="#bfbfbf" points="466.309,-119 466.309,-135 583.691,-135 583.691,-119 466.309,-119"/>
<text text-anchor="middle" x="525" y="-124.6" font-family="Helvetica,sans-Serif" font-size="8.00">std::vector&lt; scg::ShaderID &gt;</text>
</a>
</g>
</g>
<!-- Node17&#45;&gt;Node15 -->
<g id="edge17" class="edge"><title>Node17&#45;&gt;Node15</title>
<path fill="none" stroke="#9a32cd" stroke-dasharray="5,2" d="M594.068,-125.984C626.075,-125.506 662.998,-124.955 689.796,-124.555"/>
<polygon fill="#9a32cd" stroke="#9a32cd" points="593.814,-122.487 583.868,-126.136 593.919,-129.487 593.814,-122.487"/>
<text text-anchor="middle" x="637" y="-127.6" font-family="Helvetica,sans-Serif" font-size="8.00"> shaderIDs_</text>
</g>
<!-- Node18&#45;&gt;Node17 -->
<g id="edge18" class="edge"><title>Node18&#45;&gt;Node17</title>
<path fill="none" stroke="#9a32cd" stroke-dasharray="5,2" d="M335.15,-127C371.995,-127 425.315,-127 465.909,-127"/>
<polygon fill="#9a32cd" stroke="#9a32cd" points="334.748,-123.5 324.748,-127 334.748,-130.5 334.748,-123.5"/>
<text text-anchor="middle" x="404" y="-128.6" font-family="Helvetica,sans-Serif" font-size="8.00"> elements</text>
</g>
<!-- Node19 -->
<g id="node14" class="node"><title>Node19</title>
<g id="a_node14"><a xlink:href="../../d4/dab/classscg_1_1_matrix_stack.html" target="_top" xlink:title="Matrix stack to store model&#45;view, projection, texture, and color matrices, used by RenderState.">
<polygon fill="white" stroke="black" points="690.66,-60 690.66,-76 765.34,-76 765.34,-60 690.66,-60"/>
<text text-anchor="middle" x="728" y="-65.6" font-family="Helvetica,sans-Serif" font-size="8.00">scg::MatrixStack</text>
</a>
</g>
</g>
<!-- Node19&#45;&gt;Node14 -->
<g id="edge20" class="edge"><title>Node19&#45;&gt;Node14</title>
<path fill="none" stroke="#9a32cd" stroke-dasharray="5,2" d="M775.417,-64.2244C796.552,-63.5692 821.759,-64.2874 844,-69 860.437,-72.4828 877.922,-80.6286 889.75,-86.8817"/>
<polygon fill="#9a32cd" stroke="#9a32cd" points="775.244,-60.7285 765.4,-64.6449 775.538,-67.7223 775.244,-60.7285"/>
<text text-anchor="middle" x="814" y="-94.6" font-family="Helvetica,sans-Serif" font-size="8.00"> textureStack</text>
<text text-anchor="middle" x="814" y="-86.6" font-family="Helvetica,sans-Serif" font-size="8.00">projectionStack</text>
<text text-anchor="middle" x="814" y="-78.6" font-family="Helvetica,sans-Serif" font-size="8.00">modelViewStack</text>
<text text-anchor="middle" x="814" y="-70.6" font-family="Helvetica,sans-Serif" font-size="8.00">colorStack</text>
</g>
<!-- Node20 -->
<g id="node15" class="node"><title>Node20</title>
<g id="a_node15"><a xlink:title=" ">
<polygon fill="white" stroke="#bfbfbf" points="475.65,-45 475.65,-61 574.35,-61 574.35,-45 475.65,-45"/>
<text text-anchor="middle" x="525" y="-50.6" font-family="Helvetica,sans-Serif" font-size="8.00">std::stack&lt; glm::mat4 &gt;</text>
</a>
</g>
</g>
<!-- Node20&#45;&gt;Node19 -->
<g id="edge21" class="edge"><title>Node20&#45;&gt;Node19</title>
<path fill="none" stroke="#9a32cd" stroke-dasharray="5,2" d="M584.727,-57.3826C618.884,-59.9316 660.872,-63.0651 690.35,-65.265"/>
<polygon fill="#9a32cd" stroke="#9a32cd" points="584.633,-53.866 574.4,-56.612 584.112,-60.8465 584.633,-53.866"/>
<text text-anchor="middle" x="637" y="-65.6" font-family="Helvetica,sans-Serif" font-size="8.00"> stack_</text>
</g>
<!-- Node21&#45;&gt;Node14 -->
<g id="edge22" class="edge"><title>Node21&#45;&gt;Node14</title>
<path fill="none" stroke="#9a32cd" stroke-dasharray="5,2" d="M681.692,-16.4936C724.138,-24.5881 789.917,-39.3104 844,-61 861.558,-68.0414 880.298,-79.3424 892.073,-86.9628"/>
<polygon fill="#9a32cd" stroke="#9a32cd" points="682.161,-13.0207 671.688,-14.6263 680.876,-19.9019 682.161,-13.0207"/>
<text text-anchor="middle" x="728" y="-37.6" font-family="Helvetica,sans-Serif" font-size="8.00"> colorCore_</text>
</g>
<!-- Node21&#45;&gt;Node21 -->
<g id="edge24" class="edge"><title>Node21&#45;&gt;Node21</title>
<path fill="none" stroke="#9a32cd" stroke-dasharray="5,2" d="M620.311,-26.9164C621.368,-31.5287 626.931,-35 637,-35 653.523,-35 657.912,-25.652 650.167,-17.2534"/>
<polygon fill="#9a32cd" stroke="#9a32cd" points="623.697,-27.8474 623.833,-17.2534 617.12,-25.4503 623.697,-27.8474"/>
<text text-anchor="middle" x="637" y="-36.6" font-family="Helvetica,sans-Serif" font-size="8.00"> colorCoreOld_</text>
</g>
<!-- Node22 -->
<g id="node17" class="node"><title>Node22</title>
<g id="a_node17"><a xlink:href="../../d4/dc9/classscg_1_1_camera.html" target="_top" xlink:title="Base class for all cameras (composite node, abstract).">
<polygon fill="white" stroke="black" points="989.326,-220 989.326,-236 1050.67,-236 1050.67,-220 989.326,-220"/>
<text text-anchor="middle" x="1020" y="-225.6" font-family="Helvetica,sans-Serif" font-size="8.00">scg::Camera</text>
</a>
</g>
</g>
<!-- Node22&#45;&gt;Node6 -->
<g id="edge25" class="edge"><title>Node22&#45;&gt;Node6</title>
<path fill="none" stroke="#9a32cd" stroke-dasharray="5,2" d="M1060.64,-222.199C1088.86,-218.069 1126.31,-212.588 1152.72,-208.725"/>
<polygon fill="#9a32cd" stroke="#9a32cd" points="1060.09,-218.743 1050.7,-223.654 1061.1,-225.669 1060.09,-218.743"/>
<text text-anchor="middle" x="1090" y="-221.6" font-family="Helvetica,sans-Serif" font-size="8.00"> camera_</text>
</g>
<!-- Node23&#45;&gt;Node22 -->
<g id="edge26" class="edge"><title>Node23&#45;&gt;Node22</title>
<path fill="none" stroke="midnightblue" d="M958.707,-228C969.126,-228 979.718,-228 989.056,-228"/>
<polygon fill="midnightblue" stroke="midnightblue" points="958.399,-224.5 948.399,-228 958.398,-231.5 958.399,-224.5"/>
</g>
<!-- Node24&#45;&gt;Node6 -->
<g id="edge28" class="edge"><title>Node24&#45;&gt;Node6</title>
<path fill="none" stroke="#9a32cd" stroke-dasharray="5,2" d="M1367.43,-128.855C1360.35,-145.439 1347.41,-169.413 1328,-182 1295.36,-203.165 1249.73,-206.644 1219.31,-206.17"/>
<polygon fill="#9a32cd" stroke="#9a32cd" points="1370.82,-129.803 1371.25,-119.217 1364.31,-127.224 1370.82,-129.803"/>
<text text-anchor="middle" x="1296" y="-204.6" font-family="Helvetica,sans-Serif" font-size="8.00"> viewer_</text>
</g>
<!-- Node25 -->
<g id="node20" class="node"><title>Node25</title>
<g id="a_node20"><a xlink:title=" ">
<polygon fill="white" stroke="#bfbfbf" points="1126.42,-140 1126.42,-156 1245.58,-156 1245.58,-140 1126.42,-140"/>
<text text-anchor="middle" x="1186" y="-145.6" font-family="Helvetica,sans-Serif" font-size="8.00">std::vector&lt; scg::Animation &gt;</text>
</a>
</g>
</g>
<!-- Node25&#45;&gt;Node24 -->
<g id="edge29" class="edge"><title>Node25&#45;&gt;Node24</title>
<path fill="none" stroke="#9a32cd" stroke-dasharray="5,2" d="M1237.6,-137.989C1272.52,-131.078 1317.65,-122.149 1346.22,-116.496"/>
<polygon fill="#9a32cd" stroke="#9a32cd" points="1236.71,-134.597 1227.58,-139.972 1238.07,-141.464 1236.71,-134.597"/>
<text text-anchor="middle" x="1296" y="-133.6" font-family="Helvetica,sans-Serif" font-size="8.00"> animations_</text>
</g>
<!-- Node26 -->
<g id="node21" class="node"><title>Node26</title>
<g id="a_node21"><a xlink:href="../../d2/df5/classscg_1_1_animation.html" target="_top" xlink:title="Base class for all animations (abstract), providing general functionality.">
<polygon fill="white" stroke="black" points="985.766,-140 985.766,-156 1054.23,-156 1054.23,-140 985.766,-140"/>
<text text-anchor="middle" x="1020" y="-145.6" font-family="Helvetica,sans-Serif" font-size="8.00">scg::Animation</text>
</a>
</g>
</g>
<!-- Node26&#45;&gt;Node25 -->
<g id="edge30" class="edge"><title>Node26&#45;&gt;Node25</title>
<path fill="none" stroke="#9a32cd" stroke-dasharray="5,2" d="M1064.68,-148C1083.56,-148 1105.94,-148 1126.24,-148"/>
<polygon fill="#9a32cd" stroke="#9a32cd" points="1064.58,-144.5 1054.58,-148 1064.58,-151.5 1064.58,-144.5"/>
<text text-anchor="middle" x="1090" y="-149.6" font-family="Helvetica,sans-Serif" font-size="8.00"> elements</text>
</g>
<!-- Node27 -->
<g id="node22" class="node"><title>Node27</title>
<g id="a_node22"><a xlink:title=" ">
<polygon fill="white" stroke="#bfbfbf" points="1126.87,-105 1126.87,-121 1245.13,-121 1245.13,-105 1126.87,-105"/>
<text text-anchor="middle" x="1186" y="-110.6" font-family="Helvetica,sans-Serif" font-size="8.00">std::vector&lt; scg::Controller &gt;</text>
</a>
</g>
</g>
<!-- Node27&#45;&gt;Node24 -->
<g id="edge31" class="edge"><title>Node27&#45;&gt;Node24</title>
<path fill="none" stroke="#9a32cd" stroke-dasharray="5,2" d="M1255.19,-112.271C1286.65,-111.934 1322.24,-111.554 1346.2,-111.297"/>
<polygon fill="#9a32cd" stroke="#9a32cd" points="1255.1,-108.771 1245.14,-112.378 1255.18,-115.771 1255.1,-108.771"/>
<text text-anchor="middle" x="1296" y="-114.6" font-family="Helvetica,sans-Serif" font-size="8.00"> controllers_</text>
</g>
<!-- Node28 -->
<g id="node23" class="node"><title>Node28</title>
<g id="a_node23"><a xlink:href="../../de/de4/classscg_1_1_controller.html" target="_top" xlink:title="Base class for all controllers (abstract).">
<polygon fill="white" stroke="black" points="986.213,-105 986.213,-121 1053.79,-121 1053.79,-105 986.213,-105"/>
<text text-anchor="middle" x="1020" y="-110.6" font-family="Helvetica,sans-Serif" font-size="8.00">scg::Controller</text>
</a>
</g>
</g>
<!-- Node28&#45;&gt;Node27 -->
<g id="edge32" class="edge"><title>Node28&#45;&gt;Node27</title>
<path fill="none" stroke="#9a32cd" stroke-dasharray="5,2" d="M1064.02,-113C1083.18,-113 1106.04,-113 1126.71,-113"/>
<polygon fill="#9a32cd" stroke="#9a32cd" points="1063.79,-109.5 1053.79,-113 1063.79,-116.5 1063.79,-109.5"/>
<text text-anchor="middle" x="1090" y="-114.6" font-family="Helvetica,sans-Serif" font-size="8.00"> elements</text>
</g>
<!-- Node29 -->
<g id="node24" class="node"><title>Node29</title>
<g id="a_node24"><a xlink:href="../../d7/d72/structscg_1_1_o_g_l_config.html" target="_top" xlink:title="OpenGL configuration, may be set by user before calling Viewer::init().">
<polygon fill="white" stroke="black" points="1149.54,-70 1149.54,-86 1222.46,-86 1222.46,-70 1149.54,-70"/>
<text text-anchor="middle" x="1186" y="-75.6" font-family="Helvetica,sans-Serif" font-size="8.00">scg::OGLConfig</text>
</a>
</g>
</g>
<!-- Node29&#45;&gt;Node24 -->
<g id="edge33" class="edge"><title>Node29&#45;&gt;Node24</title>
<path fill="none" stroke="#9a32cd" stroke-dasharray="5,2" d="M1232.66,-84.1805C1260.34,-88.1614 1296.32,-93.7504 1328,-100 1333.96,-101.176 1340.32,-102.591 1346.35,-104.009"/>
<polygon fill="#9a32cd" stroke="#9a32cd" points="1232.88,-80.6762 1222.48,-82.7356 1231.89,-87.6067 1232.88,-80.6762"/>
<text text-anchor="middle" x="1296" y="-101.6" font-family="Helvetica,sans-Serif" font-size="8.00"> oglConfig_</text>
</g>
<!-- Node30 -->
<g id="node25" class="node"><title>Node30</title>
<g id="a_node25"><a xlink:href="../../db/d02/structscg_1_1_frame_buffer_size.html" target="_top" xlink:title="Frame buffer size, to be set by renderer in Renderer::initViewer(), called by Viewer::init().">
<polygon fill="white" stroke="black" points="1139.61,-35 1139.61,-51 1232.39,-51 1232.39,-35 1139.61,-35"/>
<text text-anchor="middle" x="1186" y="-40.6" font-family="Helvetica,sans-Serif" font-size="8.00">scg::FrameBufferSize</text>
</a>
</g>
</g>
<!-- Node30&#45;&gt;Node24 -->
<g id="edge35" class="edge"><title>Node30&#45;&gt;Node24</title>
<path fill="none" stroke="#9a32cd" stroke-dasharray="5,2" d="M1242.54,-51.7352C1269.19,-57.1785 1301.1,-65.5711 1328,-78 1341.92,-84.4308 1355.96,-95.2782 1364.8,-102.771"/>
<polygon fill="#9a32cd" stroke="#9a32cd" points="1243.09,-48.2765 1232.6,-49.7912 1241.74,-55.1463 1243.09,-48.2765"/>
<text text-anchor="middle" x="1296" y="-79.6" font-family="Helvetica,sans-Serif" font-size="8.00"> frameBufferSize_</text>
</g>
<!-- Node31 -->
<g id="node26" class="node"><title>Node31</title>
<g id="a_node26"><a xlink:href="../../d3/dde/classscg_1_1_view_state.html" target="_top" xlink:title="The view state of the application, managed by Viewer and accessible by Controller::checkInput() (or d...">
<polygon fill="white" stroke="black" points="1151.61,-0 1151.61,-16 1220.39,-16 1220.39,-0 1151.61,-0"/>
<text text-anchor="middle" x="1186" y="-5.6" font-family="Helvetica,sans-Serif" font-size="8.00">scg::ViewState</text>
</a>
</g>
</g>
<!-- Node31&#45;&gt;Node24 -->
<g id="edge36" class="edge"><title>Node31&#45;&gt;Node24</title>
<path fill="none" stroke="#9a32cd" stroke-dasharray="5,2" d="M1230.58,-11.5359C1260.26,-15.734 1299.23,-24.9163 1328,-45 1349.53,-60.0285 1364.25,-88.5781 1370.54,-102.685"/>
<polygon fill="#9a32cd" stroke="#9a32cd" points="1230.87,-8.04394 1220.5,-10.2492 1229.98,-14.9876 1230.87,-8.04394"/>
<text text-anchor="middle" x="1296" y="-46.6" font-family="Helvetica,sans-Serif" font-size="8.00"> viewState_</text>
</g>
</g>
</svg>
