<?xml version="1.0" encoding="UTF-8" standalone="no"?>
<!DOCTYPE svg PUBLIC "-//W3C//DTD SVG 1.1//EN"
 "http://www.w3.org/Graphics/SVG/1.1/DTD/svg11.dtd">
<!-- Generated by graphviz version 2.36.0 (20140111.2315)
 -->
<!-- Title: scg::Texture2DCore Pages: 1 -->
<svg width="94pt" height="134pt"
 viewBox="0.00 0.00 94.00 134.00" xmlns="http://www.w3.org/2000/svg" xmlns:xlink="http://www.w3.org/1999/xlink">
<g id="graph0" class="graph" transform="scale(1 1) rotate(0) translate(4 130)">
<title>scg::Texture2DCore</title>
<polygon fill="white" stroke="none" points="-4,4 -4,-130 90,-130 90,4 -4,4"/>
<!-- Node4 -->
<g id="node1" class="node"><title>Node4</title>
<g id="a_node1"><a xlink:title="2D texture core.">
<polygon fill="#bfbfbf" stroke="black" points="-0.347656,-1 -0.347656,-17 86.3477,-17 86.3477,-1 -0.347656,-1"/>
<text text-anchor="middle" x="43" y="-6.6" font-family="Helvetica,sans-Serif" font-size="8.00">scg::Texture2DCore</text>
</a>
</g>
</g>
<!-- Node5 -->
<g id="node2" class="node"><title>Node5</title>
<g id="a_node2"><a xlink:href="../../d1/d4f/classscg_1_1_texture_core.html" target="_top" xlink:title="Base class for all texture cores (abstract).">
<polygon fill="white" stroke="black" points="4.76562,-55 4.76562,-71 81.2344,-71 81.2344,-55 4.76562,-55"/>
<text text-anchor="middle" x="43" y="-60.6" font-family="Helvetica,sans-Serif" font-size="8.00">scg::TextureCore</text>
</a>
</g>
</g>
<!-- Node5&#45;&gt;Node4 -->
<g id="edge1" class="edge"><title>Node5&#45;&gt;Node4</title>
<path fill="none" stroke="midnightblue" d="M43,-44.5708C43,-35.2222 43,-24.2089 43,-17.169"/>
<polygon fill="midnightblue" stroke="midnightblue" points="39.5001,-44.7696 43,-54.7696 46.5001,-44.7697 39.5001,-44.7696"/>
</g>
<!-- Node6 -->
<g id="node3" class="node"><title>Node6</title>
<g id="a_node3"><a xlink:href="../../d0/d79/classscg_1_1_core.html" target="_top" xlink:title="Base class for all cores (abstract).">
<polygon fill="white" stroke="black" points="17.8828,-109 17.8828,-125 68.1172,-125 68.1172,-109 17.8828,-109"/>
<text text-anchor="middle" x="43" y="-114.6" font-family="Helvetica,sans-Serif" font-size="8.00">scg::Core</text>
</a>
</g>
</g>
<!-- Node6&#45;&gt;Node5 -->
<g id="edge2" class="edge"><title>Node6&#45;&gt;Node5</title>
<path fill="none" stroke="midnightblue" d="M43,-98.5708C43,-89.2222 43,-78.2089 43,-71.169"/>
<polygon fill="midnightblue" stroke="midnightblue" points="39.5001,-98.7696 43,-108.77 46.5001,-98.7697 39.5001,-98.7696"/>
</g>
</g>
</svg>
