<?xml version="1.0" encoding="UTF-8" standalone="no"?>
<!DOCTYPE svg PUBLIC "-//W3C//DTD SVG 1.1//EN"
 "http://www.w3.org/Graphics/SVG/1.1/DTD/svg11.dtd">
<!-- Generated by graphviz version 2.36.0 (20140111.2315)
 -->
<!-- Title: scg::Transformation Pages: 1 -->
<svg width="373pt" height="238pt"
 viewBox="0.00 0.00 373.00 238.00" xmlns="http://www.w3.org/2000/svg" xmlns:xlink="http://www.w3.org/1999/xlink">
<g id="graph0" class="graph" transform="scale(1 1) rotate(0) translate(4 234)">
<title>scg::Transformation</title>
<polygon fill="white" stroke="none" points="-4,4 -4,-234 369,-234 369,4 -4,4"/>
<!-- Node8 -->
<g id="node1" class="node"><title>Node8</title>
<g id="a_node1"><a xlink:title="A transformation node to be used to appy a transformation to the sub&#45;tree (composite node).">
<polygon fill="#bfbfbf" stroke="black" points="-0.199219,-1 -0.199219,-17 86.1992,-17 86.1992,-1 -0.199219,-1"/>
<text text-anchor="middle" x="43" y="-6.6" font-family="Helvetica,sans-Serif" font-size="8.00">scg::Transformation</text>
</a>
</g>
</g>
<!-- Node9 -->
<g id="node2" class="node"><title>Node9</title>
<g id="a_node2"><a xlink:href="../../da/d38/classscg_1_1_composite.html" target="_top" xlink:title="Base class for all composite nodes, i.e., nodes with children (composite pattern, abstract).">
<polygon fill="white" stroke="black" points="50.4336,-71 50.4336,-87 121.566,-87 121.566,-71 50.4336,-71"/>
<text text-anchor="middle" x="86" y="-76.6" font-family="Helvetica,sans-Serif" font-size="8.00">scg::Composite</text>
</a>
</g>
</g>
<!-- Node9&#45;&gt;Node8 -->
<g id="edge1" class="edge"><title>Node9&#45;&gt;Node8</title>
<path fill="none" stroke="midnightblue" d="M71.8396,-63.4684C66.7243,-57.7173 61.1849,-50.8503 57,-44 51.6753,-35.284 47.5377,-24.1818 45.1833,-17.0808"/>
<polygon fill="midnightblue" stroke="midnightblue" points="69.446,-66.0337 78.8237,-70.9642 74.5675,-61.2619 69.446,-66.0337"/>
</g>
<!-- Node10 -->
<g id="node3" class="node"><title>Node10</title>
<g id="a_node3"><a xlink:href="../../d4/dc7/classscg_1_1_node.html" target="_top" xlink:title="Base class for all nodes (composite pattern, abstract).">
<polygon fill="white" stroke="black" points="126.99,-1 126.99,-17 179.01,-17 179.01,-1 126.99,-1"/>
<text text-anchor="middle" x="153" y="-6.6" font-family="Helvetica,sans-Serif" font-size="8.00">scg::Node</text>
</a>
</g>
</g>
<!-- Node9&#45;&gt;Node10 -->
<g id="edge9" class="edge"><title>Node9&#45;&gt;Node10</title>
<path fill="none" stroke="#9a32cd" stroke-dasharray="5,2" d="M82.0905,-60.7603C81.2185,-52.5872 81.7303,-43.0861 86.6445,-36 95.7402,-22.8844 112.518,-16.3849 126.927,-13.164"/>
<polygon fill="#9a32cd" stroke="#9a32cd" points="78.6657,-61.4932 83.8539,-70.7308 85.5587,-60.274 78.6657,-61.4932"/>
<text text-anchor="middle" x="101.678" y="-37.6" font-family="Helvetica,sans-Serif" font-size="8.00"> parent_</text>
</g>
<!-- Node10&#45;&gt;Node9 -->
<g id="edge2" class="edge"><title>Node10&#45;&gt;Node9</title>
<path fill="none" stroke="midnightblue" d="M138.635,-24.5792C124.542,-38.883 103.65,-60.0863 92.9178,-70.9789"/>
<polygon fill="midnightblue" stroke="midnightblue" points="141.494,-26.6645 146.019,-17.0848 136.508,-21.7515 141.494,-26.6645"/>
</g>
<!-- Node10&#45;&gt;Node9 -->
<g id="edge10" class="edge"><title>Node10&#45;&gt;Node9</title>
<path fill="none" stroke="#9a32cd" stroke-dasharray="5,2" d="M144.185,-26.0994C140.524,-32.0575 135.968,-38.6563 131,-44 120.999,-54.7565 107.268,-64.5807 97.6123,-70.8722"/>
<polygon fill="#9a32cd" stroke="#9a32cd" points="147.461,-27.4247 149.417,-17.012 141.394,-23.9322 147.461,-27.4247"/>
<text text-anchor="middle" x="155.787" y="-37.6" font-family="Helvetica,sans-Serif" font-size="8.00"> leftChild_</text>
</g>
<!-- Node10&#45;&gt;Node10 -->
<g id="edge3" class="edge"><title>Node10&#45;&gt;Node10</title>
<path fill="none" stroke="#9a32cd" stroke-dasharray="5,2" d="M189.475,-13.8876C194.016,-13.0215 197,-11.3923 197,-9 197,-5.07422 188.963,-3.20334 179.199,-3.38736"/>
<polygon fill="#9a32cd" stroke="#9a32cd" points="188.928,-10.4174 179.199,-14.6126 189.421,-17.4 188.928,-10.4174"/>
<text text-anchor="middle" x="220.125" y="-6.6" font-family="Helvetica,sans-Serif" font-size="8.00"> rightSibling_</text>
</g>
<!-- Node11 -->
<g id="node4" class="node"><title>Node11</title>
<g id="a_node4"><a xlink:title=" ">
<polygon fill="white" stroke="#bfbfbf" points="158.199,-63 158.199,-95 245.801,-95 245.801,-63 158.199,-63"/>
<text text-anchor="start" x="166.199" y="-84.6" font-family="Helvetica,sans-Serif" font-size="8.00">std::unordered_map</text>
<text text-anchor="start" x="166.199" y="-76.6" font-family="Helvetica,sans-Serif" font-size="8.00">&lt; std::string, std::</text>
<text text-anchor="middle" x="202" y="-68.6" font-family="Helvetica,sans-Serif" font-size="8.00">string &gt;</text>
</a>
</g>
</g>
<!-- Node11&#45;&gt;Node10 -->
<g id="edge4" class="edge"><title>Node11&#45;&gt;Node10</title>
<path fill="none" stroke="#9a32cd" stroke-dasharray="5,2" d="M197.9,-53.1899C196.131,-47.1975 193.604,-41.0673 190,-36 184.266,-27.939 175.213,-21.5146 167.498,-17.0685"/>
<polygon fill="#9a32cd" stroke="#9a32cd" points="194.499,-54.0149 200.22,-62.9324 201.309,-52.3936 194.499,-54.0149"/>
<text text-anchor="middle" x="213.9" y="-37.6" font-family="Helvetica,sans-Serif" font-size="8.00"> metaInfo_</text>
</g>
<!-- Node12 -->
<g id="node5" class="node"><title>Node12</title>
<g id="a_node5"><a xlink:title="STL class.">
<polygon fill="white" stroke="#bfbfbf" points="176.66,-149 176.66,-165 227.34,-165 227.34,-149 176.66,-149"/>
<text text-anchor="middle" x="202" y="-154.6" font-family="Helvetica,sans-Serif" font-size="8.00">std::string</text>
</a>
</g>
</g>
<!-- Node12&#45;&gt;Node11 -->
<g id="edge5" class="edge"><title>Node12&#45;&gt;Node11</title>
<path fill="none" stroke="#9a32cd" stroke-dasharray="5,2" d="M202,-138.922C202,-125.748 202,-107.699 202,-95.0606"/>
<polygon fill="#9a32cd" stroke="#9a32cd" points="198.5,-138.986 202,-148.986 205.5,-138.986 198.5,-138.986"/>
<text text-anchor="middle" x="218.23" y="-123.6" font-family="Helvetica,sans-Serif" font-size="8.00"> keys</text>
<text text-anchor="middle" x="218.23" y="-115.6" font-family="Helvetica,sans-Serif" font-size="8.00">elements</text>
</g>
<!-- Node13 -->
<g id="node6" class="node"><title>Node13</title>
<g id="a_node6"><a xlink:title="STL class.">
<polygon fill="white" stroke="#bfbfbf" points="162.762,-205 162.762,-229 241.238,-229 241.238,-205 162.762,-205"/>
<text text-anchor="start" x="170.762" y="-218.6" font-family="Helvetica,sans-Serif" font-size="8.00">std::basic_string&lt;</text>
<text text-anchor="middle" x="202" y="-210.6" font-family="Helvetica,sans-Serif" font-size="8.00"> char &gt;</text>
</a>
</g>
</g>
<!-- Node13&#45;&gt;Node12 -->
<g id="edge6" class="edge"><title>Node13&#45;&gt;Node12</title>
<path fill="none" stroke="midnightblue" d="M202,-194.738C202,-184.329 202,-172.485 202,-165.126"/>
<polygon fill="midnightblue" stroke="midnightblue" points="198.5,-194.817 202,-204.817 205.5,-194.817 198.5,-194.817"/>
</g>
<!-- Node14 -->
<g id="node7" class="node"><title>Node14</title>
<g id="a_node7"><a xlink:title=" ">
<polygon fill="white" stroke="#bfbfbf" points="263.537,-71 263.537,-87 364.463,-87 364.463,-71 263.537,-71"/>
<text text-anchor="middle" x="314" y="-76.6" font-family="Helvetica,sans-Serif" font-size="8.00">std::vector&lt; scg::Core &gt;</text>
</a>
</g>
</g>
<!-- Node14&#45;&gt;Node10 -->
<g id="edge7" class="edge"><title>Node14&#45;&gt;Node10</title>
<path fill="none" stroke="#9a32cd" stroke-dasharray="5,2" d="M293.757,-65.7162C278.312,-56.6888 256.306,-44.5553 236,-36 217.492,-28.2022 195.813,-21.4891 179.252,-16.8383"/>
<polygon fill="#9a32cd" stroke="#9a32cd" points="292.066,-68.7823 302.452,-70.8759 295.638,-62.7625 292.066,-68.7823"/>
<text text-anchor="middle" x="265.117" y="-37.6" font-family="Helvetica,sans-Serif" font-size="8.00"> cores_</text>
</g>
<!-- Node15 -->
<g id="node8" class="node"><title>Node15</title>
<g id="a_node8"><a xlink:href="../../d0/d79/classscg_1_1_core.html" target="_top" xlink:title="Base class for all cores (abstract).">
<polygon fill="white" stroke="black" points="288.883,-149 288.883,-165 339.117,-165 339.117,-149 288.883,-149"/>
<text text-anchor="middle" x="314" y="-154.6" font-family="Helvetica,sans-Serif" font-size="8.00">scg::Core</text>
</a>
</g>
</g>
<!-- Node15&#45;&gt;Node14 -->
<g id="edge8" class="edge"><title>Node15&#45;&gt;Node14</title>
<path fill="none" stroke="#9a32cd" stroke-dasharray="5,2" d="M314,-138.715C314,-122.469 314,-98.9485 314,-87.2184"/>
<polygon fill="#9a32cd" stroke="#9a32cd" points="310.5,-138.986 314,-148.986 317.5,-138.986 310.5,-138.986"/>
<text text-anchor="middle" x="331.342" y="-119.6" font-family="Helvetica,sans-Serif" font-size="8.00"> elements</text>
</g>
</g>
</svg>
