<?xml version="1.0" encoding="UTF-8" standalone="no"?>
<!DOCTYPE svg PUBLIC "-//W3C//DTD SVG 1.1//EN"
 "http://www.w3.org/Graphics/SVG/1.1/DTD/svg11.dtd">
<!-- Generated by graphviz version 2.36.0 (20140111.2315)
 -->
<!-- Title: scg::ShaderCoreFactory Pages: 1 -->
<svg width="110pt" height="214pt"
 viewBox="0.00 0.00 110.00 214.00" xmlns="http://www.w3.org/2000/svg" xmlns:xlink="http://www.w3.org/1999/xlink">
<g id="graph0" class="graph" transform="scale(1 1) rotate(0) translate(4 210)">
<title>scg::ShaderCoreFactory</title>
<polygon fill="white" stroke="none" points="-4,4 -4,-210 106,-210 106,4 -4,4"/>
<!-- Node1 -->
<g id="node1" class="node"><title>Node1</title>
<polygon fill="#bfbfbf" stroke="black" points="-0.351562,-1 -0.351562,-17 102.352,-17 102.352,-1 -0.351562,-1"/>
<text text-anchor="middle" x="51" y="-6.6" font-family="Helvetica,sans-Serif" font-size="8.00">scg::ShaderCoreFactory</text>
</g>
<!-- Node2 -->
<g id="node2" class="node"><title>Node2</title>
<polygon fill="white" stroke="#bfbfbf" points="0.314453,-63 0.314453,-79 101.686,-79 101.686,-63 0.314453,-63"/>
<text text-anchor="middle" x="51" y="-68.6" font-family="Helvetica,sans-Serif" font-size="8.00">std::vector&lt; std::string &gt;</text>
</g>
<!-- Node2&#45;&gt;Node1 -->
<g id="edge1" class="edge"><title>Node2&#45;&gt;Node1</title>
<path fill="none" stroke="#9a32cd" stroke-dasharray="5,2" d="M51,-52.5833C51,-40.7458 51,-25.7157 51,-17.0444"/>
<polygon fill="#9a32cd" stroke="#9a32cd" points="47.5001,-52.6428 51,-62.6428 54.5001,-52.6429 47.5001,-52.6428"/>
<text text-anchor="middle" x="69.6777" y="-37.6" font-family="Helvetica,sans-Serif" font-size="8.00"> filePaths_</text>
</g>
<!-- Node3 -->
<g id="node3" class="node"><title>Node3</title>
<g id="a_node3"><a xlink:title="STL class. ">
<polygon fill="white" stroke="#bfbfbf" points="25.6602,-125 25.6602,-141 76.3398,-141 76.3398,-125 25.6602,-125"/>
<text text-anchor="middle" x="51" y="-130.6" font-family="Helvetica,sans-Serif" font-size="8.00">std::string</text>
</a>
</g>
</g>
<!-- Node3&#45;&gt;Node2 -->
<g id="edge2" class="edge"><title>Node3&#45;&gt;Node2</title>
<path fill="none" stroke="#9a32cd" stroke-dasharray="5,2" d="M51,-114.583C51,-102.746 51,-87.7157 51,-79.0444"/>
<polygon fill="#9a32cd" stroke="#9a32cd" points="47.5001,-114.643 51,-124.643 54.5001,-114.643 47.5001,-114.643"/>
<text text-anchor="middle" x="68.3418" y="-99.6" font-family="Helvetica,sans-Serif" font-size="8.00"> elements</text>
</g>
<!-- Node4 -->
<g id="node4" class="node"><title>Node4</title>
<g id="a_node4"><a xlink:title="STL class. ">
<polygon fill="white" stroke="#bfbfbf" points="11.7617,-181 11.7617,-205 90.2383,-205 90.2383,-181 11.7617,-181"/>
<text text-anchor="start" x="19.7617" y="-194.6" font-family="Helvetica,sans-Serif" font-size="8.00">std::basic_string&lt;</text>
<text text-anchor="middle" x="51" y="-186.6" font-family="Helvetica,sans-Serif" font-size="8.00"> char &gt;</text>
</a>
</g>
</g>
<!-- Node4&#45;&gt;Node3 -->
<g id="edge3" class="edge"><title>Node4&#45;&gt;Node3</title>
<path fill="none" stroke="midnightblue" d="M51,-170.738C51,-160.329 51,-148.485 51,-141.126"/>
<polygon fill="midnightblue" stroke="midnightblue" points="47.5001,-170.817 51,-180.817 54.5001,-170.817 47.5001,-170.817"/>
</g>
</g>
</svg>
