<?xml version="1.0" encoding="UTF-8" standalone="no"?>
<!DOCTYPE svg PUBLIC "-//W3C//DTD SVG 1.1//EN"
 "http://www.w3.org/Graphics/SVG/1.1/DTD/svg11.dtd">
<!-- Generated by graphviz version 2.36.0 (20140111.2315)
 -->
<!-- Title: scg::Group Pages: 1 -->
<svg width="357pt" height="238pt"
 viewBox="0.00 0.00 357.00 238.00" xmlns="http://www.w3.org/2000/svg" xmlns:xlink="http://www.w3.org/1999/xlink">
<g id="graph0" class="graph" transform="scale(1 1) rotate(0) translate(4 234)">
<title>scg::Group</title>
<polygon fill="white" stroke="none" points="-4,4 -4,-234 353,-234 353,4 -4,4"/>
<!-- Node1 -->
<g id="node1" class="node"><title>Node1</title>
<polygon fill="#bfbfbf" stroke="black" points="-0.564453,-1 -0.564453,-17 54.5645,-17 54.5645,-1 -0.564453,-1"/>
<text text-anchor="middle" x="27" y="-6.6" font-family="Helvetica,sans-Serif" font-size="8.00">scg::Group</text>
</g>
<!-- Node2 -->
<g id="node2" class="node"><title>Node2</title>
<g id="a_node2"><a xlink:href="../../da/d38/classscg_1_1_composite.html" target="_top" xlink:title="Base class for all composite nodes, i.e., nodes with children (composite pattern, abstract)...">
<polygon fill="white" stroke="black" points="34.4336,-71 34.4336,-87 105.566,-87 105.566,-71 34.4336,-71"/>
<text text-anchor="middle" x="70" y="-76.6" font-family="Helvetica,sans-Serif" font-size="8.00">scg::Composite</text>
</a>
</g>
</g>
<!-- Node2&#45;&gt;Node1 -->
<g id="edge1" class="edge"><title>Node2&#45;&gt;Node1</title>
<path fill="none" stroke="midnightblue" d="M55.8396,-63.4684C50.7243,-57.7173 45.1849,-50.8503 41,-44 35.6753,-35.284 31.5377,-24.1818 29.1833,-17.0808"/>
<polygon fill="midnightblue" stroke="midnightblue" points="53.446,-66.0337 62.8237,-70.9642 58.5675,-61.2619 53.446,-66.0337"/>
</g>
<!-- Node3 -->
<g id="node3" class="node"><title>Node3</title>
<g id="a_node3"><a xlink:href="../../d4/dc7/classscg_1_1_node.html" target="_top" xlink:title="Base class for all nodes (composite pattern, abstract). ">
<polygon fill="white" stroke="black" points="110.99,-1 110.99,-17 163.01,-17 163.01,-1 110.99,-1"/>
<text text-anchor="middle" x="137" y="-6.6" font-family="Helvetica,sans-Serif" font-size="8.00">scg::Node</text>
</a>
</g>
</g>
<!-- Node2&#45;&gt;Node3 -->
<g id="edge9" class="edge"><title>Node2&#45;&gt;Node3</title>
<path fill="none" stroke="#9a32cd" stroke-dasharray="5,2" d="M66.0905,-60.7603C65.2185,-52.5872 65.7303,-43.0861 70.6445,-36 79.7402,-22.8844 96.5182,-16.3849 110.927,-13.164"/>
<polygon fill="#9a32cd" stroke="#9a32cd" points="62.6657,-61.4932 67.8539,-70.7308 69.5587,-60.274 62.6657,-61.4932"/>
<text text-anchor="middle" x="85.6777" y="-37.6" font-family="Helvetica,sans-Serif" font-size="8.00"> parent_</text>
</g>
<!-- Node3&#45;&gt;Node2 -->
<g id="edge2" class="edge"><title>Node3&#45;&gt;Node2</title>
<path fill="none" stroke="midnightblue" d="M122.635,-24.5792C108.542,-38.883 87.6502,-60.0863 76.9178,-70.9789"/>
<polygon fill="midnightblue" stroke="midnightblue" points="125.494,-26.6645 130.019,-17.0848 120.508,-21.7515 125.494,-26.6645"/>
</g>
<!-- Node3&#45;&gt;Node2 -->
<g id="edge10" class="edge"><title>Node3&#45;&gt;Node2</title>
<path fill="none" stroke="#9a32cd" stroke-dasharray="5,2" d="M128.185,-26.0994C124.524,-32.0575 119.968,-38.6563 115,-44 104.999,-54.7565 91.2683,-64.5807 81.6123,-70.8722"/>
<polygon fill="#9a32cd" stroke="#9a32cd" points="131.461,-27.4247 133.417,-17.012 125.394,-23.9322 131.461,-27.4247"/>
<text text-anchor="middle" x="139.787" y="-37.6" font-family="Helvetica,sans-Serif" font-size="8.00"> leftChild_</text>
</g>
<!-- Node3&#45;&gt;Node3 -->
<g id="edge3" class="edge"><title>Node3&#45;&gt;Node3</title>
<path fill="none" stroke="#9a32cd" stroke-dasharray="5,2" d="M173.475,-13.8876C178.016,-13.0215 181,-11.3923 181,-9 181,-5.07422 172.963,-3.20334 163.199,-3.38736"/>
<polygon fill="#9a32cd" stroke="#9a32cd" points="172.928,-10.4174 163.199,-14.6126 173.421,-17.4 172.928,-10.4174"/>
<text text-anchor="middle" x="204.125" y="-6.6" font-family="Helvetica,sans-Serif" font-size="8.00"> rightSibling_</text>
</g>
<!-- Node4 -->
<g id="node4" class="node"><title>Node4</title>
<polygon fill="white" stroke="#bfbfbf" points="142.199,-63 142.199,-95 229.801,-95 229.801,-63 142.199,-63"/>
<text text-anchor="start" x="150.199" y="-84.6" font-family="Helvetica,sans-Serif" font-size="8.00">std::unordered_map</text>
<text text-anchor="start" x="150.199" y="-76.6" font-family="Helvetica,sans-Serif" font-size="8.00">&lt; std::string, std::</text>
<text text-anchor="middle" x="186" y="-68.6" font-family="Helvetica,sans-Serif" font-size="8.00">string &gt;</text>
</g>
<!-- Node4&#45;&gt;Node3 -->
<g id="edge4" class="edge"><title>Node4&#45;&gt;Node3</title>
<path fill="none" stroke="#9a32cd" stroke-dasharray="5,2" d="M181.9,-53.1899C180.131,-47.1975 177.604,-41.0673 174,-36 168.266,-27.939 159.213,-21.5146 151.498,-17.0685"/>
<polygon fill="#9a32cd" stroke="#9a32cd" points="178.499,-54.0149 184.22,-62.9324 185.309,-52.3936 178.499,-54.0149"/>
<text text-anchor="middle" x="197.9" y="-37.6" font-family="Helvetica,sans-Serif" font-size="8.00"> metaInfo_</text>
</g>
<!-- Node5 -->
<g id="node5" class="node"><title>Node5</title>
<g id="a_node5"><a xlink:title="STL class. ">
<polygon fill="white" stroke="#bfbfbf" points="160.66,-149 160.66,-165 211.34,-165 211.34,-149 160.66,-149"/>
<text text-anchor="middle" x="186" y="-154.6" font-family="Helvetica,sans-Serif" font-size="8.00">std::string</text>
</a>
</g>
</g>
<!-- Node5&#45;&gt;Node4 -->
<g id="edge5" class="edge"><title>Node5&#45;&gt;Node4</title>
<path fill="none" stroke="#9a32cd" stroke-dasharray="5,2" d="M186,-138.922C186,-125.748 186,-107.699 186,-95.0606"/>
<polygon fill="#9a32cd" stroke="#9a32cd" points="182.5,-138.986 186,-148.986 189.5,-138.986 182.5,-138.986"/>
<text text-anchor="middle" x="202.23" y="-123.6" font-family="Helvetica,sans-Serif" font-size="8.00"> keys</text>
<text text-anchor="middle" x="202.23" y="-115.6" font-family="Helvetica,sans-Serif" font-size="8.00">elements</text>
</g>
<!-- Node6 -->
<g id="node6" class="node"><title>Node6</title>
<g id="a_node6"><a xlink:title="STL class. ">
<polygon fill="white" stroke="#bfbfbf" points="146.762,-205 146.762,-229 225.238,-229 225.238,-205 146.762,-205"/>
<text text-anchor="start" x="154.762" y="-218.6" font-family="Helvetica,sans-Serif" font-size="8.00">std::basic_string&lt;</text>
<text text-anchor="middle" x="186" y="-210.6" font-family="Helvetica,sans-Serif" font-size="8.00"> char &gt;</text>
</a>
</g>
</g>
<!-- Node6&#45;&gt;Node5 -->
<g id="edge6" class="edge"><title>Node6&#45;&gt;Node5</title>
<path fill="none" stroke="midnightblue" d="M186,-194.738C186,-184.329 186,-172.485 186,-165.126"/>
<polygon fill="midnightblue" stroke="midnightblue" points="182.5,-194.817 186,-204.817 189.5,-194.817 182.5,-194.817"/>
</g>
<!-- Node7 -->
<g id="node7" class="node"><title>Node7</title>
<polygon fill="white" stroke="#bfbfbf" points="247.537,-71 247.537,-87 348.463,-87 348.463,-71 247.537,-71"/>
<text text-anchor="middle" x="298" y="-76.6" font-family="Helvetica,sans-Serif" font-size="8.00">std::vector&lt; scg::Core &gt;</text>
</g>
<!-- Node7&#45;&gt;Node3 -->
<g id="edge7" class="edge"><title>Node7&#45;&gt;Node3</title>
<path fill="none" stroke="#9a32cd" stroke-dasharray="5,2" d="M277.757,-65.7162C262.312,-56.6888 240.306,-44.5553 220,-36 201.492,-28.2022 179.813,-21.4891 163.252,-16.8383"/>
<polygon fill="#9a32cd" stroke="#9a32cd" points="276.066,-68.7823 286.452,-70.8759 279.638,-62.7625 276.066,-68.7823"/>
<text text-anchor="middle" x="249.117" y="-37.6" font-family="Helvetica,sans-Serif" font-size="8.00"> cores_</text>
</g>
<!-- Node8 -->
<g id="node8" class="node"><title>Node8</title>
<g id="a_node8"><a xlink:href="../../d0/d79/classscg_1_1_core.html" target="_top" xlink:title="Base class for all cores (abstract). ">
<polygon fill="white" stroke="black" points="272.883,-149 272.883,-165 323.117,-165 323.117,-149 272.883,-149"/>
<text text-anchor="middle" x="298" y="-154.6" font-family="Helvetica,sans-Serif" font-size="8.00">scg::Core</text>
</a>
</g>
</g>
<!-- Node8&#45;&gt;Node7 -->
<g id="edge8" class="edge"><title>Node8&#45;&gt;Node7</title>
<path fill="none" stroke="#9a32cd" stroke-dasharray="5,2" d="M298,-138.715C298,-122.469 298,-98.9485 298,-87.2184"/>
<polygon fill="#9a32cd" stroke="#9a32cd" points="294.5,-138.986 298,-148.986 301.5,-138.986 294.5,-138.986"/>
<text text-anchor="middle" x="315.342" y="-119.6" font-family="Helvetica,sans-Serif" font-size="8.00"> elements</text>
</g>
</g>
</svg>
