<?xml version="1.0" encoding="UTF-8" standalone="no"?>
<!DOCTYPE svg PUBLIC "-//W3C//DTD SVG 1.1//EN"
 "http://www.w3.org/Graphics/SVG/1.1/DTD/svg11.dtd">
<!-- Generated by graphviz version 2.36.0 (20140111.2315)
 -->
<!-- Title: scg::CameraController Pages: 1 -->
<svg width="218pt" height="134pt"
 viewBox="0.00 0.00 218.00 134.00" xmlns="http://www.w3.org/2000/svg" xmlns:xlink="http://www.w3.org/1999/xlink">
<g id="graph0" class="graph" transform="scale(1 1) rotate(0) translate(4 130)">
<title>scg::CameraController</title>
<polygon fill="white" stroke="none" points="-4,4 -4,-130 214,-130 214,4 -4,4"/>
<!-- Node1 -->
<g id="node1" class="node"><title>Node1</title>
<polygon fill="#bfbfbf" stroke="black" points="58.9863,-55 58.9863,-71 155.014,-71 155.014,-55 58.9863,-55"/>
<text text-anchor="middle" x="107" y="-60.6" font-family="Helvetica,sans-Serif" font-size="8.00">scg::CameraController</text>
</g>
<!-- Node3 -->
<g id="node3" class="node"><title>Node3</title>
<g id="a_node3"><a xlink:href="../../dd/d66/classscg_1_1_keyboard_controller.html" target="_top" xlink:title="A camera controller using keyboard input. ">
<polygon fill="white" stroke="black" points="-0.910156,-1 -0.910156,-17 100.91,-17 100.91,-1 -0.910156,-1"/>
<text text-anchor="middle" x="50" y="-6.6" font-family="Helvetica,sans-Serif" font-size="8.00">scg::KeyboardController</text>
</a>
</g>
</g>
<!-- Node1&#45;&gt;Node3 -->
<g id="edge2" class="edge"><title>Node1&#45;&gt;Node3</title>
<path fill="none" stroke="midnightblue" d="M91.5202,-47.8781C80.6296,-37.9428 66.508,-25.0599 57.8583,-17.169"/>
<polygon fill="midnightblue" stroke="midnightblue" points="89.3278,-50.6157 99.0744,-54.7696 94.0456,-45.4443 89.3278,-50.6157"/>
</g>
<!-- Node4 -->
<g id="node4" class="node"><title>Node4</title>
<g id="a_node4"><a xlink:href="../../da/d9a/classscg_1_1_mouse_controller.html" target="_top" xlink:title="A camera controller using mouse input. ">
<polygon fill="white" stroke="black" points="119.207,-1 119.207,-17 210.793,-17 210.793,-1 119.207,-1"/>
<text text-anchor="middle" x="165" y="-6.6" font-family="Helvetica,sans-Serif" font-size="8.00">scg::MouseController</text>
</a>
</g>
</g>
<!-- Node1&#45;&gt;Node4 -->
<g id="edge3" class="edge"><title>Node1&#45;&gt;Node4</title>
<path fill="none" stroke="midnightblue" d="M122.751,-47.8781C133.833,-37.9428 148.202,-25.0599 157.004,-17.169"/>
<polygon fill="midnightblue" stroke="midnightblue" points="120.174,-45.4881 115.065,-54.7696 124.847,-50.7001 120.174,-45.4881"/>
</g>
<!-- Node2 -->
<g id="node2" class="node"><title>Node2</title>
<g id="a_node2"><a xlink:href="../../de/de4/classscg_1_1_controller.html" target="_top" xlink:title="Base class for all controllers (abstract). ">
<polygon fill="white" stroke="black" points="73.2129,-109 73.2129,-125 140.787,-125 140.787,-109 73.2129,-109"/>
<text text-anchor="middle" x="107" y="-114.6" font-family="Helvetica,sans-Serif" font-size="8.00">scg::Controller</text>
</a>
</g>
</g>
<!-- Node2&#45;&gt;Node1 -->
<g id="edge1" class="edge"><title>Node2&#45;&gt;Node1</title>
<path fill="none" stroke="midnightblue" d="M107,-98.5708C107,-89.2222 107,-78.2089 107,-71.169"/>
<polygon fill="midnightblue" stroke="midnightblue" points="103.5,-98.7696 107,-108.77 110.5,-98.7697 103.5,-98.7696"/>
</g>
</g>
</svg>
