<?xml version="1.0" encoding="UTF-8" standalone="no"?>
<!DOCTYPE svg PUBLIC "-//W3C//DTD SVG 1.1//EN"
 "http://www.w3.org/Graphics/SVG/1.1/DTD/svg11.dtd">
<!-- Generated by graphviz version 2.36.0 (20140111.2315)
 -->
<!-- Title: src/Camera.h Pages: 1 -->
<svg width="399pt" height="134pt"
 viewBox="0.00 0.00 399.00 134.00" xmlns="http://www.w3.org/2000/svg" xmlns:xlink="http://www.w3.org/1999/xlink">
<g id="graph0" class="graph" transform="scale(1 1) rotate(0) translate(4 130)">
<title>src/Camera.h</title>
<polygon fill="white" stroke="none" points="-4,4 -4,-130 395,-130 395,4 -4,4"/>
<!-- Node0 -->
<g id="node1" class="node"><title>Node0</title>
<g id="a_node1"><a xlink:title="Base class for all cameras (leaf node, abstract).">
<polygon fill="#bfbfbf" stroke="black" points="183.994,-109 183.994,-125 248.006,-125 248.006,-109 183.994,-109"/>
<text text-anchor="middle" x="216" y="-114.6" font-family="Helvetica,sans-Serif" font-size="8.00">src/Camera.h</text>
</a>
</g>
</g>
<!-- Node1 -->
<g id="node2" class="node"><title>Node1</title>
<g id="a_node2"><a xlink:href="../../d7/d68/_stereo_camera_8h.html" target="_top" xlink:title="A perspective stereo camera (leaf node).">
<polygon fill="white" stroke="black" points="-0.351562,-55 -0.351562,-71 102.352,-71 102.352,-55 -0.351562,-55"/>
<text text-anchor="middle" x="51" y="-60.6" font-family="Helvetica,sans-Serif" font-size="8.00">src_ext/StereoCamera.h</text>
</a>
</g>
</g>
<!-- Node0&#45;&gt;Node1 -->
<g id="edge1" class="edge"><title>Node0&#45;&gt;Node1</title>
<path fill="none" stroke="midnightblue" d="M183.833,-105.862C151.32,-95.6161 101.929,-80.0502 73.427,-71.0679"/>
<polygon fill="midnightblue" stroke="midnightblue" points="183.158,-109.319 193.747,-108.987 185.262,-102.643 183.158,-109.319"/>
</g>
<!-- Node3 -->
<g id="node4" class="node"><title>Node3</title>
<g id="a_node4"><a xlink:href="../../d5/dea/_orthographic_camera_8h.html" target="_top" xlink:title="A camera with orthographic projection(leaf node).">
<polygon fill="white" stroke="black" points="119.871,-55 119.871,-71 230.129,-71 230.129,-55 119.871,-55"/>
<text text-anchor="middle" x="175" y="-60.6" font-family="Helvetica,sans-Serif" font-size="8.00">src/OrthographicCamera.h</text>
</a>
</g>
</g>
<!-- Node0&#45;&gt;Node3 -->
<g id="edge3" class="edge"><title>Node0&#45;&gt;Node3</title>
<path fill="none" stroke="midnightblue" d="M203.933,-100.696C196.241,-90.94 186.63,-78.7505 180.652,-71.169"/>
<polygon fill="midnightblue" stroke="midnightblue" points="201.359,-103.084 210.299,-108.77 206.856,-98.7499 201.359,-103.084"/>
</g>
<!-- Node4 -->
<g id="node5" class="node"><title>Node4</title>
<g id="a_node5"><a xlink:href="../../d4/d61/scg3_8h.html" target="_top" xlink:title="Main header file for scg3 scene graph library, including all class headers.">
<polygon fill="white" stroke="black" points="238.215,-1 238.215,-17 277.785,-17 277.785,-1 238.215,-1"/>
<text text-anchor="middle" x="258" y="-6.6" font-family="Helvetica,sans-Serif" font-size="8.00">scg3.h</text>
</a>
</g>
</g>
<!-- Node0&#45;&gt;Node4 -->
<g id="edge7" class="edge"><title>Node0&#45;&gt;Node4</title>
<path fill="none" stroke="midnightblue" d="M225.315,-99.9263C229.823,-91.7385 235.091,-81.5238 239,-72 246.952,-52.6287 253.379,-28.6769 256.299,-17.0267"/>
<polygon fill="midnightblue" stroke="midnightblue" points="222.214,-98.2987 220.336,-108.726 228.307,-101.746 222.214,-98.2987"/>
</g>
<!-- Node5 -->
<g id="node6" class="node"><title>Node5</title>
<g id="a_node6"><a xlink:href="../../df/db1/_perspective_camera_8h.html" target="_top" xlink:title="A camera with perspective projection (leaf node).">
<polygon fill="white" stroke="black" points="286.096,-55 286.096,-71 391.904,-71 391.904,-55 286.096,-55"/>
<text text-anchor="middle" x="339" y="-60.6" font-family="Helvetica,sans-Serif" font-size="8.00">src/PerspectiveCamera.h</text>
</a>
</g>
</g>
<!-- Node0&#45;&gt;Node5 -->
<g id="edge5" class="edge"><title>Node0&#45;&gt;Node5</title>
<path fill="none" stroke="midnightblue" d="M241.893,-105.053C266.118,-94.812 301.587,-79.8169 322.282,-71.0679"/>
<polygon fill="midnightblue" stroke="midnightblue" points="240.436,-101.869 232.588,-108.987 243.162,-108.317 240.436,-101.869"/>
</g>
<!-- Node2 -->
<g id="node3" class="node"><title>Node2</title>
<g id="a_node3"><a xlink:href="../../d0/d5b/scg3__ext_8h.html" target="_top" xlink:title="Main header file for scg3 scene graph library extensions, including all class headers.">
<polygon fill="white" stroke="black" points="23.6543,-1 23.6543,-17 78.3457,-17 78.3457,-1 23.6543,-1"/>
<text text-anchor="middle" x="51" y="-6.6" font-family="Helvetica,sans-Serif" font-size="8.00">scg3_ext.h</text>
</a>
</g>
</g>
<!-- Node1&#45;&gt;Node2 -->
<g id="edge2" class="edge"><title>Node1&#45;&gt;Node2</title>
<path fill="none" stroke="midnightblue" d="M51,-44.5708C51,-35.2222 51,-24.2089 51,-17.169"/>
<polygon fill="midnightblue" stroke="midnightblue" points="47.5001,-44.7696 51,-54.7696 54.5001,-44.7697 47.5001,-44.7696"/>
</g>
<!-- Node3&#45;&gt;Node4 -->
<g id="edge4" class="edge"><title>Node3&#45;&gt;Node4</title>
<path fill="none" stroke="midnightblue" d="M194.922,-49.5185C211.136,-39.3607 233.436,-25.3892 246.719,-17.0679"/>
<polygon fill="midnightblue" stroke="midnightblue" points="192.81,-46.7118 186.194,-54.987 196.526,-52.6438 192.81,-46.7118"/>
</g>
<!-- Node5&#45;&gt;Node4 -->
<g id="edge6" class="edge"><title>Node5&#45;&gt;Node4</title>
<path fill="none" stroke="midnightblue" d="M319.558,-49.5185C303.735,-39.3607 281.972,-25.3892 269.01,-17.0679"/>
<polygon fill="midnightblue" stroke="midnightblue" points="317.77,-52.53 328.076,-54.987 321.552,-46.6394 317.77,-52.53"/>
</g>
</g>
</svg>
