<?xml version="1.0" encoding="UTF-8" standalone="no"?>
<!DOCTYPE svg PUBLIC "-//W3C//DTD SVG 1.1//EN"
 "http://www.w3.org/Graphics/SVG/1.1/DTD/svg11.dtd">
<!-- Generated by graphviz version 2.36.0 (20140111.2315)
 -->
<!-- Title: scg::TransformAnimation Pages: 1 -->
<svg width="180pt" height="188pt"
 viewBox="0.00 0.00 180.00 188.00" xmlns="http://www.w3.org/2000/svg" xmlns:xlink="http://www.w3.org/1999/xlink">
<g id="graph0" class="graph" transform="scale(1 1) rotate(0) translate(4 184)">
<title>scg::TransformAnimation</title>
<polygon fill="white" stroke="none" points="-4,4 -4,-184 176,-184 176,4 -4,4"/>
<!-- Node0 -->
<g id="node1" class="node"><title>Node0</title>
<g id="a_node1"><a xlink:title="An animation that creates a transformation to be applied to its sub&#45;tree (composite node).">
<polygon fill="#bfbfbf" stroke="black" points="28.6875,-1 28.6875,-17 133.312,-17 133.312,-1 28.6875,-1"/>
<text text-anchor="middle" x="81" y="-6.6" font-family="Helvetica,sans-Serif" font-size="8.00">scg::TransformAnimation</text>
</a>
</g>
</g>
<!-- Node1 -->
<g id="node2" class="node"><title>Node1</title>
<g id="a_node2"><a xlink:href="../../d2/df5/classscg_1_1_animation.html" target="_top" xlink:title="Base class for all animations (abstract), providing general functionality.">
<polygon fill="white" stroke="black" points="-0.234375,-55 -0.234375,-71 68.2344,-71 68.2344,-55 -0.234375,-55"/>
<text text-anchor="middle" x="34" y="-60.6" font-family="Helvetica,sans-Serif" font-size="8.00">scg::Animation</text>
</a>
</g>
</g>
<!-- Node1&#45;&gt;Node0 -->
<g id="edge1" class="edge"><title>Node1&#45;&gt;Node0</title>
<path fill="none" stroke="midnightblue" d="M47.2953,-47.2903C56.1989,-37.4395 67.528,-24.9052 74.5204,-17.169"/>
<polygon fill="midnightblue" stroke="midnightblue" points="44.644,-45.004 40.5351,-54.7696 49.8371,-49.6978 44.644,-45.004"/>
</g>
<!-- Node2 -->
<g id="node3" class="node"><title>Node2</title>
<g id="a_node3"><a xlink:href="../../d0/d99/classscg_1_1_transformation.html" target="_top" xlink:title="A transformation node to be used to appy a transformation to the sub&#45;tree (composite node).">
<polygon fill="white" stroke="black" points="85.8008,-55 85.8008,-71 172.199,-71 172.199,-55 85.8008,-55"/>
<text text-anchor="middle" x="129" y="-60.6" font-family="Helvetica,sans-Serif" font-size="8.00">scg::Transformation</text>
</a>
</g>
</g>
<!-- Node2&#45;&gt;Node0 -->
<g id="edge2" class="edge"><title>Node2&#45;&gt;Node0</title>
<path fill="none" stroke="midnightblue" d="M115.422,-47.2903C106.329,-37.4395 94.7586,-24.9052 87.6175,-17.169"/>
<polygon fill="midnightblue" stroke="midnightblue" points="112.971,-49.7956 122.326,-54.7696 118.115,-45.0476 112.971,-49.7956"/>
</g>
<!-- Node3 -->
<g id="node4" class="node"><title>Node3</title>
<g id="a_node4"><a xlink:href="../../da/d38/classscg_1_1_composite.html" target="_top" xlink:title="Base class for all composite nodes, i.e., nodes with children (composite pattern, abstract).">
<polygon fill="white" stroke="black" points="93.4336,-109 93.4336,-125 164.566,-125 164.566,-109 93.4336,-109"/>
<text text-anchor="middle" x="129" y="-114.6" font-family="Helvetica,sans-Serif" font-size="8.00">scg::Composite</text>
</a>
</g>
</g>
<!-- Node3&#45;&gt;Node2 -->
<g id="edge3" class="edge"><title>Node3&#45;&gt;Node2</title>
<path fill="none" stroke="midnightblue" d="M129,-98.5708C129,-89.2222 129,-78.2089 129,-71.169"/>
<polygon fill="midnightblue" stroke="midnightblue" points="125.5,-98.7696 129,-108.77 132.5,-98.7697 125.5,-98.7696"/>
</g>
<!-- Node4 -->
<g id="node5" class="node"><title>Node4</title>
<g id="a_node5"><a xlink:href="../../d4/dc7/classscg_1_1_node.html" target="_top" xlink:title="Base class for all nodes (composite pattern, abstract).">
<polygon fill="white" stroke="black" points="102.99,-163 102.99,-179 155.01,-179 155.01,-163 102.99,-163"/>
<text text-anchor="middle" x="129" y="-168.6" font-family="Helvetica,sans-Serif" font-size="8.00">scg::Node</text>
</a>
</g>
</g>
<!-- Node4&#45;&gt;Node3 -->
<g id="edge4" class="edge"><title>Node4&#45;&gt;Node3</title>
<path fill="none" stroke="midnightblue" d="M129,-152.571C129,-143.222 129,-132.209 129,-125.169"/>
<polygon fill="midnightblue" stroke="midnightblue" points="125.5,-152.77 129,-162.77 132.5,-152.77 125.5,-152.77"/>
</g>
</g>
</svg>
