<?xml version="1.0" encoding="UTF-8" standalone="no"?>
<!DOCTYPE svg PUBLIC "-//W3C//DTD SVG 1.1//EN"
 "http://www.w3.org/Graphics/SVG/1.1/DTD/svg11.dtd">
<!-- Generated by graphviz version 2.36.0 (20140111.2315)
 -->
<!-- Title: scg::StereoCamera Pages: 1 -->
<svg width="373pt" height="350pt"
 viewBox="0.00 0.00 373.00 350.00" xmlns="http://www.w3.org/2000/svg" xmlns:xlink="http://www.w3.org/1999/xlink">
<g id="graph0" class="graph" transform="scale(1 1) rotate(0) translate(4 346)">
<title>scg::StereoCamera</title>
<polygon fill="white" stroke="none" points="-4,4 -4,-346 369,-346 369,4 -4,4"/>
<!-- Node5 -->
<g id="node1" class="node"><title>Node5</title>
<g id="a_node1"><a xlink:title="A perspective stereo camera (composite node).">
<polygon fill="#bfbfbf" stroke="black" points="0.541016,-1 0.541016,-17 85.459,-17 85.459,-1 0.541016,-1"/>
<text text-anchor="middle" x="43" y="-6.6" font-family="Helvetica,sans-Serif" font-size="8.00">scg::StereoCamera</text>
</a>
</g>
</g>
<!-- Node6 -->
<g id="node2" class="node"><title>Node6</title>
<g id="a_node2"><a xlink:href="../../d4/dc9/classscg_1_1_camera.html" target="_top" xlink:title="Base class for all cameras (composite node, abstract).">
<polygon fill="white" stroke="black" points="12.3262,-57 12.3262,-73 73.6738,-73 73.6738,-57 12.3262,-57"/>
<text text-anchor="middle" x="43" y="-62.6" font-family="Helvetica,sans-Serif" font-size="8.00">scg::Camera</text>
</a>
</g>
</g>
<!-- Node6&#45;&gt;Node5 -->
<g id="edge1" class="edge"><title>Node6&#45;&gt;Node5</title>
<path fill="none" stroke="midnightblue" d="M43,-46.894C43,-36.8897 43,-24.7822 43,-17.2336"/>
<polygon fill="midnightblue" stroke="midnightblue" points="39.5001,-46.9404 43,-56.9404 46.5001,-46.9405 39.5001,-46.9404"/>
</g>
<!-- Node7 -->
<g id="node3" class="node"><title>Node7</title>
<g id="a_node3"><a xlink:href="../../d0/d99/classscg_1_1_transformation.html" target="_top" xlink:title="A transformation node to be used to appy a transformation to the sub&#45;tree (composite node).">
<polygon fill="white" stroke="black" points="-0.199219,-113 -0.199219,-129 86.1992,-129 86.1992,-113 -0.199219,-113"/>
<text text-anchor="middle" x="43" y="-118.6" font-family="Helvetica,sans-Serif" font-size="8.00">scg::Transformation</text>
</a>
</g>
</g>
<!-- Node7&#45;&gt;Node6 -->
<g id="edge2" class="edge"><title>Node7&#45;&gt;Node6</title>
<path fill="none" stroke="midnightblue" d="M43,-102.894C43,-92.8897 43,-80.7822 43,-73.2336"/>
<polygon fill="midnightblue" stroke="midnightblue" points="39.5001,-102.94 43,-112.94 46.5001,-102.94 39.5001,-102.94"/>
</g>
<!-- Node8 -->
<g id="node4" class="node"><title>Node8</title>
<g id="a_node4"><a xlink:href="../../da/d38/classscg_1_1_composite.html" target="_top" xlink:title="Base class for all composite nodes, i.e., nodes with children (composite pattern, abstract).">
<polygon fill="white" stroke="black" points="50.4336,-183 50.4336,-199 121.566,-199 121.566,-183 50.4336,-183"/>
<text text-anchor="middle" x="86" y="-188.6" font-family="Helvetica,sans-Serif" font-size="8.00">scg::Composite</text>
</a>
</g>
</g>
<!-- Node8&#45;&gt;Node7 -->
<g id="edge3" class="edge"><title>Node8&#45;&gt;Node7</title>
<path fill="none" stroke="midnightblue" d="M71.8396,-175.468C66.7243,-169.717 61.1849,-162.85 57,-156 51.6753,-147.284 47.5377,-136.182 45.1833,-129.081"/>
<polygon fill="midnightblue" stroke="midnightblue" points="69.446,-178.034 78.8237,-182.964 74.5675,-173.262 69.446,-178.034"/>
</g>
<!-- Node9 -->
<g id="node5" class="node"><title>Node9</title>
<g id="a_node5"><a xlink:href="../../d4/dc7/classscg_1_1_node.html" target="_top" xlink:title="Base class for all nodes (composite pattern, abstract).">
<polygon fill="white" stroke="black" points="126.99,-113 126.99,-129 179.01,-129 179.01,-113 126.99,-113"/>
<text text-anchor="middle" x="153" y="-118.6" font-family="Helvetica,sans-Serif" font-size="8.00">scg::Node</text>
</a>
</g>
</g>
<!-- Node8&#45;&gt;Node9 -->
<g id="edge11" class="edge"><title>Node8&#45;&gt;Node9</title>
<path fill="none" stroke="#9a32cd" stroke-dasharray="5,2" d="M82.0905,-172.76C81.2185,-164.587 81.7303,-155.086 86.6445,-148 95.7402,-134.884 112.518,-128.385 126.927,-125.164"/>
<polygon fill="#9a32cd" stroke="#9a32cd" points="78.6657,-173.493 83.8539,-182.731 85.5587,-172.274 78.6657,-173.493"/>
<text text-anchor="middle" x="101.678" y="-149.6" font-family="Helvetica,sans-Serif" font-size="8.00"> parent_</text>
</g>
<!-- Node9&#45;&gt;Node8 -->
<g id="edge4" class="edge"><title>Node9&#45;&gt;Node8</title>
<path fill="none" stroke="midnightblue" d="M138.635,-136.579C124.542,-150.883 103.65,-172.086 92.9178,-182.979"/>
<polygon fill="midnightblue" stroke="midnightblue" points="141.494,-138.665 146.019,-129.085 136.508,-133.752 141.494,-138.665"/>
</g>
<!-- Node9&#45;&gt;Node8 -->
<g id="edge12" class="edge"><title>Node9&#45;&gt;Node8</title>
<path fill="none" stroke="#9a32cd" stroke-dasharray="5,2" d="M144.185,-138.099C140.524,-144.058 135.968,-150.656 131,-156 120.999,-166.756 107.268,-176.581 97.6123,-182.872"/>
<polygon fill="#9a32cd" stroke="#9a32cd" points="147.461,-139.425 149.417,-129.012 141.394,-135.932 147.461,-139.425"/>
<text text-anchor="middle" x="155.787" y="-149.6" font-family="Helvetica,sans-Serif" font-size="8.00"> leftChild_</text>
</g>
<!-- Node9&#45;&gt;Node9 -->
<g id="edge5" class="edge"><title>Node9&#45;&gt;Node9</title>
<path fill="none" stroke="#9a32cd" stroke-dasharray="5,2" d="M189.475,-125.562C194.016,-124.753 197,-123.233 197,-121 197,-117.336 188.963,-115.59 179.199,-115.762"/>
<polygon fill="#9a32cd" stroke="#9a32cd" points="188.948,-122.089 179.199,-126.238 189.408,-129.074 188.948,-122.089"/>
<text text-anchor="middle" x="220.125" y="-118.6" font-family="Helvetica,sans-Serif" font-size="8.00"> rightSibling_</text>
</g>
<!-- Node10 -->
<g id="node6" class="node"><title>Node10</title>
<g id="a_node6"><a xlink:title=" ">
<polygon fill="white" stroke="#bfbfbf" points="158.199,-175 158.199,-207 245.801,-207 245.801,-175 158.199,-175"/>
<text text-anchor="start" x="166.199" y="-196.6" font-family="Helvetica,sans-Serif" font-size="8.00">std::unordered_map</text>
<text text-anchor="start" x="166.199" y="-188.6" font-family="Helvetica,sans-Serif" font-size="8.00">&lt; std::string, std::</text>
<text text-anchor="middle" x="202" y="-180.6" font-family="Helvetica,sans-Serif" font-size="8.00">string &gt;</text>
</a>
</g>
</g>
<!-- Node10&#45;&gt;Node9 -->
<g id="edge6" class="edge"><title>Node10&#45;&gt;Node9</title>
<path fill="none" stroke="#9a32cd" stroke-dasharray="5,2" d="M197.9,-165.19C196.131,-159.198 193.604,-153.067 190,-148 184.266,-139.939 175.213,-133.515 167.498,-129.069"/>
<polygon fill="#9a32cd" stroke="#9a32cd" points="194.499,-166.015 200.22,-174.932 201.309,-164.394 194.499,-166.015"/>
<text text-anchor="middle" x="213.9" y="-149.6" font-family="Helvetica,sans-Serif" font-size="8.00"> metaInfo_</text>
</g>
<!-- Node11 -->
<g id="node7" class="node"><title>Node11</title>
<g id="a_node7"><a xlink:title="STL class.">
<polygon fill="white" stroke="#bfbfbf" points="176.66,-261 176.66,-277 227.34,-277 227.34,-261 176.66,-261"/>
<text text-anchor="middle" x="202" y="-266.6" font-family="Helvetica,sans-Serif" font-size="8.00">std::string</text>
</a>
</g>
</g>
<!-- Node11&#45;&gt;Node10 -->
<g id="edge7" class="edge"><title>Node11&#45;&gt;Node10</title>
<path fill="none" stroke="#9a32cd" stroke-dasharray="5,2" d="M202,-250.922C202,-237.748 202,-219.699 202,-207.061"/>
<polygon fill="#9a32cd" stroke="#9a32cd" points="198.5,-250.986 202,-260.986 205.5,-250.986 198.5,-250.986"/>
<text text-anchor="middle" x="218.23" y="-235.6" font-family="Helvetica,sans-Serif" font-size="8.00"> keys</text>
<text text-anchor="middle" x="218.23" y="-227.6" font-family="Helvetica,sans-Serif" font-size="8.00">elements</text>
</g>
<!-- Node12 -->
<g id="node8" class="node"><title>Node12</title>
<g id="a_node8"><a xlink:title="STL class.">
<polygon fill="white" stroke="#bfbfbf" points="162.762,-317 162.762,-341 241.238,-341 241.238,-317 162.762,-317"/>
<text text-anchor="start" x="170.762" y="-330.6" font-family="Helvetica,sans-Serif" font-size="8.00">std::basic_string&lt;</text>
<text text-anchor="middle" x="202" y="-322.6" font-family="Helvetica,sans-Serif" font-size="8.00"> char &gt;</text>
</a>
</g>
</g>
<!-- Node12&#45;&gt;Node11 -->
<g id="edge8" class="edge"><title>Node12&#45;&gt;Node11</title>
<path fill="none" stroke="midnightblue" d="M202,-306.738C202,-296.329 202,-284.485 202,-277.126"/>
<polygon fill="midnightblue" stroke="midnightblue" points="198.5,-306.817 202,-316.817 205.5,-306.817 198.5,-306.817"/>
</g>
<!-- Node13 -->
<g id="node9" class="node"><title>Node13</title>
<g id="a_node9"><a xlink:title=" ">
<polygon fill="white" stroke="#bfbfbf" points="263.537,-183 263.537,-199 364.463,-199 364.463,-183 263.537,-183"/>
<text text-anchor="middle" x="314" y="-188.6" font-family="Helvetica,sans-Serif" font-size="8.00">std::vector&lt; scg::Core &gt;</text>
</a>
</g>
</g>
<!-- Node13&#45;&gt;Node9 -->
<g id="edge9" class="edge"><title>Node13&#45;&gt;Node9</title>
<path fill="none" stroke="#9a32cd" stroke-dasharray="5,2" d="M293.757,-177.716C278.312,-168.689 256.306,-156.555 236,-148 217.492,-140.202 195.813,-133.489 179.252,-128.838"/>
<polygon fill="#9a32cd" stroke="#9a32cd" points="292.066,-180.782 302.452,-182.876 295.638,-174.763 292.066,-180.782"/>
<text text-anchor="middle" x="265.117" y="-149.6" font-family="Helvetica,sans-Serif" font-size="8.00"> cores_</text>
</g>
<!-- Node14 -->
<g id="node10" class="node"><title>Node14</title>
<g id="a_node10"><a xlink:href="../../d0/d79/classscg_1_1_core.html" target="_top" xlink:title="Base class for all cores (abstract).">
<polygon fill="white" stroke="black" points="288.883,-261 288.883,-277 339.117,-277 339.117,-261 288.883,-261"/>
<text text-anchor="middle" x="314" y="-266.6" font-family="Helvetica,sans-Serif" font-size="8.00">scg::Core</text>
</a>
</g>
</g>
<!-- Node14&#45;&gt;Node13 -->
<g id="edge10" class="edge"><title>Node14&#45;&gt;Node13</title>
<path fill="none" stroke="#9a32cd" stroke-dasharray="5,2" d="M314,-250.715C314,-234.469 314,-210.948 314,-199.218"/>
<polygon fill="#9a32cd" stroke="#9a32cd" points="310.5,-250.986 314,-260.986 317.5,-250.986 310.5,-250.986"/>
<text text-anchor="middle" x="331.342" y="-231.6" font-family="Helvetica,sans-Serif" font-size="8.00"> elements</text>
</g>
</g>
</svg>
