<?xml version="1.0" encoding="UTF-8" standalone="no"?>
<!DOCTYPE svg PUBLIC "-//W3C//DTD SVG 1.1//EN"
 "http://www.w3.org/Graphics/SVG/1.1/DTD/svg11.dtd">
<!-- Generated by graphviz version 2.36.0 (20140111.2315)
 -->
<!-- Title: scg::ShaderCore Pages: 1 -->
<svg width="291pt" height="294pt"
 viewBox="0.00 0.00 291.00 294.00" xmlns="http://www.w3.org/2000/svg" xmlns:xlink="http://www.w3.org/1999/xlink">
<g id="graph0" class="graph" transform="scale(1 1) rotate(0) translate(4 290)">
<title>scg::ShaderCore</title>
<polygon fill="white" stroke="none" points="-4,4 -4,-290 287,-290 287,4 -4,4"/>
<!-- Node2 -->
<g id="node1" class="node"><title>Node2</title>
<g id="a_node1"><a xlink:title="A core to set a shader program to be applied to subsequent nodes.">
<polygon fill="#bfbfbf" stroke="black" points="47.9844,-1 47.9844,-17 124.016,-17 124.016,-1 47.9844,-1"/>
<text text-anchor="middle" x="86" y="-6.6" font-family="Helvetica,sans-Serif" font-size="8.00">scg::ShaderCore</text>
</a>
</g>
</g>
<!-- Node2&#45;&gt;Node2 -->
<g id="edge2" class="edge"><title>Node2&#45;&gt;Node2</title>
<path fill="none" stroke="#9a32cd" stroke-dasharray="5,2" d="M134.289,-13.5675C139.006,-12.6465 142,-11.124 142,-9 142,-5.60156 134.335,-3.74304 124.214,-3.42444"/>
<polygon fill="#9a32cd" stroke="#9a32cd" points="133.816,-10.0973 124.214,-14.5756 134.513,-17.0625 133.816,-10.0973"/>
<text text-anchor="middle" x="172.461" y="-6.6" font-family="Helvetica,sans-Serif" font-size="8.00"> shaderCoreOld_</text>
</g>
<!-- Node3 -->
<g id="node2" class="node"><title>Node3</title>
<g id="a_node2"><a xlink:href="../../d0/d79/classscg_1_1_core.html" target="_top" xlink:title="Base class for all cores (abstract).">
<polygon fill="white" stroke="black" points="-0.117188,-63 -0.117188,-79 50.1172,-79 50.1172,-63 -0.117188,-63"/>
<text text-anchor="middle" x="25" y="-68.6" font-family="Helvetica,sans-Serif" font-size="8.00">scg::Core</text>
</a>
</g>
</g>
<!-- Node3&#45;&gt;Node2 -->
<g id="edge1" class="edge"><title>Node3&#45;&gt;Node2</title>
<path fill="none" stroke="midnightblue" d="M39.8009,-55.4417C52.1773,-43.2682 69.2953,-26.4309 78.8382,-17.0444"/>
<polygon fill="midnightblue" stroke="midnightblue" points="37.1547,-53.1352 32.4798,-62.6428 42.0634,-58.1257 37.1547,-53.1352"/>
</g>
<!-- Node4 -->
<g id="node3" class="node"><title>Node4</title>
<g id="a_node3"><a xlink:title=" ">
<polygon fill="white" stroke="#bfbfbf" points="59.9824,-99 59.9824,-123 148.018,-123 148.018,-99 59.9824,-99"/>
<text text-anchor="start" x="67.9824" y="-112.6" font-family="Helvetica,sans-Serif" font-size="8.00">std::unordered_map</text>
<text text-anchor="middle" x="104" y="-104.6" font-family="Helvetica,sans-Serif" font-size="8.00">&lt; std::string, GLint &gt;</text>
</a>
</g>
</g>
<!-- Node4&#45;&gt;Node2 -->
<g id="edge3" class="edge"><title>Node4&#45;&gt;Node2</title>
<path fill="none" stroke="#9a32cd" stroke-dasharray="5,2" d="M97.4324,-89.1653C96.601,-86.1105 95.8222,-82.9875 95.1914,-80 90.3805,-57.2138 87.6478,-29.6919 86.5585,-17.0155"/>
<polygon fill="#9a32cd" stroke="#9a32cd" points="94.1431,-90.3858 100.323,-98.9918 100.859,-88.4105 94.1431,-90.3858"/>
<text text-anchor="middle" x="126.904" y="-68.6" font-family="Helvetica,sans-Serif" font-size="8.00"> uniformLocMap_</text>
</g>
<!-- Node5 -->
<g id="node4" class="node"><title>Node5</title>
<g id="a_node4"><a xlink:title="STL class.">
<polygon fill="white" stroke="#bfbfbf" points="100.66,-205 100.66,-221 151.34,-221 151.34,-205 100.66,-205"/>
<text text-anchor="middle" x="126" y="-210.6" font-family="Helvetica,sans-Serif" font-size="8.00">std::string</text>
</a>
</g>
</g>
<!-- Node5&#45;&gt;Node4 -->
<g id="edge4" class="edge"><title>Node5&#45;&gt;Node4</title>
<path fill="none" stroke="#9a32cd" stroke-dasharray="5,2" d="M122.26,-195.001C117.759,-174.543 110.329,-140.766 106.481,-123.277"/>
<polygon fill="#9a32cd" stroke="#9a32cd" points="118.851,-195.794 124.418,-204.808 125.687,-194.29 118.851,-195.794"/>
<text text-anchor="middle" x="130.336" y="-179.6" font-family="Helvetica,sans-Serif" font-size="8.00"> keys</text>
</g>
<!-- Node8 -->
<g id="node7" class="node"><title>Node8</title>
<g id="a_node7"><a xlink:href="../../d1/dad/structscg_1_1_shader_i_d.html" target="_top" xlink:title="A shader ID to identify shaders in error messages. An arbitrary name can be added to the OpnGL shader...">
<polygon fill="white" stroke="black" points="135.654,-143 135.654,-159 202.346,-159 202.346,-143 135.654,-143"/>
<text text-anchor="middle" x="169" y="-148.6" font-family="Helvetica,sans-Serif" font-size="8.00">scg::ShaderID</text>
</a>
</g>
</g>
<!-- Node5&#45;&gt;Node8 -->
<g id="edge8" class="edge"><title>Node5&#45;&gt;Node8</title>
<path fill="none" stroke="#9a32cd" stroke-dasharray="5,2" d="M137.189,-196.387C145.843,-184.312 157.417,-168.163 163.951,-159.044"/>
<polygon fill="#9a32cd" stroke="#9a32cd" points="134.253,-194.476 131.273,-204.643 139.943,-198.553 134.253,-194.476"/>
<text text-anchor="middle" x="161.117" y="-179.6" font-family="Helvetica,sans-Serif" font-size="8.00"> name</text>
</g>
<!-- Node6 -->
<g id="node5" class="node"><title>Node6</title>
<g id="a_node5"><a xlink:title="STL class.">
<polygon fill="white" stroke="#bfbfbf" points="86.7617,-261 86.7617,-285 165.238,-285 165.238,-261 86.7617,-261"/>
<text text-anchor="start" x="94.7617" y="-274.6" font-family="Helvetica,sans-Serif" font-size="8.00">std::basic_string&lt;</text>
<text text-anchor="middle" x="126" y="-266.6" font-family="Helvetica,sans-Serif" font-size="8.00"> char &gt;</text>
</a>
</g>
</g>
<!-- Node6&#45;&gt;Node5 -->
<g id="edge5" class="edge"><title>Node6&#45;&gt;Node5</title>
<path fill="none" stroke="midnightblue" d="M126,-250.738C126,-240.329 126,-228.485 126,-221.126"/>
<polygon fill="midnightblue" stroke="midnightblue" points="122.5,-250.817 126,-260.817 129.5,-250.817 122.5,-250.817"/>
</g>
<!-- Node7 -->
<g id="node6" class="node"><title>Node7</title>
<g id="a_node6"><a xlink:title=" ">
<polygon fill="white" stroke="#bfbfbf" points="166.309,-63 166.309,-79 283.691,-79 283.691,-63 166.309,-63"/>
<text text-anchor="middle" x="225" y="-68.6" font-family="Helvetica,sans-Serif" font-size="8.00">std::vector&lt; scg::ShaderID &gt;</text>
</a>
</g>
</g>
<!-- Node7&#45;&gt;Node2 -->
<g id="edge6" class="edge"><title>Node7&#45;&gt;Node2</title>
<path fill="none" stroke="#9a32cd" stroke-dasharray="5,2" d="M199.544,-59.0116C171.304,-46.8221 126.565,-27.5103 102.545,-17.1416"/>
<polygon fill="#9a32cd" stroke="#9a32cd" points="198.215,-62.2501 208.783,-62.9998 200.989,-55.8232 198.215,-62.2501"/>
<text text-anchor="middle" x="184.566" y="-37.6" font-family="Helvetica,sans-Serif" font-size="8.00"> shaderIDs_</text>
</g>
<!-- Node8&#45;&gt;Node7 -->
<g id="edge7" class="edge"><title>Node8&#45;&gt;Node7</title>
<path fill="none" stroke="#9a32cd" stroke-dasharray="5,2" d="M180.032,-134.633C192.004,-117.959 210.618,-92.0315 219.681,-79.4084"/>
<polygon fill="#9a32cd" stroke="#9a32cd" points="177.157,-132.637 174.168,-142.802 182.843,-136.72 177.157,-132.637"/>
<text text-anchor="middle" x="222.342" y="-108.6" font-family="Helvetica,sans-Serif" font-size="8.00"> elements</text>
</g>
</g>
</svg>
