<?xml version="1.0" encoding="UTF-8" standalone="no"?>
<!DOCTYPE svg PUBLIC "-//W3C//DTD SVG 1.1//EN"
 "http://www.w3.org/Graphics/SVG/1.1/DTD/svg11.dtd">
<!-- Generated by graphviz version 2.36.0 (20140111.2315)
 -->
<!-- Title: scg::Shape Pages: 1 -->
<svg width="714pt" height="96pt"
 viewBox="0.00 0.00 714.00 96.27" xmlns="http://www.w3.org/2000/svg" xmlns:xlink="http://www.w3.org/1999/xlink">
<g id="graph0" class="graph" transform="scale(1 1) rotate(0) translate(4 92.267)">
<title>scg::Shape</title>
<polygon fill="white" stroke="none" points="-4,4 -4,-92.267 710,-92.267 710,4 -4,4"/>
<!-- Node1 -->
<g id="node1" class="node"><title>Node1</title>
<polygon fill="#bfbfbf" stroke="black" points="649.986,-72.267 649.986,-88.267 706.014,-88.267 706.014,-72.267 649.986,-72.267"/>
<text text-anchor="middle" x="678" y="-77.867" font-family="Helvetica,sans-Serif" font-size="8.00">scg::Shape</text>
</g>
<!-- Node2 -->
<g id="node2" class="node"><title>Node2</title>
<g id="a_node2"><a xlink:href="../../d7/dc9/classscg_1_1_leaf.html" target="_top" xlink:title="Base class for all leaf nodes, i.e., nodes without children (composite pattern, abstract). ">
<polygon fill="white" stroke="black" points="551.768,-72.267 551.768,-88.267 600.232,-88.267 600.232,-72.267 551.768,-72.267"/>
<text text-anchor="middle" x="576" y="-77.867" font-family="Helvetica,sans-Serif" font-size="8.00">scg::Leaf</text>
</a>
</g>
</g>
<!-- Node2&#45;&gt;Node1 -->
<g id="edge1" class="edge"><title>Node2&#45;&gt;Node1</title>
<path fill="none" stroke="midnightblue" d="M610.686,-80.267C623.42,-80.267 637.741,-80.267 649.807,-80.267"/>
<polygon fill="midnightblue" stroke="midnightblue" points="610.446,-76.7671 600.446,-80.267 610.446,-83.7671 610.446,-76.7671"/>
</g>
<!-- Node3 -->
<g id="node3" class="node"><title>Node3</title>
<g id="a_node3"><a xlink:href="../../d4/dc7/classscg_1_1_node.html" target="_top" xlink:title="Base class for all nodes (composite pattern, abstract). ">
<polygon fill="white" stroke="black" points="415.99,-35.267 415.99,-51.267 468.01,-51.267 468.01,-35.267 415.99,-35.267"/>
<text text-anchor="middle" x="442" y="-40.867" font-family="Helvetica,sans-Serif" font-size="8.00">scg::Node</text>
</a>
</g>
</g>
<!-- Node3&#45;&gt;Node2 -->
<g id="edge2" class="edge"><title>Node3&#45;&gt;Node2</title>
<path fill="none" stroke="midnightblue" d="M478.072,-53.9654C480.752,-54.7538 483.418,-55.5287 486,-56.267 508.157,-62.6022 533.547,-69.4041 551.523,-74.1431"/>
<polygon fill="midnightblue" stroke="midnightblue" points="479.012,-50.5933 468.429,-51.0934 477.013,-57.3021 479.012,-50.5933"/>
</g>
<!-- Node3&#45;&gt;Node3 -->
<g id="edge3" class="edge"><title>Node3&#45;&gt;Node3</title>
<path fill="none" stroke="#9a32cd" stroke-dasharray="5,2" d="M430.565,-61.5359C431.43,-65.9715 435.241,-69.267 442,-69.267 453.383,-69.267 456.406,-59.9191 451.071,-51.5205"/>
<polygon fill="#9a32cd" stroke="#9a32cd" points="434.038,-62.0571 432.929,-51.5205 427.226,-60.4489 434.038,-62.0571"/>
<text text-anchor="middle" x="442" y="-70.867" font-family="Helvetica,sans-Serif" font-size="8.00"> rightSibling_</text>
</g>
<!-- Node9 -->
<g id="node9" class="node"><title>Node9</title>
<g id="a_node9"><a xlink:href="../../da/d38/classscg_1_1_composite.html" target="_top" xlink:title="Base class for all composite nodes, i.e., nodes with children (composite pattern, abstract)...">
<polygon fill="white" stroke="black" points="540.434,-24.267 540.434,-40.267 611.566,-40.267 611.566,-24.267 540.434,-24.267"/>
<text text-anchor="middle" x="576" y="-29.867" font-family="Helvetica,sans-Serif" font-size="8.00">scg::Composite</text>
</a>
</g>
</g>
<!-- Node3&#45;&gt;Node9 -->
<g id="edge10" class="edge"><title>Node3&#45;&gt;Node9</title>
<path fill="none" stroke="midnightblue" d="M478.708,-43.443C492.288,-43.2268 507.885,-42.6371 522,-41.267 527.945,-40.69 534.23,-39.8389 540.314,-38.887"/>
<polygon fill="midnightblue" stroke="midnightblue" points="478.282,-39.9469 468.317,-43.5441 478.35,-46.9466 478.282,-39.9469"/>
</g>
<!-- Node3&#45;&gt;Node9 -->
<g id="edge11" class="edge"><title>Node3&#45;&gt;Node9</title>
<path fill="none" stroke="#9a32cd" stroke-dasharray="5,2" d="M478.29,-35.3406C480.89,-34.9226 483.481,-34.5565 486,-34.267 503.811,-32.2206 523.754,-31.6181 540.241,-31.5711"/>
<polygon fill="#9a32cd" stroke="#9a32cd" points="477.549,-31.9179 468.34,-37.157 478.806,-38.8041 477.549,-31.9179"/>
<text text-anchor="middle" x="504" y="-35.867" font-family="Helvetica,sans-Serif" font-size="8.00"> leftChild_</text>
</g>
<!-- Node4 -->
<g id="node4" class="node"><title>Node4</title>
<polygon fill="white" stroke="#bfbfbf" points="247.199,-47.267 247.199,-79.267 334.801,-79.267 334.801,-47.267 247.199,-47.267"/>
<text text-anchor="start" x="255.199" y="-68.867" font-family="Helvetica,sans-Serif" font-size="8.00">std::unordered_map</text>
<text text-anchor="start" x="255.199" y="-60.867" font-family="Helvetica,sans-Serif" font-size="8.00">&lt; std::string, std::</text>
<text text-anchor="middle" x="291" y="-52.867" font-family="Helvetica,sans-Serif" font-size="8.00">string &gt;</text>
</g>
<!-- Node4&#45;&gt;Node3 -->
<g id="edge4" class="edge"><title>Node4&#45;&gt;Node3</title>
<path fill="none" stroke="#9a32cd" stroke-dasharray="5,2" d="M345.158,-56.1317C369.172,-52.9084 396.416,-49.2514 415.703,-46.6626"/>
<polygon fill="#9a32cd" stroke="#9a32cd" points="344.542,-52.6829 335.097,-57.4822 345.474,-59.6207 344.542,-52.6829"/>
<text text-anchor="middle" x="379" y="-55.867" font-family="Helvetica,sans-Serif" font-size="8.00"> metaInfo_</text>
</g>
<!-- Node5 -->
<g id="node5" class="node"><title>Node5</title>
<g id="a_node5"><a xlink:title="STL class. ">
<polygon fill="white" stroke="#bfbfbf" points="116.66,-55.267 116.66,-71.267 167.34,-71.267 167.34,-55.267 116.66,-55.267"/>
<text text-anchor="middle" x="142" y="-60.867" font-family="Helvetica,sans-Serif" font-size="8.00">std::string</text>
</a>
</g>
</g>
<!-- Node5&#45;&gt;Node4 -->
<g id="edge5" class="edge"><title>Node5&#45;&gt;Node4</title>
<path fill="none" stroke="#9a32cd" stroke-dasharray="5,2" d="M177.881,-63.267C198.636,-63.267 225.129,-63.267 247.15,-63.267"/>
<polygon fill="#9a32cd" stroke="#9a32cd" points="177.605,-59.7671 167.604,-63.267 177.604,-66.7671 177.605,-59.7671"/>
<text text-anchor="middle" x="204" y="-72.867" font-family="Helvetica,sans-Serif" font-size="8.00"> keys</text>
<text text-anchor="middle" x="204" y="-64.867" font-family="Helvetica,sans-Serif" font-size="8.00">elements</text>
</g>
<!-- Node6 -->
<g id="node6" class="node"><title>Node6</title>
<g id="a_node6"><a xlink:title="STL class. ">
<polygon fill="white" stroke="#bfbfbf" points="-0.238281,-51.267 -0.238281,-75.267 78.2383,-75.267 78.2383,-51.267 -0.238281,-51.267"/>
<text text-anchor="start" x="7.76172" y="-64.867" font-family="Helvetica,sans-Serif" font-size="8.00">std::basic_string&lt;</text>
<text text-anchor="middle" x="39" y="-56.867" font-family="Helvetica,sans-Serif" font-size="8.00"> char &gt;</text>
</a>
</g>
</g>
<!-- Node6&#45;&gt;Node5 -->
<g id="edge6" class="edge"><title>Node6&#45;&gt;Node5</title>
<path fill="none" stroke="midnightblue" d="M88.5466,-63.267C98.3068,-63.267 108.164,-63.267 116.658,-63.267"/>
<polygon fill="midnightblue" stroke="midnightblue" points="88.4719,-59.7671 78.4719,-63.267 88.4719,-66.7671 88.4719,-59.7671"/>
</g>
<!-- Node7 -->
<g id="node7" class="node"><title>Node7</title>
<polygon fill="white" stroke="#bfbfbf" points="240.537,-12.267 240.537,-28.267 341.463,-28.267 341.463,-12.267 240.537,-12.267"/>
<text text-anchor="middle" x="291" y="-17.867" font-family="Helvetica,sans-Serif" font-size="8.00">std::vector&lt; scg::Core &gt;</text>
</g>
<!-- Node7&#45;&gt;Node3 -->
<g id="edge7" class="edge"><title>Node7&#45;&gt;Node3</title>
<path fill="none" stroke="#9a32cd" stroke-dasharray="5,2" d="M351.723,-29.486C374.071,-32.9358 398.269,-36.6709 415.827,-39.3813"/>
<polygon fill="#9a32cd" stroke="#9a32cd" points="352.032,-25.9923 341.615,-27.9257 350.964,-32.9104 352.032,-25.9923"/>
<text text-anchor="middle" x="379" y="-38.867" font-family="Helvetica,sans-Serif" font-size="8.00"> cores_</text>
</g>
<!-- Node8 -->
<g id="node8" class="node"><title>Node8</title>
<g id="a_node8"><a xlink:href="../../d0/d79/classscg_1_1_core.html" target="_top" xlink:title="Base class for all cores (abstract). ">
<polygon fill="white" stroke="black" points="116.883,-12.267 116.883,-28.267 167.117,-28.267 167.117,-12.267 116.883,-12.267"/>
<text text-anchor="middle" x="142" y="-17.867" font-family="Helvetica,sans-Serif" font-size="8.00">scg::Core</text>
</a>
</g>
</g>
<!-- Node8&#45;&gt;Node7 -->
<g id="edge8" class="edge"><title>Node8&#45;&gt;Node7</title>
<path fill="none" stroke="#9a32cd" stroke-dasharray="5,2" d="M177.422,-20.267C196.164,-20.267 219.686,-20.267 240.377,-20.267"/>
<polygon fill="#9a32cd" stroke="#9a32cd" points="177.274,-16.7671 167.274,-20.267 177.274,-23.7671 177.274,-16.7671"/>
<text text-anchor="middle" x="204" y="-21.867" font-family="Helvetica,sans-Serif" font-size="8.00"> elements</text>
</g>
<!-- Node9&#45;&gt;Node3 -->
<g id="edge9" class="edge"><title>Node9&#45;&gt;Node3</title>
<path fill="none" stroke="#9a32cd" stroke-dasharray="5,2" d="M555.909,-18.3531C537.727,-6.90145 509.697,6.05079 486,-3.26703 469.679,-9.68435 455.879,-25.535 448.579,-35.2461"/>
<polygon fill="#9a32cd" stroke="#9a32cd" points="554.189,-21.4143 564.444,-24.0789 558.089,-15.6012 554.189,-21.4143"/>
<text text-anchor="middle" x="504" y="-4.86703" font-family="Helvetica,sans-Serif" font-size="8.00"> parent_</text>
</g>
</g>
</svg>
