<?xml version="1.0" encoding="UTF-8" standalone="no"?>
<!DOCTYPE svg PUBLIC "-//W3C//DTD SVG 1.1//EN"
 "http://www.w3.org/Graphics/SVG/1.1/DTD/svg11.dtd">
<!-- Generated by graphviz version 2.36.0 (20140111.2315)
 -->
<!-- Title: scg::BumpMapCore Pages: 1 -->
<svg width="94pt" height="188pt"
 viewBox="0.00 0.00 94.00 188.00" xmlns="http://www.w3.org/2000/svg" xmlns:xlink="http://www.w3.org/1999/xlink">
<g id="graph0" class="graph" transform="scale(1 1) rotate(0) translate(4 184)">
<title>scg::BumpMapCore</title>
<polygon fill="white" stroke="none" points="-4,4 -4,-184 90,-184 90,4 -4,4"/>
<!-- Node1 -->
<g id="node1" class="node"><title>Node1</title>
<polygon fill="#bfbfbf" stroke="black" points="-0.347656,-1 -0.347656,-17 86.3477,-17 86.3477,-1 -0.347656,-1"/>
<text text-anchor="middle" x="43" y="-6.6" font-family="Helvetica,sans-Serif" font-size="8.00">scg::BumpMapCore</text>
</g>
<!-- Node2 -->
<g id="node2" class="node"><title>Node2</title>
<g id="a_node2"><a xlink:href="../../dc/d19/classscg_1_1_texture2_d_core.html" target="_top" xlink:title="2D texture core. ">
<polygon fill="white" stroke="black" points="-0.347656,-55 -0.347656,-71 86.3477,-71 86.3477,-55 -0.347656,-55"/>
<text text-anchor="middle" x="43" y="-60.6" font-family="Helvetica,sans-Serif" font-size="8.00">scg::Texture2DCore</text>
</a>
</g>
</g>
<!-- Node2&#45;&gt;Node1 -->
<g id="edge1" class="edge"><title>Node2&#45;&gt;Node1</title>
<path fill="none" stroke="midnightblue" d="M43,-44.5708C43,-35.2222 43,-24.2089 43,-17.169"/>
<polygon fill="midnightblue" stroke="midnightblue" points="39.5001,-44.7696 43,-54.7696 46.5001,-44.7697 39.5001,-44.7696"/>
</g>
<!-- Node3 -->
<g id="node3" class="node"><title>Node3</title>
<g id="a_node3"><a xlink:href="../../d1/d4f/classscg_1_1_texture_core.html" target="_top" xlink:title="Base class for all texture cores (abstract). ">
<polygon fill="white" stroke="black" points="4.76562,-109 4.76562,-125 81.2344,-125 81.2344,-109 4.76562,-109"/>
<text text-anchor="middle" x="43" y="-114.6" font-family="Helvetica,sans-Serif" font-size="8.00">scg::TextureCore</text>
</a>
</g>
</g>
<!-- Node3&#45;&gt;Node2 -->
<g id="edge2" class="edge"><title>Node3&#45;&gt;Node2</title>
<path fill="none" stroke="midnightblue" d="M43,-98.5708C43,-89.2222 43,-78.2089 43,-71.169"/>
<polygon fill="midnightblue" stroke="midnightblue" points="39.5001,-98.7696 43,-108.77 46.5001,-98.7697 39.5001,-98.7696"/>
</g>
<!-- Node4 -->
<g id="node4" class="node"><title>Node4</title>
<g id="a_node4"><a xlink:href="../../d0/d79/classscg_1_1_core.html" target="_top" xlink:title="Base class for all cores (abstract). ">
<polygon fill="white" stroke="black" points="17.8828,-163 17.8828,-179 68.1172,-179 68.1172,-163 17.8828,-163"/>
<text text-anchor="middle" x="43" y="-168.6" font-family="Helvetica,sans-Serif" font-size="8.00">scg::Core</text>
</a>
</g>
</g>
<!-- Node4&#45;&gt;Node3 -->
<g id="edge3" class="edge"><title>Node4&#45;&gt;Node3</title>
<path fill="none" stroke="midnightblue" d="M43,-152.571C43,-143.222 43,-132.209 43,-125.169"/>
<polygon fill="midnightblue" stroke="midnightblue" points="39.5001,-152.77 43,-162.77 46.5001,-152.77 39.5001,-152.77"/>
</g>
</g>
</svg>
