<?xml version="1.0" encoding="UTF-8" standalone="no"?>
<!DOCTYPE svg PUBLIC "-//W3C//DTD SVG 1.1//EN"
 "http://www.w3.org/Graphics/SVG/1.1/DTD/svg11.dtd">
<!-- Generated by graphviz version 2.36.0 (20140111.2315)
 -->
<!-- Title: scg::TextureCore Pages: 1 -->
<svg width="198pt" height="188pt"
 viewBox="0.00 0.00 198.00 188.00" xmlns="http://www.w3.org/2000/svg" xmlns:xlink="http://www.w3.org/1999/xlink">
<g id="graph0" class="graph" transform="scale(1 1) rotate(0) translate(4 184)">
<title>scg::TextureCore</title>
<polygon fill="white" stroke="none" points="-4,4 -4,-184 194,-184 194,4 -4,4"/>
<!-- Node1 -->
<g id="node1" class="node"><title>Node1</title>
<polygon fill="#bfbfbf" stroke="black" points="55.7656,-109 55.7656,-125 132.234,-125 132.234,-109 55.7656,-109"/>
<text text-anchor="middle" x="94" y="-114.6" font-family="Helvetica,sans-Serif" font-size="8.00">scg::TextureCore</text>
</g>
<!-- Node3 -->
<g id="node3" class="node"><title>Node3</title>
<g id="a_node3"><a xlink:href="../../d9/d5b/classscg_1_1_cube_map_core.html" target="_top" xlink:title="Cube map textue core. ">
<polygon fill="white" stroke="black" points="-0.460938,-55 -0.460938,-71 84.4609,-71 84.4609,-55 -0.460938,-55"/>
<text text-anchor="middle" x="42" y="-60.6" font-family="Helvetica,sans-Serif" font-size="8.00">scg::CubeMapCore</text>
</a>
</g>
</g>
<!-- Node1&#45;&gt;Node3 -->
<g id="edge2" class="edge"><title>Node1&#45;&gt;Node3</title>
<path fill="none" stroke="midnightblue" d="M79.585,-101.585C69.6907,-91.6907 56.9826,-78.9826 49.169,-71.169"/>
<polygon fill="midnightblue" stroke="midnightblue" points="77.2236,-104.173 86.7696,-108.77 82.1734,-99.2236 77.2236,-104.173"/>
</g>
<!-- Node4 -->
<g id="node4" class="node"><title>Node4</title>
<g id="a_node4"><a xlink:href="../../dc/d19/classscg_1_1_texture2_d_core.html" target="_top" xlink:title="2D texture core. ">
<polygon fill="white" stroke="black" points="102.652,-55 102.652,-71 189.348,-71 189.348,-55 102.652,-55"/>
<text text-anchor="middle" x="146" y="-60.6" font-family="Helvetica,sans-Serif" font-size="8.00">scg::Texture2DCore</text>
</a>
</g>
</g>
<!-- Node1&#45;&gt;Node4 -->
<g id="edge3" class="edge"><title>Node1&#45;&gt;Node4</title>
<path fill="none" stroke="midnightblue" d="M108.415,-101.585C118.309,-91.6907 131.017,-78.9826 138.831,-71.169"/>
<polygon fill="midnightblue" stroke="midnightblue" points="105.827,-99.2236 101.23,-108.77 110.776,-104.173 105.827,-99.2236"/>
</g>
<!-- Node2 -->
<g id="node2" class="node"><title>Node2</title>
<g id="a_node2"><a xlink:href="../../d0/d79/classscg_1_1_core.html" target="_top" xlink:title="Base class for all cores (abstract). ">
<polygon fill="white" stroke="black" points="68.8828,-163 68.8828,-179 119.117,-179 119.117,-163 68.8828,-163"/>
<text text-anchor="middle" x="94" y="-168.6" font-family="Helvetica,sans-Serif" font-size="8.00">scg::Core</text>
</a>
</g>
</g>
<!-- Node2&#45;&gt;Node1 -->
<g id="edge1" class="edge"><title>Node2&#45;&gt;Node1</title>
<path fill="none" stroke="midnightblue" d="M94,-152.571C94,-143.222 94,-132.209 94,-125.169"/>
<polygon fill="midnightblue" stroke="midnightblue" points="90.5001,-152.77 94,-162.77 97.5001,-152.77 90.5001,-152.77"/>
</g>
<!-- Node5 -->
<g id="node5" class="node"><title>Node5</title>
<g id="a_node5"><a xlink:href="../../db/d63/classscg_1_1_bump_map_core.html" target="_top" xlink:title="2D bump map core storing a texture (optional) and a normal map. ">
<polygon fill="white" stroke="black" points="102.652,-1 102.652,-17 189.348,-17 189.348,-1 102.652,-1"/>
<text text-anchor="middle" x="146" y="-6.6" font-family="Helvetica,sans-Serif" font-size="8.00">scg::BumpMapCore</text>
</a>
</g>
</g>
<!-- Node4&#45;&gt;Node5 -->
<g id="edge4" class="edge"><title>Node4&#45;&gt;Node5</title>
<path fill="none" stroke="midnightblue" d="M146,-44.5708C146,-35.2222 146,-24.2089 146,-17.169"/>
<polygon fill="midnightblue" stroke="midnightblue" points="142.5,-44.7696 146,-54.7696 149.5,-44.7697 142.5,-44.7696"/>
</g>
</g>
</svg>
