<?xml version="1.0" encoding="UTF-8" standalone="no"?>
<!DOCTYPE svg PUBLIC "-//W3C//DTD SVG 1.1//EN"
 "http://www.w3.org/Graphics/SVG/1.1/DTD/svg11.dtd">
<!-- Generated by graphviz version 2.36.0 (20140111.2315)
 -->
<!-- Title: scg::OGLConstants Pages: 1 -->
<svg width="390pt" height="136pt"
 viewBox="0.00 0.00 389.87 136.00" xmlns="http://www.w3.org/2000/svg" xmlns:xlink="http://www.w3.org/1999/xlink">
<g id="graph0" class="graph" transform="scale(1 1) rotate(0) translate(4 132)">
<title>scg::OGLConstants</title>
<polygon fill="white" stroke="none" points="-4,4 -4,-132 385.867,-132 385.867,4 -4,4"/>
<!-- Node1 -->
<g id="node1" class="node"><title>Node1</title>
<g id="a_node1"><a xlink:title="OpenGL attribute names and locations, uniform names, etc., to be used by ShaderCore,...">
<polygon fill="#bfbfbf" stroke="black" points="160.096,-1 160.096,-17 245.904,-17 245.904,-1 160.096,-1"/>
<text text-anchor="middle" x="203" y="-6.6" font-family="Helvetica,sans-Serif" font-size="8.00">scg::OGLConstants</text>
</a>
</g>
</g>
<!-- Node2 -->
<g id="node2" class="node"><title>Node2</title>
<g id="a_node2"><a xlink:href="../../d3/da9/structscg_1_1_o_g_l_uniform_block.html" target="_top" xlink:title="Uniform block name and index.">
<polygon fill="white" stroke="black" points="-0.677734,-111 -0.677734,-127 96.6777,-127 96.6777,-111 -0.677734,-111"/>
<text text-anchor="middle" x="48" y="-116.6" font-family="Helvetica,sans-Serif" font-size="8.00">scg::OGLUniformBlock</text>
</a>
</g>
</g>
<!-- Node2&#45;&gt;Node1 -->
<g id="edge1" class="edge"><title>Node2&#45;&gt;Node1</title>
<path fill="none" stroke="#9a32cd" stroke-dasharray="5,2" d="M56.2993,-101.845C66.6873,-83.2245 86.2122,-53.009 111.359,-36 125.743,-26.2713 143.744,-20.1493 159.975,-16.3119"/>
<polygon fill="#9a32cd" stroke="#9a32cd" points="53.119,-100.37 51.4906,-110.839 59.2921,-103.671 53.119,-100.37"/>
<text text-anchor="middle" x="132.82" y="-65.6" font-family="Helvetica,sans-Serif" font-size="8.00"> MATERIAL</text>
<text text-anchor="middle" x="132.82" y="-57.6" font-family="Helvetica,sans-Serif" font-size="8.00">LIGHT</text>
</g>
<!-- Node3 -->
<g id="node3" class="node"><title>Node3</title>
<g id="a_node3"><a xlink:href="../../d1/d28/structscg_1_1_o_g_l_frag_data.html" target="_top" xlink:title="Fragment data name and location.">
<polygon fill="white" stroke="black" points="114.432,-111 114.432,-127 197.568,-127 197.568,-111 114.432,-111"/>
<text text-anchor="middle" x="156" y="-116.6" font-family="Helvetica,sans-Serif" font-size="8.00">scg::OGLFragData</text>
</a>
</g>
</g>
<!-- Node3&#45;&gt;Node1 -->
<g id="edge2" class="edge"><title>Node3&#45;&gt;Node1</title>
<path fill="none" stroke="#9a32cd" stroke-dasharray="5,2" d="M155.664,-100.204C156.105,-82.7044 158.909,-55.8089 170.656,-36 175.36,-28.0681 183.446,-21.5681 190.356,-17.051"/>
<polygon fill="#9a32cd" stroke="#9a32cd" points="152.164,-100.613 155.655,-110.616 159.164,-100.619 152.164,-100.613"/>
<text text-anchor="middle" x="199.672" y="-61.6" font-family="Helvetica,sans-Serif" font-size="8.00"> FRAG_COLOR</text>
</g>
<!-- Node4 -->
<g id="node4" class="node"><title>Node4</title>
<g id="a_node4"><a xlink:href="../../d4/d10/structscg_1_1_o_g_l_attrib.html" target="_top" xlink:title="Attribute name and location.">
<polygon fill="white" stroke="black" points="215.77,-111 215.77,-127 284.23,-127 284.23,-111 215.77,-111"/>
<text text-anchor="middle" x="250" y="-116.6" font-family="Helvetica,sans-Serif" font-size="8.00">scg::OGLAttrib</text>
</a>
</g>
</g>
<!-- Node4&#45;&gt;Node1 -->
<g id="edge3" class="edge"><title>Node4&#45;&gt;Node1</title>
<path fill="none" stroke="#9a32cd" stroke-dasharray="5,2" d="M247.893,-100.475C245.236,-83.1816 239.54,-56.4402 228,-36 223.936,-28.802 217.417,-22.1143 212.054,-17.3245"/>
<polygon fill="#9a32cd" stroke="#9a32cd" points="244.473,-101.303 249.282,-110.744 251.41,-100.365 244.473,-101.303"/>
<text text-anchor="middle" x="276.342" y="-85.6" font-family="Helvetica,sans-Serif" font-size="8.00"> TANGENT</text>
<text text-anchor="middle" x="276.342" y="-77.6" font-family="Helvetica,sans-Serif" font-size="8.00">VERTEX</text>
<text text-anchor="middle" x="276.342" y="-69.6" font-family="Helvetica,sans-Serif" font-size="8.00">BINORMAL</text>
<text text-anchor="middle" x="276.342" y="-61.6" font-family="Helvetica,sans-Serif" font-size="8.00">NORMAL</text>
<text text-anchor="middle" x="276.342" y="-53.6" font-family="Helvetica,sans-Serif" font-size="8.00">TEX_COORD_0</text>
<text text-anchor="middle" x="276.342" y="-45.6" font-family="Helvetica,sans-Serif" font-size="8.00">TEX_COORD_1</text>
<text text-anchor="middle" x="276.342" y="-37.6" font-family="Helvetica,sans-Serif" font-size="8.00">COLOR</text>
</g>
<!-- Node5 -->
<g id="node5" class="node"><title>Node5</title>
<g id="a_node5"><a xlink:href="../../d9/d36/structscg_1_1_o_g_l_sampler.html" target="_top" xlink:title="Sampler name and texture unit.">
<polygon fill="white" stroke="black" points="302.211,-111 302.211,-127 381.789,-127 381.789,-111 302.211,-111"/>
<text text-anchor="middle" x="342" y="-116.6" font-family="Helvetica,sans-Serif" font-size="8.00">scg::OGLSampler</text>
</a>
</g>
</g>
<!-- Node5&#45;&gt;Node1 -->
<g id="edge4" class="edge"><title>Node5&#45;&gt;Node1</title>
<path fill="none" stroke="#9a32cd" stroke-dasharray="5,2" d="M339.745,-100.783C336.371,-82.0796 328.202,-52.6511 309,-36 291.75,-21.0415 267.253,-14.4044 246.155,-11.5692"/>
<polygon fill="#9a32cd" stroke="#9a32cd" points="336.31,-101.476 341.282,-110.832 343.23,-100.417 336.31,-101.476"/>
<text text-anchor="middle" x="359.934" y="-65.6" font-family="Helvetica,sans-Serif" font-size="8.00"> TEXTURE1</text>
<text text-anchor="middle" x="359.934" y="-57.6" font-family="Helvetica,sans-Serif" font-size="8.00">TEXTURE0</text>
</g>
</g>
</svg>
