<?xml version="1.0" encoding="UTF-8" standalone="no"?>
<!DOCTYPE svg PUBLIC "-//W3C//DTD SVG 1.1//EN"
 "http://www.w3.org/Graphics/SVG/1.1/DTD/svg11.dtd">
<!-- Generated by graphviz version 2.36.0 (20140111.2315)
 -->
<!-- Title: scg::ShaderID Pages: 1 -->
<svg width="86pt" height="152pt"
 viewBox="0.00 0.00 86.00 152.00" xmlns="http://www.w3.org/2000/svg" xmlns:xlink="http://www.w3.org/1999/xlink">
<g id="graph0" class="graph" transform="scale(1 1) rotate(0) translate(4 148)">
<title>scg::ShaderID</title>
<polygon fill="white" stroke="none" points="-4,4 -4,-148 82,-148 82,4 -4,4"/>
<!-- Node1 -->
<g id="node1" class="node"><title>Node1</title>
<polygon fill="#bfbfbf" stroke="black" points="5.6543,-1 5.6543,-17 72.3457,-17 72.3457,-1 5.6543,-1"/>
<text text-anchor="middle" x="39" y="-6.6" font-family="Helvetica,sans-Serif" font-size="8.00">scg::ShaderID</text>
</g>
<!-- Node2 -->
<g id="node2" class="node"><title>Node2</title>
<g id="a_node2"><a xlink:title="STL class. ">
<polygon fill="white" stroke="#bfbfbf" points="13.6602,-63 13.6602,-79 64.3398,-79 64.3398,-63 13.6602,-63"/>
<text text-anchor="middle" x="39" y="-68.6" font-family="Helvetica,sans-Serif" font-size="8.00">std::string</text>
</a>
</g>
</g>
<!-- Node2&#45;&gt;Node1 -->
<g id="edge1" class="edge"><title>Node2&#45;&gt;Node1</title>
<path fill="none" stroke="#9a32cd" stroke-dasharray="5,2" d="M39,-52.5833C39,-40.7458 39,-25.7157 39,-17.0444"/>
<polygon fill="#9a32cd" stroke="#9a32cd" points="35.5001,-52.6428 39,-62.6428 42.5001,-52.6429 35.5001,-52.6428"/>
<text text-anchor="middle" x="50.1172" y="-37.6" font-family="Helvetica,sans-Serif" font-size="8.00"> name</text>
</g>
<!-- Node3 -->
<g id="node3" class="node"><title>Node3</title>
<g id="a_node3"><a xlink:title="STL class. ">
<polygon fill="white" stroke="#bfbfbf" points="-0.238281,-119 -0.238281,-143 78.2383,-143 78.2383,-119 -0.238281,-119"/>
<text text-anchor="start" x="7.76172" y="-132.6" font-family="Helvetica,sans-Serif" font-size="8.00">std::basic_string&lt;</text>
<text text-anchor="middle" x="39" y="-124.6" font-family="Helvetica,sans-Serif" font-size="8.00"> char &gt;</text>
</a>
</g>
</g>
<!-- Node3&#45;&gt;Node2 -->
<g id="edge2" class="edge"><title>Node3&#45;&gt;Node2</title>
<path fill="none" stroke="midnightblue" d="M39,-108.738C39,-98.3289 39,-86.4854 39,-79.1265"/>
<polygon fill="midnightblue" stroke="midnightblue" points="35.5001,-108.817 39,-118.817 42.5001,-108.817 35.5001,-108.817"/>
</g>
</g>
</svg>
