<?xml version="1.0" encoding="UTF-8" standalone="no"?>
<!DOCTYPE svg PUBLIC "-//W3C//DTD SVG 1.1//EN"
 "http://www.w3.org/Graphics/SVG/1.1/DTD/svg11.dtd">
<!-- Generated by graphviz version 2.36.0 (20140111.2315)
 -->
<!-- Title: scg::GeometryCoreFactory Pages: 1 -->
<svg width="120pt" height="214pt"
 viewBox="0.00 0.00 120.00 214.00" xmlns="http://www.w3.org/2000/svg" xmlns:xlink="http://www.w3.org/1999/xlink">
<g id="graph0" class="graph" transform="scale(1 1) rotate(0) translate(4 210)">
<title>scg::GeometryCoreFactory</title>
<polygon fill="white" stroke="none" points="-4,4 -4,-210 116,-210 116,4 -4,4"/>
<!-- Node1 -->
<g id="node1" class="node"><title>Node1</title>
<g id="a_node1"><a xlink:title="A factory to create geometry cores.">
<polygon fill="#bfbfbf" stroke="black" points="-0.0136719,-1 -0.0136719,-17 112.014,-17 112.014,-1 -0.0136719,-1"/>
<text text-anchor="middle" x="56" y="-6.6" font-family="Helvetica,sans-Serif" font-size="8.00">scg::GeometryCoreFactory</text>
</a>
</g>
</g>
<!-- Node2 -->
<g id="node2" class="node"><title>Node2</title>
<g id="a_node2"><a xlink:title=" ">
<polygon fill="white" stroke="#bfbfbf" points="5.31445,-63 5.31445,-79 106.686,-79 106.686,-63 5.31445,-63"/>
<text text-anchor="middle" x="56" y="-68.6" font-family="Helvetica,sans-Serif" font-size="8.00">std::vector&lt; std::string &gt;</text>
</a>
</g>
</g>
<!-- Node2&#45;&gt;Node1 -->
<g id="edge1" class="edge"><title>Node2&#45;&gt;Node1</title>
<path fill="none" stroke="#9a32cd" stroke-dasharray="5,2" d="M56,-52.5833C56,-40.7458 56,-25.7157 56,-17.0444"/>
<polygon fill="#9a32cd" stroke="#9a32cd" points="52.5001,-52.6428 56,-62.6428 59.5001,-52.6429 52.5001,-52.6428"/>
<text text-anchor="middle" x="74.6777" y="-37.6" font-family="Helvetica,sans-Serif" font-size="8.00"> filePaths_</text>
</g>
<!-- Node3 -->
<g id="node3" class="node"><title>Node3</title>
<g id="a_node3"><a xlink:title="STL class.">
<polygon fill="white" stroke="#bfbfbf" points="30.6602,-125 30.6602,-141 81.3398,-141 81.3398,-125 30.6602,-125"/>
<text text-anchor="middle" x="56" y="-130.6" font-family="Helvetica,sans-Serif" font-size="8.00">std::string</text>
</a>
</g>
</g>
<!-- Node3&#45;&gt;Node2 -->
<g id="edge2" class="edge"><title>Node3&#45;&gt;Node2</title>
<path fill="none" stroke="#9a32cd" stroke-dasharray="5,2" d="M56,-114.583C56,-102.746 56,-87.7157 56,-79.0444"/>
<polygon fill="#9a32cd" stroke="#9a32cd" points="52.5001,-114.643 56,-124.643 59.5001,-114.643 52.5001,-114.643"/>
<text text-anchor="middle" x="73.3418" y="-99.6" font-family="Helvetica,sans-Serif" font-size="8.00"> elements</text>
</g>
<!-- Node4 -->
<g id="node4" class="node"><title>Node4</title>
<g id="a_node4"><a xlink:title="STL class.">
<polygon fill="white" stroke="#bfbfbf" points="16.7617,-181 16.7617,-205 95.2383,-205 95.2383,-181 16.7617,-181"/>
<text text-anchor="start" x="24.7617" y="-194.6" font-family="Helvetica,sans-Serif" font-size="8.00">std::basic_string&lt;</text>
<text text-anchor="middle" x="56" y="-186.6" font-family="Helvetica,sans-Serif" font-size="8.00"> char &gt;</text>
</a>
</g>
</g>
<!-- Node4&#45;&gt;Node3 -->
<g id="edge3" class="edge"><title>Node4&#45;&gt;Node3</title>
<path fill="none" stroke="midnightblue" d="M56,-170.738C56,-160.329 56,-148.485 56,-141.126"/>
<polygon fill="midnightblue" stroke="midnightblue" points="52.5001,-170.817 56,-180.817 59.5001,-170.817 52.5001,-170.817"/>
</g>
</g>
</svg>
