<?xml version="1.0" encoding="UTF-8" standalone="no"?>
<!DOCTYPE svg PUBLIC "-//W3C//DTD SVG 1.1//EN"
 "http://www.w3.org/Graphics/SVG/1.1/DTD/svg11.dtd">
<!-- Generated by graphviz version 2.36.0 (20140111.2315)
 -->
<!-- Title: src/scg_utilities.h Pages: 1 -->
<svg width="155pt" height="80pt"
 viewBox="0.00 0.00 155.00 80.00" xmlns="http://www.w3.org/2000/svg" xmlns:xlink="http://www.w3.org/1999/xlink">
<g id="graph0" class="graph" transform="scale(1 1) rotate(0) translate(4 76)">
<title>src/scg_utilities.h</title>
<polygon fill="white" stroke="none" points="-4,4 -4,-76 151,-76 151,4 -4,4"/>
<!-- Node1 -->
<g id="node1" class="node"><title>Node1</title>
<polygon fill="#bfbfbf" stroke="black" points="21.5449,-55 21.5449,-71 98.4551,-71 98.4551,-55 21.5449,-55"/>
<text text-anchor="middle" x="60" y="-60.6" font-family="Helvetica,sans-Serif" font-size="8.00">src/scg_utilities.h</text>
</g>
<!-- Node2 -->
<g id="node2" class="node"><title>Node2</title>
<g id="a_node2"><a xlink:href="../../d4/d61/scg3_8h.html" target="_top" xlink:title="Main header file for scg3 scene graph library, including all class headers. ">
<polygon fill="white" stroke="black" points="-0.785156,-1 -0.785156,-17 38.7852,-17 38.7852,-1 -0.785156,-1"/>
<text text-anchor="middle" x="19" y="-6.6" font-family="Helvetica,sans-Serif" font-size="8.00">scg3.h</text>
</a>
</g>
</g>
<!-- Node1&#45;&gt;Node2 -->
<g id="edge1" class="edge"><title>Node1&#45;&gt;Node2</title>
<path fill="none" stroke="midnightblue" d="M47.9335,-46.6961C40.2412,-36.94 30.6302,-24.7505 24.6525,-17.169"/>
<polygon fill="midnightblue" stroke="midnightblue" points="45.3591,-49.084 54.2991,-54.7696 50.856,-44.7499 45.3591,-49.084"/>
</g>
<!-- Node3 -->
<g id="node3" class="node"><title>Node3</title>
<g id="a_node3"><a xlink:href="../../de/d4d/scg__internals_8cpp.html" target="_top" xlink:title="src/scg_internals.cpp">
<polygon fill="white" stroke="black" points="56.4277,-1 56.4277,-17 147.572,-17 147.572,-1 56.4277,-1"/>
<text text-anchor="middle" x="102" y="-6.6" font-family="Helvetica,sans-Serif" font-size="8.00">src/scg_internals.cpp</text>
</a>
</g>
</g>
<!-- Node1&#45;&gt;Node3 -->
<g id="edge2" class="edge"><title>Node1&#45;&gt;Node3</title>
<path fill="none" stroke="midnightblue" d="M72.3608,-46.6961C80.2407,-36.94 90.0862,-24.7505 96.2097,-17.169"/>
<polygon fill="midnightblue" stroke="midnightblue" points="69.4005,-44.791 65.8399,-54.7696 74.8461,-49.1894 69.4005,-44.791"/>
</g>
</g>
</svg>
