<?xml version="1.0" encoding="UTF-8" standalone="no"?>
<!DOCTYPE svg PUBLIC "-//W3C//DTD SVG 1.1//EN"
 "http://www.w3.org/Graphics/SVG/1.1/DTD/svg11.dtd">
<!-- Generated by graphviz version 2.36.0 (20140111.2315)
 -->
<!-- Title: scg::GeometryCoreFactory::OBJModel Pages: 1 -->
<svg width="850pt" height="102pt"
 viewBox="0.00 0.00 850.00 102.00" xmlns="http://www.w3.org/2000/svg" xmlns:xlink="http://www.w3.org/1999/xlink">
<g id="graph0" class="graph" transform="scale(1 1) rotate(0) translate(4 98)">
<title>scg::GeometryCoreFactory::OBJModel</title>
<polygon fill="white" stroke="none" points="-4,4 -4,-98 846,-98 846,4 -4,4"/>
<!-- Node1 -->
<g id="node1" class="node"><title>Node1</title>
<polygon fill="#bfbfbf" stroke="black" points="729.986,-39 729.986,-63 842.014,-63 842.014,-39 729.986,-39"/>
<text text-anchor="start" x="737.986" y="-52.6" font-family="Helvetica,sans-Serif" font-size="8.00">scg::GeometryCoreFactory</text>
<text text-anchor="middle" x="786" y="-44.6" font-family="Helvetica,sans-Serif" font-size="8.00">::OBJModel</text>
</g>
<!-- Node2 -->
<g id="node2" class="node"><title>Node2</title>
<polygon fill="white" stroke="#bfbfbf" points="547.537,-78 547.537,-94 648.463,-94 648.463,-78 547.537,-78"/>
<text text-anchor="middle" x="598" y="-83.6" font-family="Helvetica,sans-Serif" font-size="8.00">std::vector&lt; glm::vec3 &gt;</text>
</g>
<!-- Node2&#45;&gt;Node1 -->
<g id="edge1" class="edge"><title>Node2&#45;&gt;Node1</title>
<path fill="none" stroke="#9a32cd" stroke-dasharray="5,2" d="M651.817,-76.0614C676.199,-71.4733 705.144,-66.0267 729.811,-61.385"/>
<polygon fill="#9a32cd" stroke="#9a32cd" points="650.852,-72.6813 641.672,-77.9703 652.147,-79.5606 650.852,-72.6813"/>
<text text-anchor="middle" x="692" y="-80.6" font-family="Helvetica,sans-Serif" font-size="8.00"> normals</text>
<text text-anchor="middle" x="692" y="-72.6" font-family="Helvetica,sans-Serif" font-size="8.00">vertices</text>
</g>
<!-- Node3 -->
<g id="node3" class="node"><title>Node3</title>
<polygon fill="white" stroke="#bfbfbf" points="547.537,-43 547.537,-59 648.463,-59 648.463,-43 547.537,-43"/>
<text text-anchor="middle" x="598" y="-48.6" font-family="Helvetica,sans-Serif" font-size="8.00">std::vector&lt; glm::vec2 &gt;</text>
</g>
<!-- Node3&#45;&gt;Node1 -->
<g id="edge2" class="edge"><title>Node3&#45;&gt;Node1</title>
<path fill="none" stroke="#9a32cd" stroke-dasharray="5,2" d="M659.05,-51C681.776,-51 707.515,-51 729.776,-51"/>
<polygon fill="#9a32cd" stroke="#9a32cd" points="658.845,-47.5001 648.845,-51 658.845,-54.5001 658.845,-47.5001"/>
<text text-anchor="middle" x="692" y="-52.6" font-family="Helvetica,sans-Serif" font-size="8.00"> texCoords</text>
</g>
<!-- Node4 -->
<g id="node4" class="node"><title>Node4</title>
<polygon fill="white" stroke="#bfbfbf" points="542.094,-0 542.094,-24 653.906,-24 653.906,-0 542.094,-0"/>
<text text-anchor="start" x="550.094" y="-13.6" font-family="Helvetica,sans-Serif" font-size="8.00">std::vector&lt; scg::Geometry</text>
<text text-anchor="middle" x="598" y="-5.6" font-family="Helvetica,sans-Serif" font-size="8.00">CoreFactory::Face &gt;</text>
</g>
<!-- Node4&#45;&gt;Node1 -->
<g id="edge3" class="edge"><title>Node4&#45;&gt;Node1</title>
<path fill="none" stroke="#9a32cd" stroke-dasharray="5,2" d="M664.055,-25.6405C685.499,-30.1369 709.129,-35.0915 729.769,-39.4192"/>
<polygon fill="#9a32cd" stroke="#9a32cd" points="664.557,-22.1697 654.051,-23.543 663.12,-29.0207 664.557,-22.1697"/>
<text text-anchor="middle" x="692" y="-35.6" font-family="Helvetica,sans-Serif" font-size="8.00"> faces</text>
</g>
<!-- Node5 -->
<g id="node5" class="node"><title>Node5</title>
<g id="a_node5"><a xlink:href="../../d0/d68/structscg_1_1_geometry_core_factory_1_1_face.html" target="_top" xlink:title="scg::GeometryCoreFactory\l::Face">
<polygon fill="white" stroke="black" points="357.986,-0 357.986,-24 470.014,-24 470.014,-0 357.986,-0"/>
<text text-anchor="start" x="365.986" y="-13.6" font-family="Helvetica,sans-Serif" font-size="8.00">scg::GeometryCoreFactory</text>
<text text-anchor="middle" x="414" y="-5.6" font-family="Helvetica,sans-Serif" font-size="8.00">::Face</text>
</a>
</g>
</g>
<!-- Node5&#45;&gt;Node4 -->
<g id="edge4" class="edge"><title>Node5&#45;&gt;Node4</title>
<path fill="none" stroke="#9a32cd" stroke-dasharray="5,2" d="M480.192,-12C500.461,-12 522.593,-12 542.087,-12"/>
<polygon fill="#9a32cd" stroke="#9a32cd" points="480.1,-8.5001 470.1,-12 480.1,-15.5001 480.1,-8.5001"/>
<text text-anchor="middle" x="506" y="-13.6" font-family="Helvetica,sans-Serif" font-size="8.00"> elements</text>
</g>
<!-- Node6 -->
<g id="node6" class="node"><title>Node6</title>
<polygon fill="white" stroke="#bfbfbf" points="184.094,-0 184.094,-24 295.906,-24 295.906,-0 184.094,-0"/>
<text text-anchor="start" x="192.094" y="-13.6" font-family="Helvetica,sans-Serif" font-size="8.00">std::vector&lt; scg::Geometry</text>
<text text-anchor="middle" x="240" y="-5.6" font-family="Helvetica,sans-Serif" font-size="8.00">CoreFactory::FaceEntry &gt;</text>
</g>
<!-- Node6&#45;&gt;Node5 -->
<g id="edge5" class="edge"><title>Node6&#45;&gt;Node5</title>
<path fill="none" stroke="#9a32cd" stroke-dasharray="5,2" d="M306.688,-12C323.531,-12 341.477,-12 357.735,-12"/>
<polygon fill="#9a32cd" stroke="#9a32cd" points="306.369,-8.5001 296.369,-12 306.369,-15.5001 306.369,-8.5001"/>
<text text-anchor="middle" x="327" y="-13.6" font-family="Helvetica,sans-Serif" font-size="8.00"> entries</text>
</g>
<!-- Node7 -->
<g id="node7" class="node"><title>Node7</title>
<g id="a_node7"><a xlink:href="../../d4/dee/structscg_1_1_geometry_core_factory_1_1_face_entry.html" target="_top" xlink:title="scg::GeometryCoreFactory\l::FaceEntry">
<polygon fill="white" stroke="black" points="-0.0136719,-0 -0.0136719,-24 112.014,-24 112.014,-0 -0.0136719,-0"/>
<text text-anchor="start" x="7.98633" y="-13.6" font-family="Helvetica,sans-Serif" font-size="8.00">scg::GeometryCoreFactory</text>
<text text-anchor="middle" x="56" y="-5.6" font-family="Helvetica,sans-Serif" font-size="8.00">::FaceEntry</text>
</a>
</g>
</g>
<!-- Node7&#45;&gt;Node6 -->
<g id="edge6" class="edge"><title>Node7&#45;&gt;Node6</title>
<path fill="none" stroke="#9a32cd" stroke-dasharray="5,2" d="M122.192,-12C142.461,-12 164.593,-12 184.087,-12"/>
<polygon fill="#9a32cd" stroke="#9a32cd" points="122.1,-8.5001 112.1,-12 122.1,-15.5001 122.1,-8.5001"/>
<text text-anchor="middle" x="148" y="-13.6" font-family="Helvetica,sans-Serif" font-size="8.00"> elements</text>
</g>
</g>
</svg>
