<?xml version="1.0" encoding="UTF-8" standalone="no"?>
<!DOCTYPE svg PUBLIC "-//W3C//DTD SVG 1.1//EN"
 "http://www.w3.org/Graphics/SVG/1.1/DTD/svg11.dtd">
<!-- Generated by graphviz version 2.36.0 (20140111.2315)
 -->
<!-- Title: scg::OrthographicCamera Pages: 1 -->
<svg width="383pt" height="350pt"
 viewBox="0.00 0.00 383.00 350.00" xmlns="http://www.w3.org/2000/svg" xmlns:xlink="http://www.w3.org/1999/xlink">
<g id="graph0" class="graph" transform="scale(1 1) rotate(0) translate(4 346)">
<title>scg::OrthographicCamera</title>
<polygon fill="white" stroke="none" points="-4,4 -4,-346 379,-346 379,4 -4,4"/>
<!-- Node1 -->
<g id="node1" class="node"><title>Node1</title>
<polygon fill="#bfbfbf" stroke="black" points="-0.796875,-1 -0.796875,-17 106.797,-17 106.797,-1 -0.796875,-1"/>
<text text-anchor="middle" x="53" y="-6.6" font-family="Helvetica,sans-Serif" font-size="8.00">scg::OrthographicCamera</text>
</g>
<!-- Node2 -->
<g id="node2" class="node"><title>Node2</title>
<g id="a_node2"><a xlink:href="../../d4/dc9/classscg_1_1_camera.html" target="_top" xlink:title="Base class for all cameras (composite node, abstract). ">
<polygon fill="white" stroke="black" points="22.3262,-57 22.3262,-73 83.6738,-73 83.6738,-57 22.3262,-57"/>
<text text-anchor="middle" x="53" y="-62.6" font-family="Helvetica,sans-Serif" font-size="8.00">scg::Camera</text>
</a>
</g>
</g>
<!-- Node2&#45;&gt;Node1 -->
<g id="edge1" class="edge"><title>Node2&#45;&gt;Node1</title>
<path fill="none" stroke="midnightblue" d="M53,-46.894C53,-36.8897 53,-24.7822 53,-17.2336"/>
<polygon fill="midnightblue" stroke="midnightblue" points="49.5001,-46.9404 53,-56.9404 56.5001,-46.9405 49.5001,-46.9404"/>
</g>
<!-- Node3 -->
<g id="node3" class="node"><title>Node3</title>
<g id="a_node3"><a xlink:href="../../d0/d99/classscg_1_1_transformation.html" target="_top" xlink:title="A transformation node to be used to appy a transformation to the sub&#45;tree (composite node)...">
<polygon fill="white" stroke="black" points="9.80078,-113 9.80078,-129 96.1992,-129 96.1992,-113 9.80078,-113"/>
<text text-anchor="middle" x="53" y="-118.6" font-family="Helvetica,sans-Serif" font-size="8.00">scg::Transformation</text>
</a>
</g>
</g>
<!-- Node3&#45;&gt;Node2 -->
<g id="edge2" class="edge"><title>Node3&#45;&gt;Node2</title>
<path fill="none" stroke="midnightblue" d="M53,-102.894C53,-92.8897 53,-80.7822 53,-73.2336"/>
<polygon fill="midnightblue" stroke="midnightblue" points="49.5001,-102.94 53,-112.94 56.5001,-102.94 49.5001,-102.94"/>
</g>
<!-- Node4 -->
<g id="node4" class="node"><title>Node4</title>
<g id="a_node4"><a xlink:href="../../da/d38/classscg_1_1_composite.html" target="_top" xlink:title="Base class for all composite nodes, i.e., nodes with children (composite pattern, abstract)...">
<polygon fill="white" stroke="black" points="60.4336,-183 60.4336,-199 131.566,-199 131.566,-183 60.4336,-183"/>
<text text-anchor="middle" x="96" y="-188.6" font-family="Helvetica,sans-Serif" font-size="8.00">scg::Composite</text>
</a>
</g>
</g>
<!-- Node4&#45;&gt;Node3 -->
<g id="edge3" class="edge"><title>Node4&#45;&gt;Node3</title>
<path fill="none" stroke="midnightblue" d="M81.8396,-175.468C76.7243,-169.717 71.1849,-162.85 67,-156 61.6753,-147.284 57.5377,-136.182 55.1833,-129.081"/>
<polygon fill="midnightblue" stroke="midnightblue" points="79.446,-178.034 88.8237,-182.964 84.5675,-173.262 79.446,-178.034"/>
</g>
<!-- Node5 -->
<g id="node5" class="node"><title>Node5</title>
<g id="a_node5"><a xlink:href="../../d4/dc7/classscg_1_1_node.html" target="_top" xlink:title="Base class for all nodes (composite pattern, abstract). ">
<polygon fill="white" stroke="black" points="136.99,-113 136.99,-129 189.01,-129 189.01,-113 136.99,-113"/>
<text text-anchor="middle" x="163" y="-118.6" font-family="Helvetica,sans-Serif" font-size="8.00">scg::Node</text>
</a>
</g>
</g>
<!-- Node4&#45;&gt;Node5 -->
<g id="edge11" class="edge"><title>Node4&#45;&gt;Node5</title>
<path fill="none" stroke="#9a32cd" stroke-dasharray="5,2" d="M92.0905,-172.76C91.2185,-164.587 91.7303,-155.086 96.6445,-148 105.74,-134.884 122.518,-128.385 136.927,-125.164"/>
<polygon fill="#9a32cd" stroke="#9a32cd" points="88.6657,-173.493 93.8539,-182.731 95.5587,-172.274 88.6657,-173.493"/>
<text text-anchor="middle" x="111.678" y="-149.6" font-family="Helvetica,sans-Serif" font-size="8.00"> parent_</text>
</g>
<!-- Node5&#45;&gt;Node4 -->
<g id="edge4" class="edge"><title>Node5&#45;&gt;Node4</title>
<path fill="none" stroke="midnightblue" d="M148.635,-136.579C134.542,-150.883 113.65,-172.086 102.918,-182.979"/>
<polygon fill="midnightblue" stroke="midnightblue" points="151.494,-138.665 156.019,-129.085 146.508,-133.752 151.494,-138.665"/>
</g>
<!-- Node5&#45;&gt;Node4 -->
<g id="edge12" class="edge"><title>Node5&#45;&gt;Node4</title>
<path fill="none" stroke="#9a32cd" stroke-dasharray="5,2" d="M154.185,-138.099C150.524,-144.058 145.968,-150.656 141,-156 130.999,-166.756 117.268,-176.581 107.612,-182.872"/>
<polygon fill="#9a32cd" stroke="#9a32cd" points="157.461,-139.425 159.417,-129.012 151.394,-135.932 157.461,-139.425"/>
<text text-anchor="middle" x="165.787" y="-149.6" font-family="Helvetica,sans-Serif" font-size="8.00"> leftChild_</text>
</g>
<!-- Node5&#45;&gt;Node5 -->
<g id="edge5" class="edge"><title>Node5&#45;&gt;Node5</title>
<path fill="none" stroke="#9a32cd" stroke-dasharray="5,2" d="M199.475,-125.562C204.016,-124.753 207,-123.233 207,-121 207,-117.336 198.963,-115.59 189.199,-115.762"/>
<polygon fill="#9a32cd" stroke="#9a32cd" points="198.948,-122.089 189.199,-126.238 199.408,-129.074 198.948,-122.089"/>
<text text-anchor="middle" x="230.125" y="-118.6" font-family="Helvetica,sans-Serif" font-size="8.00"> rightSibling_</text>
</g>
<!-- Node6 -->
<g id="node6" class="node"><title>Node6</title>
<polygon fill="white" stroke="#bfbfbf" points="168.199,-175 168.199,-207 255.801,-207 255.801,-175 168.199,-175"/>
<text text-anchor="start" x="176.199" y="-196.6" font-family="Helvetica,sans-Serif" font-size="8.00">std::unordered_map</text>
<text text-anchor="start" x="176.199" y="-188.6" font-family="Helvetica,sans-Serif" font-size="8.00">&lt; std::string, std::</text>
<text text-anchor="middle" x="212" y="-180.6" font-family="Helvetica,sans-Serif" font-size="8.00">string &gt;</text>
</g>
<!-- Node6&#45;&gt;Node5 -->
<g id="edge6" class="edge"><title>Node6&#45;&gt;Node5</title>
<path fill="none" stroke="#9a32cd" stroke-dasharray="5,2" d="M207.9,-165.19C206.131,-159.198 203.604,-153.067 200,-148 194.266,-139.939 185.213,-133.515 177.498,-129.069"/>
<polygon fill="#9a32cd" stroke="#9a32cd" points="204.499,-166.015 210.22,-174.932 211.309,-164.394 204.499,-166.015"/>
<text text-anchor="middle" x="223.9" y="-149.6" font-family="Helvetica,sans-Serif" font-size="8.00"> metaInfo_</text>
</g>
<!-- Node7 -->
<g id="node7" class="node"><title>Node7</title>
<g id="a_node7"><a xlink:title="STL class. ">
<polygon fill="white" stroke="#bfbfbf" points="186.66,-261 186.66,-277 237.34,-277 237.34,-261 186.66,-261"/>
<text text-anchor="middle" x="212" y="-266.6" font-family="Helvetica,sans-Serif" font-size="8.00">std::string</text>
</a>
</g>
</g>
<!-- Node7&#45;&gt;Node6 -->
<g id="edge7" class="edge"><title>Node7&#45;&gt;Node6</title>
<path fill="none" stroke="#9a32cd" stroke-dasharray="5,2" d="M212,-250.922C212,-237.748 212,-219.699 212,-207.061"/>
<polygon fill="#9a32cd" stroke="#9a32cd" points="208.5,-250.986 212,-260.986 215.5,-250.986 208.5,-250.986"/>
<text text-anchor="middle" x="228.23" y="-235.6" font-family="Helvetica,sans-Serif" font-size="8.00"> keys</text>
<text text-anchor="middle" x="228.23" y="-227.6" font-family="Helvetica,sans-Serif" font-size="8.00">elements</text>
</g>
<!-- Node8 -->
<g id="node8" class="node"><title>Node8</title>
<g id="a_node8"><a xlink:title="STL class. ">
<polygon fill="white" stroke="#bfbfbf" points="172.762,-317 172.762,-341 251.238,-341 251.238,-317 172.762,-317"/>
<text text-anchor="start" x="180.762" y="-330.6" font-family="Helvetica,sans-Serif" font-size="8.00">std::basic_string&lt;</text>
<text text-anchor="middle" x="212" y="-322.6" font-family="Helvetica,sans-Serif" font-size="8.00"> char &gt;</text>
</a>
</g>
</g>
<!-- Node8&#45;&gt;Node7 -->
<g id="edge8" class="edge"><title>Node8&#45;&gt;Node7</title>
<path fill="none" stroke="midnightblue" d="M212,-306.738C212,-296.329 212,-284.485 212,-277.126"/>
<polygon fill="midnightblue" stroke="midnightblue" points="208.5,-306.817 212,-316.817 215.5,-306.817 208.5,-306.817"/>
</g>
<!-- Node9 -->
<g id="node9" class="node"><title>Node9</title>
<polygon fill="white" stroke="#bfbfbf" points="273.537,-183 273.537,-199 374.463,-199 374.463,-183 273.537,-183"/>
<text text-anchor="middle" x="324" y="-188.6" font-family="Helvetica,sans-Serif" font-size="8.00">std::vector&lt; scg::Core &gt;</text>
</g>
<!-- Node9&#45;&gt;Node5 -->
<g id="edge9" class="edge"><title>Node9&#45;&gt;Node5</title>
<path fill="none" stroke="#9a32cd" stroke-dasharray="5,2" d="M303.757,-177.716C288.312,-168.689 266.306,-156.555 246,-148 227.492,-140.202 205.813,-133.489 189.252,-128.838"/>
<polygon fill="#9a32cd" stroke="#9a32cd" points="302.066,-180.782 312.452,-182.876 305.638,-174.763 302.066,-180.782"/>
<text text-anchor="middle" x="275.117" y="-149.6" font-family="Helvetica,sans-Serif" font-size="8.00"> cores_</text>
</g>
<!-- Node10 -->
<g id="node10" class="node"><title>Node10</title>
<g id="a_node10"><a xlink:href="../../d0/d79/classscg_1_1_core.html" target="_top" xlink:title="Base class for all cores (abstract). ">
<polygon fill="white" stroke="black" points="298.883,-261 298.883,-277 349.117,-277 349.117,-261 298.883,-261"/>
<text text-anchor="middle" x="324" y="-266.6" font-family="Helvetica,sans-Serif" font-size="8.00">scg::Core</text>
</a>
</g>
</g>
<!-- Node10&#45;&gt;Node9 -->
<g id="edge10" class="edge"><title>Node10&#45;&gt;Node9</title>
<path fill="none" stroke="#9a32cd" stroke-dasharray="5,2" d="M324,-250.715C324,-234.469 324,-210.948 324,-199.218"/>
<polygon fill="#9a32cd" stroke="#9a32cd" points="320.5,-250.986 324,-260.986 327.5,-250.986 320.5,-250.986"/>
<text text-anchor="middle" x="341.342" y="-231.6" font-family="Helvetica,sans-Serif" font-size="8.00"> elements</text>
</g>
</g>
</svg>
