<?xml version="1.0" encoding="UTF-8" standalone="no"?>
<!DOCTYPE svg PUBLIC "-//W3C//DTD SVG 1.1//EN"
 "http://www.w3.org/Graphics/SVG/1.1/DTD/svg11.dtd">
<!-- Generated by graphviz version 2.36.0 (20140111.2315)
 -->
<!-- Title: scg::Leaf Pages: 1 -->
<svg width="160pt" height="134pt"
 viewBox="0.00 0.00 160.00 134.00" xmlns="http://www.w3.org/2000/svg" xmlns:xlink="http://www.w3.org/1999/xlink">
<g id="graph0" class="graph" transform="scale(1 1) rotate(0) translate(4 130)">
<title>scg::Leaf</title>
<polygon fill="white" stroke="none" points="-4,4 -4,-130 156,-130 156,4 -4,4"/>
<!-- Node1 -->
<g id="node1" class="node"><title>Node1</title>
<polygon fill="#bfbfbf" stroke="black" points="56.7676,-55 56.7676,-71 105.232,-71 105.232,-55 56.7676,-55"/>
<text text-anchor="middle" x="81" y="-60.6" font-family="Helvetica,sans-Serif" font-size="8.00">scg::Leaf</text>
</g>
<!-- Node3 -->
<g id="node3" class="node"><title>Node3</title>
<g id="a_node3"><a xlink:href="../../d7/da7/classscg_1_1_light_position.html" target="_top" xlink:title="A light position node to define the position of an associated light within the scene graph (leaf node...">
<polygon fill="white" stroke="black" points="-0.351562,-1 -0.351562,-17 78.3516,-17 78.3516,-1 -0.351562,-1"/>
<text text-anchor="middle" x="39" y="-6.6" font-family="Helvetica,sans-Serif" font-size="8.00">scg::LightPosition</text>
</a>
</g>
</g>
<!-- Node1&#45;&gt;Node3 -->
<g id="edge2" class="edge"><title>Node1&#45;&gt;Node3</title>
<path fill="none" stroke="midnightblue" d="M68.6392,-46.6961C60.7593,-36.94 50.9138,-24.7505 44.7903,-17.169"/>
<polygon fill="midnightblue" stroke="midnightblue" points="66.1539,-49.1894 75.1601,-54.7696 71.5995,-44.791 66.1539,-49.1894"/>
</g>
<!-- Node4 -->
<g id="node4" class="node"><title>Node4</title>
<g id="a_node4"><a xlink:href="../../d1/d94/classscg_1_1_shape.html" target="_top" xlink:title="A shape node that contains geometry to be rendered (leaf node). ">
<polygon fill="white" stroke="black" points="95.9863,-1 95.9863,-17 152.014,-17 152.014,-1 95.9863,-1"/>
<text text-anchor="middle" x="124" y="-6.6" font-family="Helvetica,sans-Serif" font-size="8.00">scg::Shape</text>
</a>
</g>
</g>
<!-- Node1&#45;&gt;Node4 -->
<g id="edge3" class="edge"><title>Node1&#45;&gt;Node4</title>
<path fill="none" stroke="midnightblue" d="M93.4088,-46.994C101.517,-37.1893 111.739,-24.8278 118.072,-17.169"/>
<polygon fill="midnightblue" stroke="midnightblue" points="90.6544,-44.8327 86.979,-54.7696 96.0489,-49.2936 90.6544,-44.8327"/>
</g>
<!-- Node2 -->
<g id="node2" class="node"><title>Node2</title>
<g id="a_node2"><a xlink:href="../../d4/dc7/classscg_1_1_node.html" target="_top" xlink:title="Base class for all nodes (composite pattern, abstract). ">
<polygon fill="white" stroke="black" points="54.9902,-109 54.9902,-125 107.01,-125 107.01,-109 54.9902,-109"/>
<text text-anchor="middle" x="81" y="-114.6" font-family="Helvetica,sans-Serif" font-size="8.00">scg::Node</text>
</a>
</g>
</g>
<!-- Node2&#45;&gt;Node1 -->
<g id="edge1" class="edge"><title>Node2&#45;&gt;Node1</title>
<path fill="none" stroke="midnightblue" d="M81,-98.5708C81,-89.2222 81,-78.2089 81,-71.169"/>
<polygon fill="midnightblue" stroke="midnightblue" points="77.5001,-98.7696 81,-108.77 84.5001,-98.7697 77.5001,-98.7696"/>
</g>
</g>
</svg>
