<?xml version="1.0" encoding="UTF-8" standalone="no"?>
<!DOCTYPE svg PUBLIC "-//W3C//DTD SVG 1.1//EN"
 "http://www.w3.org/Graphics/SVG/1.1/DTD/svg11.dtd">
<!-- Generated by graphviz version 2.36.0 (20140111.2315)
 -->
<!-- Title: scg::Traverser Pages: 1 -->
<svg width="296pt" height="80pt"
 viewBox="0.00 0.00 296.00 80.00" xmlns="http://www.w3.org/2000/svg" xmlns:xlink="http://www.w3.org/1999/xlink">
<g id="graph0" class="graph" transform="scale(1 1) rotate(0) translate(4 76)">
<title>scg::Traverser</title>
<polygon fill="white" stroke="none" points="-4,4 -4,-76 292,-76 292,4 -4,4"/>
<!-- Node0 -->
<g id="node1" class="node"><title>Node0</title>
<g id="a_node1"><a xlink:title="Base class for all traversers (visitor pattern, abstract).">
<polygon fill="#bfbfbf" stroke="black" points="104.586,-55 104.586,-71 171.414,-71 171.414,-55 104.586,-55"/>
<text text-anchor="middle" x="138" y="-60.6" font-family="Helvetica,sans-Serif" font-size="8.00">scg::Traverser</text>
</a>
</g>
</g>
<!-- Node1 -->
<g id="node2" class="node"><title>Node1</title>
<g id="a_node2"><a xlink:href="../../db/d76/classscg_1_1_info_traverser.html" target="_top" xlink:title="A traverser that gathers information about the scene graph (visitor pattern).">
<polygon fill="white" stroke="black" points="-0.0859375,-1 -0.0859375,-17 80.0859,-17 80.0859,-1 -0.0859375,-1"/>
<text text-anchor="middle" x="40" y="-6.6" font-family="Helvetica,sans-Serif" font-size="8.00">scg::InfoTraverser</text>
</a>
</g>
</g>
<!-- Node0&#45;&gt;Node1 -->
<g id="edge1" class="edge"><title>Node0&#45;&gt;Node1</title>
<path fill="none" stroke="midnightblue" d="M115.807,-50.2242C96.5699,-40.0167 69.3691,-25.5836 53.3203,-17.0679"/>
<polygon fill="midnightblue" stroke="midnightblue" points="114.309,-53.3916 124.783,-54.987 117.59,-47.2081 114.309,-53.3916"/>
</g>
<!-- Node2 -->
<g id="node3" class="node"><title>Node2</title>
<g id="a_node3"><a xlink:href="../../d6/da7/classscg_1_1_pre_traverser.html" target="_top" xlink:title="A traverser that searches Camera and LightPosition nodes in the scene graph (visitor pattern).">
<polygon fill="white" stroke="black" points="98.3613,-1 98.3613,-17 177.639,-17 177.639,-1 98.3613,-1"/>
<text text-anchor="middle" x="138" y="-6.6" font-family="Helvetica,sans-Serif" font-size="8.00">scg::PreTraverser</text>
</a>
</g>
</g>
<!-- Node0&#45;&gt;Node2 -->
<g id="edge2" class="edge"><title>Node0&#45;&gt;Node2</title>
<path fill="none" stroke="midnightblue" d="M138,-44.5708C138,-35.2222 138,-24.2089 138,-17.169"/>
<polygon fill="midnightblue" stroke="midnightblue" points="134.5,-44.7696 138,-54.7696 141.5,-44.7697 134.5,-44.7696"/>
</g>
<!-- Node3 -->
<g id="node4" class="node"><title>Node3</title>
<g id="a_node4"><a xlink:href="../../d7/df6/classscg_1_1_render_traverser.html" target="_top" xlink:title="A traverser that renders the scene graph (visitor pattern).">
<polygon fill="white" stroke="black" points="195.467,-1 195.467,-17 288.533,-17 288.533,-1 195.467,-1"/>
<text text-anchor="middle" x="242" y="-6.6" font-family="Helvetica,sans-Serif" font-size="8.00">scg::RenderTraverser</text>
</a>
</g>
</g>
<!-- Node0&#45;&gt;Node3 -->
<g id="edge3" class="edge"><title>Node0&#45;&gt;Node3</title>
<path fill="none" stroke="midnightblue" d="M160.995,-50.5027C181.438,-40.2808 210.677,-25.6614 227.864,-17.0679"/>
<polygon fill="midnightblue" stroke="midnightblue" points="159.405,-47.3844 152.026,-54.987 162.535,-53.6454 159.405,-47.3844"/>
</g>
</g>
</svg>
