<?xml version="1.0" encoding="UTF-8" standalone="no"?>
<!DOCTYPE svg PUBLIC "-//W3C//DTD SVG 1.1//EN"
 "http://www.w3.org/Graphics/SVG/1.1/DTD/svg11.dtd">
<!-- Generated by graphviz version 2.36.0 (20140111.2315)
 -->
<!-- Title: scg::ColorCore Pages: 1 -->
<svg width="148pt" height="82pt"
 viewBox="0.00 0.00 147.80 82.00" xmlns="http://www.w3.org/2000/svg" xmlns:xlink="http://www.w3.org/1999/xlink">
<g id="graph0" class="graph" transform="scale(1 1) rotate(0) translate(4 78)">
<title>scg::ColorCore</title>
<polygon fill="white" stroke="none" points="-4,4 -4,-78 143.801,-78 143.801,4 -4,4"/>
<!-- Node1 -->
<g id="node1" class="node"><title>Node1</title>
<polygon fill="#bfbfbf" stroke="black" points="-0.675781,-1 -0.675781,-17 68.6758,-17 68.6758,-1 -0.675781,-1"/>
<text text-anchor="middle" x="34" y="-6.6" font-family="Helvetica,sans-Serif" font-size="8.00">scg::ColorCore</text>
</g>
<!-- Node1&#45;&gt;Node1 -->
<g id="edge2" class="edge"><title>Node1&#45;&gt;Node1</title>
<path fill="none" stroke="#9a32cd" stroke-dasharray="5,2" d="M79.2762,-13.1744C83.4034,-12.3072 86,-10.9158 86,-9 86,-5.77344 78.6346,-4.03412 68.9963,-3.78204"/>
<polygon fill="#9a32cd" stroke="#9a32cd" points="78.5916,-9.72579 68.9963,-14.218 79.2987,-16.69 78.5916,-9.72579"/>
<text text-anchor="middle" x="112.9" y="-6.6" font-family="Helvetica,sans-Serif" font-size="8.00"> colorCoreOld_</text>
</g>
<!-- Node2 -->
<g id="node2" class="node"><title>Node2</title>
<g id="a_node2"><a xlink:href="../../d0/d79/classscg_1_1_core.html" target="_top" xlink:title="Base class for all cores (abstract). ">
<polygon fill="white" stroke="black" points="8.88281,-57 8.88281,-73 59.1172,-73 59.1172,-57 8.88281,-57"/>
<text text-anchor="middle" x="34" y="-62.6" font-family="Helvetica,sans-Serif" font-size="8.00">scg::Core</text>
</a>
</g>
</g>
<!-- Node2&#45;&gt;Node1 -->
<g id="edge1" class="edge"><title>Node2&#45;&gt;Node1</title>
<path fill="none" stroke="midnightblue" d="M34,-46.894C34,-36.8897 34,-24.7822 34,-17.2336"/>
<polygon fill="midnightblue" stroke="midnightblue" points="30.5001,-46.9404 34,-56.9404 37.5001,-46.9405 30.5001,-46.9404"/>
</g>
</g>
</svg>
