<?xml version="1.0" encoding="UTF-8" standalone="no"?>
<!DOCTYPE svg PUBLIC "-//W3C//DTD SVG 1.1//EN"
 "http://www.w3.org/Graphics/SVG/1.1/DTD/svg11.dtd">
<!-- Generated by graphviz version 2.36.0 (20140111.2315)
 -->
<!-- Title: src/Texture2DCore.h Pages: 1 -->
<svg width="132pt" height="134pt"
 viewBox="0.00 0.00 132.00 134.00" xmlns="http://www.w3.org/2000/svg" xmlns:xlink="http://www.w3.org/1999/xlink">
<g id="graph0" class="graph" transform="scale(1 1) rotate(0) translate(4 130)">
<title>src/Texture2DCore.h</title>
<polygon fill="white" stroke="none" points="-4,4 -4,-130 128,-130 128,4 -4,4"/>
<!-- Node1 -->
<g id="node1" class="node"><title>Node1</title>
<polygon fill="#bfbfbf" stroke="black" points="35.3203,-109 35.3203,-125 124.68,-125 124.68,-109 35.3203,-109"/>
<text text-anchor="middle" x="80" y="-114.6" font-family="Helvetica,sans-Serif" font-size="8.00">src/Texture2DCore.h</text>
</g>
<!-- Node2 -->
<g id="node2" class="node"><title>Node2</title>
<g id="a_node2"><a xlink:href="../../d6/d52/_bump_map_core_8h.html" target="_top" xlink:title="Bump map core storing a texture (optional) and a normal map. ">
<polygon fill="white" stroke="black" points="-0.679688,-55 -0.679688,-71 88.6797,-71 88.6797,-55 -0.679688,-55"/>
<text text-anchor="middle" x="44" y="-60.6" font-family="Helvetica,sans-Serif" font-size="8.00">src/BumpMapCore.h</text>
</a>
</g>
</g>
<!-- Node1&#45;&gt;Node2 -->
<g id="edge1" class="edge"><title>Node1&#45;&gt;Node2</title>
<path fill="none" stroke="midnightblue" d="M69.1977,-100.397C62.4789,-90.6918 54.1583,-78.6731 48.9631,-71.169"/>
<polygon fill="midnightblue" stroke="midnightblue" points="66.4245,-102.54 74.9944,-108.77 72.1799,-98.5554 66.4245,-102.54"/>
</g>
<!-- Node3 -->
<g id="node3" class="node"><title>Node3</title>
<g id="a_node3"><a xlink:href="../../d4/d61/scg3_8h.html" target="_top" xlink:title="Main header file for scg3 scene graph library, including all class headers. ">
<polygon fill="white" stroke="black" points="60.2148,-1 60.2148,-17 99.7852,-17 99.7852,-1 60.2148,-1"/>
<text text-anchor="middle" x="80" y="-6.6" font-family="Helvetica,sans-Serif" font-size="8.00">scg3.h</text>
</a>
</g>
</g>
<!-- Node1&#45;&gt;Node3 -->
<g id="edge3" class="edge"><title>Node1&#45;&gt;Node3</title>
<path fill="none" stroke="midnightblue" d="M88.0565,-99.4628C91.5537,-91.3871 95.2465,-81.4039 97,-72 100.764,-51.8114 90.3353,-28.6146 84.1711,-17.1634"/>
<polygon fill="midnightblue" stroke="midnightblue" points="84.7725,-98.2257 83.7513,-108.771 91.1259,-101.164 84.7725,-98.2257"/>
</g>
<!-- Node2&#45;&gt;Node3 -->
<g id="edge2" class="edge"><title>Node2&#45;&gt;Node3</title>
<path fill="none" stroke="midnightblue" d="M54.8023,-46.3967C61.5211,-36.6918 69.8417,-24.6731 75.0369,-17.169"/>
<polygon fill="midnightblue" stroke="midnightblue" points="51.8201,-44.5554 49.0056,-54.7696 57.5755,-48.5399 51.8201,-44.5554"/>
</g>
</g>
</svg>
