<?xml version="1.0" encoding="UTF-8" standalone="no"?>
<!DOCTYPE svg PUBLIC "-//W3C//DTD SVG 1.1//EN"
 "http://www.w3.org/Graphics/SVG/1.1/DTD/svg11.dtd">
<!-- Generated by graphviz version 2.36.0 (20140111.2315)
 -->
<!-- Title: /Users/ahlers/HsH/Entwicklung/scg3/scg3/src_ext Pages: 1 -->
<svg width="94pt" height="148pt"
 viewBox="0.00 0.00 94.00 148.00" xmlns="http://www.w3.org/2000/svg" xmlns:xlink="http://www.w3.org/1999/xlink">
<g id="graph0" class="graph" transform="scale(1 1) rotate(0) translate(4 144)">
<title>/Users/ahlers/HsH/Entwicklung/scg3/scg3/src_ext</title>
<polygon fill="white" stroke="none" points="-4,4 -4,-144 90,-144 90,4 -4,4"/>
<g id="clust1" class="cluster"><title>clusterdir_323a3cbb6d051aaa9b3bad511fc65134</title>
<g id="a_clust1"><a xlink:href="dir_323a3cbb6d051aaa9b3bad511fc65134.html" target="_top" xlink:title="scg3">
<polygon fill="#ddddee" stroke="black" points="8,-64 8,-132 78,-132 78,-64 8,-64"/>
<text text-anchor="middle" x="43" y="-121.6" font-family="Helvetica,sans-Serif" font-size="8.00">scg3</text>
</a>
</g>
</g>
<!-- dir_d0a0c46c9add5e64594199ce6eb25af1 -->
<g id="node1" class="node"><title>dir_d0a0c46c9add5e64594199ce6eb25af1</title>
<g id="a_node1"><a xlink:href="dir_d0a0c46c9add5e64594199ce6eb25af1.html" target="_top" xlink:title="src_ext">
<polygon fill="#eeeeff" stroke="black" points="70,-108 16,-108 16,-72 70,-72 70,-108"/>
<text text-anchor="middle" x="43" y="-87.6" font-family="Helvetica,sans-Serif" font-size="8.00">src_ext</text>
</a>
</g>
</g>
<!-- dir_4971f47512b31ebde3d053049e35db4d -->
<g id="node2" class="node"><title>dir_4971f47512b31ebde3d053049e35db4d</title>
<g id="a_node2"><a xlink:href="dir_4971f47512b31ebde3d053049e35db4d.html" target="_top" xlink:title="src">
<polygon fill="none" stroke="black" points="70,-36 16,-36 16,-0 70,-0 70,-36"/>
<text text-anchor="middle" x="43" y="-15.6" font-family="Helvetica,sans-Serif" font-size="8.00">src</text>
</a>
</g>
</g>
<!-- dir_d0a0c46c9add5e64594199ce6eb25af1&#45;&gt;dir_4971f47512b31ebde3d053049e35db4d -->
<g id="edge1" class="edge"><title>dir_d0a0c46c9add5e64594199ce6eb25af1&#45;&gt;dir_4971f47512b31ebde3d053049e35db4d</title>
<path fill="none" stroke="black" d="M43,-71.6966C43,-63.9827 43,-54.7125 43,-46.1124"/>
<polygon fill="black" stroke="black" points="46.5001,-46.1043 43,-36.1043 39.5001,-46.1044 46.5001,-46.1043"/>
<g id="a_edge1&#45;headlabel"><a xlink:href="dir_000004_000003.html" target="_top" xlink:title="9">
<text text-anchor="middle" x="49.3393" y="-47.299" font-family="Helvetica,sans-Serif" font-size="8.00">9</text>
</a>
</g>
</g>
</g>
</svg>
