<?xml version="1.0" encoding="UTF-8" standalone="no"?>
<!DOCTYPE svg PUBLIC "-//W3C//DTD SVG 1.1//EN"
 "http://www.w3.org/Graphics/SVG/1.1/DTD/svg11.dtd">
<!-- Generated by graphviz version 2.36.0 (20140111.2315)
 -->
<!-- Title: /Users/ahlers/HsH/Entwicklung/scg3/scg3 Pages: 1 -->
<svg width="182pt" height="252pt"
 viewBox="0.00 0.00 182.00 252.00" xmlns="http://www.w3.org/2000/svg" xmlns:xlink="http://www.w3.org/1999/xlink">
<g id="graph0" class="graph" transform="scale(1 1) rotate(0) translate(4 248)">
<title>/Users/ahlers/HsH/Entwicklung/scg3/scg3</title>
<polygon fill="white" stroke="none" points="-4,4 -4,-248 178,-248 178,4 -4,4"/>
<g id="clust1" class="cluster"><title>clusterdir_9faee3ef2e52229a981881a863d3b82d</title>
<g id="a_clust1"><a xlink:href="dir_9faee3ef2e52229a981881a863d3b82d.html" target="_top" xlink:title="scg3">
<polygon fill="#ddddee" stroke="black" points="8,-8 8,-236 166,-236 166,-8 8,-8"/>
<text text-anchor="middle" x="87" y="-225.6" font-family="Helvetica,sans-Serif" font-size="8.00">scg3</text>
</a>
</g>
</g>
<g id="clust2" class="cluster"><title>clusterdir_7d1eb765409c752e3829bc6565470e99</title>
<g id="a_clust2"><a xlink:href="dir_7d1eb765409c752e3829bc6565470e99.html" target="_top">
<polygon fill="#eeeeff" stroke="black" points="16,-16 16,-212 158,-212 158,-16 16,-16"/>
</a>
</g>
</g>
<!-- dir_7d1eb765409c752e3829bc6565470e99 -->
<g id="node1" class="node"><title>dir_7d1eb765409c752e3829bc6565470e99</title>
<text text-anchor="middle" x="123" y="-183.6" font-family="Helvetica,sans-Serif" font-size="8.00">scg3</text>
</g>
<!-- dir_b79d5b58257f5086cb1beea90389740d -->
<g id="node3" class="node"><title>dir_b79d5b58257f5086cb1beea90389740d</title>
<g id="a_node3"><a xlink:href="dir_b79d5b58257f5086cb1beea90389740d.html" target="_top" xlink:title="src">
<polygon fill="white" stroke="black" points="127,-60 73,-60 73,-24 127,-24 127,-60"/>
<text text-anchor="middle" x="100" y="-39.6" font-family="Helvetica,sans-Serif" font-size="8.00">src</text>
</a>
</g>
</g>
<!-- dir_7d1eb765409c752e3829bc6565470e99&#45;&gt;dir_b79d5b58257f5086cb1beea90389740d -->
<g id="edge2" class="edge"><title>dir_7d1eb765409c752e3829bc6565470e99&#45;&gt;dir_b79d5b58257f5086cb1beea90389740d</title>
<path fill="none" stroke="black" d="M107.39,-167.774C99.6271,-158.03 91.0541,-145.184 87,-132 80.7169,-111.568 84.8709,-87.5378 90.0963,-69.6006"/>
<polygon fill="black" stroke="black" points="93.4315,-70.6615 93.1376,-60.0707 86.7629,-68.5332 93.4315,-70.6615"/>
<g id="a_edge2&#45;headlabel"><a xlink:href="dir_000005_000007.html" target="_top" xlink:title="52">
<text text-anchor="middle" x="95.0436" y="-72.5491" font-family="Helvetica,sans-Serif" font-size="8.00">52</text>
</a>
</g>
</g>
<!-- dir_f7711902407b7a317005c73f3863e957 -->
<g id="node4" class="node"><title>dir_f7711902407b7a317005c73f3863e957</title>
<g id="a_node4"><a xlink:href="dir_f7711902407b7a317005c73f3863e957.html" target="_top" xlink:title="src_ext">
<polygon fill="white" stroke="black" points="150,-132 96,-132 96,-96 150,-96 150,-132"/>
<text text-anchor="middle" x="123" y="-111.6" font-family="Helvetica,sans-Serif" font-size="8.00">src_ext</text>
</a>
</g>
</g>
<!-- dir_7d1eb765409c752e3829bc6565470e99&#45;&gt;dir_f7711902407b7a317005c73f3863e957 -->
<g id="edge3" class="edge"><title>dir_7d1eb765409c752e3829bc6565470e99&#45;&gt;dir_f7711902407b7a317005c73f3863e957</title>
<path fill="none" stroke="black" d="M123,-167.697C123,-159.983 123,-150.712 123,-142.112"/>
<polygon fill="black" stroke="black" points="126.5,-142.104 123,-132.104 119.5,-142.104 126.5,-142.104"/>
<g id="a_edge3&#45;headlabel"><a xlink:href="dir_000005_000008.html" target="_top" xlink:title="6">
<text text-anchor="middle" x="129.339" y="-143.299" font-family="Helvetica,sans-Serif" font-size="8.00">6</text>
</a>
</g>
</g>
<!-- dir_7acef9afe671b0f26995585c991cca02 -->
<g id="node2" class="node"><title>dir_7acef9afe671b0f26995585c991cca02</title>
<g id="a_node2"><a xlink:href="dir_7acef9afe671b0f26995585c991cca02.html" target="_top" xlink:title="shaders">
<polygon fill="white" stroke="black" points="78,-204 24,-204 24,-168 78,-168 78,-204"/>
<text text-anchor="middle" x="51" y="-183.6" font-family="Helvetica,sans-Serif" font-size="8.00">shaders</text>
</a>
</g>
</g>
<!-- dir_f7711902407b7a317005c73f3863e957&#45;&gt;dir_b79d5b58257f5086cb1beea90389740d -->
<g id="edge1" class="edge"><title>dir_f7711902407b7a317005c73f3863e957&#45;&gt;dir_b79d5b58257f5086cb1beea90389740d</title>
<path fill="none" stroke="black" d="M117.315,-95.6966C114.752,-87.8979 111.667,-78.5085 108.815,-69.8292"/>
<polygon fill="black" stroke="black" points="112.067,-68.5121 105.62,-60.1043 105.416,-70.6972 112.067,-68.5121"/>
<g id="a_edge1&#45;headlabel"><a xlink:href="dir_000008_000007.html" target="_top" xlink:title="9">
<text text-anchor="middle" x="115.886" y="-68.6408" font-family="Helvetica,sans-Serif" font-size="8.00">9</text>
</a>
</g>
</g>
</g>
</svg>
