<?xml version="1.0" encoding="UTF-8" standalone="no"?>
<!DOCTYPE svg PUBLIC "-//W3C//DTD SVG 1.1//EN"
 "http://www.w3.org/Graphics/SVG/1.1/DTD/svg11.dtd">
<!-- Generated by graphviz version 2.36.0 (20140111.2315)
 -->
<!-- Title: Graph Legend Pages: 1 -->
<svg width="446pt" height="144pt"
 viewBox="0.00 0.00 446.00 144.00" xmlns="http://www.w3.org/2000/svg" xmlns:xlink="http://www.w3.org/1999/xlink">
<g id="graph0" class="graph" transform="scale(1 1) rotate(0) translate(4 140)">
<title>Graph Legend</title>
<polygon fill="white" stroke="none" points="-4,4 -4,-140 442,-140 442,4 -4,4"/>
<!-- Node9 -->
<g id="node1" class="node"><title>Node9</title>
<polygon fill="#bfbfbf" stroke="black" points="254.349,-16 207.651,-16 207.651,-0 254.349,-0 254.349,-16"/>
<text text-anchor="middle" x="231" y="-5.6" font-family="Helvetica,sans-Serif" font-size="8.00">Inherited</text>
</g>
<!-- Node10 -->
<g id="node2" class="node"><title>Node10</title>
<g id="a_node2"><a xlink:href="$classPublicBase.html" xlink:title="PublicBase">
<polygon fill="none" stroke="black" points="56.0176,-76 -0.0175806,-76 -0.0175806,-60 56.0176,-60 56.0176,-76"/>
<text text-anchor="middle" x="28" y="-65.6" font-family="Helvetica,sans-Serif" font-size="8.00">PublicBase</text>
</a>
</g>
</g>
<!-- Node10&#45;&gt;Node9 -->
<g id="edge1" class="edge"><title>Node10&#45;&gt;Node9</title>
<path fill="none" stroke="midnightblue" d="M62.5268,-57.1352C103.814,-45.3389 171.804,-25.9133 207.478,-15.7206"/>
<polygon fill="midnightblue" stroke="midnightblue" points="61.5455,-53.7754 52.8918,-59.8881 63.4686,-60.5061 61.5455,-53.7754"/>
</g>
<!-- Node11 -->
<g id="node3" class="node"><title>Node11</title>
<g id="a_node3"><a xlink:href="$classTruncated.html" xlink:title="Truncated">
<polygon fill="none" stroke="red" points="53.2979,-136 2.70209,-136 2.70209,-120 53.2979,-120 53.2979,-136"/>
<text text-anchor="middle" x="28" y="-125.6" font-family="Helvetica,sans-Serif" font-size="8.00">Truncated</text>
</a>
</g>
</g>
<!-- Node11&#45;&gt;Node10 -->
<g id="edge2" class="edge"><title>Node11&#45;&gt;Node10</title>
<path fill="none" stroke="midnightblue" d="M28,-109.579C28,-98.3936 28,-84.4585 28,-76.1701"/>
<polygon fill="midnightblue" stroke="midnightblue" points="24.5001,-109.888 28,-119.888 31.5001,-109.888 24.5001,-109.888"/>
</g>
<!-- Node13 -->
<g id="node4" class="node"><title>Node13</title>
<g id="a_node4"><a xlink:href="$classProtectedBase.html" xlink:title="ProtectedBase">
<polygon fill="none" stroke="black" points="142.358,-76 73.6417,-76 73.6417,-60 142.358,-60 142.358,-76"/>
<text text-anchor="middle" x="108" y="-65.6" font-family="Helvetica,sans-Serif" font-size="8.00">ProtectedBase</text>
</a>
</g>
</g>
<!-- Node13&#45;&gt;Node9 -->
<g id="edge3" class="edge"><title>Node13&#45;&gt;Node9</title>
<path fill="none" stroke="darkgreen" d="M132.21,-55.5838C157.037,-43.8771 194.887,-26.0289 215.794,-16.1701"/>
<polygon fill="darkgreen" stroke="darkgreen" points="130.634,-52.4573 123.082,-59.8881 133.62,-58.7887 130.634,-52.4573"/>
</g>
<!-- Node14 -->
<g id="node5" class="node"><title>Node14</title>
<g id="a_node5"><a xlink:href="$classPrivateBase.html" xlink:title="PrivateBase">
<polygon fill="none" stroke="black" points="219.349,-76 160.651,-76 160.651,-60 219.349,-60 219.349,-76"/>
<text text-anchor="middle" x="190" y="-65.6" font-family="Helvetica,sans-Serif" font-size="8.00">PrivateBase</text>
</a>
</g>
</g>
<!-- Node14&#45;&gt;Node9 -->
<g id="edge4" class="edge"><title>Node14&#45;&gt;Node9</title>
<path fill="none" stroke="#8b1a1a" d="M200.841,-51.6634C208.962,-40.1764 219.702,-24.982 225.931,-16.1701"/>
<polygon fill="#8b1a1a" stroke="#8b1a1a" points="197.942,-49.7019 195.027,-59.8881 203.658,-53.7426 197.942,-49.7019"/>
</g>
<!-- Node15 -->
<g id="node6" class="node"><title>Node15</title>
<polygon fill="none" stroke="#bfbfbf" points="308.194,-76 237.806,-76 237.806,-60 308.194,-60 308.194,-76"/>
<text text-anchor="middle" x="273" y="-65.6" font-family="Helvetica,sans-Serif" font-size="8.00">Undocumented</text>
</g>
<!-- Node15&#45;&gt;Node9 -->
<g id="edge5" class="edge"><title>Node15&#45;&gt;Node9</title>
<path fill="none" stroke="midnightblue" d="M261.894,-51.6634C253.576,-40.1764 242.573,-24.982 236.192,-16.1701"/>
<polygon fill="midnightblue" stroke="midnightblue" points="259.15,-53.8414 267.85,-59.8881 264.82,-49.7358 259.15,-53.8414"/>
</g>
<!-- Node16 -->
<g id="node7" class="node"><title>Node16</title>
<g id="a_node7"><a xlink:href="$classTempl.html" xlink:title="Templ&lt; int &gt;">
<polygon fill="none" stroke="black" points="385.188,-76 326.812,-76 326.812,-60 385.188,-60 385.188,-76"/>
<text text-anchor="middle" x="356" y="-65.6" font-family="Helvetica,sans-Serif" font-size="8.00">Templ&lt; int &gt;</text>
</a>
</g>
</g>
<!-- Node16&#45;&gt;Node9 -->
<g id="edge6" class="edge"><title>Node16&#45;&gt;Node9</title>
<path fill="none" stroke="midnightblue" d="M331.396,-55.5838C306.166,-43.8771 267.7,-26.0289 246.453,-16.1701"/>
<polygon fill="midnightblue" stroke="midnightblue" points="330.128,-58.8539 340.673,-59.8881 333.075,-52.5041 330.128,-58.8539"/>
</g>
<!-- Node17 -->
<g id="node8" class="node"><title>Node17</title>
<g id="a_node8"><a xlink:href="$classTempl.html" xlink:title="Templ&lt; T &gt;">
<polygon fill="none" stroke="black" points="383.303,-136 328.697,-136 328.697,-120 383.303,-120 383.303,-136"/>
<text text-anchor="middle" x="356" y="-125.6" font-family="Helvetica,sans-Serif" font-size="8.00">Templ&lt; T &gt;</text>
</a>
</g>
</g>
<!-- Node17&#45;&gt;Node16 -->
<g id="edge7" class="edge"><title>Node17&#45;&gt;Node16</title>
<path fill="none" stroke="orange" stroke-dasharray="5,2" d="M356,-109.579C356,-98.3936 356,-84.4585 356,-76.1701"/>
<polygon fill="orange" stroke="orange" points="352.5,-109.888 356,-119.888 359.5,-109.888 352.5,-109.888"/>
<text text-anchor="middle" x="367.119" y="-95.6" font-family="Helvetica,sans-Serif" font-size="8.00">&lt; int &gt;</text>
</g>
<!-- Node18 -->
<g id="node9" class="node"><title>Node18</title>
<g id="a_node9"><a xlink:href="$classUsed.html" xlink:title="Used">
<polygon fill="none" stroke="black" points="438.01,-76 403.99,-76 403.99,-60 438.01,-60 438.01,-76"/>
<text text-anchor="middle" x="421" y="-65.6" font-family="Helvetica,sans-Serif" font-size="8.00">Used</text>
</a>
</g>
</g>
<!-- Node18&#45;&gt;Node9 -->
<g id="edge8" class="edge"><title>Node18&#45;&gt;Node9</title>
<path fill="none" stroke="#9a32cd" stroke-dasharray="5,2" d="M394.081,-58.7827C356.634,-47.3514 289.452,-26.8433 254.138,-16.0632"/>
<polygon fill="#9a32cd" stroke="#9a32cd" points="393.217,-62.1784 403.804,-61.7506 395.261,-55.4834 393.217,-62.1784"/>
<text text-anchor="middle" x="362.232" y="-35.6" font-family="Helvetica,sans-Serif" font-size="8.00">m_usedClass</text>
</g>
</g>
</svg>
