<?xml version="1.0" encoding="UTF-8" standalone="no"?>
<!DOCTYPE svg PUBLIC "-//W3C//DTD SVG 1.1//EN"
 "http://www.w3.org/Graphics/SVG/1.1/DTD/svg11.dtd">
<!-- Generated by graphviz version 2.36.0 (20140111.2315)
 -->
<!-- Title: Graphical Class Hierarchy Pages: 1 -->
<svg width="576pt" height="199pt"
 viewBox="0.00 0.00 576.00 199.00" xmlns="http://www.w3.org/2000/svg" xmlns:xlink="http://www.w3.org/1999/xlink">
<g id="graph0" class="graph" transform="scale(1 1) rotate(0) translate(4 195)">
<title>Graphical Class Hierarchy</title>
<polygon fill="white" stroke="none" points="-4,4 -4,-195 572,-195 572,4 -4,4"/>
<!-- Node1 -->
<g id="node1" class="node"><title>Node1</title>
<g id="a_node1"><a xlink:href="d2/df5/classscg_1_1_animation.html" target="_top" xlink:title="Base class for all animations (abstract), providing general functionality. ">
<polygon fill="white" stroke="black" points="204.766,-175 204.766,-191 273.234,-191 273.234,-175 204.766,-175"/>
<text text-anchor="middle" x="239" y="-180.6" font-family="Helvetica,sans-Serif" font-size="8.00">scg::Animation</text>
</a>
</g>
</g>
<!-- Node2 -->
<g id="node2" class="node"><title>Node2</title>
<g id="a_node2"><a xlink:href="dd/d67/classscg_1_1_transform_animation.html" target="_top" xlink:title="An animation that creates a transformation to be applied to ist sub&#45;tree (composite node)...">
<polygon fill="white" stroke="black" points="318.688,-140 318.688,-156 423.312,-156 423.312,-140 318.688,-140"/>
<text text-anchor="middle" x="371" y="-145.6" font-family="Helvetica,sans-Serif" font-size="8.00">scg::TransformAnimation</text>
</a>
</g>
</g>
<!-- Node1&#45;&gt;Node2 -->
<g id="edge1" class="edge"><title>Node1&#45;&gt;Node2</title>
<path fill="none" stroke="midnightblue" d="M279.589,-172.341C298.971,-167.123 321.932,-160.941 339.864,-156.114"/>
<polygon fill="midnightblue" stroke="midnightblue" points="278.571,-168.991 269.825,-174.97 280.391,-175.75 278.571,-168.991"/>
</g>
<!-- Node3 -->
<g id="node3" class="node"><title>Node3</title>
<g id="a_node3"><a xlink:href="d4/dc7/classscg_1_1_node.html" target="_top" xlink:title="Base class for all nodes (composite pattern, abstract). ">
<polygon fill="white" stroke="black" points="-0.00976562,-61 -0.00976562,-77 52.0098,-77 52.0098,-61 -0.00976562,-61"/>
<text text-anchor="middle" x="26" y="-66.6" font-family="Helvetica,sans-Serif" font-size="8.00">scg::Node</text>
</a>
</g>
</g>
<!-- Node4 -->
<g id="node4" class="node"><title>Node4</title>
<g id="a_node4"><a xlink:href="da/d38/classscg_1_1_composite.html" target="_top" xlink:title="Base class for all composite nodes, i.e., nodes with children (composite pattern, abstract)...">
<polygon fill="white" stroke="black" points="88.4336,-87 88.4336,-103 159.566,-103 159.566,-87 88.4336,-87"/>
<text text-anchor="middle" x="124" y="-92.6" font-family="Helvetica,sans-Serif" font-size="8.00">scg::Composite</text>
</a>
</g>
</g>
<!-- Node3&#45;&gt;Node4 -->
<g id="edge2" class="edge"><title>Node3&#45;&gt;Node4</title>
<path fill="none" stroke="midnightblue" d="M62.071,-78.4984C72.2755,-81.2621 83.3224,-84.254 93.1717,-86.9215"/>
<polygon fill="midnightblue" stroke="midnightblue" points="62.7901,-75.0671 52.2229,-75.8312 60.9602,-81.8237 62.7901,-75.0671"/>
</g>
<!-- Node12 -->
<g id="node12" class="node"><title>Node12</title>
<g id="a_node12"><a xlink:href="d7/dc9/classscg_1_1_leaf.html" target="_top" xlink:title="Base class for all leaf nodes, i.e., nodes without children (composite pattern, abstract). ">
<polygon fill="white" stroke="black" points="99.7676,-35 99.7676,-51 148.232,-51 148.232,-35 99.7676,-35"/>
<text text-anchor="middle" x="124" y="-40.6" font-family="Helvetica,sans-Serif" font-size="8.00">scg::Leaf</text>
</a>
</g>
</g>
<!-- Node3&#45;&gt;Node12 -->
<g id="edge11" class="edge"><title>Node3&#45;&gt;Node12</title>
<path fill="none" stroke="midnightblue" d="M61.9243,-59.5413C74.4555,-56.1475 88.2738,-52.405 99.5925,-49.3395"/>
<polygon fill="midnightblue" stroke="midnightblue" points="60.9602,-56.1763 52.2229,-62.1688 62.7901,-62.9329 60.9602,-56.1763"/>
</g>
<!-- Node5 -->
<g id="node5" class="node"><title>Node5</title>
<g id="a_node5"><a xlink:href="dd/d6a/classscg_1_1_group.html" target="_top" xlink:title="A group node to be used as root of a sub&#45;tree of nodes (composite node). ">
<polygon fill="white" stroke="black" points="211.436,-140 211.436,-156 266.564,-156 266.564,-140 211.436,-140"/>
<text text-anchor="middle" x="239" y="-145.6" font-family="Helvetica,sans-Serif" font-size="8.00">scg::Group</text>
</a>
</g>
</g>
<!-- Node4&#45;&gt;Node5 -->
<g id="edge3" class="edge"><title>Node4&#45;&gt;Node5</title>
<path fill="none" stroke="midnightblue" d="M149.843,-107.649C163.401,-114.45 180.53,-122.878 196,-130 203.35,-133.384 211.511,-136.929 218.669,-139.969"/>
<polygon fill="midnightblue" stroke="midnightblue" points="151.181,-104.404 140.677,-103.026 148.029,-110.654 151.181,-104.404"/>
</g>
<!-- Node6 -->
<g id="node6" class="node"><title>Node6</title>
<g id="a_node6"><a xlink:href="da/d81/classscg_1_1_light.html" target="_top" xlink:title="A light to be applied to all nodes of its sub&#45;tree (composite node). ">
<polygon fill="white" stroke="black" points="213.879,-105 213.879,-121 264.121,-121 264.121,-105 213.879,-105"/>
<text text-anchor="middle" x="239" y="-110.6" font-family="Helvetica,sans-Serif" font-size="8.00">scg::Light</text>
</a>
</g>
</g>
<!-- Node4&#45;&gt;Node6 -->
<g id="edge4" class="edge"><title>Node4&#45;&gt;Node6</title>
<path fill="none" stroke="midnightblue" d="M169.965,-102.163C184.95,-104.55 201.067,-107.117 213.851,-109.153"/>
<polygon fill="midnightblue" stroke="midnightblue" points="170.252,-98.6642 159.826,-100.547 169.151,-105.577 170.252,-98.6642"/>
</g>
<!-- Node7 -->
<g id="node7" class="node"><title>Node7</title>
<g id="a_node7"><a xlink:href="d0/d99/classscg_1_1_transformation.html" target="_top" xlink:title="A transformation node to be used to appy a transformation to the sub&#45;tree (composite node)...">
<polygon fill="white" stroke="black" points="195.801,-70 195.801,-86 282.199,-86 282.199,-70 195.801,-70"/>
<text text-anchor="middle" x="239" y="-75.6" font-family="Helvetica,sans-Serif" font-size="8.00">scg::Transformation</text>
</a>
</g>
</g>
<!-- Node4&#45;&gt;Node7 -->
<g id="edge5" class="edge"><title>Node4&#45;&gt;Node7</title>
<path fill="none" stroke="midnightblue" d="M169.898,-88.2455C178.346,-86.9745 187.156,-85.6491 195.527,-84.3897"/>
<polygon fill="midnightblue" stroke="midnightblue" points="169.194,-84.8119 159.826,-89.7607 170.235,-91.734 169.194,-84.8119"/>
</g>
<!-- Node7&#45;&gt;Node2 -->
<g id="edge10" class="edge"><title>Node7&#45;&gt;Node2</title>
<path fill="none" stroke="midnightblue" d="M269.792,-90.2024C273.932,-92.0616 278.1,-94.0222 282,-96 309.698,-110.045 340.65,-129.187 357.464,-139.895"/>
<polygon fill="midnightblue" stroke="midnightblue" points="270.89,-86.8635 260.324,-86.0881 268.1,-93.2835 270.89,-86.8635"/>
</g>
<!-- Node8 -->
<g id="node8" class="node"><title>Node8</title>
<g id="a_node8"><a xlink:href="d4/dc9/classscg_1_1_camera.html" target="_top" xlink:title="Base class for all cameras (composite node, abstract). ">
<polygon fill="white" stroke="black" points="340.326,-70 340.326,-86 401.674,-86 401.674,-70 340.326,-70"/>
<text text-anchor="middle" x="371" y="-75.6" font-family="Helvetica,sans-Serif" font-size="8.00">scg::Camera</text>
</a>
</g>
</g>
<!-- Node7&#45;&gt;Node8 -->
<g id="edge6" class="edge"><title>Node7&#45;&gt;Node8</title>
<path fill="none" stroke="midnightblue" d="M292.598,-78C308.707,-78 325.872,-78 339.934,-78"/>
<polygon fill="midnightblue" stroke="midnightblue" points="292.207,-74.5001 282.207,-78 292.207,-81.5001 292.207,-74.5001"/>
</g>
<!-- Node9 -->
<g id="node9" class="node"><title>Node9</title>
<g id="a_node9"><a xlink:href="d0/d02/classscg_1_1_orthographic_camera.html" target="_top" xlink:title="A camera with orthographic projection(composite node). ">
<polygon fill="white" stroke="black" points="460.203,-105 460.203,-121 567.797,-121 567.797,-105 460.203,-105"/>
<text text-anchor="middle" x="514" y="-110.6" font-family="Helvetica,sans-Serif" font-size="8.00">scg::OrthographicCamera</text>
</a>
</g>
</g>
<!-- Node8&#45;&gt;Node9 -->
<g id="edge7" class="edge"><title>Node8&#45;&gt;Node9</title>
<path fill="none" stroke="midnightblue" d="M411.837,-87.8886C433.606,-93.2923 460.219,-99.8985 480.685,-104.979"/>
<polygon fill="midnightblue" stroke="midnightblue" points="412.451,-84.4349 401.902,-85.4226 410.765,-91.2287 412.451,-84.4349"/>
</g>
<!-- Node10 -->
<g id="node10" class="node"><title>Node10</title>
<g id="a_node10"><a xlink:href="d2/d30/classscg_1_1_perspective_camera.html" target="_top" xlink:title="A camera with perspective projection (composite node). ">
<polygon fill="white" stroke="black" points="462.428,-70 462.428,-86 565.572,-86 565.572,-70 462.428,-70"/>
<text text-anchor="middle" x="514" y="-75.6" font-family="Helvetica,sans-Serif" font-size="8.00">scg::PerspectiveCamera</text>
</a>
</g>
</g>
<!-- Node8&#45;&gt;Node10 -->
<g id="edge8" class="edge"><title>Node8&#45;&gt;Node10</title>
<path fill="none" stroke="midnightblue" d="M412.257,-78C427.847,-78 445.871,-78 462.326,-78"/>
<polygon fill="midnightblue" stroke="midnightblue" points="411.903,-74.5001 401.902,-78 411.902,-81.5001 411.903,-74.5001"/>
</g>
<!-- Node11 -->
<g id="node11" class="node"><title>Node11</title>
<g id="a_node11"><a xlink:href="df/d9b/classscg_1_1_stereo_camera.html" target="_top" xlink:title="A perspective stereo camera (composite node). ">
<polygon fill="white" stroke="black" points="471.541,-35 471.541,-51 556.459,-51 556.459,-35 471.541,-35"/>
<text text-anchor="middle" x="514" y="-40.6" font-family="Helvetica,sans-Serif" font-size="8.00">scg::StereoCamera</text>
</a>
</g>
</g>
<!-- Node8&#45;&gt;Node11 -->
<g id="edge9" class="edge"><title>Node8&#45;&gt;Node11</title>
<path fill="none" stroke="midnightblue" d="M411.837,-68.1114C433.606,-62.7077 460.219,-56.1015 480.685,-51.0215"/>
<polygon fill="midnightblue" stroke="midnightblue" points="410.765,-64.7713 401.902,-70.5774 412.451,-71.5651 410.765,-64.7713"/>
</g>
<!-- Node13 -->
<g id="node13" class="node"><title>Node13</title>
<g id="a_node13"><a xlink:href="d7/da7/classscg_1_1_light_position.html" target="_top" xlink:title="A light position node to define the position of an associated light within the scene graph (leaf node...">
<polygon fill="white" stroke="black" points="199.648,-35 199.648,-51 278.352,-51 278.352,-35 199.648,-35"/>
<text text-anchor="middle" x="239" y="-40.6" font-family="Helvetica,sans-Serif" font-size="8.00">scg::LightPosition</text>
</a>
</g>
</g>
<!-- Node12&#45;&gt;Node13 -->
<g id="edge12" class="edge"><title>Node12&#45;&gt;Node13</title>
<path fill="none" stroke="midnightblue" d="M158.678,-43C171.515,-43 186.241,-43 199.492,-43"/>
<polygon fill="midnightblue" stroke="midnightblue" points="158.414,-39.5001 148.414,-43 158.414,-46.5001 158.414,-39.5001"/>
</g>
<!-- Node14 -->
<g id="node14" class="node"><title>Node14</title>
<g id="a_node14"><a xlink:href="d1/d94/classscg_1_1_shape.html" target="_top" xlink:title="A shape node that contains geometry to be rendered (leaf node). ">
<polygon fill="white" stroke="black" points="210.986,-0 210.986,-16 267.014,-16 267.014,-0 210.986,-0"/>
<text text-anchor="middle" x="239" y="-5.6" font-family="Helvetica,sans-Serif" font-size="8.00">scg::Shape</text>
</a>
</g>
</g>
<!-- Node12&#45;&gt;Node14 -->
<g id="edge13" class="edge"><title>Node12&#45;&gt;Node14</title>
<path fill="none" stroke="midnightblue" d="M158.041,-32.766C175.185,-27.4559 195.833,-21.0606 211.851,-16.0991"/>
<polygon fill="midnightblue" stroke="midnightblue" points="156.93,-29.4459 148.414,-35.748 159.002,-36.1325 156.93,-29.4459"/>
</g>
</g>
</svg>
