<?xml version="1.0" encoding="UTF-8" standalone="no"?>
<!DOCTYPE svg PUBLIC "-//W3C//DTD SVG 1.1//EN"
 "http://www.w3.org/Graphics/SVG/1.1/DTD/svg11.dtd">
<!-- Generated by graphviz version 2.36.0 (20140111.2315)
 -->
<!-- Title: Graphical Class Hierarchy Pages: 1 -->
<svg width="428pt" height="181pt"
 viewBox="0.00 0.00 428.00 181.00" xmlns="http://www.w3.org/2000/svg" xmlns:xlink="http://www.w3.org/1999/xlink">
<g id="graph0" class="graph" transform="scale(1 1) rotate(0) translate(4 177)">
<title>Graphical Class Hierarchy</title>
<polygon fill="white" stroke="none" points="-4,4 -4,-177 424,-177 424,4 -4,4"/>
<!-- Node0 -->
<g id="node1" class="node"><title>Node0</title>
<g id="a_node1"><a xlink:href="d0/d79/classscg_1_1_core.html" target="_top" xlink:title="Base class for all cores (abstract).">
<polygon fill="white" stroke="black" points="-0.117188,-87 -0.117188,-103 50.1172,-103 50.1172,-87 -0.117188,-87"/>
<text text-anchor="middle" x="25" y="-92.6" font-family="Helvetica,sans-Serif" font-size="8.00">scg::Core</text>
</a>
</g>
</g>
<!-- Node1 -->
<g id="node2" class="node"><title>Node1</title>
<g id="a_node2"><a xlink:href="d9/dc2/classscg_1_1_color_core.html" target="_top" xlink:title="A core to set a vertex color or a color transformation to be applied to subsequent geometry.">
<polygon fill="white" stroke="black" points="94.3242,-157 94.3242,-173 163.676,-173 163.676,-157 94.3242,-157"/>
<text text-anchor="middle" x="129" y="-162.6" font-family="Helvetica,sans-Serif" font-size="8.00">scg::ColorCore</text>
</a>
</g>
</g>
<!-- Node0&#45;&gt;Node1 -->
<g id="edge1" class="edge"><title>Node0&#45;&gt;Node1</title>
<path fill="none" stroke="midnightblue" d="M41.3201,-110.66C52.8524,-121.827 69.4546,-136.639 86,-147 92.0511,-150.789 99.0386,-154.139 105.556,-156.89"/>
<polygon fill="midnightblue" stroke="midnightblue" points="43.4557,-107.848 33.8922,-103.288 38.5249,-112.817 43.4557,-107.848"/>
</g>
<!-- Node2 -->
<g id="node3" class="node"><title>Node2</title>
<g id="a_node3"><a xlink:href="d7/d13/classscg_1_1_geometry_core.html" target="_top" xlink:title="A core that contains geometry information to be rendered.">
<polygon fill="white" stroke="black" points="86.3223,-122 86.3223,-138 171.678,-138 171.678,-122 86.3223,-122"/>
<text text-anchor="middle" x="129" y="-127.6" font-family="Helvetica,sans-Serif" font-size="8.00">scg::GeometryCore</text>
</a>
</g>
</g>
<!-- Node0&#45;&gt;Node2 -->
<g id="edge2" class="edge"><title>Node0&#45;&gt;Node2</title>
<path fill="none" stroke="midnightblue" d="M59.1718,-106.382C73.9142,-111.441 90.9303,-117.28 104.355,-121.886"/>
<polygon fill="midnightblue" stroke="midnightblue" points="59.9955,-102.965 49.4009,-103.03 57.7235,-109.586 59.9955,-102.965"/>
</g>
<!-- Node3 -->
<g id="node4" class="node"><title>Node3</title>
<g id="a_node4"><a xlink:href="db/d10/classscg_1_1_material_core.html" target="_top" xlink:title="A core to set material properties for lighting to be applied to subsequent geometry.">
<polygon fill="white" stroke="black" points="89.6562,-87 89.6562,-103 168.344,-103 168.344,-87 89.6562,-87"/>
<text text-anchor="middle" x="129" y="-92.6" font-family="Helvetica,sans-Serif" font-size="8.00">scg::MaterialCore</text>
</a>
</g>
</g>
<!-- Node0&#45;&gt;Node3 -->
<g id="edge3" class="edge"><title>Node0&#45;&gt;Node3</title>
<path fill="none" stroke="midnightblue" d="M60.3574,-95C69.7681,-95 80.0279,-95 89.6471,-95"/>
<polygon fill="midnightblue" stroke="midnightblue" points="60.1726,-91.5001 50.1726,-95 60.1725,-98.5001 60.1726,-91.5001"/>
</g>
<!-- Node4 -->
<g id="node5" class="node"><title>Node4</title>
<g id="a_node5"><a xlink:href="df/de9/classscg_1_1_shader_core.html" target="_top" xlink:title="A core to set a shader program to be applied to subsequent nodes.">
<polygon fill="white" stroke="black" points="90.9844,-52 90.9844,-68 167.016,-68 167.016,-52 90.9844,-52"/>
<text text-anchor="middle" x="129" y="-57.6" font-family="Helvetica,sans-Serif" font-size="8.00">scg::ShaderCore</text>
</a>
</g>
</g>
<!-- Node0&#45;&gt;Node4 -->
<g id="edge4" class="edge"><title>Node0&#45;&gt;Node4</title>
<path fill="none" stroke="midnightblue" d="M59.1718,-83.6175C73.9142,-78.5588 90.9303,-72.72 104.355,-68.1135"/>
<polygon fill="midnightblue" stroke="midnightblue" points="57.7235,-80.4141 49.4009,-86.9703 59.9955,-87.0351 57.7235,-80.4141"/>
</g>
<!-- Node5 -->
<g id="node6" class="node"><title>Node5</title>
<g id="a_node6"><a xlink:href="d1/d4f/classscg_1_1_texture_core.html" target="_top" xlink:title="Base class for all texture cores (abstract).">
<polygon fill="white" stroke="black" points="90.7656,-17 90.7656,-33 167.234,-33 167.234,-17 90.7656,-17"/>
<text text-anchor="middle" x="129" y="-22.6" font-family="Helvetica,sans-Serif" font-size="8.00">scg::TextureCore</text>
</a>
</g>
</g>
<!-- Node0&#45;&gt;Node5 -->
<g id="edge5" class="edge"><title>Node0&#45;&gt;Node5</title>
<path fill="none" stroke="midnightblue" d="M41.3201,-79.3404C52.8524,-68.1734 69.4546,-53.3614 86,-43 92.0511,-39.2105 99.0386,-35.8608 105.556,-33.11"/>
<polygon fill="midnightblue" stroke="midnightblue" points="38.5249,-77.1835 33.8922,-86.7118 43.4557,-82.1521 38.5249,-77.1835"/>
</g>
<!-- Node6 -->
<g id="node7" class="node"><title>Node6</title>
<g id="a_node7"><a xlink:href="d9/d5b/classscg_1_1_cube_map_core.html" target="_top" xlink:title="Cube map textue core.">
<polygon fill="white" stroke="black" points="209.539,-35 209.539,-51 294.461,-51 294.461,-35 209.539,-35"/>
<text text-anchor="middle" x="252" y="-40.6" font-family="Helvetica,sans-Serif" font-size="8.00">scg::CubeMapCore</text>
</a>
</g>
</g>
<!-- Node5&#45;&gt;Node6 -->
<g id="edge6" class="edge"><title>Node5&#45;&gt;Node6</title>
<path fill="none" stroke="midnightblue" d="M177.244,-32.0281C187.856,-33.6067 199.04,-35.2703 209.401,-36.8117"/>
<polygon fill="midnightblue" stroke="midnightblue" points="177.697,-28.5571 167.291,-30.5475 176.667,-35.4809 177.697,-28.5571"/>
</g>
<!-- Node7 -->
<g id="node8" class="node"><title>Node7</title>
<g id="a_node8"><a xlink:href="dc/d19/classscg_1_1_texture2_d_core.html" target="_top" xlink:title="2D texture core.">
<polygon fill="white" stroke="black" points="208.652,-0 208.652,-16 295.348,-16 295.348,-0 208.652,-0"/>
<text text-anchor="middle" x="252" y="-5.6" font-family="Helvetica,sans-Serif" font-size="8.00">scg::Texture2DCore</text>
</a>
</g>
</g>
<!-- Node5&#45;&gt;Node7 -->
<g id="edge7" class="edge"><title>Node5&#45;&gt;Node7</title>
<path fill="none" stroke="midnightblue" d="M177.354,-18.347C187.641,-16.9017 198.461,-15.3815 208.545,-13.9648"/>
<polygon fill="midnightblue" stroke="midnightblue" points="176.707,-14.9034 167.291,-19.7607 177.681,-21.8353 176.707,-14.9034"/>
</g>
<!-- Node8 -->
<g id="node9" class="node"><title>Node8</title>
<g id="a_node9"><a xlink:href="db/d63/classscg_1_1_bump_map_core.html" target="_top" xlink:title="2D bump map core storing a texture (optional) and a normal map.">
<polygon fill="white" stroke="black" points="332.652,-0 332.652,-16 419.348,-16 419.348,-0 332.652,-0"/>
<text text-anchor="middle" x="376" y="-5.6" font-family="Helvetica,sans-Serif" font-size="8.00">scg::BumpMapCore</text>
</a>
</g>
</g>
<!-- Node7&#45;&gt;Node8 -->
<g id="edge8" class="edge"><title>Node7&#45;&gt;Node8</title>
<path fill="none" stroke="midnightblue" d="M305.957,-8C314.851,-8 323.977,-8 332.56,-8"/>
<polygon fill="midnightblue" stroke="midnightblue" points="305.67,-4.5001 295.67,-8 305.67,-11.5001 305.67,-4.5001"/>
</g>
</g>
</svg>
