<?xml version="1.0" encoding="UTF-8" standalone="no"?>
<!DOCTYPE svg PUBLIC "-//W3C//DTD SVG 1.1//EN"
 "http://www.w3.org/Graphics/SVG/1.1/DTD/svg11.dtd">
<!-- Generated by graphviz version 2.36.0 (20140111.2315)
 -->
<!-- Title: Graphical Class Hierarchy Pages: 1 -->
<svg width="370pt" height="94pt"
 viewBox="0.00 0.00 370.00 94.00" xmlns="http://www.w3.org/2000/svg" xmlns:xlink="http://www.w3.org/1999/xlink">
<g id="graph0" class="graph" transform="scale(1 1) rotate(0) translate(4 90)">
<title>Graphical Class Hierarchy</title>
<polygon fill="white" stroke="none" points="-4,4 -4,-90 366,-90 366,4 -4,4"/>
<!-- Node1 -->
<g id="node1" class="node"><title>Node1</title>
<g id="a_node1"><a xlink:href="d8/dcf/classscg_1_1_renderer.html" target="_top" xlink:title="Base class for all renderers (abstract). ">
<polygon fill="white" stroke="black" points="-0.123047,-52 -0.123047,-68 66.123,-68 66.123,-52 -0.123047,-52"/>
<text text-anchor="middle" x="33" y="-57.6" font-family="Helvetica,sans-Serif" font-size="8.00">scg::Renderer</text>
</a>
</g>
</g>
<!-- Node2 -->
<g id="node2" class="node"><title>Node2</title>
<g id="a_node2"><a xlink:href="d5/db3/classscg_1_1_standard_renderer.html" target="_top" xlink:title="A standard renderer that uses a PreTraverser, a RenderTraverser, and an InfoTraverser. ">
<polygon fill="white" stroke="black" points="102.643,-70 102.643,-86 201.357,-86 201.357,-70 102.643,-70"/>
<text text-anchor="middle" x="152" y="-75.6" font-family="Helvetica,sans-Serif" font-size="8.00">scg::StandardRenderer</text>
</a>
</g>
</g>
<!-- Node1&#45;&gt;Node2 -->
<g id="edge1" class="edge"><title>Node1&#45;&gt;Node2</title>
<path fill="none" stroke="midnightblue" d="M76.3707,-66.5186C84.8883,-67.829 93.9008,-69.2155 102.605,-70.5547"/>
<polygon fill="midnightblue" stroke="midnightblue" points="76.6964,-63.0276 66.2805,-64.9662 75.632,-69.9462 76.6964,-63.0276"/>
</g>
<!-- Node3 -->
<g id="node3" class="node"><title>Node3</title>
<g id="a_node3"><a xlink:href="d7/d2b/classscg_1_1_stereo_renderer.html" target="_top" xlink:title="Base class for all stereo renderers (abstract). ">
<polygon fill="white" stroke="black" points="107.092,-35 107.092,-51 196.908,-51 196.908,-35 107.092,-35"/>
<text text-anchor="middle" x="152" y="-40.6" font-family="Helvetica,sans-Serif" font-size="8.00">scg::StereoRenderer</text>
</a>
</g>
</g>
<!-- Node1&#45;&gt;Node3 -->
<g id="edge2" class="edge"><title>Node1&#45;&gt;Node3</title>
<path fill="none" stroke="midnightblue" d="M76.3639,-53.8446C86.327,-52.3969 96.9674,-50.8509 107,-49.3931"/>
<polygon fill="midnightblue" stroke="midnightblue" points="75.6733,-50.4081 66.2805,-55.3097 76.6799,-57.3353 75.6733,-50.4081"/>
</g>
<!-- Node4 -->
<g id="node4" class="node"><title>Node4</title>
<g id="a_node4"><a xlink:href="d0/d12/classscg_1_1_stereo_renderer_active.html" target="_top" xlink:title="A renderer for active stereo (e.g., shutter glasses). ">
<polygon fill="white" stroke="black" points="244.199,-70 244.199,-86 355.801,-86 355.801,-70 244.199,-70"/>
<text text-anchor="middle" x="300" y="-75.6" font-family="Helvetica,sans-Serif" font-size="8.00">scg::StereoRendererActive</text>
</a>
</g>
</g>
<!-- Node3&#45;&gt;Node4 -->
<g id="edge3" class="edge"><title>Node3&#45;&gt;Node4</title>
<path fill="none" stroke="midnightblue" d="M196.303,-53.3809C218.401,-58.6782 244.874,-65.0247 265.408,-69.9471"/>
<polygon fill="midnightblue" stroke="midnightblue" points="197.036,-49.9574 186.495,-51.0297 195.404,-56.7646 197.036,-49.9574"/>
</g>
<!-- Node5 -->
<g id="node5" class="node"><title>Node5</title>
<g id="a_node5"><a xlink:href="d6/de3/classscg_1_1_stereo_renderer_anaglyph.html" target="_top" xlink:title="A renderer for anaglyph stereo (left eye: red, right eye: cyan). ">
<polygon fill="white" stroke="black" points="238.412,-35 238.412,-51 361.588,-51 361.588,-35 238.412,-35"/>
<text text-anchor="middle" x="300" y="-40.6" font-family="Helvetica,sans-Serif" font-size="8.00">scg::StereoRendererAnaglyph</text>
</a>
</g>
</g>
<!-- Node3&#45;&gt;Node5 -->
<g id="edge4" class="edge"><title>Node3&#45;&gt;Node5</title>
<path fill="none" stroke="midnightblue" d="M207.449,-43C217.49,-43 228.034,-43 238.247,-43"/>
<polygon fill="midnightblue" stroke="midnightblue" points="207.201,-39.5001 197.201,-43 207.201,-46.5001 207.201,-39.5001"/>
</g>
<!-- Node6 -->
<g id="node6" class="node"><title>Node6</title>
<g id="a_node6"><a xlink:href="d8/d0f/classscg_1_1_stereo_renderer_passive.html" target="_top" xlink:title="A renderer for passive stereo (e.g., polarized projection). ">
<polygon fill="white" stroke="black" points="241.086,-0 241.086,-16 358.914,-16 358.914,-0 241.086,-0"/>
<text text-anchor="middle" x="300" y="-5.6" font-family="Helvetica,sans-Serif" font-size="8.00">scg::StereoRendererPassive</text>
</a>
</g>
</g>
<!-- Node3&#45;&gt;Node6 -->
<g id="edge5" class="edge"><title>Node3&#45;&gt;Node6</title>
<path fill="none" stroke="midnightblue" d="M196.303,-32.6191C218.401,-27.3218 244.874,-20.9753 265.408,-16.0529"/>
<polygon fill="midnightblue" stroke="midnightblue" points="195.404,-29.2354 186.495,-34.9703 197.036,-36.0426 195.404,-29.2354"/>
</g>
</g>
</svg>
