<?xml version="1.0" encoding="UTF-8" standalone="no"?>
<!DOCTYPE svg PUBLIC "-//W3C//DTD SVG 1.1//EN"
 "http://www.w3.org/Graphics/SVG/1.1/DTD/svg11.dtd">
<!-- Generated by graphviz version 2.36.0 (20140111.2315)
 -->
<!-- Title: Graphical Class Hierarchy Pages: 1 -->
<svg width="206pt" height="94pt"
 viewBox="0.00 0.00 206.00 94.00" xmlns="http://www.w3.org/2000/svg" xmlns:xlink="http://www.w3.org/1999/xlink">
<g id="graph0" class="graph" transform="scale(1 1) rotate(0) translate(4 90)">
<title>Graphical Class Hierarchy</title>
<polygon fill="white" stroke="none" points="-4,4 -4,-90 202,-90 202,4 -4,4"/>
<!-- Node1 -->
<g id="node1" class="node"><title>Node1</title>
<g id="a_node1"><a xlink:href="dc/d03/classscg_1_1_traverser.html" target="_top" xlink:title="Base class for all traversers (visitor pattern, abstract). ">
<polygon fill="white" stroke="black" points="0.585938,-35 0.585938,-51 67.4141,-51 67.4141,-35 0.585938,-35"/>
<text text-anchor="middle" x="34" y="-40.6" font-family="Helvetica,sans-Serif" font-size="8.00">scg::Traverser</text>
</a>
</g>
</g>
<!-- Node2 -->
<g id="node2" class="node"><title>Node2</title>
<g id="a_node2"><a xlink:href="db/d76/classscg_1_1_info_traverser.html" target="_top" xlink:title="A traverser that gathers information about the scene graph (visitor pattern). ">
<polygon fill="white" stroke="black" points="110.914,-70 110.914,-86 191.086,-86 191.086,-70 110.914,-70"/>
<text text-anchor="middle" x="151" y="-75.6" font-family="Helvetica,sans-Serif" font-size="8.00">scg::InfoTraverser</text>
</a>
</g>
</g>
<!-- Node1&#45;&gt;Node2 -->
<g id="edge1" class="edge"><title>Node1&#45;&gt;Node2</title>
<path fill="none" stroke="midnightblue" d="M70.9678,-53.9467C87.9107,-59.1033 107.769,-65.1471 123.341,-69.8865"/>
<polygon fill="midnightblue" stroke="midnightblue" points="71.9692,-50.593 61.3833,-51.0297 69.931,-57.2898 71.9692,-50.593"/>
</g>
<!-- Node3 -->
<g id="node3" class="node"><title>Node3</title>
<g id="a_node3"><a xlink:href="d6/da7/classscg_1_1_pre_traverser.html" target="_top" xlink:title="A traverser that searches Camera and LightPosition nodes in the scene graph (visitor pattern)...">
<polygon fill="white" stroke="black" points="111.361,-35 111.361,-51 190.639,-51 190.639,-35 111.361,-35"/>
<text text-anchor="middle" x="151" y="-40.6" font-family="Helvetica,sans-Serif" font-size="8.00">scg::PreTraverser</text>
</a>
</g>
</g>
<!-- Node1&#45;&gt;Node3 -->
<g id="edge2" class="edge"><title>Node1&#45;&gt;Node3</title>
<path fill="none" stroke="midnightblue" d="M77.8338,-43C88.7597,-43 100.443,-43 111.156,-43"/>
<polygon fill="midnightblue" stroke="midnightblue" points="77.6468,-39.5001 67.6468,-43 77.6467,-46.5001 77.6468,-39.5001"/>
</g>
<!-- Node4 -->
<g id="node4" class="node"><title>Node4</title>
<g id="a_node4"><a xlink:href="d7/df6/classscg_1_1_render_traverser.html" target="_top" xlink:title="A traverser that renders the scene graph (visitor pattern). ">
<polygon fill="white" stroke="black" points="104.467,-0 104.467,-16 197.533,-16 197.533,-0 104.467,-0"/>
<text text-anchor="middle" x="151" y="-5.6" font-family="Helvetica,sans-Serif" font-size="8.00">scg::RenderTraverser</text>
</a>
</g>
</g>
<!-- Node1&#45;&gt;Node4 -->
<g id="edge3" class="edge"><title>Node1&#45;&gt;Node4</title>
<path fill="none" stroke="midnightblue" d="M70.9678,-32.0533C87.9107,-26.8967 107.769,-20.8529 123.341,-16.1135"/>
<polygon fill="midnightblue" stroke="midnightblue" points="69.931,-28.7102 61.3833,-34.9703 71.9692,-35.407 69.931,-28.7102"/>
</g>
</g>
</svg>
