<?xml version="1.0" encoding="UTF-8" standalone="no"?>
<!DOCTYPE svg PUBLIC "-//W3C//DTD SVG 1.1//EN"
 "http://www.w3.org/Graphics/SVG/1.1/DTD/svg11.dtd">
<!-- Generated by graphviz version 2.36.0 (20140111.2315)
 -->
<!-- Title: Graphical Class Hierarchy Pages: 1 -->
<svg width="346pt" height="59pt"
 viewBox="0.00 0.00 346.00 59.00" xmlns="http://www.w3.org/2000/svg" xmlns:xlink="http://www.w3.org/1999/xlink">
<g id="graph0" class="graph" transform="scale(1 1) rotate(0) translate(4 55)">
<title>Graphical Class Hierarchy</title>
<polygon fill="white" stroke="none" points="-4,4 -4,-55 342,-55 342,4 -4,4"/>
<!-- Node0 -->
<g id="node1" class="node"><title>Node0</title>
<g id="a_node1"><a xlink:href="de/de4/classscg_1_1_controller.html" target="_top" xlink:title="Base class for all controllers (abstract).">
<polygon fill="white" stroke="black" points="0.212891,-17 0.212891,-33 67.7871,-33 67.7871,-17 0.212891,-17"/>
<text text-anchor="middle" x="34" y="-22.6" font-family="Helvetica,sans-Serif" font-size="8.00">scg::Controller</text>
</a>
</g>
</g>
<!-- Node1 -->
<g id="node2" class="node"><title>Node1</title>
<g id="a_node2"><a xlink:href="de/d6a/classscg_1_1_camera_controller.html" target="_top" xlink:title="Base class for all camera controllers, acting on a Camera node (abstract).">
<polygon fill="white" stroke="black" points="103.986,-17 103.986,-33 200.014,-33 200.014,-17 103.986,-17"/>
<text text-anchor="middle" x="152" y="-22.6" font-family="Helvetica,sans-Serif" font-size="8.00">scg::CameraController</text>
</a>
</g>
</g>
<!-- Node0&#45;&gt;Node1 -->
<g id="edge1" class="edge"><title>Node0&#45;&gt;Node1</title>
<path fill="none" stroke="midnightblue" d="M78.1795,-25C86.4994,-25 95.2554,-25 103.698,-25"/>
<polygon fill="midnightblue" stroke="midnightblue" points="77.9307,-21.5001 67.9307,-25 77.9306,-28.5001 77.9307,-21.5001"/>
</g>
<!-- Node2 -->
<g id="node3" class="node"><title>Node2</title>
<g id="a_node3"><a xlink:href="dd/d66/classscg_1_1_keyboard_controller.html" target="_top" xlink:title="A camera controller using keyboard input.">
<polygon fill="white" stroke="black" points="236.09,-35 236.09,-51 337.91,-51 337.91,-35 236.09,-35"/>
<text text-anchor="middle" x="287" y="-40.6" font-family="Helvetica,sans-Serif" font-size="8.00">scg::KeyboardController</text>
</a>
</g>
</g>
<!-- Node1&#45;&gt;Node2 -->
<g id="edge2" class="edge"><title>Node1&#45;&gt;Node2</title>
<path fill="none" stroke="midnightblue" d="M210.41,-32.7697C218.837,-33.9103 227.464,-35.0778 235.733,-36.197"/>
<polygon fill="midnightblue" stroke="midnightblue" points="210.644,-29.2697 200.265,-31.3968 209.706,-36.2064 210.644,-29.2697"/>
</g>
<!-- Node3 -->
<g id="node4" class="node"><title>Node3</title>
<g id="a_node4"><a xlink:href="da/d9a/classscg_1_1_mouse_controller.html" target="_top" xlink:title="A camera controller using mouse input.">
<polygon fill="white" stroke="black" points="241.207,-0 241.207,-16 332.793,-16 332.793,-0 241.207,-0"/>
<text text-anchor="middle" x="287" y="-5.6" font-family="Helvetica,sans-Serif" font-size="8.00">scg::MouseController</text>
</a>
</g>
</g>
<!-- Node1&#45;&gt;Node3 -->
<g id="edge3" class="edge"><title>Node1&#45;&gt;Node3</title>
<path fill="none" stroke="midnightblue" d="M210.406,-17.6624C220.682,-16.3489 231.254,-14.9976 241.114,-13.7373"/>
<polygon fill="midnightblue" stroke="midnightblue" points="209.741,-14.2188 200.265,-18.9586 210.628,-21.1624 209.741,-14.2188"/>
</g>
</g>
</svg>
