<?xml version="1.0" encoding="UTF-8" standalone="no"?>
<!DOCTYPE svg PUBLIC "-//W3C//DTD SVG 1.1//EN"
 "http://www.w3.org/Graphics/SVG/1.1/DTD/svg11.dtd">
<!-- Generated by graphviz version 2.36.0 (20140111.2315)
 -->
<!-- Title: scg::PreTraverser Pages: 1 -->
<svg width="1144pt" height="180pt"
 viewBox="0.00 0.00 1144.00 180.00" xmlns="http://www.w3.org/2000/svg" xmlns:xlink="http://www.w3.org/1999/xlink">
<g id="graph0" class="graph" transform="scale(1 1) rotate(0) translate(4 176)">
<title>scg::PreTraverser</title>
<polygon fill="white" stroke="none" points="-4,4 -4,-176 1140,-176 1140,4 -4,4"/>
<!-- Node1 -->
<g id="node1" class="node"><title>Node1</title>
<polygon fill="#bfbfbf" stroke="black" points="1056.36,-69 1056.36,-85 1135.64,-85 1135.64,-69 1056.36,-69"/>
<text text-anchor="middle" x="1096" y="-74.6" font-family="Helvetica,sans-Serif" font-size="8.00">scg::PreTraverser</text>
</g>
<!-- Node2 -->
<g id="node2" class="node"><title>Node2</title>
<g id="a_node2"><a xlink:href="../../dc/d03/classscg_1_1_traverser.html" target="_top" xlink:title="Base class for all traversers (visitor pattern, abstract). ">
<polygon fill="white" stroke="black" points="950.586,-69 950.586,-85 1017.41,-85 1017.41,-69 950.586,-69"/>
<text text-anchor="middle" x="984" y="-74.6" font-family="Helvetica,sans-Serif" font-size="8.00">scg::Traverser</text>
</a>
</g>
</g>
<!-- Node2&#45;&gt;Node1 -->
<g id="edge1" class="edge"><title>Node2&#45;&gt;Node1</title>
<path fill="none" stroke="midnightblue" d="M1027.9,-77C1037.17,-77 1046.91,-77 1056.02,-77"/>
<polygon fill="midnightblue" stroke="midnightblue" points="1027.71,-73.5001 1017.71,-77 1027.71,-80.5001 1027.71,-73.5001"/>
</g>
<!-- Node3 -->
<g id="node3" class="node"><title>Node3</title>
<g id="a_node3"><a xlink:href="../../db/dfa/classscg_1_1_render_state.html" target="_top" xlink:title="The central render state that collects information about the current shader, transformations, matrix stacks, light and color properties. ">
<polygon fill="white" stroke="black" points="788.094,-69 788.094,-85 865.906,-85 865.906,-69 788.094,-69"/>
<text text-anchor="middle" x="827" y="-74.6" font-family="Helvetica,sans-Serif" font-size="8.00">scg::RenderState</text>
</a>
</g>
</g>
<!-- Node3&#45;&gt;Node2 -->
<g id="edge2" class="edge"><title>Node3&#45;&gt;Node2</title>
<path fill="none" stroke="#9a32cd" stroke-dasharray="5,2" d="M875.974,-77C900.165,-77 928.867,-77 950.456,-77"/>
<polygon fill="#9a32cd" stroke="#9a32cd" points="875.917,-73.5001 865.917,-77 875.917,-80.5001 875.917,-73.5001"/>
<text text-anchor="middle" x="908" y="-78.6" font-family="Helvetica,sans-Serif" font-size="8.00"> renderState_</text>
</g>
<!-- Node4 -->
<g id="node4" class="node"><title>Node4</title>
<g id="a_node4"><a xlink:href="../../df/de9/classscg_1_1_shader_core.html" target="_top" xlink:title="A core to set a shader program to be applied to subsequent nodes. ">
<polygon fill="white" stroke="black" points="615.984,-69 615.984,-85 692.016,-85 692.016,-69 615.984,-69"/>
<text text-anchor="middle" x="654" y="-74.6" font-family="Helvetica,sans-Serif" font-size="8.00">scg::ShaderCore</text>
</a>
</g>
</g>
<!-- Node4&#45;&gt;Node3 -->
<g id="edge3" class="edge"><title>Node4&#45;&gt;Node3</title>
<path fill="none" stroke="#9a32cd" stroke-dasharray="5,2" d="M702.13,-77C729.195,-77 762.731,-77 788.081,-77"/>
<polygon fill="#9a32cd" stroke="#9a32cd" points="702.104,-73.5001 692.104,-77 702.104,-80.5001 702.104,-73.5001"/>
<text text-anchor="middle" x="740" y="-78.6" font-family="Helvetica,sans-Serif" font-size="8.00"> shaderCore_</text>
</g>
<!-- Node4&#45;&gt;Node4 -->
<g id="edge5" class="edge"><title>Node4&#45;&gt;Node4</title>
<path fill="none" stroke="#9a32cd" stroke-dasharray="5,2" d="M639.536,-94.9164C640.452,-99.5287 645.274,-103 654,-103 668.32,-103 672.124,-93.652 665.411,-85.2534"/>
<polygon fill="#9a32cd" stroke="#9a32cd" points="642.914,-95.8433 642.589,-85.2534 636.239,-93.7348 642.914,-95.8433"/>
<text text-anchor="middle" x="654" y="-104.6" font-family="Helvetica,sans-Serif" font-size="8.00"> shaderCoreOld_</text>
</g>
<!-- Node5 -->
<g id="node5" class="node"><title>Node5</title>
<g id="a_node5"><a xlink:href="../../d0/d79/classscg_1_1_core.html" target="_top" xlink:title="Base class for all cores (abstract). ">
<polygon fill="white" stroke="black" points="451.883,-123 451.883,-139 502.117,-139 502.117,-123 451.883,-123"/>
<text text-anchor="middle" x="477" y="-128.6" font-family="Helvetica,sans-Serif" font-size="8.00">scg::Core</text>
</a>
</g>
</g>
<!-- Node5&#45;&gt;Node4 -->
<g id="edge4" class="edge"><title>Node5&#45;&gt;Node4</title>
<path fill="none" stroke="midnightblue" d="M511.941,-123.102C536.149,-117.19 569.352,-108.511 598,-99 610.298,-94.917 623.814,-89.5237 634.369,-85.0991"/>
<polygon fill="midnightblue" stroke="midnightblue" points="511.057,-119.715 502.156,-125.461 512.698,-126.52 511.057,-119.715"/>
</g>
<!-- Node13 -->
<g id="node13" class="node"><title>Node13</title>
<g id="a_node13"><a xlink:href="../../d9/dc2/classscg_1_1_color_core.html" target="_top" xlink:title="A core to set a vertex color or a color transformation to be applied to subsequent geometry...">
<polygon fill="white" stroke="black" points="619.324,-130 619.324,-146 688.676,-146 688.676,-130 619.324,-130"/>
<text text-anchor="middle" x="654" y="-135.6" font-family="Helvetica,sans-Serif" font-size="8.00">scg::ColorCore</text>
</a>
</g>
</g>
<!-- Node5&#45;&gt;Node13 -->
<g id="edge15" class="edge"><title>Node5&#45;&gt;Node13</title>
<path fill="none" stroke="midnightblue" d="M512.642,-132.386C543.584,-133.623 588.629,-135.425 619.284,-136.651"/>
<polygon fill="midnightblue" stroke="midnightblue" points="512.465,-128.876 502.333,-131.973 512.185,-135.87 512.465,-128.876"/>
</g>
<!-- Node6 -->
<g id="node6" class="node"><title>Node6</title>
<polygon fill="white" stroke="#bfbfbf" points="311.982,-75 311.982,-99 400.018,-99 400.018,-75 311.982,-75"/>
<text text-anchor="start" x="319.982" y="-88.6" font-family="Helvetica,sans-Serif" font-size="8.00">std::unordered_map</text>
<text text-anchor="middle" x="356" y="-80.6" font-family="Helvetica,sans-Serif" font-size="8.00">&lt; std::string, GLint &gt;</text>
</g>
<!-- Node6&#45;&gt;Node4 -->
<g id="edge6" class="edge"><title>Node6&#45;&gt;Node4</title>
<path fill="none" stroke="#9a32cd" stroke-dasharray="5,2" d="M410.314,-85.1988C469.535,-83.1982 563.62,-80.0196 615.532,-78.2658"/>
<polygon fill="#9a32cd" stroke="#9a32cd" points="409.917,-81.7102 400.041,-85.5459 410.153,-88.7062 409.917,-81.7102"/>
<text text-anchor="middle" x="477" y="-86.6" font-family="Helvetica,sans-Serif" font-size="8.00"> uniformLocMap_</text>
</g>
<!-- Node7 -->
<g id="node7" class="node"><title>Node7</title>
<g id="a_node7"><a xlink:title="STL class. ">
<polygon fill="white" stroke="#bfbfbf" points="116.66,-60 116.66,-76 167.34,-76 167.34,-60 116.66,-60"/>
<text text-anchor="middle" x="142" y="-65.6" font-family="Helvetica,sans-Serif" font-size="8.00">std::string</text>
</a>
</g>
</g>
<!-- Node7&#45;&gt;Node6 -->
<g id="edge7" class="edge"><title>Node7&#45;&gt;Node6</title>
<path fill="none" stroke="#9a32cd" stroke-dasharray="5,2" d="M177.932,-71.1307C214.57,-74.4143 272.208,-79.58 311.708,-83.1201"/>
<polygon fill="#9a32cd" stroke="#9a32cd" points="178.007,-67.6234 167.734,-70.2167 177.382,-74.5955 178.007,-67.6234"/>
<text text-anchor="middle" x="197" y="-75.6" font-family="Helvetica,sans-Serif" font-size="8.00"> keys</text>
</g>
<!-- Node10 -->
<g id="node10" class="node"><title>Node10</title>
<g id="a_node10"><a xlink:href="../../d1/dad/structscg_1_1_shader_i_d.html" target="_top" xlink:title="A shader ID to identify shaders in error messages. An arbitrary name can be added to the OpnGL shader...">
<polygon fill="white" stroke="black" points="226.654,-40 226.654,-56 293.346,-56 293.346,-40 226.654,-40"/>
<text text-anchor="middle" x="260" y="-45.6" font-family="Helvetica,sans-Serif" font-size="8.00">scg::ShaderID</text>
</a>
</g>
</g>
<!-- Node7&#45;&gt;Node10 -->
<g id="edge11" class="edge"><title>Node7&#45;&gt;Node10</title>
<path fill="none" stroke="#9a32cd" stroke-dasharray="5,2" d="M176.17,-57.2628C179.47,-56.4089 182.786,-55.6334 186,-55 199.116,-52.415 213.753,-50.7729 226.458,-49.7351"/>
<polygon fill="#9a32cd" stroke="#9a32cd" points="175.125,-53.9209 166.445,-59.996 177.019,-60.6598 175.125,-53.9209"/>
<text text-anchor="middle" x="197" y="-56.6" font-family="Helvetica,sans-Serif" font-size="8.00"> name</text>
</g>
<!-- Node8 -->
<g id="node8" class="node"><title>Node8</title>
<g id="a_node8"><a xlink:title="STL class. ">
<polygon fill="white" stroke="#bfbfbf" points="-0.238281,-56 -0.238281,-80 78.2383,-80 78.2383,-56 -0.238281,-56"/>
<text text-anchor="start" x="7.76172" y="-69.6" font-family="Helvetica,sans-Serif" font-size="8.00">std::basic_string&lt;</text>
<text text-anchor="middle" x="39" y="-61.6" font-family="Helvetica,sans-Serif" font-size="8.00"> char &gt;</text>
</a>
</g>
</g>
<!-- Node8&#45;&gt;Node7 -->
<g id="edge8" class="edge"><title>Node8&#45;&gt;Node7</title>
<path fill="none" stroke="midnightblue" d="M88.5466,-68C98.3068,-68 108.164,-68 116.658,-68"/>
<polygon fill="midnightblue" stroke="midnightblue" points="88.4719,-64.5001 78.4719,-68 88.4719,-71.5001 88.4719,-64.5001"/>
</g>
<!-- Node9 -->
<g id="node9" class="node"><title>Node9</title>
<polygon fill="white" stroke="#bfbfbf" points="418.309,-35 418.309,-51 535.691,-51 535.691,-35 418.309,-35"/>
<text text-anchor="middle" x="477" y="-40.6" font-family="Helvetica,sans-Serif" font-size="8.00">std::vector&lt; scg::ShaderID &gt;</text>
</g>
<!-- Node9&#45;&gt;Node4 -->
<g id="edge9" class="edge"><title>Node9&#45;&gt;Node4</title>
<path fill="none" stroke="#9a32cd" stroke-dasharray="5,2" d="M530.255,-52.9212C551.309,-56.943 575.817,-61.6558 598,-66 603.734,-67.1228 609.801,-68.3236 615.731,-69.5041"/>
<polygon fill="#9a32cd" stroke="#9a32cd" points="530.702,-49.4433 520.223,-51.007 529.39,-56.3192 530.702,-49.4433"/>
<text text-anchor="middle" x="576" y="-67.6" font-family="Helvetica,sans-Serif" font-size="8.00"> shaderIDs_</text>
</g>
<!-- Node10&#45;&gt;Node9 -->
<g id="edge10" class="edge"><title>Node10&#45;&gt;Node9</title>
<path fill="none" stroke="#9a32cd" stroke-dasharray="5,2" d="M303.831,-47.0039C336.649,-46.2407 382.264,-45.1799 418.298,-44.3419"/>
<polygon fill="#9a32cd" stroke="#9a32cd" points="303.57,-43.509 293.654,-47.2406 303.733,-50.5071 303.57,-43.509"/>
<text text-anchor="middle" x="356" y="-48.6" font-family="Helvetica,sans-Serif" font-size="8.00"> elements</text>
</g>
<!-- Node11 -->
<g id="node11" class="node"><title>Node11</title>
<g id="a_node11"><a xlink:href="../../d4/dab/classscg_1_1_matrix_stack.html" target="_top" xlink:title="Matrix stack to store model&#45;view, projection, texture, and color matrices, used by RenderState...">
<polygon fill="white" stroke="black" points="616.66,-4 616.66,-20 691.34,-20 691.34,-4 616.66,-4"/>
<text text-anchor="middle" x="654" y="-9.6" font-family="Helvetica,sans-Serif" font-size="8.00">scg::MatrixStack</text>
</a>
</g>
</g>
<!-- Node11&#45;&gt;Node3 -->
<g id="edge12" class="edge"><title>Node11&#45;&gt;Node3</title>
<path fill="none" stroke="#9a32cd" stroke-dasharray="5,2" d="M701.321,-20.0977C722.753,-24.7409 748.229,-31.5589 770,-41 786.966,-48.3574 804.599,-60.5806 815.439,-68.7133"/>
<polygon fill="#9a32cd" stroke="#9a32cd" points="701.975,-16.6591 691.473,-18.0535 700.553,-23.513 701.975,-16.6591"/>
<text text-anchor="middle" x="740" y="-66.6" font-family="Helvetica,sans-Serif" font-size="8.00"> textureStack</text>
<text text-anchor="middle" x="740" y="-58.6" font-family="Helvetica,sans-Serif" font-size="8.00">projectionStack</text>
<text text-anchor="middle" x="740" y="-50.6" font-family="Helvetica,sans-Serif" font-size="8.00">modelViewStack</text>
<text text-anchor="middle" x="740" y="-42.6" font-family="Helvetica,sans-Serif" font-size="8.00">colorStack</text>
</g>
<!-- Node12 -->
<g id="node12" class="node"><title>Node12</title>
<polygon fill="white" stroke="#bfbfbf" points="427.65,-0 427.65,-16 526.35,-16 526.35,-0 427.65,-0"/>
<text text-anchor="middle" x="477" y="-5.6" font-family="Helvetica,sans-Serif" font-size="8.00">std::stack&lt; glm::mat4 &gt;</text>
</g>
<!-- Node12&#45;&gt;Node11 -->
<g id="edge13" class="edge"><title>Node12&#45;&gt;Node11</title>
<path fill="none" stroke="#9a32cd" stroke-dasharray="5,2" d="M536.994,-9.34843C563.302,-9.94976 593.47,-10.6393 616.446,-11.1645"/>
<polygon fill="#9a32cd" stroke="#9a32cd" points="536.825,-5.84374 526.747,-9.11422 536.665,-12.8419 536.825,-5.84374"/>
<text text-anchor="middle" x="576" y="-12.6" font-family="Helvetica,sans-Serif" font-size="8.00"> stack_</text>
</g>
<!-- Node13&#45;&gt;Node3 -->
<g id="edge14" class="edge"><title>Node13&#45;&gt;Node3</title>
<path fill="none" stroke="#9a32cd" stroke-dasharray="5,2" d="M687.173,-126.523C721.112,-114.416 773.712,-95.6526 803.471,-85.0367"/>
<polygon fill="#9a32cd" stroke="#9a32cd" points="685.95,-123.243 677.707,-129.9 688.302,-129.836 685.95,-123.243"/>
<text text-anchor="middle" x="740" y="-119.6" font-family="Helvetica,sans-Serif" font-size="8.00"> colorCore_</text>
</g>
<!-- Node13&#45;&gt;Node13 -->
<g id="edge16" class="edge"><title>Node13&#45;&gt;Node13</title>
<path fill="none" stroke="#9a32cd" stroke-dasharray="5,2" d="M639.536,-155.916C640.452,-160.529 645.274,-164 654,-164 668.32,-164 672.124,-154.652 665.411,-146.253"/>
<polygon fill="#9a32cd" stroke="#9a32cd" points="642.914,-156.843 642.589,-146.253 636.239,-154.735 642.914,-156.843"/>
<text text-anchor="middle" x="654" y="-165.6" font-family="Helvetica,sans-Serif" font-size="8.00"> colorCoreOld_</text>
</g>
</g>
</svg>
