<?xml version="1.0" encoding="UTF-8" standalone="no"?>
<!DOCTYPE svg PUBLIC "-//W3C//DTD SVG 1.1//EN"
 "http://www.w3.org/Graphics/SVG/1.1/DTD/svg11.dtd">
<!-- Generated by graphviz version 2.36.0 (20140111.2315)
 -->
<!-- Title: scg::LightPosition Pages: 1 -->
<svg width="86pt" height="134pt"
 viewBox="0.00 0.00 86.00 134.00" xmlns="http://www.w3.org/2000/svg" xmlns:xlink="http://www.w3.org/1999/xlink">
<g id="graph0" class="graph" transform="scale(1 1) rotate(0) translate(4 130)">
<title>scg::LightPosition</title>
<polygon fill="white" stroke="none" points="-4,4 -4,-130 82,-130 82,4 -4,4"/>
<!-- Node0 -->
<g id="node1" class="node"><title>Node0</title>
<g id="a_node1"><a xlink:title="A light position node to define the position of an associated light within the scene graph (leaf node...">
<polygon fill="#bfbfbf" stroke="black" points="-0.351562,-1 -0.351562,-17 78.3516,-17 78.3516,-1 -0.351562,-1"/>
<text text-anchor="middle" x="39" y="-6.6" font-family="Helvetica,sans-Serif" font-size="8.00">scg::LightPosition</text>
</a>
</g>
</g>
<!-- Node1 -->
<g id="node2" class="node"><title>Node1</title>
<g id="a_node2"><a xlink:href="../../d7/dc9/classscg_1_1_leaf.html" target="_top" xlink:title="Base class for all leaf nodes, i.e., nodes without children (composite pattern, abstract).">
<polygon fill="white" stroke="black" points="14.7676,-55 14.7676,-71 63.2324,-71 63.2324,-55 14.7676,-55"/>
<text text-anchor="middle" x="39" y="-60.6" font-family="Helvetica,sans-Serif" font-size="8.00">scg::Leaf</text>
</a>
</g>
</g>
<!-- Node1&#45;&gt;Node0 -->
<g id="edge1" class="edge"><title>Node1&#45;&gt;Node0</title>
<path fill="none" stroke="midnightblue" d="M39,-44.5708C39,-35.2222 39,-24.2089 39,-17.169"/>
<polygon fill="midnightblue" stroke="midnightblue" points="35.5001,-44.7696 39,-54.7696 42.5001,-44.7697 35.5001,-44.7696"/>
</g>
<!-- Node2 -->
<g id="node3" class="node"><title>Node2</title>
<g id="a_node3"><a xlink:href="../../d4/dc7/classscg_1_1_node.html" target="_top" xlink:title="Base class for all nodes (composite pattern, abstract).">
<polygon fill="white" stroke="black" points="12.9902,-109 12.9902,-125 65.0098,-125 65.0098,-109 12.9902,-109"/>
<text text-anchor="middle" x="39" y="-114.6" font-family="Helvetica,sans-Serif" font-size="8.00">scg::Node</text>
</a>
</g>
</g>
<!-- Node2&#45;&gt;Node1 -->
<g id="edge2" class="edge"><title>Node2&#45;&gt;Node1</title>
<path fill="none" stroke="midnightblue" d="M39,-98.5708C39,-89.2222 39,-78.2089 39,-71.169"/>
<polygon fill="midnightblue" stroke="midnightblue" points="35.5001,-98.7696 39,-108.77 42.5001,-98.7697 35.5001,-98.7696"/>
</g>
</g>
</svg>
