<?xml version="1.0" encoding="UTF-8" standalone="no"?>
<!DOCTYPE svg PUBLIC "-//W3C//DTD SVG 1.1//EN"
 "http://www.w3.org/Graphics/SVG/1.1/DTD/svg11.dtd">
<!-- Generated by graphviz version 2.36.0 (20140111.2315)
 -->
<!-- Title: scg::StereoCamera Pages: 1 -->
<svg width="94pt" height="242pt"
 viewBox="0.00 0.00 94.00 242.00" xmlns="http://www.w3.org/2000/svg" xmlns:xlink="http://www.w3.org/1999/xlink">
<g id="graph0" class="graph" transform="scale(1 1) rotate(0) translate(4 238)">
<title>scg::StereoCamera</title>
<polygon fill="white" stroke="none" points="-4,4 -4,-238 90,-238 90,4 -4,4"/>
<!-- Node0 -->
<g id="node1" class="node"><title>Node0</title>
<g id="a_node1"><a xlink:title="A perspective stereo camera (composite node).">
<polygon fill="#bfbfbf" stroke="black" points="0.541016,-1 0.541016,-17 85.459,-17 85.459,-1 0.541016,-1"/>
<text text-anchor="middle" x="43" y="-6.6" font-family="Helvetica,sans-Serif" font-size="8.00">scg::StereoCamera</text>
</a>
</g>
</g>
<!-- Node1 -->
<g id="node2" class="node"><title>Node1</title>
<g id="a_node2"><a xlink:href="../../d4/dc9/classscg_1_1_camera.html" target="_top" xlink:title="Base class for all cameras (composite node, abstract).">
<polygon fill="white" stroke="black" points="12.3262,-55 12.3262,-71 73.6738,-71 73.6738,-55 12.3262,-55"/>
<text text-anchor="middle" x="43" y="-60.6" font-family="Helvetica,sans-Serif" font-size="8.00">scg::Camera</text>
</a>
</g>
</g>
<!-- Node1&#45;&gt;Node0 -->
<g id="edge1" class="edge"><title>Node1&#45;&gt;Node0</title>
<path fill="none" stroke="midnightblue" d="M43,-44.5708C43,-35.2222 43,-24.2089 43,-17.169"/>
<polygon fill="midnightblue" stroke="midnightblue" points="39.5001,-44.7696 43,-54.7696 46.5001,-44.7697 39.5001,-44.7696"/>
</g>
<!-- Node2 -->
<g id="node3" class="node"><title>Node2</title>
<g id="a_node3"><a xlink:href="../../d0/d99/classscg_1_1_transformation.html" target="_top" xlink:title="A transformation node to be used to appy a transformation to the sub&#45;tree (composite node).">
<polygon fill="white" stroke="black" points="-0.199219,-109 -0.199219,-125 86.1992,-125 86.1992,-109 -0.199219,-109"/>
<text text-anchor="middle" x="43" y="-114.6" font-family="Helvetica,sans-Serif" font-size="8.00">scg::Transformation</text>
</a>
</g>
</g>
<!-- Node2&#45;&gt;Node1 -->
<g id="edge2" class="edge"><title>Node2&#45;&gt;Node1</title>
<path fill="none" stroke="midnightblue" d="M43,-98.5708C43,-89.2222 43,-78.2089 43,-71.169"/>
<polygon fill="midnightblue" stroke="midnightblue" points="39.5001,-98.7696 43,-108.77 46.5001,-98.7697 39.5001,-98.7696"/>
</g>
<!-- Node3 -->
<g id="node4" class="node"><title>Node3</title>
<g id="a_node4"><a xlink:href="../../da/d38/classscg_1_1_composite.html" target="_top" xlink:title="Base class for all composite nodes, i.e., nodes with children (composite pattern, abstract).">
<polygon fill="white" stroke="black" points="7.43359,-163 7.43359,-179 78.5664,-179 78.5664,-163 7.43359,-163"/>
<text text-anchor="middle" x="43" y="-168.6" font-family="Helvetica,sans-Serif" font-size="8.00">scg::Composite</text>
</a>
</g>
</g>
<!-- Node3&#45;&gt;Node2 -->
<g id="edge3" class="edge"><title>Node3&#45;&gt;Node2</title>
<path fill="none" stroke="midnightblue" d="M43,-152.571C43,-143.222 43,-132.209 43,-125.169"/>
<polygon fill="midnightblue" stroke="midnightblue" points="39.5001,-152.77 43,-162.77 46.5001,-152.77 39.5001,-152.77"/>
</g>
<!-- Node4 -->
<g id="node5" class="node"><title>Node4</title>
<g id="a_node5"><a xlink:href="../../d4/dc7/classscg_1_1_node.html" target="_top" xlink:title="Base class for all nodes (composite pattern, abstract).">
<polygon fill="white" stroke="black" points="16.9902,-217 16.9902,-233 69.0098,-233 69.0098,-217 16.9902,-217"/>
<text text-anchor="middle" x="43" y="-222.6" font-family="Helvetica,sans-Serif" font-size="8.00">scg::Node</text>
</a>
</g>
</g>
<!-- Node4&#45;&gt;Node3 -->
<g id="edge4" class="edge"><title>Node4&#45;&gt;Node3</title>
<path fill="none" stroke="midnightblue" d="M43,-206.571C43,-197.222 43,-186.209 43,-179.169"/>
<polygon fill="midnightblue" stroke="midnightblue" points="39.5001,-206.77 43,-216.77 46.5001,-206.77 39.5001,-206.77"/>
</g>
</g>
</svg>
