<?xml version="1.0" encoding="UTF-8" standalone="no"?>
<!DOCTYPE svg PUBLIC "-//W3C//DTD SVG 1.1//EN"
 "http://www.w3.org/Graphics/SVG/1.1/DTD/svg11.dtd">
<!-- Generated by graphviz version 2.36.0 (20140111.2315)
 -->
<!-- Title: scg::GeometryCoreFactory::Face Pages: 1 -->
<svg width="120pt" height="174pt"
 viewBox="0.00 0.00 120.00 174.00" xmlns="http://www.w3.org/2000/svg" xmlns:xlink="http://www.w3.org/1999/xlink">
<g id="graph0" class="graph" transform="scale(1 1) rotate(0) translate(4 170)">
<title>scg::GeometryCoreFactory::Face</title>
<polygon fill="white" stroke="none" points="-4,4 -4,-170 116,-170 116,4 -4,4"/>
<!-- Node1 -->
<g id="node1" class="node"><title>Node1</title>
<g id="a_node1"><a xlink:title=" ">
<polygon fill="#bfbfbf" stroke="black" points="-0.0136719,-1 -0.0136719,-25 112.014,-25 112.014,-1 -0.0136719,-1"/>
<text text-anchor="start" x="7.98633" y="-14.6" font-family="Helvetica,sans-Serif" font-size="8.00">scg::GeometryCoreFactory</text>
<text text-anchor="middle" x="56" y="-6.6" font-family="Helvetica,sans-Serif" font-size="8.00">::Face</text>
</a>
</g>
</g>
<!-- Node2 -->
<g id="node2" class="node"><title>Node2</title>
<g id="a_node2"><a xlink:title=" ">
<polygon fill="white" stroke="#bfbfbf" points="0.09375,-71 0.09375,-95 111.906,-95 111.906,-71 0.09375,-71"/>
<text text-anchor="start" x="8.09375" y="-84.6" font-family="Helvetica,sans-Serif" font-size="8.00">std::vector&lt; scg::Geometry</text>
<text text-anchor="middle" x="56" y="-76.6" font-family="Helvetica,sans-Serif" font-size="8.00">CoreFactory::FaceEntry &gt;</text>
</a>
</g>
</g>
<!-- Node2&#45;&gt;Node1 -->
<g id="edge1" class="edge"><title>Node2&#45;&gt;Node1</title>
<path fill="none" stroke="#9a32cd" stroke-dasharray="5,2" d="M56,-60.4105C56,-48.6357 56,-34.5593 56,-25.0199"/>
<polygon fill="#9a32cd" stroke="#9a32cd" points="52.5001,-60.7711 56,-70.7712 59.5001,-60.7712 52.5001,-60.7711"/>
<text text-anchor="middle" x="69.1172" y="-45.6" font-family="Helvetica,sans-Serif" font-size="8.00"> entries</text>
</g>
<!-- Node3 -->
<g id="node3" class="node"><title>Node3</title>
<g id="a_node3"><a xlink:href="../../d4/dee/structscg_1_1_geometry_core_factory_1_1_face_entry.html" target="_top" xlink:title=" ">
<polygon fill="white" stroke="black" points="-0.0136719,-141 -0.0136719,-165 112.014,-165 112.014,-141 -0.0136719,-141"/>
<text text-anchor="start" x="7.98633" y="-154.6" font-family="Helvetica,sans-Serif" font-size="8.00">scg::GeometryCoreFactory</text>
<text text-anchor="middle" x="56" y="-146.6" font-family="Helvetica,sans-Serif" font-size="8.00">::FaceEntry</text>
</a>
</g>
</g>
<!-- Node3&#45;&gt;Node2 -->
<g id="edge2" class="edge"><title>Node3&#45;&gt;Node2</title>
<path fill="none" stroke="#9a32cd" stroke-dasharray="5,2" d="M56,-130.41C56,-118.636 56,-104.559 56,-95.0199"/>
<polygon fill="#9a32cd" stroke="#9a32cd" points="52.5001,-130.771 56,-140.771 59.5001,-130.771 52.5001,-130.771"/>
<text text-anchor="middle" x="73.3418" y="-115.6" font-family="Helvetica,sans-Serif" font-size="8.00"> elements</text>
</g>
</g>
</svg>
