<?xml version="1.0" encoding="UTF-8" standalone="no"?>
<!DOCTYPE svg PUBLIC "-//W3C//DTD SVG 1.1//EN"
 "http://www.w3.org/Graphics/SVG/1.1/DTD/svg11.dtd">
<!-- Generated by graphviz version 2.36.0 (20140111.2315)
 -->
<!-- Title: src/Leaf.h Pages: 1 -->
<svg width="203pt" height="134pt"
 viewBox="0.00 0.00 203.00 134.00" xmlns="http://www.w3.org/2000/svg" xmlns:xlink="http://www.w3.org/1999/xlink">
<g id="graph0" class="graph" transform="scale(1 1) rotate(0) translate(4 130)">
<title>src/Leaf.h</title>
<polygon fill="white" stroke="none" points="-4,4 -4,-130 199,-130 199,4 -4,4"/>
<!-- Node0 -->
<g id="node1" class="node"><title>Node0</title>
<g id="a_node1"><a xlink:title="Base class for all leaf nodes, i.e., nodes without children (composite pattern, abstract).">
<polygon fill="#bfbfbf" stroke="black" points="83.4355,-109 83.4355,-125 134.564,-125 134.564,-109 83.4355,-109"/>
<text text-anchor="middle" x="109" y="-114.6" font-family="Helvetica,sans-Serif" font-size="8.00">src/Leaf.h</text>
</a>
</g>
</g>
<!-- Node1 -->
<g id="node2" class="node"><title>Node1</title>
<g id="a_node2"><a xlink:href="../../d2/db4/_light_position_8h.html" target="_top" xlink:title="A light position node to define the position of an associated light within the scene graph (leaf node...">
<polygon fill="white" stroke="black" points="-0.683594,-55 -0.683594,-71 80.6836,-71 80.6836,-55 -0.683594,-55"/>
<text text-anchor="middle" x="40" y="-60.6" font-family="Helvetica,sans-Serif" font-size="8.00">src/LightPosition.h</text>
</a>
</g>
</g>
<!-- Node0&#45;&gt;Node1 -->
<g id="edge1" class="edge"><title>Node0&#45;&gt;Node1</title>
<path fill="none" stroke="midnightblue" d="M91.3443,-102.694C78.0635,-92.6855 60.3694,-79.3509 49.601,-71.2355"/>
<polygon fill="midnightblue" stroke="midnightblue" points="89.6018,-105.764 99.6944,-108.987 93.8147,-100.173 89.6018,-105.764"/>
</g>
<!-- Node2 -->
<g id="node3" class="node"><title>Node2</title>
<g id="a_node3"><a xlink:href="../../d4/d61/scg3_8h.html" target="_top" xlink:title="Main header file for scg3 scene graph library, including all class headers.">
<polygon fill="white" stroke="black" points="89.2148,-1 89.2148,-17 128.785,-17 128.785,-1 89.2148,-1"/>
<text text-anchor="middle" x="109" y="-6.6" font-family="Helvetica,sans-Serif" font-size="8.00">scg3.h</text>
</a>
</g>
</g>
<!-- Node0&#45;&gt;Node2 -->
<g id="edge5" class="edge"><title>Node0&#45;&gt;Node2</title>
<path fill="none" stroke="midnightblue" d="M109,-98.7024C109,-75.017 109,-33.5516 109,-17.0576"/>
<polygon fill="midnightblue" stroke="midnightblue" points="105.5,-98.7142 109,-108.714 112.5,-98.7142 105.5,-98.7142"/>
</g>
<!-- Node3 -->
<g id="node4" class="node"><title>Node3</title>
<g id="a_node4"><a xlink:href="../../da/d05/_shape_8h.html" target="_top" xlink:title="A shape node that contains geometry to be rendered (leaf node).">
<polygon fill="white" stroke="black" points="136.654,-55 136.654,-71 195.346,-71 195.346,-55 136.654,-55"/>
<text text-anchor="middle" x="166" y="-60.6" font-family="Helvetica,sans-Serif" font-size="8.00">src/Shape.h</text>
</a>
</g>
</g>
<!-- Node0&#45;&gt;Node3 -->
<g id="edge3" class="edge"><title>Node0&#45;&gt;Node3</title>
<path fill="none" stroke="midnightblue" d="M124.48,-101.878C135.37,-91.9428 149.492,-79.0599 158.142,-71.169"/>
<polygon fill="midnightblue" stroke="midnightblue" points="121.954,-99.4443 116.926,-108.77 126.672,-104.616 121.954,-99.4443"/>
</g>
<!-- Node1&#45;&gt;Node2 -->
<g id="edge2" class="edge"><title>Node1&#45;&gt;Node2</title>
<path fill="none" stroke="midnightblue" d="M57.6557,-48.6943C70.9365,-38.6855 88.6306,-25.3509 99.399,-17.2355"/>
<polygon fill="midnightblue" stroke="midnightblue" points="55.1853,-46.1734 49.3056,-54.987 59.3982,-51.7636 55.1853,-46.1734"/>
</g>
<!-- Node3&#45;&gt;Node2 -->
<g id="edge4" class="edge"><title>Node3&#45;&gt;Node2</title>
<path fill="none" stroke="midnightblue" d="M150.52,-47.8781C139.63,-37.9428 125.508,-25.0599 116.858,-17.169"/>
<polygon fill="midnightblue" stroke="midnightblue" points="148.328,-50.6157 158.074,-54.7696 153.046,-45.4443 148.328,-50.6157"/>
</g>
</g>
</svg>
