<?xml version="1.0" encoding="UTF-8" standalone="no"?>
<!DOCTYPE svg PUBLIC "-//W3C//DTD SVG 1.1//EN"
 "http://www.w3.org/Graphics/SVG/1.1/DTD/svg11.dtd">
<!-- Generated by graphviz version 2.36.0 (20140111.2315)
 -->
<!-- Title: scg::KeyboardController Pages: 1 -->
<svg width="108pt" height="134pt"
 viewBox="0.00 0.00 108.00 134.00" xmlns="http://www.w3.org/2000/svg" xmlns:xlink="http://www.w3.org/1999/xlink">
<g id="graph0" class="graph" transform="scale(1 1) rotate(0) translate(4 130)">
<title>scg::KeyboardController</title>
<polygon fill="white" stroke="none" points="-4,4 -4,-130 104,-130 104,4 -4,4"/>
<!-- Node0 -->
<g id="node1" class="node"><title>Node0</title>
<g id="a_node1"><a xlink:title="A camera controller using keyboard input.">
<polygon fill="#bfbfbf" stroke="black" points="-0.910156,-1 -0.910156,-17 100.91,-17 100.91,-1 -0.910156,-1"/>
<text text-anchor="middle" x="50" y="-6.6" font-family="Helvetica,sans-Serif" font-size="8.00">scg::KeyboardController</text>
</a>
</g>
</g>
<!-- Node1 -->
<g id="node2" class="node"><title>Node1</title>
<g id="a_node2"><a xlink:href="../../de/d6a/classscg_1_1_camera_controller.html" target="_top" xlink:title="Base class for all camera controllers, acting on a Camera node (abstract).">
<polygon fill="white" stroke="black" points="1.98633,-55 1.98633,-71 98.0137,-71 98.0137,-55 1.98633,-55"/>
<text text-anchor="middle" x="50" y="-60.6" font-family="Helvetica,sans-Serif" font-size="8.00">scg::CameraController</text>
</a>
</g>
</g>
<!-- Node1&#45;&gt;Node0 -->
<g id="edge1" class="edge"><title>Node1&#45;&gt;Node0</title>
<path fill="none" stroke="midnightblue" d="M50,-44.5708C50,-35.2222 50,-24.2089 50,-17.169"/>
<polygon fill="midnightblue" stroke="midnightblue" points="46.5001,-44.7696 50,-54.7696 53.5001,-44.7697 46.5001,-44.7696"/>
</g>
<!-- Node2 -->
<g id="node3" class="node"><title>Node2</title>
<g id="a_node3"><a xlink:href="../../de/de4/classscg_1_1_controller.html" target="_top" xlink:title="Base class for all controllers (abstract).">
<polygon fill="white" stroke="black" points="16.2129,-109 16.2129,-125 83.7871,-125 83.7871,-109 16.2129,-109"/>
<text text-anchor="middle" x="50" y="-114.6" font-family="Helvetica,sans-Serif" font-size="8.00">scg::Controller</text>
</a>
</g>
</g>
<!-- Node2&#45;&gt;Node1 -->
<g id="edge2" class="edge"><title>Node2&#45;&gt;Node1</title>
<path fill="none" stroke="midnightblue" d="M50,-98.5708C50,-89.2222 50,-78.2089 50,-71.169"/>
<polygon fill="midnightblue" stroke="midnightblue" points="46.5001,-98.7696 50,-108.77 53.5001,-98.7697 46.5001,-98.7696"/>
</g>
</g>
</svg>
