<?xml version="1.0" encoding="UTF-8" standalone="no"?>
<!DOCTYPE svg PUBLIC "-//W3C//DTD SVG 1.1//EN"
 "http://www.w3.org/Graphics/SVG/1.1/DTD/svg11.dtd">
<!-- Generated by graphviz version 2.36.0 (20140111.2315)
 -->
<!-- Title: scg::Composite Pages: 1 -->
<svg width="338pt" height="242pt"
 viewBox="0.00 0.00 338.00 242.00" xmlns="http://www.w3.org/2000/svg" xmlns:xlink="http://www.w3.org/1999/xlink">
<g id="graph0" class="graph" transform="scale(1 1) rotate(0) translate(4 238)">
<title>scg::Composite</title>
<polygon fill="white" stroke="none" points="-4,4 -4,-238 334,-238 334,4 -4,4"/>
<!-- Node0 -->
<g id="node1" class="node"><title>Node0</title>
<g id="a_node1"><a xlink:title="Base class for all composite nodes, i.e., nodes with children (composite pattern, abstract).">
<polygon fill="#bfbfbf" stroke="black" points="104.434,-163 104.434,-179 175.566,-179 175.566,-163 104.434,-163"/>
<text text-anchor="middle" x="140" y="-168.6" font-family="Helvetica,sans-Serif" font-size="8.00">scg::Composite</text>
</a>
</g>
</g>
<!-- Node2 -->
<g id="node3" class="node"><title>Node2</title>
<g id="a_node3"><a xlink:href="../../dd/d6a/classscg_1_1_group.html" target="_top" xlink:title="A group node to be used as root of a sub&#45;tree of nodes (composite node).">
<polygon fill="white" stroke="black" points="41.4355,-109 41.4355,-125 96.5645,-125 96.5645,-109 41.4355,-109"/>
<text text-anchor="middle" x="69" y="-114.6" font-family="Helvetica,sans-Serif" font-size="8.00">scg::Group</text>
</a>
</g>
</g>
<!-- Node0&#45;&gt;Node2 -->
<g id="edge2" class="edge"><title>Node0&#45;&gt;Node2</title>
<path fill="none" stroke="midnightblue" d="M122.226,-156.982C108.518,-146.942 90.0664,-133.429 78.8792,-125.236"/>
<polygon fill="midnightblue" stroke="midnightblue" points="120.289,-159.902 130.425,-162.987 124.425,-154.255 120.289,-159.902"/>
</g>
<!-- Node3 -->
<g id="node4" class="node"><title>Node3</title>
<g id="a_node4"><a xlink:href="../../da/d81/classscg_1_1_light.html" target="_top" xlink:title="A light to be applied to all nodes of its sub&#45;tree (composite node).">
<polygon fill="white" stroke="black" points="114.879,-109 114.879,-125 165.121,-125 165.121,-109 114.879,-109"/>
<text text-anchor="middle" x="140" y="-114.6" font-family="Helvetica,sans-Serif" font-size="8.00">scg::Light</text>
</a>
</g>
</g>
<!-- Node0&#45;&gt;Node3 -->
<g id="edge3" class="edge"><title>Node0&#45;&gt;Node3</title>
<path fill="none" stroke="midnightblue" d="M140,-152.571C140,-143.222 140,-132.209 140,-125.169"/>
<polygon fill="midnightblue" stroke="midnightblue" points="136.5,-152.77 140,-162.77 143.5,-152.77 136.5,-152.77"/>
</g>
<!-- Node4 -->
<g id="node5" class="node"><title>Node4</title>
<g id="a_node5"><a xlink:href="../../d0/d99/classscg_1_1_transformation.html" target="_top" xlink:title="A transformation node to be used to appy a transformation to the sub&#45;tree (composite node).">
<polygon fill="white" stroke="black" points="182.801,-109 182.801,-125 269.199,-125 269.199,-109 182.801,-109"/>
<text text-anchor="middle" x="226" y="-114.6" font-family="Helvetica,sans-Serif" font-size="8.00">scg::Transformation</text>
</a>
</g>
</g>
<!-- Node0&#45;&gt;Node4 -->
<g id="edge4" class="edge"><title>Node0&#45;&gt;Node4</title>
<path fill="none" stroke="midnightblue" d="M160.173,-157.802C177.009,-147.622 200.42,-133.467 214.311,-125.068"/>
<polygon fill="midnightblue" stroke="midnightblue" points="158.345,-154.818 151.598,-162.987 161.967,-160.808 158.345,-154.818"/>
</g>
<!-- Node1 -->
<g id="node2" class="node"><title>Node1</title>
<g id="a_node2"><a xlink:href="../../d4/dc7/classscg_1_1_node.html" target="_top" xlink:title="Base class for all nodes (composite pattern, abstract).">
<polygon fill="white" stroke="black" points="113.99,-217 113.99,-233 166.01,-233 166.01,-217 113.99,-217"/>
<text text-anchor="middle" x="140" y="-222.6" font-family="Helvetica,sans-Serif" font-size="8.00">scg::Node</text>
</a>
</g>
</g>
<!-- Node1&#45;&gt;Node0 -->
<g id="edge1" class="edge"><title>Node1&#45;&gt;Node0</title>
<path fill="none" stroke="midnightblue" d="M140,-206.571C140,-197.222 140,-186.209 140,-179.169"/>
<polygon fill="midnightblue" stroke="midnightblue" points="136.5,-206.77 140,-216.77 143.5,-206.77 136.5,-206.77"/>
</g>
<!-- Node5 -->
<g id="node6" class="node"><title>Node5</title>
<g id="a_node6"><a xlink:href="../../d4/dc9/classscg_1_1_camera.html" target="_top" xlink:title="Base class for all cameras (composite node, abstract).">
<polygon fill="white" stroke="black" points="145.326,-55 145.326,-71 206.674,-71 206.674,-55 145.326,-55"/>
<text text-anchor="middle" x="176" y="-60.6" font-family="Helvetica,sans-Serif" font-size="8.00">scg::Camera</text>
</a>
</g>
</g>
<!-- Node4&#45;&gt;Node5 -->
<g id="edge5" class="edge"><title>Node4&#45;&gt;Node5</title>
<path fill="none" stroke="midnightblue" d="M211.856,-101.29C202.384,-91.4395 190.332,-78.9052 182.893,-71.169"/>
<polygon fill="midnightblue" stroke="midnightblue" points="209.594,-103.987 219.048,-108.77 214.64,-99.1354 209.594,-103.987"/>
</g>
<!-- Node9 -->
<g id="node10" class="node"><title>Node9</title>
<g id="a_node10"><a xlink:href="../../dd/d67/classscg_1_1_transform_animation.html" target="_top" xlink:title="An animation that creates a transformation to be applied to its sub&#45;tree (composite node).">
<polygon fill="white" stroke="black" points="224.688,-55 224.688,-71 329.312,-71 329.312,-55 224.688,-55"/>
<text text-anchor="middle" x="277" y="-60.6" font-family="Helvetica,sans-Serif" font-size="8.00">scg::TransformAnimation</text>
</a>
</g>
</g>
<!-- Node4&#45;&gt;Node9 -->
<g id="edge9" class="edge"><title>Node4&#45;&gt;Node9</title>
<path fill="none" stroke="midnightblue" d="M240.138,-101.585C249.842,-91.6907 262.306,-78.9826 269.969,-71.169"/>
<polygon fill="midnightblue" stroke="midnightblue" points="237.595,-99.1795 233.091,-108.77 242.592,-104.081 237.595,-99.1795"/>
</g>
<!-- Node6 -->
<g id="node7" class="node"><title>Node6</title>
<g id="a_node7"><a xlink:href="../../d0/d02/classscg_1_1_orthographic_camera.html" target="_top" xlink:title="A camera with orthographic projection(composite node).">
<polygon fill="white" stroke="black" points="-0.796875,-1 -0.796875,-17 106.797,-17 106.797,-1 -0.796875,-1"/>
<text text-anchor="middle" x="53" y="-6.6" font-family="Helvetica,sans-Serif" font-size="8.00">scg::OrthographicCamera</text>
</a>
</g>
</g>
<!-- Node5&#45;&gt;Node6 -->
<g id="edge6" class="edge"><title>Node5&#45;&gt;Node6</title>
<path fill="none" stroke="midnightblue" d="M150.107,-51.0534C125.882,-40.812 90.4131,-25.8169 69.7183,-17.0679"/>
<polygon fill="midnightblue" stroke="midnightblue" points="148.838,-54.3168 159.412,-54.987 151.564,-47.8693 148.838,-54.3168"/>
</g>
<!-- Node7 -->
<g id="node8" class="node"><title>Node7</title>
<g id="a_node8"><a xlink:href="../../d2/d30/classscg_1_1_perspective_camera.html" target="_top" xlink:title="A camera with perspective projection (composite node).">
<polygon fill="white" stroke="black" points="124.428,-1 124.428,-17 227.572,-17 227.572,-1 124.428,-1"/>
<text text-anchor="middle" x="176" y="-6.6" font-family="Helvetica,sans-Serif" font-size="8.00">scg::PerspectiveCamera</text>
</a>
</g>
</g>
<!-- Node5&#45;&gt;Node7 -->
<g id="edge7" class="edge"><title>Node5&#45;&gt;Node7</title>
<path fill="none" stroke="midnightblue" d="M176,-44.5708C176,-35.2222 176,-24.2089 176,-17.169"/>
<polygon fill="midnightblue" stroke="midnightblue" points="172.5,-44.7696 176,-54.7696 179.5,-44.7697 172.5,-44.7696"/>
</g>
<!-- Node8 -->
<g id="node9" class="node"><title>Node8</title>
<g id="a_node9"><a xlink:href="../../df/d9b/classscg_1_1_stereo_camera.html" target="_top" xlink:title="A perspective stereo camera (composite node).">
<polygon fill="white" stroke="black" points="245.541,-1 245.541,-17 330.459,-17 330.459,-1 245.541,-1"/>
<text text-anchor="middle" x="288" y="-6.6" font-family="Helvetica,sans-Serif" font-size="8.00">scg::StereoCamera</text>
</a>
</g>
</g>
<!-- Node5&#45;&gt;Node8 -->
<g id="edge8" class="edge"><title>Node5&#45;&gt;Node8</title>
<path fill="none" stroke="midnightblue" d="M200.465,-50.6412C222.495,-40.4132 254.184,-25.7003 272.777,-17.0679"/>
<polygon fill="midnightblue" stroke="midnightblue" points="198.701,-47.6013 191.105,-54.987 201.649,-53.9504 198.701,-47.6013"/>
</g>
</g>
</svg>
