<?xml version="1.0" encoding="UTF-8" standalone="no"?>
<!DOCTYPE svg PUBLIC "-//W3C//DTD SVG 1.1//EN"
 "http://www.w3.org/Graphics/SVG/1.1/DTD/svg11.dtd">
<!-- Generated by graphviz version 2.36.0 (20140111.2315)
 -->
<!-- Title: src/scg_glm.h Pages: 1 -->
<svg width="1710pt" height="242pt"
 viewBox="0.00 0.00 1710.00 242.00" xmlns="http://www.w3.org/2000/svg" xmlns:xlink="http://www.w3.org/1999/xlink">
<g id="graph0" class="graph" transform="scale(1 1) rotate(0) translate(4 238)">
<title>src/scg_glm.h</title>
<polygon fill="white" stroke="none" points="-4,4 -4,-238 1706,-238 1706,4 -4,4"/>
<!-- Node1 -->
<g id="node1" class="node"><title>Node1</title>
<polygon fill="#bfbfbf" stroke="black" points="1122.33,-217 1122.33,-233 1187.67,-233 1187.67,-217 1122.33,-217"/>
<text text-anchor="middle" x="1155" y="-222.6" font-family="Helvetica,sans-Serif" font-size="8.00">src/scg_glm.h</text>
</g>
<!-- Node2 -->
<g id="node2" class="node"><title>Node2</title>
<g id="a_node2"><a xlink:href="../../d5/d91/_camera_8h.html" target="_top" xlink:title="Base class for all cameras (leaf node, abstract). ">
<polygon fill="white" stroke="black" points="698.994,-109 698.994,-125 763.006,-125 763.006,-109 698.994,-109"/>
<text text-anchor="middle" x="731" y="-114.6" font-family="Helvetica,sans-Serif" font-size="8.00">src/Camera.h</text>
</a>
</g>
</g>
<!-- Node1&#45;&gt;Node2 -->
<g id="edge1" class="edge"><title>Node1&#45;&gt;Node2</title>
<path fill="none" stroke="midnightblue" d="M1112.11,-221.095C1033.36,-215.325 868.952,-201.127 816,-180 783.427,-167.004 751.901,-138.627 738.174,-125.251"/>
<polygon fill="midnightblue" stroke="midnightblue" points="1111.95,-224.593 1122.18,-221.821 1112.45,-217.611 1111.95,-224.593"/>
</g>
<!-- Node3 -->
<g id="node3" class="node"><title>Node3</title>
<g id="a_node3"><a xlink:href="../../d7/d68/_stereo_camera_8h.html" target="_top" xlink:title="A perspective stereo camera (leaf node). ">
<polygon fill="white" stroke="black" points="-0.351562,-55 -0.351562,-71 102.352,-71 102.352,-55 -0.351562,-55"/>
<text text-anchor="middle" x="51" y="-60.6" font-family="Helvetica,sans-Serif" font-size="8.00">src_ext/StereoCamera.h</text>
</a>
</g>
</g>
<!-- Node1&#45;&gt;Node3 -->
<g id="edge14" class="edge"><title>Node1&#45;&gt;Node3</title>
<path fill="none" stroke="midnightblue" d="M1112.06,-220.781C987.704,-211.078 616.857,-179.448 313,-126 225.302,-110.574 123.042,-83.7741 76.4548,-71.0698"/>
<polygon fill="midnightblue" stroke="midnightblue" points="1112.05,-224.291 1122.29,-221.573 1112.59,-217.312 1112.05,-224.291"/>
</g>
<!-- Node6 -->
<g id="node6" class="node"><title>Node6</title>
<g id="a_node6"><a xlink:href="../../d4/d61/scg3_8h.html" target="_top" xlink:title="Main header file for scg3 scene graph library, including all class headers. ">
<polygon fill="white" stroke="black" points="1130.21,-1 1130.21,-17 1169.79,-17 1169.79,-1 1130.21,-1"/>
<text text-anchor="middle" x="1150" y="-6.6" font-family="Helvetica,sans-Serif" font-size="8.00">scg3.h</text>
</a>
</g>
</g>
<!-- Node1&#45;&gt;Node6 -->
<g id="edge47" class="edge"><title>Node1&#45;&gt;Node6</title>
<path fill="none" stroke="midnightblue" d="M1111.86,-223.817C1040.62,-222.498 903.229,-215.311 873,-180 832.283,-132.438 880.611,-83.1893 936,-54 1001.27,-19.6061 1090.89,-12.0761 1130.18,-10.4431"/>
<polygon fill="midnightblue" stroke="midnightblue" points="1112.23,-227.323 1122.28,-223.977 1112.34,-220.324 1112.23,-227.323"/>
</g>
<!-- Node8 -->
<g id="node8" class="node"><title>Node8</title>
<g id="a_node8"><a xlink:href="../../d3/d21/_transformation_8h.html" target="_top" xlink:title="A transformation node to be used to appy a transformation to the sub&#45;tree (composite node)...">
<polygon fill="white" stroke="black" points="882.469,-163 882.469,-179 971.531,-179 971.531,-163 882.469,-163"/>
<text text-anchor="middle" x="927" y="-168.6" font-family="Helvetica,sans-Serif" font-size="8.00">src/Transformation.h</text>
</a>
</g>
</g>
<!-- Node1&#45;&gt;Node8 -->
<g id="edge9" class="edge"><title>Node1&#45;&gt;Node8</title>
<path fill="none" stroke="midnightblue" d="M1114.29,-214.714C1069.49,-204.497 998.482,-188.303 957.99,-179.068"/>
<polygon fill="midnightblue" stroke="midnightblue" points="1113.72,-218.176 1124.25,-216.987 1115.28,-211.351 1113.72,-218.176"/>
</g>
<!-- Node9 -->
<g id="node9" class="node"><title>Node9</title>
<g id="a_node9"><a xlink:href="../../db/d28/_transform_animation_8h.html" target="_top" xlink:title="An animation that creates a transformation to be applied to ist sub&#45;tree (composite node)...">
<polygon fill="white" stroke="black" points="896.355,-109 896.355,-125 1003.64,-125 1003.64,-109 896.355,-109"/>
<text text-anchor="middle" x="950" y="-114.6" font-family="Helvetica,sans-Serif" font-size="8.00">src/TransformAnimation.h</text>
</a>
</g>
</g>
<!-- Node1&#45;&gt;Node9 -->
<g id="edge46" class="edge"><title>Node1&#45;&gt;Node9</title>
<path fill="none" stroke="midnightblue" d="M1125.42,-213.425C1103.58,-205.24 1073.38,-193.118 1048,-180 1014.38,-162.619 977.286,-137.329 959.953,-125.121"/>
<polygon fill="midnightblue" stroke="midnightblue" points="1124.22,-216.714 1134.81,-216.897 1126.65,-210.148 1124.22,-216.714"/>
</g>
<!-- Node10 -->
<g id="node10" class="node"><title>Node10</title>
<g id="a_node10"><a xlink:href="../../d3/da0/_renderer_8h.html" target="_top" xlink:title="Base class for all renderers (abstract). ">
<polygon fill="white" stroke="black" points="1056.76,-163 1056.76,-179 1125.24,-179 1125.24,-163 1056.76,-163"/>
<text text-anchor="middle" x="1091" y="-168.6" font-family="Helvetica,sans-Serif" font-size="8.00">src/Renderer.h</text>
</a>
</g>
</g>
<!-- Node1&#45;&gt;Node10 -->
<g id="edge15" class="edge"><title>Node1&#45;&gt;Node10</title>
<path fill="none" stroke="midnightblue" d="M1138.27,-210.405C1125.99,-200.43 1109.8,-187.273 1099.91,-179.236"/>
<polygon fill="midnightblue" stroke="midnightblue" points="1136.4,-213.397 1146.37,-216.987 1140.81,-207.965 1136.4,-213.397"/>
</g>
<!-- Node16 -->
<g id="node16" class="node"><title>Node16</title>
<g id="a_node16"><a xlink:href="../../d3/dd2/_texture2_d_core_8h.html" target="_top" xlink:title="2D texture core. ">
<polygon fill="white" stroke="black" points="1178.32,-109 1178.32,-125 1267.68,-125 1267.68,-109 1178.32,-109"/>
<text text-anchor="middle" x="1223" y="-114.6" font-family="Helvetica,sans-Serif" font-size="8.00">src/Texture2DCore.h</text>
</a>
</g>
</g>
<!-- Node1&#45;&gt;Node16 -->
<g id="edge27" class="edge"><title>Node1&#45;&gt;Node16</title>
<path fill="none" stroke="midnightblue" d="M1157.64,-207.009C1160.26,-193.923 1165.19,-175.797 1174,-162 1183.97,-146.389 1200.94,-132.916 1212.06,-125.126"/>
<polygon fill="midnightblue" stroke="midnightblue" points="1154.17,-206.523 1155.9,-216.976 1161.07,-207.729 1154.17,-206.523"/>
</g>
<!-- Node18 -->
<g id="node18" class="node"><title>Node18</title>
<g id="a_node18"><a xlink:href="../../df/d62/_texture_core_8h.html" target="_top" xlink:title="Base class for all texture cores (abstract). ">
<polygon fill="white" stroke="black" points="1183.43,-163 1183.43,-179 1262.57,-179 1262.57,-163 1183.43,-163"/>
<text text-anchor="middle" x="1223" y="-168.6" font-family="Helvetica,sans-Serif" font-size="8.00">src/TextureCore.h</text>
</a>
</g>
</g>
<!-- Node1&#45;&gt;Node18 -->
<g id="edge31" class="edge"><title>Node1&#45;&gt;Node18</title>
<path fill="none" stroke="midnightblue" d="M1172.4,-210.694C1185.49,-200.686 1202.93,-187.351 1213.54,-179.236"/>
<polygon fill="midnightblue" stroke="midnightblue" points="1169.99,-208.132 1164.17,-216.987 1174.24,-213.693 1169.99,-208.132"/>
</g>
<!-- Node20 -->
<g id="node20" class="node"><title>Node20</title>
<g id="a_node20"><a xlink:href="../../de/df9/_color_core_8h.html" target="_top" xlink:title="A core to set a vertex color or a color transformation to be applied to subsequent geometry...">
<polygon fill="white" stroke="black" points="1429.99,-109 1429.99,-125 1502.01,-125 1502.01,-109 1429.99,-109"/>
<text text-anchor="middle" x="1466" y="-114.6" font-family="Helvetica,sans-Serif" font-size="8.00">src/ColorCore.h</text>
</a>
</g>
</g>
<!-- Node1&#45;&gt;Node20 -->
<g id="edge36" class="edge"><title>Node1&#45;&gt;Node20</title>
<path fill="none" stroke="midnightblue" d="M1184.3,-213.528C1207.89,-204.945 1241.81,-192.256 1271,-180 1288.6,-172.61 1292.09,-168.612 1310,-162 1352.77,-146.212 1403.88,-132.786 1435.64,-125.055"/>
<polygon fill="midnightblue" stroke="midnightblue" points="1183.08,-210.248 1174.87,-216.942 1185.46,-216.83 1183.08,-210.248"/>
</g>
<!-- Node21 -->
<g id="node21" class="node"><title>Node21</title>
<g id="a_node21"><a xlink:href="../../d1/dd4/_geometry_core_factory_8h.html" target="_top" xlink:title="A factory to create geometry cores. ">
<polygon fill="white" stroke="black" points="1318.95,-163 1318.95,-179 1433.05,-179 1433.05,-163 1318.95,-163"/>
<text text-anchor="middle" x="1376" y="-168.6" font-family="Helvetica,sans-Serif" font-size="8.00">src/GeometryCoreFactory.h</text>
</a>
</g>
</g>
<!-- Node1&#45;&gt;Node21 -->
<g id="edge38" class="edge"><title>Node1&#45;&gt;Node21</title>
<path fill="none" stroke="midnightblue" d="M1194.74,-214.65C1238.18,-204.429 1306.8,-188.284 1345.96,-179.068"/>
<polygon fill="midnightblue" stroke="midnightblue" points="1193.74,-211.29 1184.81,-216.987 1195.34,-218.104 1193.74,-211.29"/>
</g>
<!-- Node22 -->
<g id="node22" class="node"><title>Node22</title>
<g id="a_node22"><a xlink:href="../../d2/d46/_light_8h.html" target="_top" xlink:title="A light to be applied to all nodes of its sub&#45;tree (composite node). ">
<polygon fill="white" stroke="black" points="1451.55,-163 1451.55,-179 1504.45,-179 1504.45,-163 1451.55,-163"/>
<text text-anchor="middle" x="1478" y="-168.6" font-family="Helvetica,sans-Serif" font-size="8.00">src/Light.h</text>
</a>
</g>
</g>
<!-- Node1&#45;&gt;Node22 -->
<g id="edge40" class="edge"><title>Node1&#45;&gt;Node22</title>
<path fill="none" stroke="midnightblue" d="M1197.78,-218.347C1254,-210.711 1355.71,-196.183 1442,-180 1445.02,-179.433 1448.17,-178.798 1451.3,-178.14"/>
<polygon fill="midnightblue" stroke="midnightblue" points="1197.27,-214.884 1187.83,-219.691 1198.21,-221.821 1197.27,-214.884"/>
</g>
<!-- Node23 -->
<g id="node23" class="node"><title>Node23</title>
<g id="a_node23"><a xlink:href="../../db/d01/_material_core_8h.html" target="_top" xlink:title="A core to set material properties for lighting to be applied to subsequent geometry. ">
<polygon fill="white" stroke="black" points="1522.32,-163 1522.32,-179 1603.68,-179 1603.68,-163 1522.32,-163"/>
<text text-anchor="middle" x="1563" y="-168.6" font-family="Helvetica,sans-Serif" font-size="8.00">src/MaterialCore.h</text>
</a>
</g>
</g>
<!-- Node1&#45;&gt;Node23 -->
<g id="edge42" class="edge"><title>Node1&#45;&gt;Node23</title>
<path fill="none" stroke="midnightblue" d="M1198.35,-219.187C1265.75,-211.588 1399.7,-196.021 1513,-180 1515.96,-179.582 1519.01,-179.133 1522.09,-178.67"/>
<polygon fill="midnightblue" stroke="midnightblue" points="1197.67,-215.742 1188.12,-220.337 1198.45,-222.698 1197.67,-215.742"/>
</g>
<!-- Node24 -->
<g id="node24" class="node"><title>Node24</title>
<g id="a_node24"><a xlink:href="../../d4/dc3/_render_state_8h.html" target="_top" xlink:title="The central render state that collects information about the current shader, transformations, matrix stacks, light and color properties. ">
<polygon fill="white" stroke="black" points="1621.76,-163 1621.76,-179 1702.24,-179 1702.24,-163 1621.76,-163"/>
<text text-anchor="middle" x="1662" y="-168.6" font-family="Helvetica,sans-Serif" font-size="8.00">src/RenderState.h</text>
</a>
</g>
</g>
<!-- Node1&#45;&gt;Node24 -->
<g id="edge44" class="edge"><title>Node1&#45;&gt;Node24</title>
<path fill="none" stroke="midnightblue" d="M1198.09,-220.757C1279.26,-214.448 1460.29,-199.42 1612,-180 1615.14,-179.598 1618.38,-179.151 1621.64,-178.68"/>
<polygon fill="midnightblue" stroke="midnightblue" points="1197.47,-217.294 1187.77,-221.554 1198.01,-224.273 1197.47,-217.294"/>
</g>
<!-- Node2&#45;&gt;Node3 -->
<g id="edge2" class="edge"><title>Node2&#45;&gt;Node3</title>
<path fill="none" stroke="midnightblue" d="M688.642,-112.885C592.622,-105.805 351.039,-87.8836 149,-72 133.854,-70.8093 117.394,-69.4796 102.365,-68.2514"/>
<polygon fill="midnightblue" stroke="midnightblue" points="688.587,-116.39 698.817,-113.635 689.102,-109.409 688.587,-116.39"/>
</g>
<!-- Node5 -->
<g id="node5" class="node"><title>Node5</title>
<g id="a_node5"><a xlink:href="../../d5/dea/_orthographic_camera_8h.html" target="_top" xlink:title="A camera with orthographic projection(leaf node). ">
<polygon fill="white" stroke="black" points="655.871,-55 655.871,-71 766.129,-71 766.129,-55 655.871,-55"/>
<text text-anchor="middle" x="711" y="-60.6" font-family="Helvetica,sans-Serif" font-size="8.00">src/OrthographicCamera.h</text>
</a>
</g>
</g>
<!-- Node2&#45;&gt;Node5 -->
<g id="edge4" class="edge"><title>Node2&#45;&gt;Node5</title>
<path fill="none" stroke="midnightblue" d="M724.533,-99.1848C720.888,-89.7082 716.524,-78.3637 713.757,-71.169"/>
<polygon fill="midnightblue" stroke="midnightblue" points="721.363,-100.693 728.219,-108.77 727.896,-98.1797 721.363,-100.693"/>
</g>
<!-- Node2&#45;&gt;Node6 -->
<g id="edge8" class="edge"><title>Node2&#45;&gt;Node6</title>
<path fill="none" stroke="midnightblue" d="M696.777,-105.625C665.624,-94.5068 627.276,-75.5243 647,-54 680.165,-17.8076 1040.4,-11.2644 1129.94,-10.1941"/>
<polygon fill="midnightblue" stroke="midnightblue" points="695.962,-109.045 706.556,-108.952 698.216,-102.418 695.962,-109.045"/>
</g>
<!-- Node7 -->
<g id="node7" class="node"><title>Node7</title>
<g id="a_node7"><a xlink:href="../../df/db1/_perspective_camera_8h.html" target="_top" xlink:title="A camera with perspective projection (leaf node). ">
<polygon fill="white" stroke="black" points="784.096,-55 784.096,-71 889.904,-71 889.904,-55 784.096,-55"/>
<text text-anchor="middle" x="837" y="-60.6" font-family="Helvetica,sans-Serif" font-size="8.00">src/PerspectiveCamera.h</text>
</a>
</g>
</g>
<!-- Node2&#45;&gt;Node7 -->
<g id="edge6" class="edge"><title>Node2&#45;&gt;Node7</title>
<path fill="none" stroke="midnightblue" d="M754.437,-104.503C775.274,-94.2808 805.075,-79.6614 822.592,-71.0679"/>
<polygon fill="midnightblue" stroke="midnightblue" points="752.732,-101.44 745.296,-108.987 755.815,-107.725 752.732,-101.44"/>
</g>
<!-- Node4 -->
<g id="node4" class="node"><title>Node4</title>
<g id="a_node4"><a xlink:href="../../d0/d5b/scg3__ext_8h.html" target="_top" xlink:title="Main header file for scg3 scene graph library extensions, including all class headers. ">
<polygon fill="white" stroke="black" points="195.654,-1 195.654,-17 250.346,-17 250.346,-1 195.654,-1"/>
<text text-anchor="middle" x="223" y="-6.6" font-family="Helvetica,sans-Serif" font-size="8.00">scg3_ext.h</text>
</a>
</g>
</g>
<!-- Node3&#45;&gt;Node4 -->
<g id="edge3" class="edge"><title>Node3&#45;&gt;Node4</title>
<path fill="none" stroke="midnightblue" d="M84.093,-51.9951C117.977,-41.751 169.782,-26.0891 199.622,-17.0679"/>
<polygon fill="midnightblue" stroke="midnightblue" points="82.7559,-48.7428 74.1967,-54.987 84.7817,-55.4433 82.7559,-48.7428"/>
</g>
<!-- Node5&#45;&gt;Node6 -->
<g id="edge5" class="edge"><title>Node5&#45;&gt;Node6</title>
<path fill="none" stroke="midnightblue" d="M776.346,-53.845C918.282,-36.6836 1075.41,-18.5619 1130.07,-12.2844"/>
<polygon fill="midnightblue" stroke="midnightblue" points="775.662,-50.4023 766.155,-55.0788 776.503,-57.3515 775.662,-50.4023"/>
</g>
<!-- Node7&#45;&gt;Node6 -->
<g id="edge7" class="edge"><title>Node7&#45;&gt;Node6</title>
<path fill="none" stroke="midnightblue" d="M889.241,-53.321C959.867,-41.5875 1082.46,-21.2205 1130.19,-13.2917"/>
<polygon fill="midnightblue" stroke="midnightblue" points="888.504,-49.8954 879.213,-54.987 889.651,-56.8008 888.504,-49.8954"/>
</g>
<!-- Node8&#45;&gt;Node2 -->
<g id="edge10" class="edge"><title>Node8&#45;&gt;Node2</title>
<path fill="none" stroke="midnightblue" d="M890.777,-160.39C852.208,-150.157 792.083,-134.206 757.641,-125.068"/>
<polygon fill="midnightblue" stroke="midnightblue" points="890.003,-163.806 900.567,-162.987 891.798,-157.04 890.003,-163.806"/>
</g>
<!-- Node8&#45;&gt;Node6 -->
<g id="edge13" class="edge"><title>Node8&#45;&gt;Node6</title>
<path fill="none" stroke="midnightblue" d="M908.508,-156.657C893.61,-144.196 876.708,-125.017 887,-108 913.478,-64.2216 1073.49,-26.3217 1130.14,-14.1149"/>
<polygon fill="midnightblue" stroke="midnightblue" points="906.362,-159.422 916.393,-162.832 910.678,-153.91 906.362,-159.422"/>
</g>
<!-- Node8&#45;&gt;Node9 -->
<g id="edge11" class="edge"><title>Node8&#45;&gt;Node9</title>
<path fill="none" stroke="midnightblue" d="M934.303,-153.49C938.521,-143.953 943.613,-132.441 946.829,-125.169"/>
<polygon fill="midnightblue" stroke="midnightblue" points="931.042,-152.208 930.198,-162.77 937.444,-155.04 931.042,-152.208"/>
</g>
<!-- Node9&#45;&gt;Node6 -->
<g id="edge12" class="edge"><title>Node9&#45;&gt;Node6</title>
<path fill="none" stroke="midnightblue" d="M962.853,-101.14C975.601,-87.2244 996.318,-66.7189 1018,-54 1054.67,-32.4884 1103.31,-19.7584 1130.13,-13.9028"/>
<polygon fill="midnightblue" stroke="midnightblue" points="960.046,-99.0293 956.008,-108.824 965.273,-103.685 960.046,-99.0293"/>
</g>
<!-- Node10&#45;&gt;Node6 -->
<g id="edge26" class="edge"><title>Node10&#45;&gt;Node6</title>
<path fill="none" stroke="midnightblue" d="M1072.89,-156.547C1059.04,-144.492 1043.5,-125.986 1051,-108 1068.97,-64.9227 1116.11,-31.0972 1138.23,-17.0575"/>
<polygon fill="midnightblue" stroke="midnightblue" points="1070.68,-159.267 1080.66,-162.847 1075.09,-153.83 1070.68,-159.267"/>
</g>
<!-- Node11 -->
<g id="node11" class="node"><title>Node11</title>
<g id="a_node11"><a xlink:href="../../d7/d15/_stereo_renderer_8h.html" target="_top" xlink:title="Base class for all stereo renderers (abstract). ">
<polygon fill="white" stroke="black" points="322.418,-109 322.418,-125 429.582,-125 429.582,-109 322.418,-109"/>
<text text-anchor="middle" x="376" y="-114.6" font-family="Helvetica,sans-Serif" font-size="8.00">src_ext/StereoRenderer.h</text>
</a>
</g>
</g>
<!-- Node10&#45;&gt;Node11 -->
<g id="edge16" class="edge"><title>Node10&#45;&gt;Node11</title>
<path fill="none" stroke="midnightblue" d="M1046.5,-166.764C921.219,-157.652 565.799,-131.804 429.821,-121.914"/>
<polygon fill="midnightblue" stroke="midnightblue" points="1046.29,-170.257 1056.51,-167.492 1046.79,-163.276 1046.29,-170.257"/>
</g>
<!-- Node15 -->
<g id="node15" class="node"><title>Node15</title>
<g id="a_node15"><a xlink:href="../../d8/d69/_standard_renderer_8h.html" target="_top" xlink:title="A standard renderer that uses a PreTraverser, a RenderTraverser, and an InfoTraverser. ">
<polygon fill="white" stroke="black" points="1059.53,-109 1059.53,-125 1160.47,-125 1160.47,-109 1059.53,-109"/>
<text text-anchor="middle" x="1110" y="-114.6" font-family="Helvetica,sans-Serif" font-size="8.00">src/StandardRenderer.h</text>
</a>
</g>
</g>
<!-- Node10&#45;&gt;Node15 -->
<g id="edge24" class="edge"><title>Node10&#45;&gt;Node15</title>
<path fill="none" stroke="midnightblue" d="M1097.14,-153.185C1100.61,-143.708 1104.75,-132.364 1107.38,-125.169"/>
<polygon fill="midnightblue" stroke="midnightblue" points="1093.79,-152.176 1093.64,-162.77 1100.36,-154.578 1093.79,-152.176"/>
</g>
<!-- Node11&#45;&gt;Node4 -->
<g id="edge17" class="edge"><title>Node11&#45;&gt;Node4</title>
<path fill="none" stroke="midnightblue" d="M312.259,-112.487C252.498,-107.703 169.373,-96.7009 149,-72 129.911,-48.8554 173.696,-27.7648 201.762,-17.1714"/>
<polygon fill="midnightblue" stroke="midnightblue" points="312.143,-115.988 322.38,-113.257 312.674,-109.009 312.143,-115.988"/>
</g>
<!-- Node12 -->
<g id="node12" class="node"><title>Node12</title>
<g id="a_node12"><a xlink:href="../../dd/dec/_stereo_renderer_active_8h.html" target="_top" xlink:title="A renderer for active stereo (e.g., shutter glasses). ">
<polygon fill="white" stroke="black" points="158.307,-55 158.307,-71 287.693,-71 287.693,-55 158.307,-55"/>
<text text-anchor="middle" x="223" y="-60.6" font-family="Helvetica,sans-Serif" font-size="8.00">src_ext/StereoRendererActive.h</text>
</a>
</g>
</g>
<!-- Node11&#45;&gt;Node12 -->
<g id="edge18" class="edge"><title>Node11&#45;&gt;Node12</title>
<path fill="none" stroke="midnightblue" d="M345.78,-105.729C315.628,-95.4815 270.11,-80.0113 243.796,-71.0679"/>
<polygon fill="midnightblue" stroke="midnightblue" points="344.771,-109.083 355.366,-108.987 347.024,-102.455 344.771,-109.083"/>
</g>
<!-- Node13 -->
<g id="node13" class="node"><title>Node13</title>
<g id="a_node13"><a xlink:href="../../d5/da3/_stereo_renderer_anaglyph_8h.html" target="_top" xlink:title="A renderer for anaglyph stereo (left: red, right: cyan). ">
<polygon fill="white" stroke="black" points="305.52,-55 305.52,-71 446.48,-71 446.48,-55 305.52,-55"/>
<text text-anchor="middle" x="376" y="-60.6" font-family="Helvetica,sans-Serif" font-size="8.00">src_ext/StereoRendererAnaglyph.h</text>
</a>
</g>
</g>
<!-- Node11&#45;&gt;Node13 -->
<g id="edge20" class="edge"><title>Node11&#45;&gt;Node13</title>
<path fill="none" stroke="midnightblue" d="M376,-98.5708C376,-89.2222 376,-78.2089 376,-71.169"/>
<polygon fill="midnightblue" stroke="midnightblue" points="372.5,-98.7696 376,-108.77 379.5,-98.7697 372.5,-98.7696"/>
</g>
<!-- Node14 -->
<g id="node14" class="node"><title>Node14</title>
<g id="a_node14"><a xlink:href="../../d4/d7e/_stereo_renderer_passive_8h.html" target="_top" xlink:title="A renderer for passive stereo (e.g., polarized projection). ">
<polygon fill="white" stroke="black" points="464.193,-55 464.193,-71 599.807,-71 599.807,-55 464.193,-55"/>
<text text-anchor="middle" x="532" y="-60.6" font-family="Helvetica,sans-Serif" font-size="8.00">src_ext/StereoRendererPassive.h</text>
</a>
</g>
</g>
<!-- Node11&#45;&gt;Node14 -->
<g id="edge22" class="edge"><title>Node11&#45;&gt;Node14</title>
<path fill="none" stroke="midnightblue" d="M406.813,-105.729C437.556,-95.4815 483.966,-80.0113 510.796,-71.0679"/>
<polygon fill="midnightblue" stroke="midnightblue" points="405.419,-102.504 397.039,-108.987 407.633,-109.145 405.419,-102.504"/>
</g>
<!-- Node12&#45;&gt;Node4 -->
<g id="edge19" class="edge"><title>Node12&#45;&gt;Node4</title>
<path fill="none" stroke="midnightblue" d="M223,-44.5708C223,-35.2222 223,-24.2089 223,-17.169"/>
<polygon fill="midnightblue" stroke="midnightblue" points="219.5,-44.7696 223,-54.7696 226.5,-44.7697 219.5,-44.7696"/>
</g>
<!-- Node13&#45;&gt;Node4 -->
<g id="edge21" class="edge"><title>Node13&#45;&gt;Node4</title>
<path fill="none" stroke="midnightblue" d="M345.78,-51.729C315.628,-41.4815 270.11,-26.0113 243.796,-17.0679"/>
<polygon fill="midnightblue" stroke="midnightblue" points="344.771,-55.0829 355.366,-54.987 347.024,-48.4552 344.771,-55.0829"/>
</g>
<!-- Node14&#45;&gt;Node4 -->
<g id="edge23" class="edge"><title>Node14&#45;&gt;Node4</title>
<path fill="none" stroke="midnightblue" d="M480.113,-53.2682C413.916,-42.1283 301.848,-23.2689 250.358,-14.604"/>
<polygon fill="midnightblue" stroke="midnightblue" points="479.885,-56.7789 490.327,-54.987 481.046,-49.876 479.885,-56.7789"/>
</g>
<!-- Node15&#45;&gt;Node6 -->
<g id="edge25" class="edge"><title>Node15&#45;&gt;Node6</title>
<path fill="none" stroke="midnightblue" d="M1116.29,-99.3439C1125.18,-75.7729 1141.06,-33.7016 1147.34,-17.0576"/>
<polygon fill="midnightblue" stroke="midnightblue" points="1113.01,-98.1224 1112.75,-108.714 1119.55,-100.594 1113.01,-98.1224"/>
</g>
<!-- Node16&#45;&gt;Node6 -->
<g id="edge30" class="edge"><title>Node16&#45;&gt;Node6</title>
<path fill="none" stroke="midnightblue" d="M1202.01,-103.311C1190.77,-95.5419 1177.52,-84.6675 1169,-72 1157.19,-54.4394 1152.48,-29.2339 1150.81,-17.0825"/>
<polygon fill="midnightblue" stroke="midnightblue" points="1200.19,-106.299 1210.47,-108.851 1204.02,-100.443 1200.19,-106.299"/>
</g>
<!-- Node17 -->
<g id="node17" class="node"><title>Node17</title>
<g id="a_node17"><a xlink:href="../../d6/d52/_bump_map_core_8h.html" target="_top" xlink:title="Bump map core storing a texture (optional) and a normal map. ">
<polygon fill="white" stroke="black" points="1178.32,-55 1178.32,-71 1267.68,-71 1267.68,-55 1178.32,-55"/>
<text text-anchor="middle" x="1223" y="-60.6" font-family="Helvetica,sans-Serif" font-size="8.00">src/BumpMapCore.h</text>
</a>
</g>
</g>
<!-- Node16&#45;&gt;Node17 -->
<g id="edge28" class="edge"><title>Node16&#45;&gt;Node17</title>
<path fill="none" stroke="midnightblue" d="M1223,-98.5708C1223,-89.2222 1223,-78.2089 1223,-71.169"/>
<polygon fill="midnightblue" stroke="midnightblue" points="1219.5,-98.7696 1223,-108.77 1226.5,-98.7697 1219.5,-98.7696"/>
</g>
<!-- Node17&#45;&gt;Node6 -->
<g id="edge29" class="edge"><title>Node17&#45;&gt;Node6</title>
<path fill="none" stroke="midnightblue" d="M1204.72,-48.9821C1190.63,-38.9424 1171.66,-25.4289 1160.16,-17.2355"/>
<polygon fill="midnightblue" stroke="midnightblue" points="1202.98,-52.0359 1213.15,-54.987 1207.04,-46.3345 1202.98,-52.0359"/>
</g>
<!-- Node18&#45;&gt;Node6 -->
<g id="edge35" class="edge"><title>Node18&#45;&gt;Node6</title>
<path fill="none" stroke="midnightblue" d="M1245.96,-157.51C1257.25,-150.009 1269.74,-139.325 1276,-126 1289.6,-97.0338 1294.53,-80.0921 1276,-54 1251.72,-19.8043 1198.79,-11.9682 1169.86,-10.3117"/>
<polygon fill="midnightblue" stroke="midnightblue" points="1244,-154.612 1237.31,-162.834 1247.66,-160.573 1244,-154.612"/>
</g>
<!-- Node18&#45;&gt;Node16 -->
<g id="edge32" class="edge"><title>Node18&#45;&gt;Node16</title>
<path fill="none" stroke="midnightblue" d="M1223,-152.571C1223,-143.222 1223,-132.209 1223,-125.169"/>
<polygon fill="midnightblue" stroke="midnightblue" points="1219.5,-152.77 1223,-162.77 1226.5,-152.77 1219.5,-152.77"/>
</g>
<!-- Node19 -->
<g id="node19" class="node"><title>Node19</title>
<g id="a_node19"><a xlink:href="../../d1/d6d/_cube_map_core_8h.html" target="_top" xlink:title="Cube map texture core. ">
<polygon fill="white" stroke="black" points="1324.21,-109 1324.21,-125 1411.79,-125 1411.79,-109 1324.21,-109"/>
<text text-anchor="middle" x="1368" y="-114.6" font-family="Helvetica,sans-Serif" font-size="8.00">src/CubeMapCore.h</text>
</a>
</g>
</g>
<!-- Node18&#45;&gt;Node19 -->
<g id="edge33" class="edge"><title>Node18&#45;&gt;Node19</title>
<path fill="none" stroke="midnightblue" d="M1252.01,-159.595C1280.59,-149.347 1323.46,-133.972 1348.29,-125.068"/>
<polygon fill="midnightblue" stroke="midnightblue" points="1250.79,-156.317 1242.56,-162.987 1253.15,-162.906 1250.79,-156.317"/>
</g>
<!-- Node19&#45;&gt;Node6 -->
<g id="edge34" class="edge"><title>Node19&#45;&gt;Node6</title>
<path fill="none" stroke="midnightblue" d="M1357.34,-100.415C1346.88,-86.2765 1329.66,-65.881 1310,-54 1264.51,-26.511 1201.48,-15.7907 1169.83,-11.9467"/>
<polygon fill="midnightblue" stroke="midnightblue" points="1354.55,-102.53 1363.2,-108.65 1360.26,-98.4725 1354.55,-102.53"/>
</g>
<!-- Node20&#45;&gt;Node6 -->
<g id="edge37" class="edge"><title>Node20&#45;&gt;Node6</title>
<path fill="none" stroke="midnightblue" d="M1444.38,-104.159C1418.7,-90.495 1374.26,-68.1012 1334,-54 1275.88,-33.6414 1204.19,-19.5015 1169.99,-13.3921"/>
<polygon fill="midnightblue" stroke="midnightblue" points="1442.79,-107.279 1453.26,-108.933 1446.11,-101.114 1442.79,-107.279"/>
</g>
<!-- Node21&#45;&gt;Node6 -->
<g id="edge39" class="edge"><title>Node21&#45;&gt;Node6</title>
<path fill="none" stroke="midnightblue" d="M1423.12,-160.763C1457.69,-152.916 1500.39,-140.617 1511,-126 1515.7,-119.526 1515.53,-114.591 1511,-108 1471.07,-49.9458 1239.45,-19.8966 1169.8,-12.0883"/>
<polygon fill="midnightblue" stroke="midnightblue" points="1422.17,-157.387 1413.16,-162.954 1423.68,-164.224 1422.17,-157.387"/>
</g>
<!-- Node22&#45;&gt;Node6 -->
<g id="edge41" class="edge"><title>Node22&#45;&gt;Node6</title>
<path fill="none" stroke="midnightblue" d="M1499.2,-157.333C1516.3,-145.382 1536.01,-126.573 1526,-108 1505.3,-69.5846 1484.76,-69.5948 1444,-54 1346.15,-16.5584 1218.62,-10.8297 1170,-10.0624"/>
<polygon fill="midnightblue" stroke="midnightblue" points="1497.11,-154.516 1490.66,-162.921 1500.94,-160.374 1497.11,-154.516"/>
</g>
<!-- Node23&#45;&gt;Node6 -->
<g id="edge43" class="edge"><title>Node23&#45;&gt;Node6</title>
<path fill="none" stroke="midnightblue" d="M1559.4,-153.013C1556.07,-139.93 1550.23,-121.805 1541,-108 1521.06,-78.1785 1513.57,-69.0368 1481,-54 1424.95,-28.1235 1233.03,-14.847 1170.13,-11.1169"/>
<polygon fill="midnightblue" stroke="midnightblue" points="1556.04,-154.019 1561.69,-162.978 1562.86,-152.448 1556.04,-154.019"/>
</g>
<!-- Node24&#45;&gt;Node6 -->
<g id="edge45" class="edge"><title>Node24&#45;&gt;Node6</title>
<path fill="none" stroke="midnightblue" d="M1648.38,-155.416C1623.6,-129.927 1568.28,-77.7352 1510,-54 1447.31,-28.47 1236,-14.7876 1169.92,-11.0598"/>
<polygon fill="midnightblue" stroke="midnightblue" points="1646.14,-158.137 1655.57,-162.956 1651.2,-153.305 1646.14,-158.137"/>
</g>
</g>
</svg>
