<?xml version="1.0" encoding="UTF-8" standalone="no"?>
<!DOCTYPE svg PUBLIC "-//W3C//DTD SVG 1.1//EN"
 "http://www.w3.org/Graphics/SVG/1.1/DTD/svg11.dtd">
<!-- Generated by graphviz version 2.36.0 (20140111.2315)
 -->
<!-- Title: scg::TransformAnimation Pages: 1 -->
<svg width="458pt" height="294pt"
 viewBox="0.00 0.00 458.00 294.00" xmlns="http://www.w3.org/2000/svg" xmlns:xlink="http://www.w3.org/1999/xlink">
<g id="graph0" class="graph" transform="scale(1 1) rotate(0) translate(4 290)">
<title>scg::TransformAnimation</title>
<polygon fill="white" stroke="none" points="-4,4 -4,-290 454,-290 454,4 -4,4"/>
<!-- Node5 -->
<g id="node1" class="node"><title>Node5</title>
<g id="a_node1"><a xlink:title="An animation that creates a transformation to be applied to its sub&#45;tree (composite node).">
<polygon fill="#bfbfbf" stroke="black" points="11.6875,-1 11.6875,-17 116.312,-17 116.312,-1 11.6875,-1"/>
<text text-anchor="middle" x="64" y="-6.6" font-family="Helvetica,sans-Serif" font-size="8.00">scg::TransformAnimation</text>
</a>
</g>
</g>
<!-- Node6 -->
<g id="node2" class="node"><title>Node6</title>
<g id="a_node2"><a xlink:href="../../d2/df5/classscg_1_1_animation.html" target="_top" xlink:title="Base class for all animations (abstract), providing general functionality.">
<polygon fill="white" stroke="black" points="-0.234375,-57 -0.234375,-73 68.2344,-73 68.2344,-57 -0.234375,-57"/>
<text text-anchor="middle" x="34" y="-62.6" font-family="Helvetica,sans-Serif" font-size="8.00">scg::Animation</text>
</a>
</g>
</g>
<!-- Node6&#45;&gt;Node5 -->
<g id="edge1" class="edge"><title>Node6&#45;&gt;Node5</title>
<path fill="none" stroke="midnightblue" d="M42.793,-48.1727C48.478,-37.9396 55.6073,-25.1068 59.9813,-17.2336"/>
<polygon fill="midnightblue" stroke="midnightblue" points="39.7189,-46.4991 37.922,-56.9404 45.838,-49.8986 39.7189,-46.4991"/>
</g>
<!-- Node7 -->
<g id="node3" class="node"><title>Node7</title>
<g id="a_node3"><a xlink:href="../../d0/d99/classscg_1_1_transformation.html" target="_top" xlink:title="A transformation node to be used to appy a transformation to the sub&#45;tree (composite node).">
<polygon fill="white" stroke="black" points="85.8008,-57 85.8008,-73 172.199,-73 172.199,-57 85.8008,-57"/>
<text text-anchor="middle" x="129" y="-62.6" font-family="Helvetica,sans-Serif" font-size="8.00">scg::Transformation</text>
</a>
</g>
</g>
<!-- Node7&#45;&gt;Node5 -->
<g id="edge2" class="edge"><title>Node7&#45;&gt;Node5</title>
<path fill="none" stroke="midnightblue" d="M112.563,-50.3446C99.8915,-39.8176 82.868,-25.675 72.7072,-17.2336"/>
<polygon fill="midnightblue" stroke="midnightblue" points="110.574,-53.2424 120.502,-56.9404 115.047,-47.858 110.574,-53.2424"/>
</g>
<!-- Node8 -->
<g id="node4" class="node"><title>Node8</title>
<g id="a_node4"><a xlink:href="../../da/d38/classscg_1_1_composite.html" target="_top" xlink:title="Base class for all composite nodes, i.e., nodes with children (composite pattern, abstract).">
<polygon fill="white" stroke="black" points="136.434,-127 136.434,-143 207.566,-143 207.566,-127 136.434,-127"/>
<text text-anchor="middle" x="172" y="-132.6" font-family="Helvetica,sans-Serif" font-size="8.00">scg::Composite</text>
</a>
</g>
</g>
<!-- Node8&#45;&gt;Node7 -->
<g id="edge3" class="edge"><title>Node8&#45;&gt;Node7</title>
<path fill="none" stroke="midnightblue" d="M157.84,-119.468C152.724,-113.717 147.185,-106.85 143,-100 137.675,-91.284 133.538,-80.1818 131.183,-73.0808"/>
<polygon fill="midnightblue" stroke="midnightblue" points="155.446,-122.034 164.824,-126.964 160.568,-117.262 155.446,-122.034"/>
</g>
<!-- Node9 -->
<g id="node5" class="node"><title>Node9</title>
<g id="a_node5"><a xlink:href="../../d4/dc7/classscg_1_1_node.html" target="_top" xlink:title="Base class for all nodes (composite pattern, abstract).">
<polygon fill="white" stroke="black" points="212.99,-57 212.99,-73 265.01,-73 265.01,-57 212.99,-57"/>
<text text-anchor="middle" x="239" y="-62.6" font-family="Helvetica,sans-Serif" font-size="8.00">scg::Node</text>
</a>
</g>
</g>
<!-- Node8&#45;&gt;Node9 -->
<g id="edge11" class="edge"><title>Node8&#45;&gt;Node9</title>
<path fill="none" stroke="#9a32cd" stroke-dasharray="5,2" d="M168.09,-116.76C167.218,-108.587 167.73,-99.0861 172.645,-92 181.74,-78.8844 198.518,-72.3849 212.927,-69.164"/>
<polygon fill="#9a32cd" stroke="#9a32cd" points="164.666,-117.493 169.854,-126.731 171.559,-116.274 164.666,-117.493"/>
<text text-anchor="middle" x="187.678" y="-93.6" font-family="Helvetica,sans-Serif" font-size="8.00"> parent_</text>
</g>
<!-- Node9&#45;&gt;Node8 -->
<g id="edge4" class="edge"><title>Node9&#45;&gt;Node8</title>
<path fill="none" stroke="midnightblue" d="M224.635,-80.5792C210.542,-94.883 189.65,-116.086 178.918,-126.979"/>
<polygon fill="midnightblue" stroke="midnightblue" points="227.494,-82.6645 232.019,-73.0848 222.508,-77.7515 227.494,-82.6645"/>
</g>
<!-- Node9&#45;&gt;Node8 -->
<g id="edge12" class="edge"><title>Node9&#45;&gt;Node8</title>
<path fill="none" stroke="#9a32cd" stroke-dasharray="5,2" d="M230.185,-82.0994C226.524,-88.0575 221.968,-94.6563 217,-100 206.999,-110.756 193.268,-120.581 183.612,-126.872"/>
<polygon fill="#9a32cd" stroke="#9a32cd" points="233.461,-83.4247 235.417,-73.012 227.394,-79.9322 233.461,-83.4247"/>
<text text-anchor="middle" x="241.787" y="-93.6" font-family="Helvetica,sans-Serif" font-size="8.00"> leftChild_</text>
</g>
<!-- Node9&#45;&gt;Node9 -->
<g id="edge5" class="edge"><title>Node9&#45;&gt;Node9</title>
<path fill="none" stroke="#9a32cd" stroke-dasharray="5,2" d="M275.475,-69.5618C280.016,-68.7534 283,-67.2328 283,-65 283,-61.3359 274.963,-59.5898 265.199,-59.7615"/>
<polygon fill="#9a32cd" stroke="#9a32cd" points="274.948,-66.0888 265.199,-70.2385 275.408,-73.0737 274.948,-66.0888"/>
<text text-anchor="middle" x="306.125" y="-62.6" font-family="Helvetica,sans-Serif" font-size="8.00"> rightSibling_</text>
</g>
<!-- Node10 -->
<g id="node6" class="node"><title>Node10</title>
<g id="a_node6"><a xlink:title=" ">
<polygon fill="white" stroke="#bfbfbf" points="244.199,-119 244.199,-151 331.801,-151 331.801,-119 244.199,-119"/>
<text text-anchor="start" x="252.199" y="-140.6" font-family="Helvetica,sans-Serif" font-size="8.00">std::unordered_map</text>
<text text-anchor="start" x="252.199" y="-132.6" font-family="Helvetica,sans-Serif" font-size="8.00">&lt; std::string, std::</text>
<text text-anchor="middle" x="288" y="-124.6" font-family="Helvetica,sans-Serif" font-size="8.00">string &gt;</text>
</a>
</g>
</g>
<!-- Node10&#45;&gt;Node9 -->
<g id="edge6" class="edge"><title>Node10&#45;&gt;Node9</title>
<path fill="none" stroke="#9a32cd" stroke-dasharray="5,2" d="M283.9,-109.19C282.131,-103.198 279.604,-97.0673 276,-92 270.266,-83.939 261.213,-77.5146 253.498,-73.0685"/>
<polygon fill="#9a32cd" stroke="#9a32cd" points="280.499,-110.015 286.22,-118.932 287.309,-108.394 280.499,-110.015"/>
<text text-anchor="middle" x="299.9" y="-93.6" font-family="Helvetica,sans-Serif" font-size="8.00"> metaInfo_</text>
</g>
<!-- Node11 -->
<g id="node7" class="node"><title>Node11</title>
<g id="a_node7"><a xlink:title="STL class.">
<polygon fill="white" stroke="#bfbfbf" points="262.66,-205 262.66,-221 313.34,-221 313.34,-205 262.66,-205"/>
<text text-anchor="middle" x="288" y="-210.6" font-family="Helvetica,sans-Serif" font-size="8.00">std::string</text>
</a>
</g>
</g>
<!-- Node11&#45;&gt;Node10 -->
<g id="edge7" class="edge"><title>Node11&#45;&gt;Node10</title>
<path fill="none" stroke="#9a32cd" stroke-dasharray="5,2" d="M288,-194.922C288,-181.748 288,-163.699 288,-151.061"/>
<polygon fill="#9a32cd" stroke="#9a32cd" points="284.5,-194.986 288,-204.986 291.5,-194.986 284.5,-194.986"/>
<text text-anchor="middle" x="304.23" y="-179.6" font-family="Helvetica,sans-Serif" font-size="8.00"> keys</text>
<text text-anchor="middle" x="304.23" y="-171.6" font-family="Helvetica,sans-Serif" font-size="8.00">elements</text>
</g>
<!-- Node12 -->
<g id="node8" class="node"><title>Node12</title>
<g id="a_node8"><a xlink:title="STL class.">
<polygon fill="white" stroke="#bfbfbf" points="248.762,-261 248.762,-285 327.238,-285 327.238,-261 248.762,-261"/>
<text text-anchor="start" x="256.762" y="-274.6" font-family="Helvetica,sans-Serif" font-size="8.00">std::basic_string&lt;</text>
<text text-anchor="middle" x="288" y="-266.6" font-family="Helvetica,sans-Serif" font-size="8.00"> char &gt;</text>
</a>
</g>
</g>
<!-- Node12&#45;&gt;Node11 -->
<g id="edge8" class="edge"><title>Node12&#45;&gt;Node11</title>
<path fill="none" stroke="midnightblue" d="M288,-250.738C288,-240.329 288,-228.485 288,-221.126"/>
<polygon fill="midnightblue" stroke="midnightblue" points="284.5,-250.817 288,-260.817 291.5,-250.817 284.5,-250.817"/>
</g>
<!-- Node13 -->
<g id="node9" class="node"><title>Node13</title>
<g id="a_node9"><a xlink:title=" ">
<polygon fill="white" stroke="#bfbfbf" points="349.537,-127 349.537,-143 450.463,-143 450.463,-127 349.537,-127"/>
<text text-anchor="middle" x="400" y="-132.6" font-family="Helvetica,sans-Serif" font-size="8.00">std::vector&lt; scg::Core &gt;</text>
</a>
</g>
</g>
<!-- Node13&#45;&gt;Node9 -->
<g id="edge9" class="edge"><title>Node13&#45;&gt;Node9</title>
<path fill="none" stroke="#9a32cd" stroke-dasharray="5,2" d="M379.757,-121.716C364.312,-112.689 342.306,-100.555 322,-92 303.492,-84.2022 281.813,-77.4891 265.252,-72.8383"/>
<polygon fill="#9a32cd" stroke="#9a32cd" points="378.066,-124.782 388.452,-126.876 381.638,-118.763 378.066,-124.782"/>
<text text-anchor="middle" x="350.117" y="-93.6" font-family="Helvetica,sans-Serif" font-size="8.00"> cores_</text>
</g>
<!-- Node14 -->
<g id="node10" class="node"><title>Node14</title>
<g id="a_node10"><a xlink:href="../../d0/d79/classscg_1_1_core.html" target="_top" xlink:title="Base class for all cores (abstract).">
<polygon fill="white" stroke="black" points="374.883,-205 374.883,-221 425.117,-221 425.117,-205 374.883,-205"/>
<text text-anchor="middle" x="400" y="-210.6" font-family="Helvetica,sans-Serif" font-size="8.00">scg::Core</text>
</a>
</g>
</g>
<!-- Node14&#45;&gt;Node13 -->
<g id="edge10" class="edge"><title>Node14&#45;&gt;Node13</title>
<path fill="none" stroke="#9a32cd" stroke-dasharray="5,2" d="M400,-194.715C400,-178.469 400,-154.948 400,-143.218"/>
<polygon fill="#9a32cd" stroke="#9a32cd" points="396.5,-194.986 400,-204.986 403.5,-194.986 396.5,-194.986"/>
<text text-anchor="middle" x="417.342" y="-175.6" font-family="Helvetica,sans-Serif" font-size="8.00"> elements</text>
</g>
</g>
</svg>
