<?xml version="1.0" encoding="UTF-8" standalone="no"?>
<!DOCTYPE svg PUBLIC "-//W3C//DTD SVG 1.1//EN"
 "http://www.w3.org/Graphics/SVG/1.1/DTD/svg11.dtd">
<!-- Generated by graphviz version 2.36.0 (20140111.2315)
 -->
<!-- Title: scg::StereoRenderer Pages: 1 -->
<svg width="395pt" height="134pt"
 viewBox="0.00 0.00 395.00 134.00" xmlns="http://www.w3.org/2000/svg" xmlns:xlink="http://www.w3.org/1999/xlink">
<g id="graph0" class="graph" transform="scale(1 1) rotate(0) translate(4 130)">
<title>scg::StereoRenderer</title>
<polygon fill="white" stroke="none" points="-4,4 -4,-130 391,-130 391,4 -4,4"/>
<!-- Node1 -->
<g id="node1" class="node"><title>Node1</title>
<polygon fill="#bfbfbf" stroke="black" points="145.092,-55 145.092,-71 234.908,-71 234.908,-55 145.092,-55"/>
<text text-anchor="middle" x="190" y="-60.6" font-family="Helvetica,sans-Serif" font-size="8.00">scg::StereoRenderer</text>
</g>
<!-- Node3 -->
<g id="node3" class="node"><title>Node3</title>
<g id="a_node3"><a xlink:href="../../d0/d12/classscg_1_1_stereo_renderer_active.html" target="_top" xlink:title="A renderer for active stereo (e.g., shutter glasses). ">
<polygon fill="white" stroke="black" points="-0.800781,-1 -0.800781,-17 110.801,-17 110.801,-1 -0.800781,-1"/>
<text text-anchor="middle" x="55" y="-6.6" font-family="Helvetica,sans-Serif" font-size="8.00">scg::StereoRendererActive</text>
</a>
</g>
</g>
<!-- Node1&#45;&gt;Node3 -->
<g id="edge2" class="edge"><title>Node1&#45;&gt;Node3</title>
<path fill="none" stroke="midnightblue" d="M162.287,-51.3254C135.686,-41.079 96.265,-25.8947 73.3494,-17.0679"/>
<polygon fill="midnightblue" stroke="midnightblue" points="161.204,-54.6587 171.793,-54.987 163.72,-48.1265 161.204,-54.6587"/>
</g>
<!-- Node4 -->
<g id="node4" class="node"><title>Node4</title>
<g id="a_node4"><a xlink:href="../../d6/de3/classscg_1_1_stereo_renderer_anaglyph.html" target="_top" xlink:title="A renderer for anaglyph stereo (left eye: red, right eye: cyan). ">
<polygon fill="white" stroke="black" points="128.412,-1 128.412,-17 251.588,-17 251.588,-1 128.412,-1"/>
<text text-anchor="middle" x="190" y="-6.6" font-family="Helvetica,sans-Serif" font-size="8.00">scg::StereoRendererAnaglyph</text>
</a>
</g>
</g>
<!-- Node1&#45;&gt;Node4 -->
<g id="edge3" class="edge"><title>Node1&#45;&gt;Node4</title>
<path fill="none" stroke="midnightblue" d="M190,-44.5708C190,-35.2222 190,-24.2089 190,-17.169"/>
<polygon fill="midnightblue" stroke="midnightblue" points="186.5,-44.7696 190,-54.7696 193.5,-44.7697 186.5,-44.7696"/>
</g>
<!-- Node5 -->
<g id="node5" class="node"><title>Node5</title>
<g id="a_node5"><a xlink:href="../../d8/d0f/classscg_1_1_stereo_renderer_passive.html" target="_top" xlink:title="A renderer for passive stereo (e.g., polarized projection). ">
<polygon fill="white" stroke="black" points="270.086,-1 270.086,-17 387.914,-17 387.914,-1 270.086,-1"/>
<text text-anchor="middle" x="329" y="-6.6" font-family="Helvetica,sans-Serif" font-size="8.00">scg::StereoRendererPassive</text>
</a>
</g>
</g>
<!-- Node1&#45;&gt;Node5 -->
<g id="edge4" class="edge"><title>Node1&#45;&gt;Node5</title>
<path fill="none" stroke="midnightblue" d="M218.173,-51.4605C245.565,-41.2129 286.408,-25.9336 310.107,-17.0679"/>
<polygon fill="midnightblue" stroke="midnightblue" points="216.886,-48.205 208.746,-54.987 219.339,-54.7613 216.886,-48.205"/>
</g>
<!-- Node2 -->
<g id="node2" class="node"><title>Node2</title>
<g id="a_node2"><a xlink:href="../../d8/dcf/classscg_1_1_renderer.html" target="_top" xlink:title="Base class for all renderers (abstract). ">
<polygon fill="white" stroke="black" points="156.877,-109 156.877,-125 223.123,-125 223.123,-109 156.877,-109"/>
<text text-anchor="middle" x="190" y="-114.6" font-family="Helvetica,sans-Serif" font-size="8.00">scg::Renderer</text>
</a>
</g>
</g>
<!-- Node2&#45;&gt;Node1 -->
<g id="edge1" class="edge"><title>Node2&#45;&gt;Node1</title>
<path fill="none" stroke="midnightblue" d="M190,-98.5708C190,-89.2222 190,-78.2089 190,-71.169"/>
<polygon fill="midnightblue" stroke="midnightblue" points="186.5,-98.7696 190,-108.77 193.5,-98.7697 186.5,-98.7696"/>
</g>
</g>
</svg>
