<?xml version="1.0" encoding="UTF-8" standalone="no"?>
<!DOCTYPE svg PUBLIC "-//W3C//DTD SVG 1.1//EN"
 "http://www.w3.org/Graphics/SVG/1.1/DTD/svg11.dtd">
<!-- Generated by graphviz version 2.36.0 (20140111.2315)
 -->
<!-- Title: src/Renderer.h Pages: 1 -->
<svg width="523pt" height="188pt"
 viewBox="0.00 0.00 523.28 188.00" xmlns="http://www.w3.org/2000/svg" xmlns:xlink="http://www.w3.org/1999/xlink">
<g id="graph0" class="graph" transform="scale(1 1) rotate(0) translate(4 184)">
<title>src/Renderer.h</title>
<polygon fill="white" stroke="none" points="-4,4 -4,-184 519.276,-184 519.276,4 -4,4"/>
<!-- Node0 -->
<g id="node1" class="node"><title>Node0</title>
<g id="a_node1"><a xlink:title="Base class for all renderers (abstract).">
<polygon fill="#bfbfbf" stroke="black" points="384.04,-163 384.04,-179 452.513,-179 452.513,-163 384.04,-163"/>
<text text-anchor="middle" x="418.276" y="-168.6" font-family="Helvetica,sans-Serif" font-size="8.00">src/Renderer.h</text>
</a>
</g>
</g>
<!-- Node1 -->
<g id="node2" class="node"><title>Node1</title>
<g id="a_node2"><a xlink:href="../../d7/d15/_stereo_renderer_8h.html" target="_top" xlink:title="Base class for all stereo renderers (abstract).">
<polygon fill="white" stroke="black" points="180.694,-109 180.694,-125 287.858,-125 287.858,-109 180.694,-109"/>
<text text-anchor="middle" x="234.276" y="-114.6" font-family="Helvetica,sans-Serif" font-size="8.00">src_ext/StereoRenderer.h</text>
</a>
</g>
</g>
<!-- Node0&#45;&gt;Node1 -->
<g id="edge1" class="edge"><title>Node0&#45;&gt;Node1</title>
<path fill="none" stroke="midnightblue" d="M383.808,-160.259C347.583,-150.022 291.482,-134.167 259.286,-125.068"/>
<polygon fill="midnightblue" stroke="midnightblue" points="382.886,-163.635 393.461,-162.987 384.79,-156.899 382.886,-163.635"/>
</g>
<!-- Node6 -->
<g id="node7" class="node"><title>Node6</title>
<g id="a_node7"><a xlink:href="../../d8/d69/_standard_renderer_8h.html" target="_top" xlink:title="A standard renderer that uses a PreTraverser, a RenderTraverser, and an InfoTraverser.">
<polygon fill="white" stroke="black" points="367.806,-109 367.806,-125 468.747,-125 468.747,-109 367.806,-109"/>
<text text-anchor="middle" x="418.276" y="-114.6" font-family="Helvetica,sans-Serif" font-size="8.00">src/StandardRenderer.h</text>
</a>
</g>
</g>
<!-- Node0&#45;&gt;Node6 -->
<g id="edge9" class="edge"><title>Node0&#45;&gt;Node6</title>
<path fill="none" stroke="midnightblue" d="M418.276,-152.571C418.276,-143.222 418.276,-132.209 418.276,-125.169"/>
<polygon fill="midnightblue" stroke="midnightblue" points="414.776,-152.77 418.276,-162.77 421.776,-152.77 414.776,-152.77"/>
</g>
<!-- Node7 -->
<g id="node8" class="node"><title>Node7</title>
<g id="a_node8"><a xlink:href="../../d4/d61/scg3_8h.html" target="_top" xlink:title="Main header file for scg3 scene graph library, including all class headers.">
<polygon fill="white" stroke="black" points="476.491,-55 476.491,-71 516.061,-71 516.061,-55 476.491,-55"/>
<text text-anchor="middle" x="496.276" y="-60.6" font-family="Helvetica,sans-Serif" font-size="8.00">scg3.h</text>
</a>
</g>
</g>
<!-- Node0&#45;&gt;Node7 -->
<g id="edge11" class="edge"><title>Node0&#45;&gt;Node7</title>
<path fill="none" stroke="midnightblue" d="M441.09,-157.795C453.406,-150.148 467.953,-139.236 477.276,-126 489.465,-108.697 493.998,-83.3708 495.547,-71.137"/>
<polygon fill="midnightblue" stroke="midnightblue" points="439.086,-154.912 432.23,-162.99 442.626,-160.951 439.086,-154.912"/>
</g>
<!-- Node2 -->
<g id="node3" class="node"><title>Node2</title>
<g id="a_node3"><a xlink:href="../../d0/d5b/scg3__ext_8h.html" target="_top" xlink:title="Main header file for scg3 scene graph library extensions, including all class headers.">
<polygon fill="white" stroke="black" points="129.931,-1 129.931,-17 184.622,-17 184.622,-1 129.931,-1"/>
<text text-anchor="middle" x="157.276" y="-6.6" font-family="Helvetica,sans-Serif" font-size="8.00">scg3_ext.h</text>
</a>
</g>
</g>
<!-- Node1&#45;&gt;Node2 -->
<g id="edge2" class="edge"><title>Node1&#45;&gt;Node2</title>
<path fill="none" stroke="midnightblue" d="M170.535,-112.487C110.774,-107.703 27.6491,-96.7009 7.27631,-72 -27.6862,-29.6099 77.6468,-15.8251 129.83,-11.6626"/>
<polygon fill="midnightblue" stroke="midnightblue" points="170.419,-115.988 180.656,-113.257 170.95,-109.009 170.419,-115.988"/>
</g>
<!-- Node3 -->
<g id="node4" class="node"><title>Node3</title>
<g id="a_node4"><a xlink:href="../../dd/dec/_stereo_renderer_active_8h.html" target="_top" xlink:title="A renderer for active stereo (e.g., shutter glasses).">
<polygon fill="white" stroke="black" points="16.583,-55 16.583,-71 145.97,-71 145.97,-55 16.583,-55"/>
<text text-anchor="middle" x="81.2763" y="-60.6" font-family="Helvetica,sans-Serif" font-size="8.00">src_ext/StereoRendererActive.h</text>
</a>
</g>
</g>
<!-- Node1&#45;&gt;Node3 -->
<g id="edge3" class="edge"><title>Node1&#45;&gt;Node3</title>
<path fill="none" stroke="midnightblue" d="M204.056,-105.729C173.905,-95.4815 128.387,-80.0113 102.072,-71.0679"/>
<polygon fill="midnightblue" stroke="midnightblue" points="203.048,-109.083 213.642,-108.987 205.3,-102.455 203.048,-109.083"/>
</g>
<!-- Node4 -->
<g id="node5" class="node"><title>Node4</title>
<g id="a_node5"><a xlink:href="../../d5/da3/_stereo_renderer_anaglyph_8h.html" target="_top" xlink:title="A renderer for anaglyph stereo (left: red, right: cyan).">
<polygon fill="white" stroke="black" points="163.796,-55 163.796,-71 304.757,-71 304.757,-55 163.796,-55"/>
<text text-anchor="middle" x="234.276" y="-60.6" font-family="Helvetica,sans-Serif" font-size="8.00">src_ext/StereoRendererAnaglyph.h</text>
</a>
</g>
</g>
<!-- Node1&#45;&gt;Node4 -->
<g id="edge5" class="edge"><title>Node1&#45;&gt;Node4</title>
<path fill="none" stroke="midnightblue" d="M234.276,-98.5708C234.276,-89.2222 234.276,-78.2089 234.276,-71.169"/>
<polygon fill="midnightblue" stroke="midnightblue" points="230.776,-98.7696 234.276,-108.77 237.776,-98.7697 230.776,-98.7696"/>
</g>
<!-- Node5 -->
<g id="node6" class="node"><title>Node5</title>
<g id="a_node6"><a xlink:href="../../d4/d7e/_stereo_renderer_passive_8h.html" target="_top" xlink:title="A renderer for passive stereo (e.g., polarized projection).">
<polygon fill="white" stroke="black" points="322.47,-55 322.47,-71 458.083,-71 458.083,-55 322.47,-55"/>
<text text-anchor="middle" x="390.276" y="-60.6" font-family="Helvetica,sans-Serif" font-size="8.00">src_ext/StereoRendererPassive.h</text>
</a>
</g>
</g>
<!-- Node1&#45;&gt;Node5 -->
<g id="edge7" class="edge"><title>Node1&#45;&gt;Node5</title>
<path fill="none" stroke="midnightblue" d="M265.089,-105.729C295.832,-95.4815 342.242,-80.0113 369.073,-71.0679"/>
<polygon fill="midnightblue" stroke="midnightblue" points="263.695,-102.504 255.315,-108.987 265.909,-109.145 263.695,-102.504"/>
</g>
<!-- Node3&#45;&gt;Node2 -->
<g id="edge4" class="edge"><title>Node3&#45;&gt;Node2</title>
<path fill="none" stroke="midnightblue" d="M99.8847,-49.268C114.599,-39.2003 134.612,-25.5069 146.701,-17.2355"/>
<polygon fill="midnightblue" stroke="midnightblue" points="97.8027,-46.4516 91.526,-54.987 101.756,-52.2287 97.8027,-46.4516"/>
</g>
<!-- Node4&#45;&gt;Node2 -->
<g id="edge6" class="edge"><title>Node4&#45;&gt;Node2</title>
<path fill="none" stroke="midnightblue" d="M215.423,-49.268C200.515,-39.2003 180.239,-25.5069 167.99,-17.2355"/>
<polygon fill="midnightblue" stroke="midnightblue" points="213.646,-52.291 223.892,-54.987 217.563,-46.4899 213.646,-52.291"/>
</g>
<!-- Node5&#45;&gt;Node2 -->
<g id="edge8" class="edge"><title>Node5&#45;&gt;Node2</title>
<path fill="none" stroke="midnightblue" d="M348.937,-52.774C301.659,-42.2228 225.567,-25.2408 184.939,-16.1737"/>
<polygon fill="midnightblue" stroke="midnightblue" points="348.331,-56.2248 358.853,-54.987 349.855,-49.3928 348.331,-56.2248"/>
</g>
<!-- Node6&#45;&gt;Node7 -->
<g id="edge10" class="edge"><title>Node6&#45;&gt;Node7</title>
<path fill="none" stroke="midnightblue" d="M437.427,-103.233C452.626,-93.1001 473.309,-79.3114 485.674,-71.0679"/>
<polygon fill="midnightblue" stroke="midnightblue" points="435.175,-100.528 428.796,-108.987 439.058,-106.352 435.175,-100.528"/>
</g>
</g>
</svg>
