<?xml version="1.0" encoding="UTF-8" standalone="no"?>
<!DOCTYPE svg PUBLIC "-//W3C//DTD SVG 1.1//EN"
 "http://www.w3.org/Graphics/SVG/1.1/DTD/svg11.dtd">
<!-- Generated by graphviz version 2.36.0 (20140111.2315)
 -->
<!-- Title: scg::Light Pages: 1 -->
<svg width="78pt" height="134pt"
 viewBox="0.00 0.00 78.00 134.00" xmlns="http://www.w3.org/2000/svg" xmlns:xlink="http://www.w3.org/1999/xlink">
<g id="graph0" class="graph" transform="scale(1 1) rotate(0) translate(4 130)">
<title>scg::Light</title>
<polygon fill="white" stroke="none" points="-4,4 -4,-130 74,-130 74,4 -4,4"/>
<!-- Node1 -->
<g id="node1" class="node"><title>Node1</title>
<polygon fill="#bfbfbf" stroke="black" points="9.87891,-1 9.87891,-17 60.1211,-17 60.1211,-1 9.87891,-1"/>
<text text-anchor="middle" x="35" y="-6.6" font-family="Helvetica,sans-Serif" font-size="8.00">scg::Light</text>
</g>
<!-- Node2 -->
<g id="node2" class="node"><title>Node2</title>
<g id="a_node2"><a xlink:href="../../da/d38/classscg_1_1_composite.html" target="_top" xlink:title="Base class for all composite nodes, i.e., nodes with children (composite pattern, abstract)...">
<polygon fill="white" stroke="black" points="-0.566406,-55 -0.566406,-71 70.5664,-71 70.5664,-55 -0.566406,-55"/>
<text text-anchor="middle" x="35" y="-60.6" font-family="Helvetica,sans-Serif" font-size="8.00">scg::Composite</text>
</a>
</g>
</g>
<!-- Node2&#45;&gt;Node1 -->
<g id="edge1" class="edge"><title>Node2&#45;&gt;Node1</title>
<path fill="none" stroke="midnightblue" d="M35,-44.5708C35,-35.2222 35,-24.2089 35,-17.169"/>
<polygon fill="midnightblue" stroke="midnightblue" points="31.5001,-44.7696 35,-54.7696 38.5001,-44.7697 31.5001,-44.7696"/>
</g>
<!-- Node3 -->
<g id="node3" class="node"><title>Node3</title>
<g id="a_node3"><a xlink:href="../../d4/dc7/classscg_1_1_node.html" target="_top" xlink:title="Base class for all nodes (composite pattern, abstract). ">
<polygon fill="white" stroke="black" points="8.99023,-109 8.99023,-125 61.0098,-125 61.0098,-109 8.99023,-109"/>
<text text-anchor="middle" x="35" y="-114.6" font-family="Helvetica,sans-Serif" font-size="8.00">scg::Node</text>
</a>
</g>
</g>
<!-- Node3&#45;&gt;Node2 -->
<g id="edge2" class="edge"><title>Node3&#45;&gt;Node2</title>
<path fill="none" stroke="midnightblue" d="M35,-98.5708C35,-89.2222 35,-78.2089 35,-71.169"/>
<polygon fill="midnightblue" stroke="midnightblue" points="31.5001,-98.7696 35,-108.77 38.5001,-98.7697 31.5001,-98.7696"/>
</g>
</g>
</svg>
