<?xml version="1.0" encoding="UTF-8" standalone="no"?>
<!DOCTYPE svg PUBLIC "-//W3C//DTD SVG 1.1//EN"
 "http://www.w3.org/Graphics/SVG/1.1/DTD/svg11.dtd">
<!-- Generated by graphviz version 2.36.0 (20140111.2315)
 -->
<!-- Title: scg::Camera Pages: 1 -->
<svg width="373pt" height="294pt"
 viewBox="0.00 0.00 373.00 294.00" xmlns="http://www.w3.org/2000/svg" xmlns:xlink="http://www.w3.org/1999/xlink">
<g id="graph0" class="graph" transform="scale(1 1) rotate(0) translate(4 290)">
<title>scg::Camera</title>
<polygon fill="white" stroke="none" points="-4,4 -4,-290 369,-290 369,4 -4,4"/>
<!-- Node7 -->
<g id="node1" class="node"><title>Node7</title>
<g id="a_node1"><a xlink:title="Base class for all cameras (composite node, abstract).">
<polygon fill="#bfbfbf" stroke="black" points="12.3262,-1 12.3262,-17 73.6738,-17 73.6738,-1 12.3262,-1"/>
<text text-anchor="middle" x="43" y="-6.6" font-family="Helvetica,sans-Serif" font-size="8.00">scg::Camera</text>
</a>
</g>
</g>
<!-- Node8 -->
<g id="node2" class="node"><title>Node8</title>
<g id="a_node2"><a xlink:href="../../d0/d99/classscg_1_1_transformation.html" target="_top" xlink:title="A transformation node to be used to appy a transformation to the sub&#45;tree (composite node).">
<polygon fill="white" stroke="black" points="-0.199219,-57 -0.199219,-73 86.1992,-73 86.1992,-57 -0.199219,-57"/>
<text text-anchor="middle" x="43" y="-62.6" font-family="Helvetica,sans-Serif" font-size="8.00">scg::Transformation</text>
</a>
</g>
</g>
<!-- Node8&#45;&gt;Node7 -->
<g id="edge1" class="edge"><title>Node8&#45;&gt;Node7</title>
<path fill="none" stroke="midnightblue" d="M43,-46.894C43,-36.8897 43,-24.7822 43,-17.2336"/>
<polygon fill="midnightblue" stroke="midnightblue" points="39.5001,-46.9404 43,-56.9404 46.5001,-46.9405 39.5001,-46.9404"/>
</g>
<!-- Node9 -->
<g id="node3" class="node"><title>Node9</title>
<g id="a_node3"><a xlink:href="../../da/d38/classscg_1_1_composite.html" target="_top" xlink:title="Base class for all composite nodes, i.e., nodes with children (composite pattern, abstract).">
<polygon fill="white" stroke="black" points="50.4336,-127 50.4336,-143 121.566,-143 121.566,-127 50.4336,-127"/>
<text text-anchor="middle" x="86" y="-132.6" font-family="Helvetica,sans-Serif" font-size="8.00">scg::Composite</text>
</a>
</g>
</g>
<!-- Node9&#45;&gt;Node8 -->
<g id="edge2" class="edge"><title>Node9&#45;&gt;Node8</title>
<path fill="none" stroke="midnightblue" d="M71.8396,-119.468C66.7243,-113.717 61.1849,-106.85 57,-100 51.6753,-91.284 47.5377,-80.1818 45.1833,-73.0808"/>
<polygon fill="midnightblue" stroke="midnightblue" points="69.446,-122.034 78.8237,-126.964 74.5675,-117.262 69.446,-122.034"/>
</g>
<!-- Node10 -->
<g id="node4" class="node"><title>Node10</title>
<g id="a_node4"><a xlink:href="../../d4/dc7/classscg_1_1_node.html" target="_top" xlink:title="Base class for all nodes (composite pattern, abstract).">
<polygon fill="white" stroke="black" points="126.99,-57 126.99,-73 179.01,-73 179.01,-57 126.99,-57"/>
<text text-anchor="middle" x="153" y="-62.6" font-family="Helvetica,sans-Serif" font-size="8.00">scg::Node</text>
</a>
</g>
</g>
<!-- Node9&#45;&gt;Node10 -->
<g id="edge10" class="edge"><title>Node9&#45;&gt;Node10</title>
<path fill="none" stroke="#9a32cd" stroke-dasharray="5,2" d="M82.0905,-116.76C81.2185,-108.587 81.7303,-99.0861 86.6445,-92 95.7402,-78.8844 112.518,-72.3849 126.927,-69.164"/>
<polygon fill="#9a32cd" stroke="#9a32cd" points="78.6657,-117.493 83.8539,-126.731 85.5587,-116.274 78.6657,-117.493"/>
<text text-anchor="middle" x="101.678" y="-93.6" font-family="Helvetica,sans-Serif" font-size="8.00"> parent_</text>
</g>
<!-- Node10&#45;&gt;Node9 -->
<g id="edge3" class="edge"><title>Node10&#45;&gt;Node9</title>
<path fill="none" stroke="midnightblue" d="M138.635,-80.5792C124.542,-94.883 103.65,-116.086 92.9178,-126.979"/>
<polygon fill="midnightblue" stroke="midnightblue" points="141.494,-82.6645 146.019,-73.0848 136.508,-77.7515 141.494,-82.6645"/>
</g>
<!-- Node10&#45;&gt;Node9 -->
<g id="edge11" class="edge"><title>Node10&#45;&gt;Node9</title>
<path fill="none" stroke="#9a32cd" stroke-dasharray="5,2" d="M144.185,-82.0994C140.524,-88.0575 135.968,-94.6563 131,-100 120.999,-110.756 107.268,-120.581 97.6123,-126.872"/>
<polygon fill="#9a32cd" stroke="#9a32cd" points="147.461,-83.4247 149.417,-73.012 141.394,-79.9322 147.461,-83.4247"/>
<text text-anchor="middle" x="155.787" y="-93.6" font-family="Helvetica,sans-Serif" font-size="8.00"> leftChild_</text>
</g>
<!-- Node10&#45;&gt;Node10 -->
<g id="edge4" class="edge"><title>Node10&#45;&gt;Node10</title>
<path fill="none" stroke="#9a32cd" stroke-dasharray="5,2" d="M189.475,-69.5618C194.016,-68.7534 197,-67.2328 197,-65 197,-61.3359 188.963,-59.5898 179.199,-59.7615"/>
<polygon fill="#9a32cd" stroke="#9a32cd" points="188.948,-66.0888 179.199,-70.2385 189.408,-73.0737 188.948,-66.0888"/>
<text text-anchor="middle" x="220.125" y="-62.6" font-family="Helvetica,sans-Serif" font-size="8.00"> rightSibling_</text>
</g>
<!-- Node11 -->
<g id="node5" class="node"><title>Node11</title>
<g id="a_node5"><a xlink:title=" ">
<polygon fill="white" stroke="#bfbfbf" points="158.199,-119 158.199,-151 245.801,-151 245.801,-119 158.199,-119"/>
<text text-anchor="start" x="166.199" y="-140.6" font-family="Helvetica,sans-Serif" font-size="8.00">std::unordered_map</text>
<text text-anchor="start" x="166.199" y="-132.6" font-family="Helvetica,sans-Serif" font-size="8.00">&lt; std::string, std::</text>
<text text-anchor="middle" x="202" y="-124.6" font-family="Helvetica,sans-Serif" font-size="8.00">string &gt;</text>
</a>
</g>
</g>
<!-- Node11&#45;&gt;Node10 -->
<g id="edge5" class="edge"><title>Node11&#45;&gt;Node10</title>
<path fill="none" stroke="#9a32cd" stroke-dasharray="5,2" d="M197.9,-109.19C196.131,-103.198 193.604,-97.0673 190,-92 184.266,-83.939 175.213,-77.5146 167.498,-73.0685"/>
<polygon fill="#9a32cd" stroke="#9a32cd" points="194.499,-110.015 200.22,-118.932 201.309,-108.394 194.499,-110.015"/>
<text text-anchor="middle" x="213.9" y="-93.6" font-family="Helvetica,sans-Serif" font-size="8.00"> metaInfo_</text>
</g>
<!-- Node12 -->
<g id="node6" class="node"><title>Node12</title>
<g id="a_node6"><a xlink:title="STL class.">
<polygon fill="white" stroke="#bfbfbf" points="176.66,-205 176.66,-221 227.34,-221 227.34,-205 176.66,-205"/>
<text text-anchor="middle" x="202" y="-210.6" font-family="Helvetica,sans-Serif" font-size="8.00">std::string</text>
</a>
</g>
</g>
<!-- Node12&#45;&gt;Node11 -->
<g id="edge6" class="edge"><title>Node12&#45;&gt;Node11</title>
<path fill="none" stroke="#9a32cd" stroke-dasharray="5,2" d="M202,-194.922C202,-181.748 202,-163.699 202,-151.061"/>
<polygon fill="#9a32cd" stroke="#9a32cd" points="198.5,-194.986 202,-204.986 205.5,-194.986 198.5,-194.986"/>
<text text-anchor="middle" x="218.23" y="-179.6" font-family="Helvetica,sans-Serif" font-size="8.00"> keys</text>
<text text-anchor="middle" x="218.23" y="-171.6" font-family="Helvetica,sans-Serif" font-size="8.00">elements</text>
</g>
<!-- Node13 -->
<g id="node7" class="node"><title>Node13</title>
<g id="a_node7"><a xlink:title="STL class.">
<polygon fill="white" stroke="#bfbfbf" points="162.762,-261 162.762,-285 241.238,-285 241.238,-261 162.762,-261"/>
<text text-anchor="start" x="170.762" y="-274.6" font-family="Helvetica,sans-Serif" font-size="8.00">std::basic_string&lt;</text>
<text text-anchor="middle" x="202" y="-266.6" font-family="Helvetica,sans-Serif" font-size="8.00"> char &gt;</text>
</a>
</g>
</g>
<!-- Node13&#45;&gt;Node12 -->
<g id="edge7" class="edge"><title>Node13&#45;&gt;Node12</title>
<path fill="none" stroke="midnightblue" d="M202,-250.738C202,-240.329 202,-228.485 202,-221.126"/>
<polygon fill="midnightblue" stroke="midnightblue" points="198.5,-250.817 202,-260.817 205.5,-250.817 198.5,-250.817"/>
</g>
<!-- Node14 -->
<g id="node8" class="node"><title>Node14</title>
<g id="a_node8"><a xlink:title=" ">
<polygon fill="white" stroke="#bfbfbf" points="263.537,-127 263.537,-143 364.463,-143 364.463,-127 263.537,-127"/>
<text text-anchor="middle" x="314" y="-132.6" font-family="Helvetica,sans-Serif" font-size="8.00">std::vector&lt; scg::Core &gt;</text>
</a>
</g>
</g>
<!-- Node14&#45;&gt;Node10 -->
<g id="edge8" class="edge"><title>Node14&#45;&gt;Node10</title>
<path fill="none" stroke="#9a32cd" stroke-dasharray="5,2" d="M293.757,-121.716C278.312,-112.689 256.306,-100.555 236,-92 217.492,-84.2022 195.813,-77.4891 179.252,-72.8383"/>
<polygon fill="#9a32cd" stroke="#9a32cd" points="292.066,-124.782 302.452,-126.876 295.638,-118.763 292.066,-124.782"/>
<text text-anchor="middle" x="265.117" y="-93.6" font-family="Helvetica,sans-Serif" font-size="8.00"> cores_</text>
</g>
<!-- Node15 -->
<g id="node9" class="node"><title>Node15</title>
<g id="a_node9"><a xlink:href="../../d0/d79/classscg_1_1_core.html" target="_top" xlink:title="Base class for all cores (abstract).">
<polygon fill="white" stroke="black" points="288.883,-205 288.883,-221 339.117,-221 339.117,-205 288.883,-205"/>
<text text-anchor="middle" x="314" y="-210.6" font-family="Helvetica,sans-Serif" font-size="8.00">scg::Core</text>
</a>
</g>
</g>
<!-- Node15&#45;&gt;Node14 -->
<g id="edge9" class="edge"><title>Node15&#45;&gt;Node14</title>
<path fill="none" stroke="#9a32cd" stroke-dasharray="5,2" d="M314,-194.715C314,-178.469 314,-154.948 314,-143.218"/>
<polygon fill="#9a32cd" stroke="#9a32cd" points="310.5,-194.986 314,-204.986 317.5,-194.986 310.5,-194.986"/>
<text text-anchor="middle" x="331.342" y="-175.6" font-family="Helvetica,sans-Serif" font-size="8.00"> elements</text>
</g>
</g>
</svg>
