<?xml version="1.0" encoding="UTF-8" standalone="no"?>
<!DOCTYPE svg PUBLIC "-//W3C//DTD SVG 1.1//EN"
 "http://www.w3.org/Graphics/SVG/1.1/DTD/svg11.dtd">
<!-- Generated by graphviz version 2.36.0 (20140111.2315)
 -->
<!-- Title: scg::PerspectiveCamera Pages: 1 -->
<svg width="381pt" height="350pt"
 viewBox="0.00 0.00 381.00 350.00" xmlns="http://www.w3.org/2000/svg" xmlns:xlink="http://www.w3.org/1999/xlink">
<g id="graph0" class="graph" transform="scale(1 1) rotate(0) translate(4 346)">
<title>scg::PerspectiveCamera</title>
<polygon fill="white" stroke="none" points="-4,4 -4,-346 377,-346 377,4 -4,4"/>
<!-- Node1 -->
<g id="node1" class="node"><title>Node1</title>
<polygon fill="#bfbfbf" stroke="black" points="-0.572266,-1 -0.572266,-17 102.572,-17 102.572,-1 -0.572266,-1"/>
<text text-anchor="middle" x="51" y="-6.6" font-family="Helvetica,sans-Serif" font-size="8.00">scg::PerspectiveCamera</text>
</g>
<!-- Node2 -->
<g id="node2" class="node"><title>Node2</title>
<g id="a_node2"><a xlink:href="../../d4/dc9/classscg_1_1_camera.html" target="_top" xlink:title="Base class for all cameras (composite node, abstract). ">
<polygon fill="white" stroke="black" points="20.3262,-57 20.3262,-73 81.6738,-73 81.6738,-57 20.3262,-57"/>
<text text-anchor="middle" x="51" y="-62.6" font-family="Helvetica,sans-Serif" font-size="8.00">scg::Camera</text>
</a>
</g>
</g>
<!-- Node2&#45;&gt;Node1 -->
<g id="edge1" class="edge"><title>Node2&#45;&gt;Node1</title>
<path fill="none" stroke="midnightblue" d="M51,-46.894C51,-36.8897 51,-24.7822 51,-17.2336"/>
<polygon fill="midnightblue" stroke="midnightblue" points="47.5001,-46.9404 51,-56.9404 54.5001,-46.9405 47.5001,-46.9404"/>
</g>
<!-- Node3 -->
<g id="node3" class="node"><title>Node3</title>
<g id="a_node3"><a xlink:href="../../d0/d99/classscg_1_1_transformation.html" target="_top" xlink:title="A transformation node to be used to appy a transformation to the sub&#45;tree (composite node)...">
<polygon fill="white" stroke="black" points="7.80078,-113 7.80078,-129 94.1992,-129 94.1992,-113 7.80078,-113"/>
<text text-anchor="middle" x="51" y="-118.6" font-family="Helvetica,sans-Serif" font-size="8.00">scg::Transformation</text>
</a>
</g>
</g>
<!-- Node3&#45;&gt;Node2 -->
<g id="edge2" class="edge"><title>Node3&#45;&gt;Node2</title>
<path fill="none" stroke="midnightblue" d="M51,-102.894C51,-92.8897 51,-80.7822 51,-73.2336"/>
<polygon fill="midnightblue" stroke="midnightblue" points="47.5001,-102.94 51,-112.94 54.5001,-102.94 47.5001,-102.94"/>
</g>
<!-- Node4 -->
<g id="node4" class="node"><title>Node4</title>
<g id="a_node4"><a xlink:href="../../da/d38/classscg_1_1_composite.html" target="_top" xlink:title="Base class for all composite nodes, i.e., nodes with children (composite pattern, abstract)...">
<polygon fill="white" stroke="black" points="58.4336,-183 58.4336,-199 129.566,-199 129.566,-183 58.4336,-183"/>
<text text-anchor="middle" x="94" y="-188.6" font-family="Helvetica,sans-Serif" font-size="8.00">scg::Composite</text>
</a>
</g>
</g>
<!-- Node4&#45;&gt;Node3 -->
<g id="edge3" class="edge"><title>Node4&#45;&gt;Node3</title>
<path fill="none" stroke="midnightblue" d="M79.8396,-175.468C74.7243,-169.717 69.1849,-162.85 65,-156 59.6753,-147.284 55.5377,-136.182 53.1833,-129.081"/>
<polygon fill="midnightblue" stroke="midnightblue" points="77.446,-178.034 86.8237,-182.964 82.5675,-173.262 77.446,-178.034"/>
</g>
<!-- Node5 -->
<g id="node5" class="node"><title>Node5</title>
<g id="a_node5"><a xlink:href="../../d4/dc7/classscg_1_1_node.html" target="_top" xlink:title="Base class for all nodes (composite pattern, abstract). ">
<polygon fill="white" stroke="black" points="134.99,-113 134.99,-129 187.01,-129 187.01,-113 134.99,-113"/>
<text text-anchor="middle" x="161" y="-118.6" font-family="Helvetica,sans-Serif" font-size="8.00">scg::Node</text>
</a>
</g>
</g>
<!-- Node4&#45;&gt;Node5 -->
<g id="edge11" class="edge"><title>Node4&#45;&gt;Node5</title>
<path fill="none" stroke="#9a32cd" stroke-dasharray="5,2" d="M90.0905,-172.76C89.2185,-164.587 89.7303,-155.086 94.6445,-148 103.74,-134.884 120.518,-128.385 134.927,-125.164"/>
<polygon fill="#9a32cd" stroke="#9a32cd" points="86.6657,-173.493 91.8539,-182.731 93.5587,-172.274 86.6657,-173.493"/>
<text text-anchor="middle" x="109.678" y="-149.6" font-family="Helvetica,sans-Serif" font-size="8.00"> parent_</text>
</g>
<!-- Node5&#45;&gt;Node4 -->
<g id="edge4" class="edge"><title>Node5&#45;&gt;Node4</title>
<path fill="none" stroke="midnightblue" d="M146.635,-136.579C132.542,-150.883 111.65,-172.086 100.918,-182.979"/>
<polygon fill="midnightblue" stroke="midnightblue" points="149.494,-138.665 154.019,-129.085 144.508,-133.752 149.494,-138.665"/>
</g>
<!-- Node5&#45;&gt;Node4 -->
<g id="edge12" class="edge"><title>Node5&#45;&gt;Node4</title>
<path fill="none" stroke="#9a32cd" stroke-dasharray="5,2" d="M152.185,-138.099C148.524,-144.058 143.968,-150.656 139,-156 128.999,-166.756 115.268,-176.581 105.612,-182.872"/>
<polygon fill="#9a32cd" stroke="#9a32cd" points="155.461,-139.425 157.417,-129.012 149.394,-135.932 155.461,-139.425"/>
<text text-anchor="middle" x="163.787" y="-149.6" font-family="Helvetica,sans-Serif" font-size="8.00"> leftChild_</text>
</g>
<!-- Node5&#45;&gt;Node5 -->
<g id="edge5" class="edge"><title>Node5&#45;&gt;Node5</title>
<path fill="none" stroke="#9a32cd" stroke-dasharray="5,2" d="M197.475,-125.562C202.016,-124.753 205,-123.233 205,-121 205,-117.336 196.963,-115.59 187.199,-115.762"/>
<polygon fill="#9a32cd" stroke="#9a32cd" points="196.948,-122.089 187.199,-126.238 197.408,-129.074 196.948,-122.089"/>
<text text-anchor="middle" x="228.125" y="-118.6" font-family="Helvetica,sans-Serif" font-size="8.00"> rightSibling_</text>
</g>
<!-- Node6 -->
<g id="node6" class="node"><title>Node6</title>
<polygon fill="white" stroke="#bfbfbf" points="166.199,-175 166.199,-207 253.801,-207 253.801,-175 166.199,-175"/>
<text text-anchor="start" x="174.199" y="-196.6" font-family="Helvetica,sans-Serif" font-size="8.00">std::unordered_map</text>
<text text-anchor="start" x="174.199" y="-188.6" font-family="Helvetica,sans-Serif" font-size="8.00">&lt; std::string, std::</text>
<text text-anchor="middle" x="210" y="-180.6" font-family="Helvetica,sans-Serif" font-size="8.00">string &gt;</text>
</g>
<!-- Node6&#45;&gt;Node5 -->
<g id="edge6" class="edge"><title>Node6&#45;&gt;Node5</title>
<path fill="none" stroke="#9a32cd" stroke-dasharray="5,2" d="M205.9,-165.19C204.131,-159.198 201.604,-153.067 198,-148 192.266,-139.939 183.213,-133.515 175.498,-129.069"/>
<polygon fill="#9a32cd" stroke="#9a32cd" points="202.499,-166.015 208.22,-174.932 209.309,-164.394 202.499,-166.015"/>
<text text-anchor="middle" x="221.9" y="-149.6" font-family="Helvetica,sans-Serif" font-size="8.00"> metaInfo_</text>
</g>
<!-- Node7 -->
<g id="node7" class="node"><title>Node7</title>
<g id="a_node7"><a xlink:title="STL class. ">
<polygon fill="white" stroke="#bfbfbf" points="184.66,-261 184.66,-277 235.34,-277 235.34,-261 184.66,-261"/>
<text text-anchor="middle" x="210" y="-266.6" font-family="Helvetica,sans-Serif" font-size="8.00">std::string</text>
</a>
</g>
</g>
<!-- Node7&#45;&gt;Node6 -->
<g id="edge7" class="edge"><title>Node7&#45;&gt;Node6</title>
<path fill="none" stroke="#9a32cd" stroke-dasharray="5,2" d="M210,-250.922C210,-237.748 210,-219.699 210,-207.061"/>
<polygon fill="#9a32cd" stroke="#9a32cd" points="206.5,-250.986 210,-260.986 213.5,-250.986 206.5,-250.986"/>
<text text-anchor="middle" x="226.23" y="-235.6" font-family="Helvetica,sans-Serif" font-size="8.00"> keys</text>
<text text-anchor="middle" x="226.23" y="-227.6" font-family="Helvetica,sans-Serif" font-size="8.00">elements</text>
</g>
<!-- Node8 -->
<g id="node8" class="node"><title>Node8</title>
<g id="a_node8"><a xlink:title="STL class. ">
<polygon fill="white" stroke="#bfbfbf" points="170.762,-317 170.762,-341 249.238,-341 249.238,-317 170.762,-317"/>
<text text-anchor="start" x="178.762" y="-330.6" font-family="Helvetica,sans-Serif" font-size="8.00">std::basic_string&lt;</text>
<text text-anchor="middle" x="210" y="-322.6" font-family="Helvetica,sans-Serif" font-size="8.00"> char &gt;</text>
</a>
</g>
</g>
<!-- Node8&#45;&gt;Node7 -->
<g id="edge8" class="edge"><title>Node8&#45;&gt;Node7</title>
<path fill="none" stroke="midnightblue" d="M210,-306.738C210,-296.329 210,-284.485 210,-277.126"/>
<polygon fill="midnightblue" stroke="midnightblue" points="206.5,-306.817 210,-316.817 213.5,-306.817 206.5,-306.817"/>
</g>
<!-- Node9 -->
<g id="node9" class="node"><title>Node9</title>
<polygon fill="white" stroke="#bfbfbf" points="271.537,-183 271.537,-199 372.463,-199 372.463,-183 271.537,-183"/>
<text text-anchor="middle" x="322" y="-188.6" font-family="Helvetica,sans-Serif" font-size="8.00">std::vector&lt; scg::Core &gt;</text>
</g>
<!-- Node9&#45;&gt;Node5 -->
<g id="edge9" class="edge"><title>Node9&#45;&gt;Node5</title>
<path fill="none" stroke="#9a32cd" stroke-dasharray="5,2" d="M301.757,-177.716C286.312,-168.689 264.306,-156.555 244,-148 225.492,-140.202 203.813,-133.489 187.252,-128.838"/>
<polygon fill="#9a32cd" stroke="#9a32cd" points="300.066,-180.782 310.452,-182.876 303.638,-174.763 300.066,-180.782"/>
<text text-anchor="middle" x="273.117" y="-149.6" font-family="Helvetica,sans-Serif" font-size="8.00"> cores_</text>
</g>
<!-- Node10 -->
<g id="node10" class="node"><title>Node10</title>
<g id="a_node10"><a xlink:href="../../d0/d79/classscg_1_1_core.html" target="_top" xlink:title="Base class for all cores (abstract). ">
<polygon fill="white" stroke="black" points="296.883,-261 296.883,-277 347.117,-277 347.117,-261 296.883,-261"/>
<text text-anchor="middle" x="322" y="-266.6" font-family="Helvetica,sans-Serif" font-size="8.00">scg::Core</text>
</a>
</g>
</g>
<!-- Node10&#45;&gt;Node9 -->
<g id="edge10" class="edge"><title>Node10&#45;&gt;Node9</title>
<path fill="none" stroke="#9a32cd" stroke-dasharray="5,2" d="M322,-250.715C322,-234.469 322,-210.948 322,-199.218"/>
<polygon fill="#9a32cd" stroke="#9a32cd" points="318.5,-250.986 322,-260.986 325.5,-250.986 318.5,-250.986"/>
<text text-anchor="middle" x="339.342" y="-231.6" font-family="Helvetica,sans-Serif" font-size="8.00"> elements</text>
</g>
</g>
</svg>
