<?xml version="1.0" encoding="UTF-8" standalone="no"?>
<!DOCTYPE svg PUBLIC "-//W3C//DTD SVG 1.1//EN"
 "http://www.w3.org/Graphics/SVG/1.1/DTD/svg11.dtd">
<!-- Generated by graphviz version 2.36.0 (20140111.2315)
 -->
<!-- Title: scg::GeometryCore Pages: 1 -->
<svg width="166pt" height="88pt"
 viewBox="0.00 0.00 166.00 88.00" xmlns="http://www.w3.org/2000/svg" xmlns:xlink="http://www.w3.org/1999/xlink">
<g id="graph0" class="graph" transform="scale(1 1) rotate(0) translate(4 84)">
<title>scg::GeometryCore</title>
<polygon fill="white" stroke="none" points="-4,4 -4,-84 162,-84 162,4 -4,4"/>
<!-- Node2 -->
<g id="node1" class="node"><title>Node2</title>
<g id="a_node1"><a xlink:title="A core that contains geometry information to be rendered.">
<polygon fill="#bfbfbf" stroke="black" points="26.3223,-1 26.3223,-17 111.678,-17 111.678,-1 26.3223,-1"/>
<text text-anchor="middle" x="69" y="-6.6" font-family="Helvetica,sans-Serif" font-size="8.00">scg::GeometryCore</text>
</a>
</g>
</g>
<!-- Node3 -->
<g id="node2" class="node"><title>Node3</title>
<g id="a_node2"><a xlink:href="../../d0/d79/classscg_1_1_core.html" target="_top" xlink:title="Base class for all cores (abstract).">
<polygon fill="white" stroke="black" points="-0.117188,-63 -0.117188,-79 50.1172,-79 50.1172,-63 -0.117188,-63"/>
<text text-anchor="middle" x="25" y="-68.6" font-family="Helvetica,sans-Serif" font-size="8.00">scg::Core</text>
</a>
</g>
</g>
<!-- Node3&#45;&gt;Node2 -->
<g id="edge1" class="edge"><title>Node3&#45;&gt;Node2</title>
<path fill="none" stroke="midnightblue" d="M36.4494,-54.3871C45.3044,-42.3121 57.1473,-26.1627 63.8341,-17.0444"/>
<polygon fill="midnightblue" stroke="midnightblue" points="33.4865,-52.509 30.3953,-62.6428 39.1314,-56.6485 33.4865,-52.509"/>
</g>
<!-- Node4 -->
<g id="node3" class="node"><title>Node4</title>
<g id="a_node3"><a xlink:title=" ">
<polygon fill="white" stroke="#bfbfbf" points="67.8691,-63 67.8691,-79 158.131,-79 158.131,-63 67.8691,-63"/>
<text text-anchor="middle" x="113" y="-68.6" font-family="Helvetica,sans-Serif" font-size="8.00">std::vector&lt; GLuint &gt;</text>
</a>
</g>
</g>
<!-- Node4&#45;&gt;Node2 -->
<g id="edge2" class="edge"><title>Node4&#45;&gt;Node2</title>
<path fill="none" stroke="#9a32cd" stroke-dasharray="5,2" d="M101.551,-54.3871C92.6956,-42.3121 80.8527,-26.1627 74.1659,-17.0444"/>
<polygon fill="#9a32cd" stroke="#9a32cd" points="98.8686,-56.6485 107.605,-62.6428 104.513,-52.509 98.8686,-56.6485"/>
<text text-anchor="middle" x="119.682" y="-37.6" font-family="Helvetica,sans-Serif" font-size="8.00"> vboAttributes_</text>
</g>
</g>
</svg>
