<?xml version="1.0" encoding="UTF-8" standalone="no"?>
<!DOCTYPE svg PUBLIC "-//W3C//DTD SVG 1.1//EN"
 "http://www.w3.org/Graphics/SVG/1.1/DTD/svg11.dtd">
<!-- Generated by graphviz version 2.36.0 (20140111.2315)
 -->
<!-- Title: scg::StereoRendererPassive Pages: 1 -->
<svg width="124pt" height="134pt"
 viewBox="0.00 0.00 124.00 134.00" xmlns="http://www.w3.org/2000/svg" xmlns:xlink="http://www.w3.org/1999/xlink">
<g id="graph0" class="graph" transform="scale(1 1) rotate(0) translate(4 130)">
<title>scg::StereoRendererPassive</title>
<polygon fill="white" stroke="none" points="-4,4 -4,-130 120,-130 120,4 -4,4"/>
<!-- Node0 -->
<g id="node1" class="node"><title>Node0</title>
<g id="a_node1"><a xlink:title="A renderer for passive stereo (e.g., polarized projection).">
<polygon fill="#bfbfbf" stroke="black" points="-0.914062,-1 -0.914062,-17 116.914,-17 116.914,-1 -0.914062,-1"/>
<text text-anchor="middle" x="58" y="-6.6" font-family="Helvetica,sans-Serif" font-size="8.00">scg::StereoRendererPassive</text>
</a>
</g>
</g>
<!-- Node1 -->
<g id="node2" class="node"><title>Node1</title>
<g id="a_node2"><a xlink:href="../../d7/d2b/classscg_1_1_stereo_renderer.html" target="_top" xlink:title="Base class for all stereo renderers (abstract).">
<polygon fill="white" stroke="black" points="13.0918,-55 13.0918,-71 102.908,-71 102.908,-55 13.0918,-55"/>
<text text-anchor="middle" x="58" y="-60.6" font-family="Helvetica,sans-Serif" font-size="8.00">scg::StereoRenderer</text>
</a>
</g>
</g>
<!-- Node1&#45;&gt;Node0 -->
<g id="edge1" class="edge"><title>Node1&#45;&gt;Node0</title>
<path fill="none" stroke="midnightblue" d="M58,-44.5708C58,-35.2222 58,-24.2089 58,-17.169"/>
<polygon fill="midnightblue" stroke="midnightblue" points="54.5001,-44.7696 58,-54.7696 61.5001,-44.7697 54.5001,-44.7696"/>
</g>
<!-- Node2 -->
<g id="node3" class="node"><title>Node2</title>
<g id="a_node3"><a xlink:href="../../d8/dcf/classscg_1_1_renderer.html" target="_top" xlink:title="Base class for all renderers (abstract).">
<polygon fill="white" stroke="black" points="24.877,-109 24.877,-125 91.123,-125 91.123,-109 24.877,-109"/>
<text text-anchor="middle" x="58" y="-114.6" font-family="Helvetica,sans-Serif" font-size="8.00">scg::Renderer</text>
</a>
</g>
</g>
<!-- Node2&#45;&gt;Node1 -->
<g id="edge2" class="edge"><title>Node2&#45;&gt;Node1</title>
<path fill="none" stroke="midnightblue" d="M58,-98.5708C58,-89.2222 58,-78.2089 58,-71.169"/>
<polygon fill="midnightblue" stroke="midnightblue" points="54.5001,-98.7696 58,-108.77 61.5001,-98.7697 54.5001,-98.7696"/>
</g>
</g>
</svg>
