<?xml version="1.0" encoding="UTF-8" standalone="no"?>
<!DOCTYPE svg PUBLIC "-//W3C//DTD SVG 1.1//EN"
 "http://www.w3.org/Graphics/SVG/1.1/DTD/svg11.dtd">
<!-- Generated by graphviz version 2.36.0 (20140111.2315)
 -->
<!-- Title: scg::StereoRendererAnaglyph Pages: 1 -->
<svg width="130pt" height="134pt"
 viewBox="0.00 0.00 130.00 134.00" xmlns="http://www.w3.org/2000/svg" xmlns:xlink="http://www.w3.org/1999/xlink">
<g id="graph0" class="graph" transform="scale(1 1) rotate(0) translate(4 130)">
<title>scg::StereoRendererAnaglyph</title>
<polygon fill="white" stroke="none" points="-4,4 -4,-130 126,-130 126,4 -4,4"/>
<!-- Node1 -->
<g id="node1" class="node"><title>Node1</title>
<polygon fill="#bfbfbf" stroke="black" points="-0.587891,-1 -0.587891,-17 122.588,-17 122.588,-1 -0.587891,-1"/>
<text text-anchor="middle" x="61" y="-6.6" font-family="Helvetica,sans-Serif" font-size="8.00">scg::StereoRendererAnaglyph</text>
</g>
<!-- Node2 -->
<g id="node2" class="node"><title>Node2</title>
<g id="a_node2"><a xlink:href="../../d7/d2b/classscg_1_1_stereo_renderer.html" target="_top" xlink:title="Base class for all stereo renderers (abstract). ">
<polygon fill="white" stroke="black" points="16.0918,-55 16.0918,-71 105.908,-71 105.908,-55 16.0918,-55"/>
<text text-anchor="middle" x="61" y="-60.6" font-family="Helvetica,sans-Serif" font-size="8.00">scg::StereoRenderer</text>
</a>
</g>
</g>
<!-- Node2&#45;&gt;Node1 -->
<g id="edge1" class="edge"><title>Node2&#45;&gt;Node1</title>
<path fill="none" stroke="midnightblue" d="M61,-44.5708C61,-35.2222 61,-24.2089 61,-17.169"/>
<polygon fill="midnightblue" stroke="midnightblue" points="57.5001,-44.7696 61,-54.7696 64.5001,-44.7697 57.5001,-44.7696"/>
</g>
<!-- Node3 -->
<g id="node3" class="node"><title>Node3</title>
<g id="a_node3"><a xlink:href="../../d8/dcf/classscg_1_1_renderer.html" target="_top" xlink:title="Base class for all renderers (abstract). ">
<polygon fill="white" stroke="black" points="27.877,-109 27.877,-125 94.123,-125 94.123,-109 27.877,-109"/>
<text text-anchor="middle" x="61" y="-114.6" font-family="Helvetica,sans-Serif" font-size="8.00">scg::Renderer</text>
</a>
</g>
</g>
<!-- Node3&#45;&gt;Node2 -->
<g id="edge2" class="edge"><title>Node3&#45;&gt;Node2</title>
<path fill="none" stroke="midnightblue" d="M61,-98.5708C61,-89.2222 61,-78.2089 61,-71.169"/>
<polygon fill="midnightblue" stroke="midnightblue" points="57.5001,-98.7696 61,-108.77 64.5001,-98.7697 57.5001,-98.7696"/>
</g>
</g>
</svg>
