<?xml version="1.0" encoding="UTF-8" standalone="no"?>
<!DOCTYPE svg PUBLIC "-//W3C//DTD SVG 1.1//EN"
 "http://www.w3.org/Graphics/SVG/1.1/DTD/svg11.dtd">
<!-- Generated by graphviz version 2.36.0 (20140111.2315)
 -->
<!-- Title: src/Traverser.h Pages: 1 -->
<svg width="340pt" height="134pt"
 viewBox="0.00 0.00 340.00 134.00" xmlns="http://www.w3.org/2000/svg" xmlns:xlink="http://www.w3.org/1999/xlink">
<g id="graph0" class="graph" transform="scale(1 1) rotate(0) translate(4 130)">
<title>src/Traverser.h</title>
<polygon fill="white" stroke="none" points="-4,4 -4,-130 336,-130 336,4 -4,4"/>
<!-- Node1 -->
<g id="node1" class="node"><title>Node1</title>
<polygon fill="#bfbfbf" stroke="black" points="109.473,-109 109.473,-125 178.527,-125 178.527,-109 109.473,-109"/>
<text text-anchor="middle" x="144" y="-114.6" font-family="Helvetica,sans-Serif" font-size="8.00">src/Traverser.h</text>
</g>
<!-- Node2 -->
<g id="node2" class="node"><title>Node2</title>
<g id="a_node2"><a xlink:href="../../d9/d3a/_info_traverser_8h.html" target="_top" xlink:title="A traverser that gathers information about the scene graph (visitor pattern). ">
<polygon fill="white" stroke="black" points="-0.199219,-55 -0.199219,-71 82.1992,-71 82.1992,-55 -0.199219,-55"/>
<text text-anchor="middle" x="41" y="-60.6" font-family="Helvetica,sans-Serif" font-size="8.00">src/InfoTraverser.h</text>
</a>
</g>
</g>
<!-- Node1&#45;&gt;Node2 -->
<g id="edge1" class="edge"><title>Node1&#45;&gt;Node2</title>
<path fill="none" stroke="midnightblue" d="M120.951,-104.364C100.717,-94.1486 71.9446,-79.6225 54.9999,-71.0679"/>
<polygon fill="midnightblue" stroke="midnightblue" points="119.605,-107.605 130.109,-108.987 122.759,-101.356 119.605,-107.605"/>
</g>
<!-- Node3 -->
<g id="node3" class="node"><title>Node3</title>
<g id="a_node3"><a xlink:href="../../d4/d61/scg3_8h.html" target="_top" xlink:title="Main header file for scg3 scene graph library, including all class headers. ">
<polygon fill="white" stroke="black" points="124.215,-1 124.215,-17 163.785,-17 163.785,-1 124.215,-1"/>
<text text-anchor="middle" x="144" y="-6.6" font-family="Helvetica,sans-Serif" font-size="8.00">scg3.h</text>
</a>
</g>
</g>
<!-- Node1&#45;&gt;Node3 -->
<g id="edge7" class="edge"><title>Node1&#45;&gt;Node3</title>
<path fill="none" stroke="midnightblue" d="M136.887,-99.3711C133.8,-91.2746 130.542,-81.3005 129,-72 125.668,-51.8974 134.875,-28.663 140.317,-17.1838"/>
<polygon fill="midnightblue" stroke="midnightblue" points="133.678,-100.773 140.687,-108.719 140.163,-98.1367 133.678,-100.773"/>
</g>
<!-- Node4 -->
<g id="node4" class="node"><title>Node4</title>
<g id="a_node4"><a xlink:href="../../d3/d12/_pre_traverser_8h.html" target="_top" xlink:title="A traverser that searches Camera and LightPosition nodes in the scene graph (visitor pattern)...">
<polygon fill="white" stroke="black" points="138.248,-55 138.248,-71 219.752,-71 219.752,-55 138.248,-55"/>
<text text-anchor="middle" x="179" y="-60.6" font-family="Helvetica,sans-Serif" font-size="8.00">src/PreTraverser.h</text>
</a>
</g>
</g>
<!-- Node1&#45;&gt;Node4 -->
<g id="edge3" class="edge"><title>Node1&#45;&gt;Node4</title>
<path fill="none" stroke="midnightblue" d="M154.502,-100.397C161.034,-90.6918 169.124,-78.6731 174.175,-71.169"/>
<polygon fill="midnightblue" stroke="midnightblue" points="151.547,-98.5194 148.867,-108.77 157.354,-102.428 151.547,-98.5194"/>
</g>
<!-- Node5 -->
<g id="node5" class="node"><title>Node5</title>
<g id="a_node5"><a xlink:href="../../df/d28/_render_traverser_8h.html" target="_top" xlink:title="A traverser that renders the scene graph (visitor pattern). ">
<polygon fill="white" stroke="black" points="237.354,-55 237.354,-71 332.646,-71 332.646,-55 237.354,-55"/>
<text text-anchor="middle" x="285" y="-60.6" font-family="Helvetica,sans-Serif" font-size="8.00">src/RenderTraverser.h</text>
</a>
</g>
</g>
<!-- Node1&#45;&gt;Node5 -->
<g id="edge5" class="edge"><title>Node1&#45;&gt;Node5</title>
<path fill="none" stroke="midnightblue" d="M172.578,-105.46C200.365,-95.2129 241.796,-79.9336 265.835,-71.0679"/>
<polygon fill="midnightblue" stroke="midnightblue" points="171.187,-102.243 163.016,-108.987 173.609,-108.811 171.187,-102.243"/>
</g>
<!-- Node2&#45;&gt;Node3 -->
<g id="edge2" class="edge"><title>Node2&#45;&gt;Node3</title>
<path fill="none" stroke="midnightblue" d="M64.0488,-50.3637C84.2826,-40.1486 113.055,-25.6225 130,-17.0679"/>
<polygon fill="midnightblue" stroke="midnightblue" points="62.2405,-47.3558 54.891,-54.987 65.3953,-53.6046 62.2405,-47.3558"/>
</g>
<!-- Node4&#45;&gt;Node3 -->
<g id="edge4" class="edge"><title>Node4&#45;&gt;Node3</title>
<path fill="none" stroke="midnightblue" d="M168.498,-46.3967C161.966,-36.6918 153.876,-24.6731 148.825,-17.169"/>
<polygon fill="midnightblue" stroke="midnightblue" points="165.646,-48.4281 174.133,-54.7696 171.453,-44.5194 165.646,-48.4281"/>
</g>
<!-- Node5&#45;&gt;Node3 -->
<g id="edge6" class="edge"><title>Node5&#45;&gt;Node3</title>
<path fill="none" stroke="midnightblue" d="M256.422,-51.4605C228.635,-41.2129 187.204,-25.9336 163.165,-17.0679"/>
<polygon fill="midnightblue" stroke="midnightblue" points="255.391,-54.8107 265.984,-54.987 257.813,-48.243 255.391,-54.8107"/>
</g>
</g>
</svg>
