<?xml version="1.0" encoding="UTF-8" standalone="no"?>
<!DOCTYPE svg PUBLIC "-//W3C//DTD SVG 1.1//EN"
 "http://www.w3.org/Graphics/SVG/1.1/DTD/svg11.dtd">
<!-- Generated by graphviz version 2.36.0 (20140111.2315)
 -->
<!-- Title: scg::MouseController Pages: 1 -->
<svg width="104pt" height="134pt"
 viewBox="0.00 0.00 104.00 134.00" xmlns="http://www.w3.org/2000/svg" xmlns:xlink="http://www.w3.org/1999/xlink">
<g id="graph0" class="graph" transform="scale(1 1) rotate(0) translate(4 130)">
<title>scg::MouseController</title>
<polygon fill="white" stroke="none" points="-4,4 -4,-130 100,-130 100,4 -4,4"/>
<!-- Node1 -->
<g id="node1" class="node"><title>Node1</title>
<polygon fill="#bfbfbf" stroke="black" points="2.20703,-1 2.20703,-17 93.793,-17 93.793,-1 2.20703,-1"/>
<text text-anchor="middle" x="48" y="-6.6" font-family="Helvetica,sans-Serif" font-size="8.00">scg::MouseController</text>
</g>
<!-- Node2 -->
<g id="node2" class="node"><title>Node2</title>
<g id="a_node2"><a xlink:href="../../de/d6a/classscg_1_1_camera_controller.html" target="_top" xlink:title="Base class for all camera controllers, acting on a Camera node (abstract). ">
<polygon fill="white" stroke="black" points="-0.0136719,-55 -0.0136719,-71 96.0137,-71 96.0137,-55 -0.0136719,-55"/>
<text text-anchor="middle" x="48" y="-60.6" font-family="Helvetica,sans-Serif" font-size="8.00">scg::CameraController</text>
</a>
</g>
</g>
<!-- Node2&#45;&gt;Node1 -->
<g id="edge1" class="edge"><title>Node2&#45;&gt;Node1</title>
<path fill="none" stroke="midnightblue" d="M48,-44.5708C48,-35.2222 48,-24.2089 48,-17.169"/>
<polygon fill="midnightblue" stroke="midnightblue" points="44.5001,-44.7696 48,-54.7696 51.5001,-44.7697 44.5001,-44.7696"/>
</g>
<!-- Node3 -->
<g id="node3" class="node"><title>Node3</title>
<g id="a_node3"><a xlink:href="../../de/de4/classscg_1_1_controller.html" target="_top" xlink:title="Base class for all controllers (abstract). ">
<polygon fill="white" stroke="black" points="14.2129,-109 14.2129,-125 81.7871,-125 81.7871,-109 14.2129,-109"/>
<text text-anchor="middle" x="48" y="-114.6" font-family="Helvetica,sans-Serif" font-size="8.00">scg::Controller</text>
</a>
</g>
</g>
<!-- Node3&#45;&gt;Node2 -->
<g id="edge2" class="edge"><title>Node3&#45;&gt;Node2</title>
<path fill="none" stroke="midnightblue" d="M48,-98.5708C48,-89.2222 48,-78.2089 48,-71.169"/>
<polygon fill="midnightblue" stroke="midnightblue" points="44.5001,-98.7696 48,-108.77 51.5001,-98.7697 44.5001,-98.7696"/>
</g>
</g>
</svg>
